<mxfile host="app.diagrams.net" modified="2024-03-26T16:43:31.500Z" agent="Mozilla/5.0 (X11; Linux x86_64; rv:109.0) Gecko/20100101 Firefox/115.0" etag="Al8z5Y4Ckdc1Tc9tPD_2" version="24.2.0" type="github">
  <diagram name="Page-1" id="ePF466YzwchXbknaJx9v">
    <mxGraphModel dx="1320" dy="1030" grid="1" gridSize="10" guides="1" tooltips="1" connect="1" arrows="1" fold="1" page="1" pageScale="1" pageWidth="1100" pageHeight="850" math="1" shadow="0">
      <root>
        <mxCell id="0" />
        <mxCell id="1" parent="0" />
        <mxCell id="anlM4kEG1VwZlz8mWikU-1" value="" style="shape=image;verticalLabelPosition=bottom;labelBackgroundColor=default;verticalAlign=top;aspect=fixed;imageAspect=0;image=data:image/png,iVBORw0KGgoAAAANSUhEUgAAAmAAAAOcCAYAAADpTA0GAAAABHNCSVQICAgIfAhkiAAAIABJREFUeF7svduSLMGRG0itjelh//9b90Evs3TOYAwC4ZfIyqrO6vY2o2X6DQ5HZEWEDinpf/3nP//+sX+rwCqwCqwCq8AqsAqsAh9T4P/5WKdttAqsAqvAKrAKrAKrwCrwLwX2ArYfwiqwCqwCq8AqsAqsAh9WYC9gHxZ8260Cq8AqsAqsAqvAKrAXsP0GVoFVYBVYBVaBVWAV+LACewH7sODbbhVYBVaBVWAVWAVWgb2A7TewCqwCq8AqsAqsAqvAhxXYC9iHBd92q8AqsAqsAqvAKrAK7AVsv4FVYBVYBVaBVWAVWAU+rMBewD4s+LZbBVaBVWAVWAVWgVVgL2D7DawCq8AqsAqsAqvAKvBhBfYC9mHBt90qsAqsAqvAKrAKrAJ7AdtvYBVYBVaBVWAVWAVWgQ8rsBewDwu+7VaBVWAVWAVWgVVgFdgL2H4Dq8AqsAqsAqvAKrAKfFiBvYB9WPBttwqsAqvAKrAKrAKrwF7A9htYBVaBVWAVWAVWgVXgwwrsBezDgm+7VWAVWAVWgVVgFVgF9gK238AqsAqsAqvAKrAKrAIfVmAvYB8WfNutAqvAKrAKrAKrwCrwHyvBKrAKrAKrwCqwCqwCVxT43//7/71Sdqnm//yf/+9S3VOL9gL21JVZXqvAKrAKrAKrwAcV+ORl6oNjPbbVXsAeuzRLbBVYBVaBVWAVeF2BvVi9ruE7EPYC9g5VF3MVWAVWgVVgFfiQAj9xweL/OvAn+n9I2re22QvYW+Vd8FVgFVgFVoFV4HUF3n3JwYVq2ofz3P82a4rzujLfi/C//vOff99Lf5mvAqvAKrAKrAK/R4G7Ly6nF6vT/Ex5dynj3CtzdpgZl6f69wL21JVZXqvAKrAKrAK/UoErl49MiLiUTPBOL1Z62Zn0yDg6P/PRXi7/N/r2AvYbV3VnWgVWgVVgFXiEAnddXKqL1snlSi87J/y0NhP4BDPDcP5pf1f7RN9ewJ64KstpFVgFVoFV4OsUePXiUV2yQowujpx4Trlkl5ppvVukDNPlRp+TfIfxrb69gH3ryi3vVWAVWAVWgR9T4JULSkUal5EMny8rWU7gZ5eaqoZ5ab27KE2xqnlPYsrppPaJuXsBe+KqLKdVYBVYBVaBRylw9bIRlwZXm/kxdHcRizy9kLg+KqLWcHxSz/kVlvbNbHexy3J/m38vYL9tRXeeVWAVWAVWgZcUOL2IoFl2qar8qM166iUnywsc9DmpYaG0jmN8Uao4vCR8U1zxa0ofGd4L2COXZUmtAqvAKrAKfEqBKxeK6lLl8HB5cLGYUy8X07yozXKhn2I7XTsMrpnguR7Oxxc7F//Nvr2A/ebV3dlWgVVgFVgF/k2Bk8tGFN952eouYiCrl5yKM+fqhaaqY2G0n4qmuIhP8RXvit1xvIL5kzV7AftJ9bf3KrAKrAKrwEcUOLkouAuX8wXx6kKlFyMd1F0oMp4uF3hZDfPT3s6ucFz+Kb7DyC52Lve3+fYC9ttWdOdZBVaBVWAVaP9rOZbIXa4yH+r0snJ62dJ64GYXrSw/6rS3w6jqu94Rv3JRmvTkdeje3VxdzZPjewF78uost1VgFVgFVoGRAtVhr5cptaPB1AcyuAy4vnpRcDnoycNleS5XRalqJ/WKF3aH6WrYpzq4/CsXO4fzjb69gH3jqi3nVWAVWAVWgZcuCNmFK2TVi8erly29iCg+llLzdImzusjj2u5SU+FwzxNM5Tq1O65TnG/M2wvYN67acl4FVoFV4A8qML04OGnuuHDpBcnx0Zzgonl8odN8zeVZNNfNWdUjf4KTYeulzOW9y3eV97v4vIq7F7BXFdz6VWAVWAVWgbcpkF0o4jDOYkHGxfniw4QrP/6FxvVyF4JX8sC7E9P1QA3mdtxewXW1V3ooDvRV/1+w9wL2F1Z5Z1wFVoFV4IsUqC4Y1Rh66aouVoGjffhCUcXAQXPC7y4lWV53+XB1WQ/WxeFmWFznuHe4HL/y7rhewfnGmr2AfeOqLedVYBVYBX6ZAtMLAufphSskyXwR0x7TC5fWQfrswqL50zxd0qxO89xsmnOCpbWw+bKkM2Y1d/rvmOFOPq9i7QXsVQW3fhVYBVaBVeCSApNDXC9Uzo7mejEDoYk/cvVwV24ad/jw3ZHrBFVOnMM9+aLkcDJfha812Yya19lXuXa43xD/j28guRxXgVVgFVgFfocCk0OeL1k4oFHHB3a8w681UEsvJs4fPuXl6jQn6qqLiOa7XJ4H3LQu4wx/98zwtM7x4xzHVTHWniuw/wI212ozV4FVYBVYBS4oML0AMDRfqMKvduUDjvZ1lyrkustHVa8yaC74aR7brmZSp5gZTjWbYkzs6gLWcZjgdzlujbqaJ8f3Avbk1Vluq8AqsAp8qQLuQHaXKIznYurDAczY00uV8nGHeZXDlw/NixkcHi9dVsO43VI7jKz3Ca72zfpoHtvd/FntKzwzzG/x738F+S0rtTxXgVVgFXi4At3BrXG+YPFBjDz1wZ9duoDXXdQgo+OjEnOO66/5YStu+KYXFFeLHlMMxynj5XKzPrwerm59Zwrsv4Cd6bXZq8AqsAqsAqJAdWmIVL5o8Tti8WSM7gLlchWDsUFXeVYXDdQwF5evmK4vsPT5Sq1iufk1x/HXnMq+8wLmZq96R+xV/h3+p+N7Afu04ttvFVgFVoFfoIA7QKuLlo589SIWOHwQ62WMLwnKMTvAr+YpF52Rbe2B2iuXGoelXK7gVvwjlvXt6ly8u9i6mt/m2wvYb1vRnWcVWAVWgTcpcHoA64UsaDEGH8KgXPmQ4zAmMZcTvunFrMoFdjydTlkP5GvcYaCH5nJvvJ9cwKpeij3prTWVfcKzwvnG2F7AvnHVlvMqsAqsAh9U4PSA1gtSZccY3aVL++slwOFzTlcPKbs8d1nQGp5nskSu/hTD9clwXa7q6XLC5+bPcqf+d2BOe/903l7AfnoFtv8qsAqsAg9UoDvA49BGDr/HKM4Ov+ZneZwLPJZIuekFootnWIrDecoJsa4m68X1r15CdN4r3HRWZ7/Ks9PC9WTfidYd1hPiewF7wiosh1VgFVgFHqJAdpgHPXdh4ktV5GQ26jmHfZW/i2lcccPGn85XHeqaW+Fyj3g/qZ1cbBweemYzTHCVd2VXHKo6FwPnuzm6Xk/17f8zFE9dmeW1CqwCq8CHFJgerDgskc82fLiksR1jhF35IkcvEsxLY8CERBpXrlmeSjzp6XopjuZoPLO5P+dcxcv6sD/rqbVY23dy0Z6/2d5/AfvNq7uzrQKrwCpQKFAdvDhso5zfMzv8esHqfMBiipMLEPLdRUBncjlZP8eHc3ke9nc9FCPDmfR3WJlPtcjyTvgH5kl+1pP978Cc9P3pnP0XsJ9ege2/CqwCq8CHFdCDWS9YQQeHYjz5gMzsqMHBzPgTn8uHJI6ryuXqmTPnT/AqfJ5T8yq765vxrTAzjbjm7svShM/mzBTYC9hMp81aBVaBVeCrFdALAA+jFxjY7Mc7LmtsB1bY6oM/nnoR4B5ZzNWBt3Lmefid8yq8aY3iub4uR2d0dZXPYSI/w65qql5XY6/0m9Rmc17l+9N1ewH76RXY/qvAKrAKvFGB6mDDZSra88UKBx3XunjUIYcPR63DeM4Pn4upLJMc5hT5k0ObcaGF9oYNHZxGnJPVd37lcgdm19PFMx6Rm8UmWme9rtY6vG/x7f8G7FtWanmuAqvAKnCggB6SuDgoBPs1x9lR7y5CzpflgkNWwxxPc6KWL0fuYHfaqC7O1jru5fI739142i/wdX7XU+uquRymqz/xvQPzpP9P5e6/gP2U8tt3FVgFVoGbFagOV47xxQqHXzz5IGQbtXjyoe58MVbmdzHkcgzS6AUCfq7Jclxu+Lp81Cmf7mLHdfrOfBFTHU94KT5s7aP2HT2y3us/U2AvYGd6bfYqsAqsAo9TQA9ZJhgHLl+G4j3+w5cJ2IhFPceBV/kih3noQV/FuFbreJYOw+XyrBzP3rlH5FR8phgTHKzTtJ/yBBetP50/m2n99yuw/xXk/Zou4iqwCqwCH1FAD2Ec4tqc/Zqjsah1Fx3ny3LRP6uZxjt8ndP16y4gTkPFdTZwtT5y9RLk6p1PuTps1E17KKbre+LL8CquJ/hV7nTmCuNJsb2APWk1lssqsAqsAgMF9LDTS1VAqK+6aOFgAy4fdOzjw9flRl/m5g7MLO6wMUcmidNBcxlX+XX4inVH/QQTOU4/V1/5dP4qFzHVdVLzCtcrHCecnp6z/xXk01do+a0Cq8Aq8N8KZAejXmrC5kONbbwH5PTixQuAXnrgZv6oVX7ZglYYqJliOc48c8ZB/dyP68OvGmitsxXvDkzXJ/O5/ppbzXV1bu2x9j/+sRew/QpWgVVgFXi4AtmhGQclX1riHQck3mM05PHhqfHI4z58CJ/6ISdzcxIzLnh2edXlQPsCk+d2+OybcupwHJdqxilel6f8Iz9bvw5r4+9VYC9g79V30VeBVWAVuKyAO0wDTC9UkYdLBr9HrrOBAWLoc+elS3toLxfHDOCNmiuXLtR2T9V40ivDVCw3Y1aLXNagynW9XL8pXtWLY/j2XtFp2uu35+0F7Lev8M63CqwCX6dAdbhGDIeqe8ewwMBBqXbkTX2cG+96+DJfjWV8skVxnLpcx2lSc1Ln8HjuV7Em+JyT6exwnuJTvZhXFUPeN85cab//I/xKnY2tAqvAKvBBBbJDCP/qEFQm75oHO57ZZSm7+Di/8swOxqwXSzrFQs0Ek/GrmTWvsh3P8GWzV1gaU2zE78K+C0d5n9oZj7t0POXz0/l7AfvpFdj+q8Aq8OcVqA5gxCYXLxxwXANxK1/k8OHIfPTQdDi8gFWtctG+YethrNooH+5d8VDcrM5xdDwd1w5zgn3Kc9Kzw1SNHaZ+H9N1cFjq6/hp/m+x97+C/C0ruXOsAqvA1ymQHXy4bOFgimf3HsMDjy9r7INAzqf1KqbDVrywq4M565v16vC4DtjwVTy03+kcWb3zK6+TmRzeqQ/9HY9XtDrlsfn/rsBewP5dk/WsAqvAKvBWBbLD8I6LFxOPPvovFxHXy0l2MWKeXMMXPIenHGBr3yt5r9Zk9d0cXMfzsMZuXauZHeYVn+ubcbyCvzXvUWD/K8j36Lqoq8AqsAr8mwLZQckXmul7gOvFSS9M2s9dxgJHLwmKy4Noj38bkng5bM13vcKnnFA36a89XO2EW4YTftX2VTzulc3vek76ZnjVfFXs6XgV9yfF9l/AnrQay2UVWAV+pQLZwYlhcaDFs3uPGuDhkqK2y+Fe8e4uOA6nqtODuKoHDnPLeHDulfys17Sf9oeN+RhHNchqp3704F6odWs2xX1SnpvN+ZTzb5kfc+0FTFd47VVgFVgFblRAD20c2HrgsN+9ByXUnFy8tJ8eYspPR9eeWTz8is25XR/ODZyT/CknxtQaZ2t+NZ+r73yKH/mY/e5eHZdpHJwd9ymGzhZY6ptifXPeXsC+efWW+yqwCjxWAb1AhM2HF18y8I6DCLk4lFCX2SGC5rAw7oDr8lGfHYxVvfYOO8NxuV1vrol3cOnqoHPGZYrD/TvMO+bTed9h6+xZj5N5M4z1/5cCewHbL2EVWAVWgRsVcAcZ+3CA4VIUT/celFB3evFy/TCiYvLoVYz5xDtz0guN9q/kzXLZ7+qzOpeb+bSHzpHVTfyKzZpN6u/OcXy4x52z3839t+LtBey3ruzOtQqsAh9VYHLARU78p7qEBWlgXb14ucNUMVmcKub4OGF5ftdfa7qe0IixTntkPbveWjexmVvkTzSY4E5ztD/XOS2nuJv3PgX2AvY+bRd5FVgF/oAC2cHHh17kxH/g0/eQCTG8x9NdFKY+rmdMLAnzzi4Lrhfq+Yl5XEzzYGc9FWPCU2uqnlOuU8zTeSpcxsp4sh6MNdVz0n9zPqPA/j9D8Rmdt8sqsAr8QgX0coBDUw9JvVwhjkOzs0M6zcl8mV+5ZQe2zuSWTXOAPcl1OepTfI13dldf8XXYjBdx1e4Uz/Vgn/bjmPbusBB/B8erXJTz3dwU/6n2/gvYU1dmea0Cq8BjFdADPmz4cJjwkw8YfY8hcUEDBh9sU1/guFwWkXuruF3tBF97YTbt5Wz015qKs+un9a5X52MuEzys35ULifZCv+nc3SxPiLsZldck54q+2udJ9l7AnrQay2UVWAUerYA7JPTiEDYOTz5EkYfDOgbFgaIYEeN8iOJ8Wa6r4T4uDp8+s77I45nYpzjO7rBdjXIP+9XD2a1B1ftqTNfgVd5XeZzWKe+odz6H280YOF2Ow/12317Avn0Fl/8qsAq8XYHuoMEFBAdJPPk9CPJliw8bPnxQx/nxjv56SGX+qoZj2ids/PHM2pfzGK/Lu4KdcQr/tJ/yxXqx/yqWYld8X+Fc9Xklxutc4ag+/N1WdRvLFdj/DViuzUZWgVVgFbD/p3wc4HyQV+8ho16WMjtycdhpDpYj87s+vIRV3QTbYSlfPagVl/MZL3s/uQhmGI7DKY9T7Dvw77jksH5uhmy9XC777uDG63KVR8fzyfH9F7Anr85yWwVWgR9TQA9+tvGOQyie7j3IIze7VLm4+iBC5nd9WDiuw7sKW2FnWIrh7Cmu1irnKwe0zsoYGtP+na31uIBf4dn16uLKhfP5u/sJbh33vxzfC9hfXv2dfRVYBf5NAXeYOR8O3Ii5Q44vENFEbfiyS4HzuwPU4WIoFwNvPJHrsFkch/Vv4v23g/XqcF2P8J3U3Y3h5tJv4Co/hz3xaX+umXDhdZ/025z3K7AXsPdrvB1WgVXgSxSIQ85dTNSvhxlfTvSionZIkflwkCLu8iDl1RjXdwc3ekTNNDdqulz+HCY9VG/9nCYYWtNhRv4VXO1zxea+1Tpfwd6a5yiwF7DnrMUyWQVWgR9SIDvwwo9YPHFo83tQ5osTXz6Qh7HcYep8ka+1FcYkBkzwRV/U8jPjNMmtcK/2qPpiHpdz6lPuJxfJ017I1548T/YNXO21dc9SYC9gz1qPZbMKrAIfVsAdgEEBhx8/3Tty48kXscp2NepTXrDdpaCKKW7Y2V+Hw3VZbvUvSzyTmyPjBf+r9Q7/Tsxq9uitaxq+Kzq4OX7C5+a5ymOC9c1aOV32AuZUWd8qsAr8egX04A2bD9Cw1ReisA8Yr168GBfCgwvbuija/zSOvlUPxlTNtJ+zr9RkPcP/6iGsfLCejvsrPu4DnFPu3YXuFX5VrePu8k/ncRjhe9caZP2e4t8L2FNWYnmsAqvARxRwhwt8OAj4ye9B0F2MUJ9dxKJOczDsqb/C6jBVYMymfrUzjprH9pUa5R82H/LArPq6GNfddWnQPtxjqqtifMKeaDjRaILziXm+ucdewL559Zb7KrAKHCmAg1EPZPbzO1+osnc9bNUOgpkvYnrYgVvWz9VABK114nAO3l0eeFf9tE7xdDbNV3vCX2uc/SoPh6m+rEf4T+dW7Fdt5cZ4P83t1dl+U/1ewH7Tau4sq8AqYBXgA4kP+XiHjYMTvjioNDfA9WLE9RyPd64HMefLcruaaTzDx4x8KIOfzoJe7ulmYhxXo9wn/RzfKzgVnyym82QXmYpjhn3Fr3wYI+NW1Zxy+NScp7y+KX8vYN+0Wst1FVgFjhXIDp3w8yESNvvwHg31PXx6aVHb5agP2M7PsS6eHbgdfsTxB50qLM7vsKsDmtfkpF/WP/xXcTKe+t1cxVfOV2zlcnXebNYrnLbmdQX2Ava6houwCqwCD1RAD3m+XOEgUl+MUV22OMa56IWnHtZaB7kqf+QwTsXLyZ9xyXKVs8vDzIhNa3henSvrU/lPZqtwNAbcOzgq9sTm/sj/C5emvzCjW/+9gDlV1rcKrAJfrYAeZLBxieEnv8fQOAzwHk898NVGjl5IXJ7Dg9hZ/jReYQPDYaGv5rDdcctqGVv1yWrUrxhhX8VyM4XvLkzlntlO8ztmyvq90+9mudKvw/lWfTIt9gKWKbP+VWAV+DoF3EGNIXCxwkHLTz589T3qsfEDnw8CxkEvlxexzI9YdsCgjrmgV9dzkgdtXP+Ks2KzPeFc1UOTauau3sUzXux3da/6FN9p/WqPO+uVb4YdeXfMchdOxvOJ/r2APXFVltMqsAocK6AHhrOzS1g0Qz5fttxFC8Q0H9gR1wNJc3m4k5jO5HhnwlV9tIb76Cya62ZhDRznU4wqfxK7Os8EO8vRuU90zDDv8is3hzvhGziTPIe/vn/8Yy9g+xWsAqvAVyughysOBfdkHx8e+h6C8EWM7Xh3Bw946KVNayG2y+9iuOThmWEDB1wneSeYjN/1YM5ap/NOeCLHrQHjQ98pZsZt4udeU34T3FdylBNj7aXpFWXvq90L2H1aLtIqsAp8WAEcwjhs3FMvFnxwI58vW3qBUjtGrHzMyR102lMlY34agz3NUa4VHmKOc1d3UsNYnRZZ38wPvOncGU7n5z7v7nXKBfnZmij3Dn/j71NgL2Dv03aRV4FV4I0K4CDhQxwXE35m70GNL14nduRyXx0TPdlf5Xd4GgeW9tU8F+84Oe6uJnzZIV/1Ze5X6jMuV/kAL7hks6ver/Ku9MliyoF5ZzXOX83p8tf3PgX2AvY+bRd5FVgF3qBAdhDh8NRnUOCDVd8jnl3EtBbjuIMavHDA8egun7GYA9ehfxWf4iifCearNXfWO6zTGRije+fv7MqF6+pFh/uC41WsbsZPxd1MrneXd2UdXJ+n+PYC9pSVWB6rwCrQKqAbNB9MEcNFh58BOrkUoQYk0Is3feeLfK3Vfu7gyLCq/ojp3JgR8ezZ9XR1V2rcDKqR61X5wINnZV9VO4kB65V5J300R2dw34rW/JStXIOH8ym/yUyvfh/a8xvsvYB9wyotx1Xgjyughy82a/dUX0jHm3u8qx05etHSQ8MdEODlchUTS5jV8BK7Xu4TOMnL+Cju5PKoNWq7GfnSqPmZDZwp9wwn8zv8qaYZZuXnfsjTb6eqf1fM8XK9lOs7tXL9f5tvL2C/bUV3nlXglymghwNsfvLhHn4cDMjBwaF+PUA0P6Sc+iA7Yzp8PcR4uVwvXU7OwbvmMJd4r3q6/ic12utK7VUOT7zUqR68RtN1YD3ueHffyRN43THbN2PsBeybV2+5rwK/WAE9IHCZcU/1hSzw4T2efABO4lqjuCw/+LpDtopl/Bh7moOart8Em/XR/OncVZ3GTjlrfWYDF3G3PlntiT/rM9Wx6zW5bCqHbOZPcurm+svxvYD95dXf2VeBhyqgBwlsfuqBxIdK9h7jaix8eii7Awq9Xa7DgLQOi2NVLfhmOU6DLBc9+ZnN5HLVd6U243vCWXk4G9zuxtVen+rj1ky5vHtW1299rymwF7DX9NvqVWAVuFkBPthxeXFP9gUFHO7uPXx6YVDb5WA09NJRMz+wcFnTPNdbsRXDxZlfvOvlMKuZ9NfLEvgAc9rLcZj0d3XOx+t+Bzc3N3DB+44+bhb1ab+Iv6K74r/Ddpynfbrap88+nRN5ewE7VWzzV4FV4C0K6OYLO558KMIOEpN3zVNb8Xk4cNCNP/MDO55aA1zmzL0mfTUfPKp+V3CzPtlMmu9s1myigcNQ3+n8Wt/ZjB+5r8x/2sv1Uz4dZhavLplaM+l5xzrc9U0o/yfbewF78uost1Xgjyigm7xeuLA58zOkQR7e48kbOXBxcKoNeXXzz/IUn5enqnE8uZZ58CwuBxw4D72n+Vme86s2LqfyVbpUdVVMMbv5KyyOMc6rc1c9Hd93Xu4yLo6H5na83qmTcvlt9l7AftuK7jyrwJcpwIcpNnP3VF+MyZs/42jM2ezjgyg7UBSfZc5q0AO52WFWYWufsBWHL6yTfM5x78yHtXG5zsc1ytXlT3wVZjb/K7hX5nb9+PKN+F2auH7qq+b4JA/ltfb+f8a938AqsAr8kAJ6oMLmJx+s4Y//8IGGAwT+GAX1fLhw3OU4TMji8CYx9DnhkS1FxcHVnOZX8/AauF7sm/adYgIverCOHY8u/i5c1ZF53ME/043n0dmzvlWNYqz9HgX2X8Deo+uirgKrQKFAbP586eGDm2PwwxeQ+h4+HDIcQy7HtR4UlY/6YfNTe2lM+8LmXtnhqFiTPNZzkq89HF83t/NhnU77Oqzw3Y3HmK/M2fFFXHXAPFn91A8cxdN+U7xP5CnXqmeX++Q5q7my2F7AMmXWvwqsAm9RQA8RXBzcMwjwphzv2IT5HXm8Qbt45GmO+rin2/DB5zTGYio3juG96qP5rJHjpfmnPXhttDbsk56oV8yrM2R44X8VE9j6ZNyr8yum2toDfSbfjmLdYTs+wK1i02/jp+a6Q5urGHsBu6rc1q0Cq8CxAtio+fDFxuue0QC5HIc/nozpbPj0IHAbvl4KeEDtw7GsR1YPLMXI+Lu8LNfNpfXdLJqfzVHlTWOvcHE9WFtdc5ef+fQb5bxT3Oq7Aq5+E6c9sjkmfu3tajI+k+/N4a1v/zdg+w2sAqvABxTQDR42P/XAw4aPDT6eutlP7BhPDw+tixxwcYely4dsXJdJWdWf4DD+BFP5TLhqzas9HR54REzXxuV3Psa7G/OKzqd87+Jc9VWNIvfV76Hqt7Fegf0XsF6jzVgFVoEXFNCN3120IgcHHR942eGnB4faQdfVurwsF/54ZpcE14OlyvqpBlUPxptwyi6QJz2yGTCPcpraTo9OwwybufD6XOWodU7HjEvlZ1w3f1V7GtMZuN59w1e1P+W1+V6BvYB5Xda7CqwCNyjABw42++wZ7TgWNg5BvHMO6LlD5MTH2MDsDl+eCzX87OIVd4eHuR1Xl8+6TWsUZzqD1qkNnKs8GO9OrMDt8LrvQGeF7XDdN5nVV35dW851l6wK664Yz/sKZofzU/O9MlNV+7/+859/VcLGVoFVYBU4VUAPILex8uGGuB54emjB1if4MU4C6vd7AAAgAElEQVTli5hiu3zNcfiqjdZoHL3h7w6VSU/tcaXGza+44N5x5hmnuVXe6TzVGgArOFY9WY8ujzEr3IqX05p11HjHSfOd3fHRuRwGfK/y6bhUvb81tv8C9q0rt7xXgYcqgI0UmzeesUFzjN+xefMmrO8xLm/yumGrHfmZT7EgpcufxNArwwWG45T1DP8ET7G5JsPmGrxf6fcJnFMNKk53YAUGtEKvVy8fugY8g8PW/m7mzgeMCsv1drgVhstf338psBew/RJWgVXgNgV0U9dLF9vRFBcEPfzh5xyQ1BqtRU089QBhXB7aYaA+i2m99uJ4xUnzkNvhaX/wdXiVbzIf1+sa8mxXOQAfXF7FuZOTYt3BzWHehQstnaYcc+uotWu/V4G9gL1X30VfBf6MAnyQ4x0XHvcMYfQQ0MsA6iAi21rrclh8xeryI868GYtr4726LOlMisNzdLla2+VnGmG2jrv2U7vrr/mVna1PVaMx8IG/WhetVftOrMAG3p2agbNy5Vle0UA1mdoVnwqjq/uJWSq+r8b2Avaqglu/CvxxBXTT5AMm3uM/esnARopYSKjv4eM8tjmf8TUHeSf+qiZikzjnTQ8Nnh/12ZM1znIy/yu1jHnCd8IFvLLczM91rPUVvHdhBXf+DWSzdH7ml3HtMK7EJ1q+yifqp7+VKzM8sWYvYE9cleW0CnyJAtg0sfnikAn6HOP3yeVLD1K1A199bvPONvXMz7x5CfjwrGpRw3pUS+l0q/IzflUNr0nkOZ2qeo5d4avYwFAurLHWOHuqsauFj7kon6rOxSZYV2dEv8k377hVPuXtcrtvJjC6HIf71317AfvrX8DOvwpcVACbrh7K7rISOVl+tMfmrRt5Z2fUmZPmKCbHq1jkTeI8j/auenWHczVT12fKKcNxvTu+iuUwNKezgTGZJ+N3ggE+DotxJnxOZuO+Xd0krly1Zi9Pqshn7L2AfUbn7bIK/CoFsKHzoRrv2eXLXbCQD2HYZlwXD5/maH8VXPM5XsXQC7MpbsavyovY9NDruE37qN5ZHfuv9r4TAxxONNPZ7sAIzHfggOv0e9DZnNaaU2HzTFp3Yt+B02FUc5xwfUruXsCeshLLYxX4EgX4UI53vpiwzZexGA0x9x4+d0lDLse1Pmz8cY+Jv8JCLJ7gpjO5HO6r7xk/5DE+66w4lX21jjFfxUB9YJ4cmnfMjznAodN8oiWvT5WfxViPU00cJs/G8ROtHa76lLfG7+z9yjpVvJ4c2/+HWJ+8OsttFXiYAnww6+aMwzMoVwcpb7S66XZ2YGsO+zTGfFXKKpb1AQb6aD/twfnxPjkgO16v9Oj4XunNmFfqeR7UT7VSLVx9N/MEI3JOcJiHm+UVLOCdYOiMsJWn5k2+11NttAdzmfbLML7Nv/8C9m0rtnxXgR9QQDdq2HrRwgaKw4GfXBMj6AHS2a5GfRkflUx7nca1r9bD1pmzPM3v8jTezaP5bINj+K4egKdzKh+tZ06a62ytdzmVb6IBf1uKpXxf1ZHxM6yKD9crN8WOeNZD57xqVxymXCPv3Tyvzne1bi9gV5XbulXgjyiADZoPOfbppQcbpdvYkYuceDIuJNVal4NatylrPeNyb/ince4JToqRzZDlAVN5ZTMwTqZL1itbqyy/87MGbh2q+ldqWTPVrerptLtSr2t/OrvyB68rOKhVTndgOi2zPpl/qu/ke3d8vtm3F7BvXr3lvgq8WQFsithc9QB3dlDizZQxdJN1dtTzQaQ5wNc87gu+LI/DOY1zT55dcRw3ztH804OX1yPDrfydFlVtxLS/0zvD0Nosz/m5z1QzrJPiTetRh95XtVONTvsrD7Wv4imO6qS263NVE8X+a/b+b8D+2orvvKvAUAF3YGCjzZ4BzZuxvkccG7hu2morFmi7PJfLHLkvcBivijvsjEvGTXsC87Rv4Hc1rpfyPeHJeFX/DrOqdZwZ77R2ytn1dbWseTcna81YenGZ4GDuDGeCkc2jsys/jXd2x8XN0mFq/FWOivfT9v4L2E+vwPZfBR6oAB942FjhYzs2RN54p+8xMm+munlzf5ZH8xBzfuXmZHZ12k+5chw94JseEF1f5ZrpoXmZ/Uo9aisdur5XaqPmKm/lzHbGFX6t7fI5flctMKffU8ZBuWd4V/VR/Aon6826dzna79vt/Rewb1/B5b8K3KwAH3q6ofKFgy84rgabacT0HT6uqzZilxf5mR8x5sgyVXUVDyf1BIsx4/3koGH9XP/KV3HrcKvarCcwr9Q6jTqOzAM9M30zLK7LarUPf88cO13Xq7VRp7yBdcIBNRkW8+vwM30dhvO9Wu8wn+7bfwF7+gotv1XggwrwRox3vWhll6mgyZso12usuhjpAZJtzJU/+ikOZMzqWOZpDvqwbozDPStOXc2Ej/I/7fcKV+2dae/mDB/rd1L7U3Xoe5UrdHilXn+Hmba6NlneCZcMA/7u95DVd3V3csw4fNK/F7BPqr29VoGHKqAbX2x0OPTdM8bgnLCRp++ZrVJwPWLO5/CqfPBETrWJQ4cqx/VXLXi2bAadn2eI946Dq5/yB76u2R19wcHxU98JX679ZB3PgzWZrKnqoOupcTcf+7Retezqq7WtuAD3JOeEq/K+Wlvp8dTY/leQT12Z5bUKfEgBHCZ8qLGPLxd88EzeYwTOU5s3dd14tQ618dRcxVXpeDaNwXb9NLfDUU0yroo74dDx6+KuZ6W/y1ef02PCw9UptmpyhavWTLhFX61Tbg6HayLffaMOR33TWuXJOJPenK/cr3Bymjic076vzNX1/+n4/gvYT6/A9l8FflABbJq8AbPvnZevbGMFFz1Eqg1+GnN5WT9dFlerOWFP8bj2Sg3qX6kFhmrt5pry5W/G1YTvSr+TmiuaoGbKj/OnNZF3Vx16nn6XvCb8fqIv6nQWtbNe8GvP6Swd7rfE9wL2LSu1PFeBmxXAZodNEwdntOGYHqi8SVbvgYMNlntgDFebbcCVn/uoRFmd46C1nFP1cHV6sLicEw7or5qd8nIzYW0qjq5ukh85bu27WubE32VVpzVVLvNC3mTNVKtXaxQPXJx/0svNNZlP+6mdacmcombKMcP7a/79ryD/2orvvKvAPxXAZomNlg859+58ISQ2XN58dSNWO+qmviy38iPG/OIdf3y4dAeG48lYiuv0qPIj1nHQHrBP6nR2re3m5O8km+cOnlmfjN/JWga/0/yqZsIp6lXrTCf2VzXI41nuqgXOpP9kDs654/2U1x0934mx/wL2TnUXexV4oALYuPmw0/fY6MKHQ4YPG32PEbExciz8ane+CpuldLiIVzHG6DbzKU7kxV+Hx/xO8pkz3qe9pj2x3op7Olv0Q83JjKd9XsmfrOvJDJw7mVnz76jJZnK9sn4OI6vHd4Vn9v1oXmc7Dl3NN8f3AvbNq7fcV4FDBbCh8obpfAzLm2L2Hvm6eTo78viQ595ZT/Urhsb1EpHFlR/yMk6Mw7muX3YgZT0dtvLmuac4J7NU/Tp+EddesLNajjsNuQ56wtflM5947/KV6zT/dB0cF+2ttqtxml6p0xq1Ox3AA3Va73h2vgpjyqfr8ZT4XsCeshLLYxV4swLY2PgwUx82uPDroQdf0OT3K7arCR96uo1We7JcPIeTsYujpupx0k9nmfZX7p+s4/V2+is31gzzck62lqczId/1UE6TXP2uJ7iR47DZx1zU3+npsHU22IoNf9VjUhM5ipHVKbdsrTXP2dMervbbffu/Afv2FVz+q8BAAWxyeshi0+XNt/JFK92oT22HgRFc7yq/i3Vx7he5egCBFz91XpcDX+ROcRWn65PFM7/i60ywJxpE7mQ25jLJBwfkqnbZbFPsDNdpw7nKg3meXugUN8NmjZmfWx+H2dVk+JM6np/zr7zzPNn6XsH9hpr9F7BvWKXluAq8oAAfTvrO/ydXF4u22BQ5Dn88sYFqnGuZvttktVZ5uUMnw+96cZz7sN+9K0eXo727HBc/7QOMK3Wuxq2PmytbE53J9dCcKzMAN2o7LsqBa91sHSbXT/VCH8c14+NyA8flZ7lZvs6oc4Tt+rBe2lMxqt7A0R5qV/049o3vewH7xlVbzqvAUAFsZrhoRBlfOrBh8saZvaM2nrrRqu1yTnwYz+FOYlkv1DKG+pxd8ZjkT+unedGT1xS24+J80eedNYw/memEzzQXeW5O/Q1AI71QsHYZHvsjX+0M82qem8f1Ze6OQ/RXDtmMmQ5a73i43oznajT+W+39ryB/68ruXH9eAWyOd1y+AktxIDBiLPgrPmzIfEgqdtjZxs5zZx+B5ji+1XxT3CmG8snwnQ6VFooz7cN6TGuiV5br9EXuhD/jOizWGe/Z98E8u94TjpxT4VV5mElzMjyX92puhgk9M12ndYrDNtYKOlS5vym2F7DftJo7yyrw3wpgU9RLE2/0esHhza96jxbZhsl9sRjOF7Fss1V/xsUtttae5GhtxtthVvOwDnopOO3hsJT3VX5cB17hU84Ov5tD1/AVXDdv1z/66UwOx+VV8yLmNOJ+2bxXchyW4jBn5XZXrpu9wnY6nvp0ltP6p+XvBexpK7J8VoEXFeDDSN/50sUH0JX3oMkbImNgBOeL2BW/9lOZMkzO63IQ7/IUs+PmZj7pgX5R43pVWFmN6qc9XB+tOcGe5iKv6s85VV7Eqr7Q7bSn++4nnKocxyWbzeGgnmfW9VI8xdF8nVPjztZLUtfDYWQ+xc7yvsW/F7BvWanluQoMFHCbnbt06WaNnGiBTc7lgAL6uFzOcRsm4/JImT9ytJ/WMW+OZXxdTtfH1VScs3z4nTauhmfIahyPSjPXR/MdJnOJ94wP4wO3y9f+jmP4JnmTnnfkdBgcd/Nr/EpOh+Hi0JZ/v5neV3IZi/eWrkcXn3xvHcaT4nsBe9JqLJdV4AUF9DAIG5ufe0YrzYEvnrw588aHGpcL+pzDPsaFHzhuc8VMEy6MN8HWfKeF5lzB1Zqw3axZL9WgysM6n/So8HUdq1zl5XIVL2pcXoaFuSqcanb0egVHMTADf6Pg79bZ1bMOOrv+9rI443JOV89aKPbTbKfn0zie8Nn/W5Anam3uKvBQBXRTxwGVPWMMjbEPYyIns50cWuNwGS/e3cbqcLhfF6/6Km/GwiXGcQJmxllxYQc+avCe5bqaLpexM96KwZw0pvbduaxBxTfry2uU5aiO0IhnA476svkdBvpnPHS9ed5JzGnFPu6reMFX67Mcp4XqsPa9Cuy/gN2r56KtAh9XwG2oekCxHQSjJvNhAORMbIeX1XV+5ufE5APHxVEfz+pw7/J0/o5XxUV5OGyu7+Lai78B7ZXldnmdPldwJ2s36TuZt+tVYXAs+KhWrhZrVtVeiWkN88lizq/r9Y22rsM3zsCc9wL27Su4/P+0AnoQOJsvWojfefmKBWBcXpDwu00z8wPL1XCfeK9ystiEG3KYYzYf4+l7V+M06GomPRyum0mxVJuw9TtxNRPOnJPxQw76TnopVoeRxdmf9b9SW+G6mPqYSxY78TtNv8k3+V1/0zx7Afum1VquqwApoAdC2DgwkcYHKOIRy95dLHy88XGty0eu5oFT5lcs5Gd1Dsf5FKfrw/mBF3+nG/+Eh+ao7XgrN8fL4ZzMkdVrrwmmy1F8l6OzZznwI185hp9zNF7FqlpXp1yiXn83PBf/TtSfYTk/1/72d12/b593L2DfvoLL/08qwAeSvscmpQdE2Lzhu/cQMsuDyBzXfM6Jd7dZaj0v3pVYx5fxsxlczmSWrK6aQ2t0nTTubNQ4fXXGSe5kVsw05dv1neB0OdMeTietdfOFLlyb8Zn4GYvz4Z/4slz3jfxWn1vLb551L2DfvHrL/U8qwIeHvuPyhScEchcuHDrIYVtjkaM+tR0OL1CVH3nZ5prVcb+q/jQv8llX2Bm/K/hXapQTMNzzHbndOjjdrnDruGuceSEWfXW9sljm53kUz9Wwj/Od/6rP6fmXfLqm3z77/t+C/PYVXP5/SgFs3HzB0kuX2hAoat1FLOJVTOPOhi+e3F/9YfMf99UYaqtNl/Vw9fB1fU44uT4n+JgrnryODvcV/nrIK/6JdlqrdofFXKpvEJpk+F1cvxXXlzVlPORmNc4fPp6dcyq/rjvXKT/VYu3fo8D+C9jvWcud5Jcr4DZ0vWw5O2SJWnfwMabmQU6uneYgL556KGa48F+JK0fGqmInPR2O6qd4zs5wnE4n+C436xW8XD/VTfMUz/XsMBBHLWzHp8Ln2JQX9+R+zp/x63LxG2QdnI/j+z5TwH0js8pnZu0F7JnrsqxWgf9LAT1sIohNvXpGHg4nxmA/Gk0OMc1xOIwHnvBlvTiuPLU266ncJjgTrsoNh4D2czy1NuzsEFE8tSv8LFf9ajvMSjfUVzmBOY1nelT1LgYf5ukuV8yROTBOh6G5lY0eytPp/82+d180s9/Ot2q2F7BvXbnl/WcU4ANH36eXrxDL1ULEiOmBo5ud5gBT89SvdWrzQlaxjKurn+BM8Bgbc8Hn5tb8kx7gzOuU4TFuvFdcgDfNm2BlOR13jfM6VTwnMeWkvWL+DMf51cc2tKxygo/WdOv51PjpLKf507l1jad1T83bC9hTV2Z5rQL/VIAPEX3HJsfPEC3yMh/HITDyM9vVZL7M7zihX9WXc3h+rdW86Uats1e4mC2eJ/in+RPsEy0m/TsdtJ/ma1x1rOJXYqjh2dinM7seHYZeIrAuWqd9dfbfYqse3VzuO35VK4fZ8XhyfC9gT16d5fanFeBDQ9+xGfIzxIq8zOfiyIfQanMNL4bLy3Lhj2e2gWZ4FS/mw3lVH67peio+509qJzmOd1fXxZ1mWU34K72yOPCyuJvL6QmffhcZ7okfuTzfxKc5bOsM32RXF6gqxjPyOl3RRddZ9QvMLkdrvtneC9g3r95y/7UKYCNyhwFfsHjD4hpsYi4O0XSzUzvypr4sV/0neBnPbNGrWbkm8uLvZKM/5e3yJ7xVryu8s/lUn06DaoasB/hWcY2hD/yOl9ZAJ/Tj7/2Kj3uz5uCi3Kp8rX+SXV20nIYVd/39fEIT7Vnx+4bYXsC+YZWW459SQA8k3jTxzs8Qh2t4I3XvLh/1LPTUx3i6UB2Gi3ccXI/w6ebssJ1P8bS/ww6fwwpflq99qlzFVluxwKfqjX5VzhRHvz/w6WZyvbOajK/Ld7ma1+VovLKd/k/x8X7hOHVxXSPWweHBl+01XDPFyvrobzzL+xb/XsC+ZaWW559QIDYo3iDdux5+XJNtgsgJEfnd2Se+LLfyIxbPakNVnpGvf11ONbdiqd1hR/5V/Ck2OFU6KQ+dA3b0jL8M60occ1S1WYz9qqPj6XDUB5vruxzlken3RD/vD8qviyGfNVMMtw7TuhMsxsy+T4f37b69gH37Ci7/X6MADiF3IPClC3kxONe8cvlymCwsx1/xg3M8q4026zfpzTnTfq6m4qc8unmQz2urPa9gTvD0e9K5OowqfiWW1Tg/fKxv5XOXDvWpzbpXsWq9PhHLuGX+TDPlmn0Pmqe21iEe61NxUpwTO+t5gvGk3L2APWk1lsufVYAPlRCBNzC88zNyeKPDxgQfhGS7igEPvXkhtM5hT/KZs75P67vejMM9shlcfvimG71bA8W8ypn5O8xupoi7WZizizPfLM7YyqPq6/CQzzGHMfFpjvLEbO73hdiTn/w7Z578vbKePC/nuxzVxv0GqjrVzdVrjtqBf6VOcb7F3gvYt6zU8vzVCvDG5g4H+HgDznwQijcz3djUjhpw0M3cbYiuHhguP4spx8jL6t1c8LmnYt+F63hkerhcx7XKU2y3ToqpNSfxCt/F0MvFou+J3+WqD3Zg4zeA+SpbY6rJE+2MM75l1kI1yGqhm87rsDSn+w1F/gRHcaf2pP8U6wl5ewF7wioshz+tQHagYAPlzXbiCzEDU+sgMsecD3GXp9i8cFl+VYNYPCeba9Wj41LVVjHGrfg6jPBNZqvygFvlgGOXg3jGyc3A2G6Nsp4nfuWlttNd8dnmel2/p9r4bSs//h2fxKo1VhzNzb6Dqa7uO3E91Zf11bzfYu8F7Les5M7xlQroQYMNyB0u2eUrBueNK3vXPAjmNj3ny+orfxdDPJ7Vpq16gLt7ZtwdlxNcV6/9K+01F3bF964cN6dyjV5uDVwttEDNBMvhqE9t7aM28pkHNMOTLzbZJUdrPmE7LlcvW7purIvOormIVzWspeKpzd9CxCa4ipHZGfcs/+n+vYA9fYWW369VgA8bfcfm7J4hCG9yk3etgai6WXKextSuMCYx5XQFH32m/ar5FEvtjJ/LC193WPCaKwbPA6ysf4fT1WVcM9wTP3K1h2KwzTU8OzThiwu/Zxr+lF+5qc2adDPzDPpdaS1rNsllXfEemFrLsRNNMxyHUfV1+d/u2wvYt6/g8v9KBdyBgw1anxgQGxlvUpP3qHcb28THm7vbSB0G+FaxKacOg3vFu+OIHH5OccFzig29Oh6T/prj7IpXxQUxV5/VdX7G6nL5W3Z18CkO2907r/dT3nVu8Mr8uj68blrLM7o8xXKaZHWce8e3rb0nfSf8Fffp9l7Anr5Cy+/XKRCbTWxivOnAzp7YfFAbdvausYntcuBD73jyH/c/iQE328hZnyxnykN5oXc878au1gM8sOZV7ypnqs10bZRzpovDczwrH2NrXmUjhnrO5Zhb60/79HetnMEH66/8+bvQWLU2OifvIxpzuI5X9Y0yZoWnvTOb9Zj2zbC+yb8XsG9areX69QrEZqWbNG+WHNdNFLEQIXvX2MR2ORBa+ajfLQhzuxKv+Che16vK72q7OGsR73pwaL3aym0yd2C4Xh0XYLvaCjOLuVk0V23HQXPYdu9OM8yE/CznLn/2+wU+XyYqn66F8tffP+vHs+h3h5jiKZdKj6zW1Wj/qFWfq3O+V2od3tN9ewF7+gotv1+lAG9svJHzZotNiDcj9oUgvMnzZqcbWGcHluZAcPU7Xro4WnMaZz53YPEs8a4HQ9Yj85/OM9Es0zvr5biFz83XYaNOazM851ef2oGtvspmTuDvfiuqzztt7g+tVDvlrTWZxjwjz6B4Wt/lVvmodT0YV38vHKveA1dru14VHmKKOal5cs5ewJ68OsvtVymQbdjYqPkZg2MT480MGJrL+RBNN0G1XU1W2/krrEmty3F8XR582bPCUd6sb4Z3wmGC1+W4OM9UzedqMXM8caABY5rvMJxP8SqbY+69W4+74+4CxT00zloiT3/bWs82Zna18GkO57r5s/yuLuJRi5kUu8PV/LAzLM6tejrMb/ftBezbV3D5f4UCvGG5TZl9MRA2It6QsnfOhxi6kantarJa9Z9gaS1s95ziujyHV82o+YEZf9NDYpILnhXfKtbxrzh3MTen4+JwJj7NqWyOuXesFX4junafsqEZOPI34HxYP+bPXLmGsU5zqvwMl2v0XXlpfIIZGO4bc1jK/0pdh/vU+F7Anroyy+vXKOAOFb2EVXYIwRsa3vUJwXTzU1vxWGiX6/Idn2zBMsxJX+4dOPE33aAnfcFhij3F1DxnV7N0fKq49upmBBbzcfgTn2JpDdvdO3h/+skXvdNLF88PPcPHmJjHfcdVPeugeRkmequGWb1+A46jYjlb+1b9XH3mu8onw/tp/17AfnoFtv+vVgAbj27qvCkj5p4hDm9mbmPjTamLKx6Lr7WIVf7IqTbFrJaxO4yKM/OfzOLydS1czpRDYLl5qjXUfpVmiq+4rnfGXbGQ5zCUk9ae2Jzr3lWPT9j8+8T84Jb1x3fPefpb5Fr9nTh8zeE1qbAcR4ePPNdHMaLe5VW4inHSD7lZ3wz7m/17Afvm1Vvuj1YAG4lu0OzHxs/PGEpz3OakObpxqc24KpzLrfIRi6fbpLvaSRwcdU7lrnY2i+Y5Dllt5mfMLifi8Zfp5fhM8CvcLOa4Ipc5ar3aypnjiudi+O55zne+cz/tPbHBTWc78SM3+w4Yu8t1fbkmsLI+TmfXW/MmeKd9uccrtcr16fZewJ6+QsvvKxXAJqIbNfux4fMzhuUNaPKuNc7OfFf8WuM2TOfjheziyNU8tRUz7OkBkeWq5lme9q76AjPjH/6sz5VYVuP86oOtfJQ711UY0EkvOKzfT70rJ6xhNw+vdaZXzFTFMDPnqObAyPqxtk5DXTPlpDXap/qmtZZt19fl6+wuh31X+XS4PxXfC9hPKb99f7UCuvHyho7NSZ8hCG9ck3eu0Z4sMGO94leOwOJZwldtlBkX5pX1yfxTzKze9e7mAFaXp9w6m7lobhbjvKzG+dUXNv66ywjHXS6wIsa40Et9PNsd79w3e+e162aHVsqbv/Ushtrol+W4mTWX+bp89rna0/rqd4xeWZ+OX8aFtZpgfHPOXsC+efWW+yMV4A3Jbfzw8aGV+WJA3bx1w9dNUjcwtSHaqV+5qPgZHudNcro+Gp9iap3yV55hq7aaU8WzfuAbz6pHNldWd+J3udwPceanNWx379CNfw+s5aff+bfH3LBmEx9ynFY8D8fDX30zWS6vjWqlNY571VPxws4wXa7Drvg6DPa9UtthPy3+H08jtHxWgW9WQDdjbCbx5Hc+AHAoqS90qDYjF3M9nJ6u9ko/YE/6Zj2V3ySPD3J3AChmNxvn8ywOZ4IVGPHnuOl6a4+qNtPG1Tif4655sME/i2MOcIpn9o4ZGVvnvsvWb8PN42bqfJgNGoKvW2PtWenOczssjjv9uppMV4fFM/G8Gcb6X1Ng/wXsNf22ehX4HwXchsaHLTa07BlAusnz5qob4sQOTN2gtQ4DZH7l5Za84j2pn3DQvtEz/nQ+zXulv9PE+bjnNO7ynA/83ayqAeodjuY6XbSOba3XWHXxcWtyhy/rqX6nIeZRXXVO8MzyGRu57pvkeu2ZaXGlhrG0nmOOo/LgNQHUqPgAACAASURBVNZYZeu3UeWexCacT/B+OncvYD+9Atv/VyjAm7ZuejgMqmeIoJsWbza6EXY28OJZ4UB8xeNFqWLK2+F19a6G+7v3SivNn/SPnPhzGzzqq5zJDK5+gp3xd/6sh86meZnNWkIbztV3fOO6Bj9hKxdn87rhXX8v7GfNMbtqy7NyTpUXMc3lfO7L+FUv1E9qK0z9TTieWT3PUOXoHNpzWvtteftfQX7bii3fRyugB1KQxQaoz+mmoxtoZ3NP118FVLwpL+3DdXzYTTbTisMJX+Uedte/641ZKhxed+Vb6VTFMszKz7o7bFfL82ucbX1HXTwRw9NpcKdPvy/HG/ygg8sBJ15bnsGtueLwXDp/hgtOXOt6ZZppn8g7qT/B1V6TPqx91mv9//jH/gvYfgWrwIsK6IbNG7SLYQPjTWryHjR1Y1Pb5WS+yt/FpvHI6zZsN0PUub8sV/1qO6zwTfKQk+VmfvSs4hGLP9Uoq3F+h5H53IUg+x7Bi7HcO+YMHPBDHmJXnsDLajmuuc4OHObltMDM3FNn4boKU3l3OJoPW+scx6wW/LJZtc7Npj6tcTa+AxfrfK/UdthPi+8F7Gkrsny+SgHd0GHjAKgOAmxsvOFk7yGKbkxquxz2ab7aLHwVy/pk9RVWFdMPoctFvMsD7iSPc1y+8zF+vLsDLOo41vWJXNer8iHmemlvtfXbZAx912/8X4O96U97sc2ceZ547zjrGiFfcRgLI2otj644br2yfMXvajscxeP87P2kp/ZnXViHrNfEX2k9qX9azl7AnrYiy+drFNBNPYjrgcAbmG7Gka9xPkR0A6tsxYKIuoHCVj+LXsWyPl29w3Q+xukwXe4Uc5Lnctjn4pnuk1kCL/70kHH+iS/Lyb4jznfvmIG/cbcGr/ocvvrYxjw6L2zW1PnAt4pFThfXHO7LPVR/1kvXnmPR38WZF/I1L6tlfPfu6lw/VzudS2tdT835Lfb+b8B+y0ruHB9VAJtEPLEh4VDQwyKIcT6I8kZTbTpVzGFVQjhunN/1uhpnbViPiuvpbKyxHkCnM0a+w2D9XLybLdMv/K6ny5/4gMcaMj7303fWkd8VC/ZdT2jL3NnH2ivHbDbljDVDD+2ls7g4+yLf5SgO26f5WS382XdYcchiOpvOF/akH9Yn67P+/1Jg/wVsv4RV4IICuonCxiFRPaMdb1C6WZ3aiodxFEf9GldbZXk1Dp7xnGzi2VzKy+U5ruHrers67od4llf5s95cw/guX/HdTIrHOJqvuXxB4QuP0/wun+vDPn2Pvm4O8OFvS/O41ul7Gs8wWBtwcPw4T9+1btJLMWDrOmd5+rvkuqwm81+tvVqX8Xiyf/8F7Mmrs9weqQBvjHo4YPPQJw/CsfDrgXFiR73bsJxPc8Gdn5ngGR7yu3iGm/mhsR4ILt/11plcjmJ1ORx3+IHn+Ga4bkbFZX0VX3EVDzZjgB/nuveoAT4/VbM7bOaJ+bkn3sEJPZHrdOEcvOucvFbKQefSOHOqcpUbZsi+E8bSHOagPZ2t+Ty/y1/f5xXYfwH7vObb8YsV0E08RtGDAJszb9LVO2PooVDZUecOAufLcis/linDm8ZdXoVZxYDlMDWG2eKph5nmdj2zePgr/KrOcXJ4DkN9la2YnIt3zlGfavWqjd+L+91AS8eZddZ4xCqfWyPkuxjjubhqGDn4c+vKce57Uhe53Be1EzxXx72z95O6jEeGfcXfaXsF8ydr9l/AflL97f1VCmAziic2G3eY6FC8iU3eo143PrVdTuar/ODq8F+pqzSIGOvGuRkPxZtwczXO1/Xs4tmhkNU5f/igC2YDV8bP8pDj4tCaY/rOOZNv2unY+ZQHdIhn9e50USzOYf10bTC307bS3c2mWrsc9nFv5dXVZjjhfwVr0lc1y2qUB9Y0y8/8V+syvCf79wL25NVZbo9TQDdRPjj04GI7BuGNxb0rFoZ3G9LUp31VUMej6sv1joPiV/0rfRzOae9qtsmMUR9/erBoreqQ1VX+rAf7XZ8snvXi9YgcYPITtXh2azGNMx7WXvuqH3x1HsVCHrionlrP+Q7LzaR6aA+tyfLVr3Wws7yub4bn/FkP1jFy7uzpePxV317A/urK79xHCugmHTY2puzJDXgTyzY0HD7ZoQo8V+98kZ/5XYz7V3UnwnU46BmY002+w3SzKefAqHpWPbR2oluG5/zsQy/l6nKgXxZj3siJJ/zcS/W6y4ZW2l/9WEM3N/uYv34/PI/GMA94ZPNVGFqr+mU9+XvhvpN6zcl4O1xXm3Gc4G7O6wrsBex1DRfhlyugmzBs3kixGfOmXPkgWZYfcbc5cn4ne5WbxbLDQXtl9Zw3yVHczp5guhy3VlkvV4/cLFbp5mrCF3+8xs7X5Sg22+49fOiDuHtm2lz1Qx/uBR6BqVy7uVGjeZWfY6hjDuFzOfC7J9e736urcX3Cd1rvsN08wGWNXe36Pq/AXsA+r/l2/CIFsKFlB0h28E42uyzndMPMcDKZq3zEJjkZfvireq7jvKomYvHXHVIVRrZWGR+dr8LOdHM1p74JNutTvbMGkYdcfersp7br435DvKbMO/ywXU7mYz9zVmydx/XSHNgnuY4DfN237PpDQxcL3xXMDOvUz7qg1vkmuFndT8434X2as/+3IE8V2/w/o0BsArrh6cFS2SEUMKp3jbGd1WMROM4Lc+qvOExwT3NcvxMf9+u00Pgd2jBmvONg0G9GDwzXW31hK2Zna//Id1zYp982Znrl6TDZp+/gWc3ncsBRtWLuiDH2SXySq2uX1SiHqo4x4p3nQEy/K61x9klP1LveDjt8yulKv8C5WpfxerJ//wXsyauz3H5cAWxAODiwOXRP3Uh4U9ENprLdgQVRtO6qPxNZe2f9uH6So9pwPXpiM38Vz2miPSo+Vcxxc9iOA3DjyQeXYrId75zPdvXO3y73RQ34vfLUHuAZPTADvzMPzuX5OIc1Uj/Pwe9ag/lYK+WBHPVnWFm+zsF5iEEXjem6aG+Na/2J3WFV3/NJn831CuwFzOuy3j+ugG7kvGlj49QnS8abK7+rrBpTW/NhZ3mZP8Pp8LD5T3AnOdGvy8OmH7l6+Lg5OjwX5x5VH1dbzYB8rot37eFw1VdhaEzXKeLKhW2n4ys+16viyHowV3AIn2oWtvNPvhfUOUyee5rnaibfKtfxPOy/gqO4jp/rd3evisfG/l2BvYD9uybr+eMK8CbPh4O+6+YVcfWplJMcruH87nCosK/GggtqX8HATBWGajWxO7wuHj3cmkHrLNb5I55hKCfNczb6cax6R3/k6HOi7TTH9er4Brbjr7Nznlsr5J/GdDbXV3Ngc0/XN6vTWU5rK9yMG/cI3u67neBuznsU2AvYe3Rd1F+gAG+02Lx082U/Hzrde8ijG2Jn86Gu8motx6/GlCP66yZe4SvPic14GXb440+5XJlbe6g9waxqqnqtq2zE4sl5zs++6ruZrIfm8HcALsjh7x7r4/gi1mmT5Wm/sHlmV6e9GIP15Dy8R5zzFav7Dl0tY7qelS+rrXhkv9+qzztiGXfV1PWu5nP5T/ft/wj/6Su0/D6qgG60sPXQcXYQ5Y08e9c8Z3e+CpsF4zwVsopl/dXfYUy5IM/hqU9tnUs5atzVw+diHbeI68HAOPGOP87TXpWd4aE389d532njd6A92I+ZoYNqkM3gNEWu9ss0zvIctvOhXmOM69aN41mt1ilX2DzbBDfDCf+0p2JoXcZJ65yd6cHzdjkO9xt9+y9g37hqy/ktCvABEe9qx6aAjUg3pCDEPhfPNhiX2/mYSyaGw8g4KEZVi95RM90oK7yOU6f7CfeMR6Vn1LhZHVaWqzppLduMUb0DE7XVUzWa2k577sPv0Ch82Ty81q9qGvWqj+rMOa4f6wAs+BwW52e10zr3zSmHjLPLy7id+jNs9k9m5G/glMNfyd8L2F9Z6Z1zrIBu6thI+Akwt8moj22NOVIux/mwgU8xKs6M4Xq5HlPfBK/LcYeV61/hTGKao3alocuFj5+BgQMs/GpzrHpHbdQrPmKc4/TqfIrj5oGPeeCdZ5v4dCatB1/k8UWAvxHG6S4LJ7naH3bXA3nueaW/w5n6uJ+rcbPwGrua9V1TYC9g13Tbql+mgG6CYWPTcRsWb/YhRbZBZX7Ip3G1p9hc5zDesVyqgetxFxfgVHh3xzI85+98TiutYbt7R5yf8R5/6OXW4xUfcLU3vlHGdrOBG/KYr9Zqblej9e4SoTmwkQs+nNfVMK+uZ+S6HpO6jFPld70i/139Ki4b8wrsBczrst4/pABvVHx44b178qbGB487hHjz0/iJ5FrLHCscrdPcLh75nFP1nWApnvLReNav6nUS0/VXPg5r4kOOPjFfPPFtMB7nI0d9zlbeJ3b2vXMf7cnclT/P5uYFt6jDn/5OnN/Vaa//AfznS4bPOfp+pSbr6bgxvvae2hkGawisLHfa6yQv+62eYPz23P0f4f/2Fd75SgX0IIlkPYQ5Rw9Jrdc4miMvs8OvOSe+CncSy3qhtsPAxp7NrzgdXhdnrZxuXX01r85SYWlvV6tcA8/pxLX6zt9kpuU7/HyI6mzZXMjjOaG3+pwfuNpP58vizMvhKw7bzN1xzWqVM/Kwzlkd+E3yeBbGm9ae9uIeqmk1z5U61T3DP5k1w3iSf/8F7EmrsVx+RAH+8bsDR0mdbkaar3bgT33KhW0+BHSjcviudoLvctAPWmp/V9NxcjXwYZ3CznpV+FmM/ayn66MYakdNhediVY1+m6xBpdUkpliwWQO3xhFnbWA7n66T1jJPpyXiVZ3mMI9KB8e7yleuYVecp1gOl32s4ZV+/A1d4aQ1rJvGYE9yXp0r6/10/17Anr5Cy+9tCuimGzY2te4ZpHQD5ENMD5tqCMVx2Kh3uZqvPLKaDpM5dxjVfC42watyeH1O8TNc9WeHVeTFX3VoaA5jKy7HdC7O5ZhbY6fD1Ae+yOdejlPkMW+1IwZM/S1M/I4PuCkez5hhOx24BzC1r6vDrMpnWuswXW01p8O40+f4OF/HMWq6nDt5fxvWXsC+bcWW7y0K8EYd79go9J0PQG7MG4tuMlyjsc6uhtNa5Do/HyjVBuhqlcMkJ2oqTTLttFc1k8t161PxzWLOD183l9ZWdsTiD7yzd8SVA+rxjHp+dxplPvedcj/3zv34G8Mcyoe/PZ6dOTk/68PYbhaenzlxb9S5XMZkTRxH+By245b5dM1excv6ZH7tr3nKB9+C5q39mgJ7AXtNv63+cgV488cmE0+34XC82+jdRu4wnXwuz/lcrfNltZmfMSY5ka95bn6Xd8IXuVUvjU1mcTXswyyB1R1MisW2ew9f5kffiEM7cIDP6Tf1KS54wK9ryH7lg546S5ZX+bsY94p3XRPENW+Sy7WscddDe6qt68V4GtPaq3aF++o8Vzlt3f+twF7A9ov4cwroxho2Dg5+hjDqr8RCrtahRjc9zkeO8017ap7jozl32Blnd4CrBto/w+r00V5TXNfP+RQvbM2r7G4tIh5/PAdq+Im+js/E1+Fzr4wzc0VP5wNXXfMsl2cDT50JteFXXM7l+iovw+fZNSezVVvlM6nLcio/azLpmeVXPXi2Km9jZwrsBexMr83+cgV48493tXUT1Y2HN+bs3W2CuulxLfKdL2KnflejB1KGydwnOd3noH2r/K5fFUdMc8KOP3cIa67TTX3AU0zG0p4aAxfHWX3A4r6Vhl1M8bQfzxsx5Ctn9NE46qEP83a5FY7+FlVzN6vq5NZd67iG59S8ytY5J30rvCym84X9rl4Zh/Xfp8BewO7TcpG+SAE+DOIdG5k+eSTe7LL3yNdNUTE17mrQ1+VW+VUsO0TdsmV9NXeap3VqdzhVnGN6aGeHk8Ob+oI743KdYmQx+PkJTcIXf3hiJtVsajtNuK9y0H5s8zfkdFCfzqGceUaNwWYNqxztDWxXw7HsG3F17HMYE64dLs+tucq1mlFrn2ZX3LOYzv+0mU757AXsVLHN/1oFdMMMGxtm9oM/3VA1n2092DohFQv5mT/iVYzjVV4VY86TPM7J8jP/1Xn5wqEaR6/4043ccVAfbGAoVpavuqM/4zHnrI/OUtn8rSlf7cv83Hs1F/IxE3NC3yqm64B61pZxdGbO05j7Dqp8rXd2NZPLP/HpnJk2J5jvzFW+Wa8sL5sv8rNY1uNb/XsB+9aVW95HCujGyRsxfvDZMxrxppC9TwnpweA2HOeb4md5jKkcUDPtO8nTHL4UYIPVHOVexbMY/BpXu5pZc9l22nE83uNP59UcxlHOwFA9prZy0F7cz3ENn+YwJnjwTOwDJnCyGPzTuOLhO1IctlnLST64uzXo6t234bgp9rTOYZ36ul7K7RUt3fdxyvc35+8F7Dev7s72LwV0Q8GmEE9+zzYm3kSyd/ThDVo3H7bRK+q6TZ2XUTGnMc7Du85bYZ/2ybAwa8S72TOMqMtiTmOds5tFsTMbfo6fvGt92JiNOb7yzpiqQ8VV18Zp4HLUBxs8sm+9ivNvxeE7fYA3zWeMV2odl/Ax5hVOGe4VP38Trr5aoyzmcNbXK7AXsF6jzfhlCvBBpBsjRtUDJ/zOl+VXuSqn5qqd9WCcrKar5cNtsrl2fXS2q3bVp4ppP710dJopdmUrNue69/DFn35/ugbI01kq22GwL2rBSXmAE+egl9ZwLfPhedUPW78vnlNj3D+r5z6az3gZt47nlXVQHifc3TydT7/BrD/jZDVdr43fr8BewO7XdBEfpIBu8mHzocKbkfpjjGzzZr/mqF3h4KBwvVlGh4l4Fat6ox4avIpzhY/r6XwTbFeX6VrlZr20hrGjRteStedarQube/6PcfACjJPvWTnpDGzzLEyL+3Z+nZsvSTqq4rJGWa7y1Ty1GdNxObmoOH4OUzm8aqOv9v9E71e5b/0//rEXsP0K/owCfADwe7bRIicEyt4n4nEt8tUHDhO8kxzt42pfmU3xun4aV+01zvinMc7nPg5Hfae2W1dg8JPz4p3X/Y5vIHrFX9Zb+3Eu3sHrX0D//Ov4Iw+58cwuAKor11b1+p1UuYqptdAo46j1mQ0cNy/Hsnr1K0+NO8yuRjHWfpYCewF71nosmxsV0A0ybD5M3IbGcWzQ8DlqGuvswNAcxnUbapV/NYaeWu/6d5wzLNVLeyGOnmFnh2JWm3Fz+dPZtLayOYb3eGIW9nF/zcUcqllmq2auT+Xjftl3znPwPHhnbpqbxZCnc1X1DstxUEy1pz20DrZyz77VrP7Er72uzHvSb3N/RoG9gP2M7tv1zQrwZhvvameHYbepBk51YHX12diM67i5Oq5x8c6X1WeHe4WXYVU101iF7WLOF73g57jmntgOp/Jxf/CZaqB5gRV/7lvhPtpT15Z58LerOmR58GffvcPhWXgOndHlYeYqFzFgw844dlhTjh1OFleenWYZzrv9/K1NemEune+kVnOvrqHiPMXeC9hTVmJ5vEUB3jzjHZube4IAb4DZ+4Qs1zrsyscHpevlsDnv1Tg2ug4ner6aU2lcYVcx1Yxz3SXEzaG8Isfpgjx+IreLKc+JzfwDH9x5BuXueHM++gKPDzr1uTmVt9Ygrt8191EMnov5uzz2Zb1ZkwoD9ZEDvh1PxavqGB89UD/lqP1O7Yqfw2LOyt/l81ynM53mZ/2/wb8XsG9YpeV4pIDbQPGjrjYP3ZR4I9BN4dSOAbRmMpRymuBc6eO4sGbZATTpVeVojOfVGHPMYs6vPp4LmFmO05tzGUs10ljY8YcZneYTn+LoN6LzgZf6wQUzsp35wE/1Yr/i8EzMnf36nuXprNq36q09HK+r9VPsd+BnmlScstmzGv2Gsrz1nymwF7AzvTb74QroIcM2v1cHPTb/bFQ9fNR2dVnOxH+ywWZ4zOk056S/zj7ppTVdvwzT+Z0P/dAnbBww8c41Wu9ilS9iwERf+GCfPN13i/7AVf3Yj17ZvMyRc3gG1k1n0posrrpmeZU2rGPW94561bPCZJ3wfsLttFfHRXXV/GwdNG/t9yiwF7D36LqoP6iAbsx8QPG7boy8GTHG6SY1zc/ynJ8PPeV9IrXDntS7/h3WHfHgxvNmmM4/9fH8XKP1sOMJXpkv4prHNdyze2ftgclPPbSzGRwfcAIHzmFejOnmyL7JDE+xYWc4qpHy0bizWUfM4PJOfZhRZ7jC8bQ35ysPjjldP81vOpt+z9O6b8zbC9g3rtpytgrwBoQfMTYZfuqmpZsTb0y6qemm1dnRS3Ms+aGz2py6Pl0cFLI86ARNVLdO12lc+8NWf8XX5aqPbZ0py9UaXQ/GwTue+BaGS/2vNODzO/cMbHByvXnN3HqxT2dmvlrLvdw8XVznchjqc/NpjrNZf+jo8k58jKnaAIfX6QS7y9V5uF9Xu/FnKbAXsGetx7K5SQEcJvHkdz28ugMq6GSHBXArylnOK363sWd4FTcXuwOnw6jiLubmBXeXP/G5HIcZefwN6PcCHORpLvud3p3P9eeeyifweDauR4w5qg98tI55Kj44ZFhcyzngoXHtBZv7VDWIZTMw/wmO4k14n+BWuZiBc5wOLq/C3dgzFNgL2DPWYVm8qABvQDiwsdF2m1N2oLDfYepGON3Ys7zM76QBH8SUi9ZMsE9zJvknPDI8+DWudvSa+DSH7ZN35eVsnf/Exhp3z8DE+mf8p9pkefBzL54l+mYx5LkcXYsql/uxJo5Hx4VrsnfwBVbGNas/9XM/p1WFl+lR1Wzs5xXYC9jPr8EyeFEB3qziXe3qAOPW1QbLMd4oUe9qp77AcLkVdsT40K0krLCrui7mNv2q15UY17h1ZI4OX32VjVg8VV+94HCu4wWMTsMsDsyIAyvryTnK08Xg4x5ZXuUHd9UUfo7HO7hpnG3VvspV/GmPCpPXbcK3wgKfTB/9RrhfVtP1O4nzd3tS965c1UPtO9b3Xdyv4u4F7KpyW/c4BXjzjndsYvpk4tlGx/4ux8Wd74pgHQ7P5jaorh6cJnkuRw/x7NBytV1vV5MdGi5XfZWtMccNOdUz6iJ+5Y+1BAbPGz7unXEMP9ZB52Jc5KmPuWu9i2XzVrjAmX4/mZ4Vv6xGvyHmn32/GdbU7zR6V68ppzvy3FwOd5LHelxZV9f36b69gD19hZZfqYBunmHjx5v96DnuDqrJj5/rSoIUzHAzf4fLdVfniB6T/lWOHqIdb45XuA6nWzvUKG5lc6x71/5sR++rWnAd3t2T1yt6Z3w5L9NEsVjvwMU87EcNx5ini2v9tE9Wx9zwnuVW/mpGV6dzuhz4lBd+n1XNU2LKXXlxfDIXf6OK9dftvYD99S/gi+fHDxsbAtv8nh1kk9F181AbGOx3Oc4XtZn/auzkkOh6uNmcZldnd1hVT+6DOSNfDwHVtLIz7vDHEz3Yp98U51RzZbErfTA31wa+2vCxTi4nqwXnrEZn1/VwMysWtHW5zAu9srzKj57ImfCs8DhWYWtsivmuPOWjdqdLt1bv4v0bcfcC9htX9Q/NxJuHHorYKNyGwb7Je0iqOM6OvG4DmyyPYk9qkAMduppJj0kO9+E1CH9Vn8Wc3/ncfJpX2RzL3tEDcfeMnKnmjjPXBj7rpv04pnkagx1P/iZVE8SdP2LAqb5r8J7kKB/0cM8OV783xUC961nNqzjOrrA5v+PosK/UAId5ZdicW62Zq1/ffQrsBew+LRfpgwro5hc2NlR+MiW34bLPxU9GwqapOGoDM/N3Pbu6O2e6wgU6RG22uWczZH7loTMizv0US2scN5cTvvhDjJ+YETnKc2Kjlg/d8Gk/5qDvE9vlwMdzqIaIuVmY+wTfYWhv1tKtUYYB/6v1GT5wdeYs/91+npNnv6LZu7kuvldgL2Bel/V+kQJ8UOmhpXaMBV81ouZ0tuK6vtxP8e6IuXn4UJ/2QF7FUee9o3fWL/OjJ2as5qsw3FqpL2yeGbbr7bSouEZML184RJkH8piH48Tc0Nf5FAe58HM/jk3i0xyHe3qB0DWY1me/DacDa1F9SzrPXTbWj/HcnC7vLg6Lc78CewG7X9NFfLMCvMlgE9WDKqPAm2f2rrWTDVdz9FBQzMxWnCwv87t65jI5dALb4XDPKs4x7ZfVnfg1l+14jz8+nLr8jCPq+Alt0AP9WJvsXb8JtrNejhvPx7NpLnjo/DqD8nX5jMX9tZZn4jXQPLahoepT1SifitMEx+HdhflKf9bmBGeam30z0/rNe02BvYC9pt9Wf1iB7jDkDUUPNabaHTLV4VHVqhxugzupn3KOvAoX81Q56NXldPFMg/A7XTM851ef2tpb42zjvfJpTtiYA+/aM7M5X7/TqNFe7HPv4IEYbMbhnHhHbrcOrIniA8c9WR8XZ99JrqsLH8+hnLv+iOu6dHXuN321hnvrPGFfnanjs/FnKLAXsGesw7I4UEA3zLDhw4blNi7n001Oczpb6zEG12HDRswdfhmOw3NSKU+XM8WqarvYCY8Ky+E4n8NgvbMD2mHBVz1ZQ9c78ykn1yNqmdfkXWuYn35ngRd/U3+FhRjnMLbTN8tlrOpyk/FXLhMbWMhVTSYYV3J+qu8VrnfVVGt6V49vxdkL2Leu3B/kzRsw3rHR85Ol0XjE4NP3K5IyVlXPB7DLm+K42qlP5446PXg6HlW8iqFX5HBfV3PV5+qgjc6OueGfPHWGqe689vwOLbh3YMKvdYjxmunMqGVujKectR5x11trlSvHUa9cI4d9DlN9FX/NrWzWxvGqaq/E3Fqczn7a1+l+inFHvpvd+apeLv/d+lV83hHbC9g7VF3MtyrAG3K8x39440Ec/ikZze/sDFfrOA88w4fNpMqPvFfjDsP1fqVPVcsx7ssaQCOHM/Fxjr5nWiNv8gRG5J7+oUbXXnnq4alza77q5/I1h3WexLJ5eaZOj5Ncp/P00FX9Aov5N4bNlgAAIABJREFUT3G6eZgjY6pWrp+u0aTXT+foXKqr46ezn859mu84fINvL2DfsErL8d820viB4kfqNghsxohhQ+AfdvaODUY3EV0Gt0k4n+IxF8VUO8NDXhdXPLWhU/irea/2uVpXzaeYauuMDgs1kye0idzTP9YX9fCp9syF14Prwu/mdb6Ma5VbxdCbuWU94O/wtB6znvR4FYPXQ7E6+w6+XY93xZk7v2s/ty+crqtirv1fCuwFbL+Er1MAP/548rsebNg4kBeDss9tLJkY79hw+AB2fe/qOcF59RByWmZ92Z+9Oz3Cp5iVnWHDP3nim4nc0z9eX/dtZvy4TzUf9ABH1IGrfl/s11mymGK4da6wprq5/jq79lGbe014an1nu1ne0Yd58HfT8dO446vYYZ/qrH3Wvq7AXsCua7eVH1JAN9awsWnou26IvLlkG5JuQJ2dbVpaB3kmfnBT/pXEGS7XTHKQn232FUYVc9w1nw94nV1zT2zOxXs844/n5Jj6OdfNUvl0rqxPYDiuzg8+6Kt6aA3yeW7lXMU4V9dGcdBbOWbfFOdrjcPOfODPGOzL6tSf8XT4XOvWQLHfbbt5T3hls7+b9+L/4x97Aduv4KsUwMYST353myJvQpqbHSiTjWuSAz7TXPBhnhnHwJ7gXsnJLg7uI6nwq5jD0kNA609sztU67ZN9N+FnLRznzJdpCC6OX/jQM56cy37EJj6H868m//2n2nAMtfGsNNM8xXC2zupyqr6oR47Wd3w1n23GzvCr+i52lZvy4j6BqX9Vvuau/XMK7AXs57TfzgMFdLMNGweHvk82N+QobkYFvbI4/NO8Lv/qod/xc/GMMzb0LB5YV2Kuhn08uztU3AzKhfHcO3zxjD/tyXHkZH0zv2Lzd5n1Z83By+HzTIg7X8TYrxy6Hhrneu6reY4zazzJdxjhY12znCt+XueT7+5Kr0mN++6ewGvCfXPOFNgL2Jlem/1BBfSw4g1YY0qLD5/qnes4L/xqn/iyXOWZ2e7AQ67jpTiTHK1hm/U92fyzvs7vfI6T5rGtsUm9zhm2u6A4rMqnFw3VUO3AqmbRGHgqf12fqHO52s/NMtUzw88wT/IVo5pHc6c2MJXXZH7uUf1OJ1yYB/J1PcN/ymvSe3N+XoG9gP38GiyDQgHdKMPGZpQ9GY43LreJ6aFZULltE3Q80JdjzA2bclXrMLJ5JjhRe8Ihw8z8yk3XCnE+kDSni7l8+OKpmrFP+VW26gQc7oUct5bKE9pzT53V5TAO13ZzIc493LwZfpbLHK/WntSBh2odftagm9PN86qP+0/1frXn1j9bgb2APXt9/iw73qDwjo2YNzIn0GTD5hw+PLnHZJPOep36Yw5X4w5rN/OJz/Xheo0zh8ib6NLx0R6az2uCWFXDMbxXPs7BTOG78sdc8d59U45b9NYZwUlxdQ04T2dwmKdrmvHVXpgBmnKcZ3B1We2krsNzfLKau/z6PfGa6Zrc1XNxvkuBvYB913r9ObZ6AGHjyp4s0PTQ0M1QN87A1JzMV/lfWTw+0Cscx7PK19jV+qzO+Sc+zsF6ZAeY5rrLCR/iyGdcvKselQ1MxdFe+k1kfNmvNWFnFxGtA2fm5ebI6ji3w7ia6+owo+N64tO11O+hwso0ntRozklfrf1Ltq4XZnf+36bpXsD+0pf+JbPyD48PObxXY0wPlckPeYJVcdFYhVfFAofjWW7mZx6THOXNNq8BNMwwnX/icznZDJku8FfPwJx8U04PrYOdPQMjuGjPTEPVQGuzOnDVep1hEgdXreUZdS7NVVv1yXpUdRpjDooH3VzNKz6HizV5BTerVc2zPPjfmY/ZnQYVryzf6dZ9n1Wfb4rtBeybVusPcsUPMZ78rhu5/oj5B1z9mDXm7JC9wudl0XrEMv+VJcXsjleF13Go4hyDFuHLOFRYE710Djcz93Dv8FVPzKD9Kpu5YP6qh3JXbU5txVM9szUJv9PppB65FYdKO8R05kmN5vDa6e9TeWZxxQwbs2lN1e/0O8p6OD6f8IH/ZA7ocrKGJ7mfmPcpPfYC9pSVWB7/UkA3ubDx49V3t0GqT2W9shFgswysCv8KNmY+xdVN8Gpv6FPVZzHoksWvaK9YavM3ohqwlloHm5/gx+urnNnmecOv87seyMm4AsfNxfMwDzdDlou6qOFeeGedVDPuqf1hY64s19VN9VZMrTvprVgTG5pNZtV1nuB/KkfncH2fzN/x/S2+vYD9lpX8hXPwQdMdOtlBkvlDLj1w1GZJ+QAN/8nmX+FWMcdRl1kPJY3D7vpkdZU/09b1mvg0J8OHLspN61m/iCEez/iDdrAVT23OY9358OIe+o24/uhRcWcenKdrr/0qbMWEHjpzl+d4u5oJ/qT3qzjTHu/sU3G4Gsu+4W59rvbbunsU2AvYPTouyg0KuAOODy1+50PvhtYWotq8NKa2BXyjs9Kj41bFs5j69ULCo2puxNTX2Q4vauJPZwcWPzlP3xl78q6zun64DGnM4bvZwRH5PKtiVBcvxeFaYFY5Eet6K/+uBv1c3YRfV8cYXa9Kg9M+2vcdNvNlfPcNPJH/OzT5Zsy9gH3z6v1i7rzpYyPJNh/eaCbvIZtuTmpX0vLhGnlu80N9hVvFHEfHiTH0YjDBqDhUMcfFzewwnI/xNM62xnRGxN2TffF+5U81dn308pXNBg78/XTzOSytcbg6q6tx37HmKY7ak96ogZba9wRD+09s4Eeu9p7U35WTzR/4zBH9qnzH6TTfYdzlexKXu2a6A2cvYHeouBgvK6AbDn6wOACyJzfmw4Lfr5Bz9erD5q1+9Mv8Ez6TWpfTcZr07nJcX9R0/V2t8zkNOU/fw44/3uiRo7Fuviyu2IyPuTveGXb4nQ6ZD7PiWXHhnqwF+/WAzPIcf9QyJ5dX+dBvgqFcK9yIAftkpg7TxU95AYNnh0+/J9dvfd+vwF7Avn8Nf+UEblNyg+LgcTH4NKezKyyNAet0c1cOivuqzYdihlVxyGJT//QwUjy2T96hP2r4GfNP9Mh0Qm2GjTqNh386AzgylvoUj/lO9GYuXMvv0HF6AeB8vGfYmX/CK6vN/MwFs5z2mWia9Xf+TJ+p1g7zTt/d897J7bdi7QXst67sF82lG5Meltg49ckj8uZabbRVDHgux/m4P2/y8Gcba4fVxQO/y+n0qOqz2IkfufGMP7e5K57arK975x78zTg/eDicyse4PIProTPyPNm7653pUPkzjcOP2bPvkXOA43ixb4JZYXA93qt8janWkxlcjeLeZbuZnP4u7y4Oi/N8BfYC9vw1+nMMcdDw021UiFcCdTld/BSbD+yq9pXYKefsEuE4nGJ3+Th0NO/E5ly8a73OwnmInawNcgMn/vjwhk+5OJ5Rm/ldDL3AGTnOr/XI0dndwa/4nFNpy3owhvbWGM+hs7C2rq7ygY9iVjUnsSk35lHpp72n+Kg7zdd+az9Lgb2APWs9/hwb3rhieD749NCDrSJVBxzn6saoduROfcpBbeYa7/hz+BVHxZ3Yrgc4qN4TvMhxmFmt5sJW/6Sea1y9YvN8eOdvKuupfler32OmS8cZvdw8jgd/P1wb7y7GPBWPbZ6R/a4+y63wJ1wn9ZrDaxwxp4HW3Glrf+Xg4nf2X6zfo8BewH7PWv6KSXAoVZsYDohu4MkBxxgu3/miZuLHwcCzVIdFhtlx7HRwcdfL+aazokeGEXFeN9aBa07ekeueqpnToPMp36qPxpxu2Wya67B0nuw7itruDzkZhvYKe5KLPOY/rYXWVR/HezIvzzPp4/TjPhVHV/uTvqvzTjh32G5tnC/r5XK/SftsLvbvBWyi0ua8RQH9geEHzRs4/8jhBxnEYHNcczv7LQP+Nyg2jeCgPO7uW+FrrNKr46VYkT/1ZWvq6hUXOdUzavTb6ObRuHLM+ik/xYFdaa1zc2/F01yOa0ztKdfIqzgoJ2e73i6Pfa5n4OAPv6OupuvTxbln5DpeFca786ved8dUC4ef5eh6nXwTJ7mO07f49gL2LSv1B3jiR5f9oCGB/jix4b0ikWIGlvNd8WuNw3U+nafL6eKKN9HtFJN7VLXdIeVq4dOY+sOO/1z5Ay+H6fA4L+I4dJij8nU4TjfFYHzNdzHWGHrooei4cO4Jd61z2BMfcNxMk/oux3177+7ZcfpknGd1fU+0OPk+XK+/7tsL2F//An5oft0EqoPPbZhBW3/8yIsYHzSap/aJBK/Uoo/ynGBOcqo5snrmovVZjfM73wQv6liXeGcsvDt8jvG79p3a2booB7UZH/Pg+1PeJ7bycXMo3tUc6B5P/u2AA/u0h84MjAk3p51y0H5qTzhqTdjgfdrPYX3SV83LMzGnk1lP1+2Ts/+2XnsB+20r+qXz4EefbSAYq9scsDkBpzo4Ksyuj8pc5bsYeHXzap/Mdj2yXPZz3UQz12fi0xzXN3ipX9cPcX5GHdZd3ycauG/G9ckOPuWMntXMOquzO+6Kr/nKS7VkntBNMTI7sPGX4WZ6MabDYV/W/4pfe3X6cY/JLK/kn8yDOZxObi1O5jzhsbmvK7AXsNc1XIRDBdxGGBDYKLInt+FNJXsHZlZ3SPvf/sXttD7L7zb3bgN9NQ5e2LyxPm4zz2aoNFZ+2XqhL9aN+bBGqOenvk94ApPnjXeHr2ukOY7ziSaOL3pk2Nn68DzAVf7AjGeG42odtuPe+Socx7XDczXowXN0OD8VV/7KnXlpbsf5NL/D2/h9CuwF7D4tF+mCArwRV5tOQPOBNGnF+Vmt8ztf1a/Kr2KMiU0yfHwgTuszflV9FXN6u3zny7g4TM1lHTgffdwTmkXs5I/zVX/tw7ivzuzq1ae28svm1DrO44O4yruCndVoT+TxN57VXvHrmlYYzK3KY85XdKuwmW/kwX6XPhWXjX1egb2AfV7zP91RN0jY2NiyJ4vGm2D2riLrwa7xzuY+GRfFyGqQp3FsutBksgkrhnK4ajOX7KByvdWndqady3M+Vx950OzqvOgFLNWe46pN9GSu+t5x6ubs6tE/nsrb1Z70g65uZoed+U56Yo5pDTii90SDjOedfv7dKEfHdTrvqT53zrRY9yqwF7B79Vy0AwV4c882KMCdbE5Ro/lscy/drLXuYJzbUl897CaaZXOqH4fIZDitrWxdDzdz5GCt3GGm3NTuOGs+OKEn29xfv69sFte/0qRat6qHYmZ9w68zu9yKR5WvMV07jb9iAxszMedXcO+oZW6BN1mfO/ouxvcpsBew71uzr2WsmyZsbFDZkwfmzSx77wTiQ2iCkW2gmT/6V7FJHDMETvzhgsKzdT04d1JX4bFmehmZzFNh86yYE/mYn230Z23iHXY2N/xZPc+h/TL9qrk4xlwrfg5PfXqJct9Gxjf8bv00H3nKdVqr9V2d9nE8eX2zmU/7vJrvvjnmpmvn5oTvlEuFtbHvUGAvYN+xTr+OJR9IbhPjgU82sROhsFF2/U8w78rVmVmv6KFx7dvFNT+zGYf1yg5A4FT9Oeby4OMnzxz++MOBBTubQf2uHlja566Zme8JpnJXu1oHntPVqfZVPtdDK+49qXV1ysvZE2xX9w4fuEw5XZ35HdynmCecT3Kn/f9S3l7A/tJq/+Cs2LCCAn60TAeHgT5dTviQp+9XbObDuA4LfDQv48n+Sa3LDx8OO9Yxy73CrapxfcDDbcCKla2V82ut9kY8nuCgORObeQNLfcBxPCOW+TXGfPhbw5q6PpUPMaf9pE7r2Wau1TvPEXk6S1XbxXhdqxkznNOaLN99X1luxuWd/hMuJ7nv4vwEDu+a7SruXsCuKrd1lxXAxsY/SLfZRQM+5C43HBYGH/RECXxDiDZtMk+VA83aRiahwjXpVnvFUFtxujj0Vp1Rx8/IfWV+rs/wK/48S/bu5nlVg4qTHmrRC3NqndrIneZz/UkfrlO+iFVcshqd51WbOVSavJPPO7Ff1Wfr71dgL2D3a7qIooBurrrR4YDSJ8MgFr7sXWMT2+XgMhB9uBf4ON8kxvNk7xU21/BFBHzdLFkf9rueUx96xrM7PKp1Y+7Ic8/wXfkDN9QzV9dHvwHMxzwdD9VNbdS4/g5PfQ4v+xa0FjZrwD7+jqa1jk9Wq35ey0lvra/s7luMWu4PrLt5BO6ESzXLt8WcrjxDF0euy3vH+vykvnsB+0n1/2Bv3vyxebsfWkiD+E/IxL2Z8ytc7piHMbAZsX7ZBpX1zvyTObW2sjnm3rUW/eGPZ/zhMJvw4xytZ1w+IB23wEG99s14ax5szq9mOcXN+qn/Ci7Prt/X1cvFKY+rfdw3AJ/Okq2xahj2HXwc7k/7WIMTPapvRNdAdc9mPv1GMpwn+/cC9uTV+QXcuh8xfmT6zH60/KPUH2hnOzm1xuVgw8As2QYywXL48HX1WVz5VT0mMdfH+RwWNIpYplM1L/rwU99d386HA1OxsoOU5+Uanks1ObWZs+unMym+07HKYe6K7XQIrKpGMSobWIyXca1wTmOu7ynGt+ezBvzu5uK9pPv9ov4T6+i4/gbfXsB+wyp+0QzuIHT03/GjnmJmecw9OPMGldV8apNCf2ywE24d54q71rINDq5e6yKHufNFgP2MiRz33Tgf5ys+5ysP5oY8xXIzujrHS7VQ23FTHK3h+cAjnvw9KAZs1XVSA2zlAUys2xQr49b10X7TfO6n2lVcTmMn2Ce5wYN/G44Xa5+tk6tb3/sV2AvY+zX+sx1488U7NoB4Op9u1LxhZO/YhE43mtPNSPPBXzlfWXDFVowujnxwAbfwO34ZXuZnPpqjNnqqPpyHd61VP2PgHU/VSG0cZIzp8LMDj7nxO/LRj2P/P3tfu2xJbio7cd7/ee/va2ynJycbEFKpPhcrYkeVECRJSktodrfbymHGJ+IRYUZ25uetfRTHus7EGR5zr+Ks1KsxuheUt/pHta/Yz8TmfZNxu4JDlr/njinQF7Bj+nV0QQEckjgsvCbIB2mloRXS/sOliln1M3Ac9qOY0fxsLerv4TM39Y/GHo5ni+LNrv5Yc5vL9EKcPfFhG9uz/DyHGOXAuOCkObMcHlfNy7iqiflmNp3T8QzXrA7GsfcR5yqWaprFYW1mYgyP1zbDn51b5TObh/1Ri2JE665+Z4zv0OGMOp6O2Rewp6/Qh/hx4+J3fNmtVD6M+ADKDiOd07EnYcWH40b+4D3bSFBzFjfK7dXHuMptFc/jWsHC+kY8gMFPy8X7IqqxYldcjdH8WifXyO8ev4oeIx9ufiNfrSXjrr6GbR9v7zEHjeMxMIDD4yxuZk4xq9yQY9Z/hlvVFzVoLdBNcVbWXTF6/HwF+gL2/DV6JUM9aLgJe40LB1F2UEGI2cOp6l/14wXRGPBHU9P53YtZwWcuUX4PR20zY/bVd+MAW/bkuYh3ZNc9luWBPt7+0pqjtTc/+2RYEVezax7lr7Hqr/MYA2eFVxQLvvZU3CxmhiP09HJEOLvsMzWoL/NmPtDp6Lp5NSoHz+dM2935z6ztbOy+gJ2tcOP/WwFugJAkOozwhUacPfWgjzAiTPivPGcw+aDNeEf8lV+We3aOdeU8Ho5nU24jDPX39oCHwX72vvLxcrFNm0al3swHeOzj+Vdtni6weRjZHNdqsfaJvk8jrSvxqu0IE3yAXeE3m2PWf8SZuZpvRZcRZs//ngJ9Afu9NT+9Yj1IMUbj4CcOL++ARJMwf8WsFoFc7O/ZqnhVHG7IFuM1vF08lHuEy3bo6fFSPBsrpo4jXSI/Xm/42JPfPR5Vm+IjzuPDtsr7SA8vhxeT1aIYOvZiRz6jeQ8TOmKuul9Yfw+X14Pnq/gZ5u45000/ynNFW8W8Ylxdlyu4dI6//uoLWO+CUxXAweQdYpXEerDZmDH5IFTfCj58otjIPsLWONSvB3eGoxjsm81lmJgDD/A6gs1cRu+Y56fl5jE4oVlU6uG6LN7LAzzGj+rmOjS/zul4pslprObSumw8s4cYb4aXxek6rObVmoDr1VLVA7G7/Zkb1681rI5n1mDGd5VPx92rQF/A7tX/c9n10LYCcUjak9+jAyY6VNnOB2Ukoofj2aL4zD6Lg+bFvLOGNosPrlFcZLc4rAMwlJfG6jjTyeaq/tAGfFirLAfzRy578jvvNbaj/gy/yh8YHr6H4dlm9GLOEZbiRd85xVJdKnGqoWqOed1fHLeSR/NWx6aZfphbpqnG9bgVWFHg/1aCOqYVGCmAww0H2ugwG817+XBYW+xKPDCj2MjucWFbFmecWZMRljef4Xv+kY1xmFdWi+bmcfSuOsNPsdgv4uzZDQcfbeCjXBZnPhF35TgaMz9oqjFeDVUb6qv6e34RBuuAPar1sNYeNtvgi/qjPTbCyeajWrwY5qOcPG4z2DO+HrejtjPyn4F5tM6vxfcF7Gsr+rB6uPngXZ9M2fO3ebazPx+cOGAj/whjVrKjOIjHAce8I+4VjhEvz57ZbE45efk9DOUPH/WN7F6eis205NyaDxhqR1w0z7k11uMV+Zi9gpXFg6s2xiiG9VCujGHxwFA9sjidw1jxlG8UB/sOf3Dgp+GyhiMeZ83P1ncWj8a9X4H+I8j71+AzDLTJ4KDB4a7zKBzzVSHUn8dRjghbsVY5rcahIYD3qAFGfKP6VuzKqVKbxyuz8TrBb3btuJExBr/Dh59Wj3LzmqL6qJY6r2PNg/qiNfbiNSfGHt/IN7PP5NTcXAdqM5+ovoyHzul66bw3rnKYwZ7x9TgdtZ2R/wzMlTp5vaJ49dmxt6Jcd9j7AnaH6j+SE4c7f4myA5/noveRdHy4IO/OAyfjP+Jm81E8DhbWqoIHnwjXs1dsqr/l4cNP55m/HpLw9Z7AXambY3TdvRo9rdQPOFm9NqdxwM6emUZZXJSLuXrxURz7sm4eRmZT/TPfI3k8XN0vu/G9nCPbEziMOFbnWV/VOsKY9cP3IcMb+USxb7H3BewtK/VwnnoYY4wmwE8rRe2r5QHHi+eG581HsZHdw2DbapziRgf5LP6sv/LAGHxm1myUm7H4PeIQ2SNuhmmfjDNz5PcIM+LAedjH0yDi4/lm+TTnbLxXb7XZWSw+1Rjzj/Z1VCf7c05gRXFvsM9qUalJMVUzxcjmsa7VfVX1Mw4zvsr5a+O+gH1tRR9QD75g2Rc8o5l9QbO57MuNw8l8ZpoG8xzlzmrKuCGO8ZVvljubU06er9qysc1Fmmgc14w5fuq7cs3G0EcxtGl7TWm0/lyH1ltZx4qPrm9Uq6ep57tSJ+NovOZgHVi/Kj/gjfLAj/NVc1SxLccTfFXjytjbjxoHn2yfVzVV7Gg8o2eE8Yv2voD94qpvrpm/8HjHF9ye/B59UaMDIbKvlIADifkqzmq+1TjNz2Pl6/lGeSO7hzFrwxpaHHPU92jd2Y61mOXAa6h4UeNhTaL3iIfWwn6MFcWbXf1UryxW5xTL5qPvlsZGY42HxsD24jTG86naonxsr2K9zW9UI+ajvY16vX3xNi1+iW9fwH5ptU+ulQ8Je8dhEB0us4eF+o/GVq76mA1Ng3mdfbB5PHg5RvPgDP4rS+nlUNtojLysIWun8coT89Ce61LfbKz5FZfHurYZR28O8eA8WjcPI6vF5lgP+K7gQBetecQZ87weGQbjVXJ6/qpJlG8G/wm+WpeNvb3D9qh2YK3sBY/HrG1Gz1ns9u9/Cb/3wAkK4LCwJ79HX2Y+XKL3nTS9wwwH5Ogg3MljFgvcwNXiPb5efV6uqh9io7VhPuqLGH7qu8dtZFMM3lteXZ7NckQ16RzzibAyzlGM2rkub20zXsrRxhFGxnVlLvpuK5bVx58z+FW5KLcjY61Lx1Gduv5HOFhstfaq31E+HZ8r0L8By/Xp2YEC3kFjNm4kHsTswaP+Oj6aAwcS6uEDc5TrzHkPG9xszptf1UKxdOzhwgb9bKxxGPPT3u3DcRk+z/Fa6bqxn+ZVbsrTi1VOrD34V+IUR7lgfkWPLL/WqGPlxfMjX40Fd2iEGtmP5yINFNfGHrbnN2ubxcW+1TyrdSlONJ7lGeG0/VkK9AXsWevxejbc9FBMdpBHB34W44lU9Y/81I6DVg9WL/cdNtXNOESHtNZmvp6N69B5zQdd1A8cOAe09Gw8N9IR2IjhesEDc8prhD3y9+ZVb8+nonXEzcPzbFG82ZVj5qtzq7FYA+RX3NXxDJ8ZX+bD3JXnKqbi8PgMzCxfzz1Lgb6APWs9XsVGD1qM0ST4aYWpvVqsNh0dV3Fm/OxgBOcsbsTlyPwoFryqXFfriHiwXdfWxtAPTcbG/J7x8eaAqRiaG3k5f/Vd/bwxc1MuyruincbYmNcU754f26Jcqv8Ix6tvxAFrg9iRP/tFvGd4zvoqX95bs1iePzSv6uBhtO37CvT/FdH31/iSCvUQ1QNuRELjR/4878V6tghz5IvDdLamKN9Re8ZXuXq+ahuNV7VG82F8zTWjheJFWLDbE59dHAxP8+5ssh426tC5Fe2ymAgfe0r3gfnjx3z4B5yzfJjz8KO4FV/mGfG1fJV1nMkf1dD2VgAK9G/Aei9sUwAHOA5fPqy8w92zGZnIfpToEVwczqgNXLJDe5Qvm8/mRjpEXEdx3jzziN4Rh3nvyTZ7r368PWTxXg748pqMGibXZJxG44w35/K4qE4ZFs+NavB4K7bqpfOjsXJgjb3YrP6j/hF2tK9GXI1PhOlxrdqqmE/3q9bbfvMK9G/A5jXriH8poIcdDjltYCYWz3nzmaDqPxoblvpk+Nmch2O14Ae5Mozdcx6nrGYc7lgvjR+NR/w1Xv15HhzUJxsjJttfXrzyYh2ApXEao/ORzhyHvbFaa8TNcqMGj1fVpvsBcZXa4ZtxZB47+Hp1QVt78g+01+fKWnh5uf7dmFm+u+fOWse763pC/r6APWEVPsDBO8BhwxMHNw5NHnvvO2Xx+Bl+ZB/l5ppQD8eMcLP5bG7Ey5tHQzKwAqxJAAAgAElEQVTcmQ/ziN6Bh3l92jzyYo1nOPC+sDg0g+wZ4ev+G+k8mo/ysF01P4qJujVHpq3mXN0PrH+l9ln/qDbjzz/gD3wee7w83CN+Xmzb9vwHwq/p2BewX1vxDfWOGqoe+EgJuzbCiJLi6NiLq/h4cWqbweGGBm0Ub8c44uTZPZtx4GakPjoecYa/xmX2EabOGxZ481yUw3yYj/eO/efhwaY1KW7mhzneF5zLe/fyRTmwhtDGw6vYqhcTrX0mrsKD60Quqw2aQEc84X8Wjwrnau7dfhVu7fMeBfoC9p61ehxTNAA7ZOyTNREmzwer2XFIVeOBVfWP/CL7SOgoDg0CukQ4UfyMhhF2xV5pCswxetdcXl3QAntEY0Zj3Vtejki3yBc5ed+NeMzMa97V/Z3l5L22qq3hg9ssBuIyjqqz+ppO/IOawGuWk+LzuMq36pflOnOuyq/qdybXxh4r0H8Jf6xRewwUQMPBYYovPz8HEP+4hMGXD2BtaiO8u+f5AOQ6VnlF9Xv2qk0P6RmevObeetu8fTCHcaV+5sV5opyM6dVu82zn9yiXauHheraoPtWB8TOcbA65Mp9srqJbVI/Zed0zP+bJfqox5mZwZ3wrHNvnXAVsP9oHz1E29Yv2zAjnqfN9AXvqyjyUF38hcPjhC8VjpV9tBPiCmT9yeV86D8+zKQ+MM9/VOc3FtfCcV4/GXjVWvbGGbPfeM37QT9cQ65nF2hyvOzDAy4v11ott3rziRGsFPrpmEWbVHvkpr8qYtVGeo/iKThlX3S/IZzH8md1DEe6onmy+ivl0v6zGaE7Xg/2yud1+M/sg23dRnW+z9wXsbSv2IL74glS/wEY9OvC9Lxt/WTW2KoOHW41d8fPycVO0ec8nq2/G3/NVWza2Oe/DMXjPnjyH2jxcz4YGCC7cEKOcmX6cI6sdftUGrNwVW+d5jBxm4/2RcVU8zuc1thk+4MGaa75ozLXAJ6ppRtuqb9Uv4v9UO9bC45fNsX9lPSv7pOJjeat+Xk2/aOsL2C+u+saa8YWzJ7/zoTj7pfT8ucEYfT3gvZiVMnfheLkZ2969Ory4q23cUGd15j2AGmf5szb2jnG2Nqot7xetocLniAaKH/FGjmhecSpjYK7UzPtxlVMl71GOng5VzDv8eP963NUG/0zLyvpUfDR3NK7qFsW33VegL2C+Lm11FMDBYFP4Qto7vug874T/w7R6OCCvcvHyRTkiu4fBtlHcaJ6xcLiO6ogwPXvFpj485nfVWZsBfL0n20aaevOcm/cZfDWnh+HZstrNX+dHGnAOjfXyq41j7N0+vC9U82o+TzPNbeOMM2NkPBQnw2QOwB9hV/28+s6wYZ0UO7KbX3VNgVnVUDno+GnaKb8e//VXX8B6FywpwA2DDx8cHt4h4tkseWTP5vjgzg6/meIyHjM4M758ON+RP+LKXOwdGmcNEzHsH+FndsXhRgIeHK9cKw2PYyIu6lPRQLEUQ+cxrnCOYiP70QaM+Ajfsx/NeQSzmlv9vD0FHjqHdVKe1XXWuB7/tgJ9Afvt9Z+uPjqUcQDpgTV7MI38o3mPl3dYRvEjIUZxR+Y5VvWr1uDlV1s21jluQOBgPuDHTQyx3vxIV50HLmNGPmYHH/XRcVSfV6fGYszczMa6eOsU4Zg94oMcK7FeDOPNcgRexNXLZzbeG5HPjN+ML+ce7Q3MZ7rM1r6r3gxnRo8Rzm6sSr72+VuBvoD1bigpgMOKDy17xwE1Ouw4CR9quw845GFupQIf4sTN4K4avDXRNcN6w85PkxLzs7IyjofN+vDlAvkwz3yVQzbH+0cbs8bpeCWPxmBcvcR48crL00R9RjgVf8ao8q/6MTbW2uMMW4VvxWeFX8arMndHzgqvis+buVfq2+3TF7Ddiv4IHg4vPgzZNmpenkx6IOq4EsM+OAzUNotT4eFhwpbFZ3MWzzVEh5uHobbR2OOvMeYDGz/tHXPK2cONbKiPsT1f5cUa6Rxz9rAq81Gct78iX7Z7HL04XfsjXC022j9ebrV5XNRHx9V87Ie9pFgYV7Ub4RzVQ/lVa9W4s8dP5XV23W/B7wvYW1bqRp58mPFBzI2S7aBaPSyrpVXx2M94MZ8qRpWT+Z2NiRoqTWWGt7dOXi2ejetWXjrOOEX7CTn1yVjKy9NJfXTscfN8PBtiuQbmwHvPy+PZNM9RPM3BXHVuNPa4KF/FQD5vbdR3hAX/ip/m1Vwz46dizdTQvs9UoP+viJ65Lo9lVTn8lDzHRO8ac9YYh6nxsB/7rNRU5ZdhZ3MRPvOPuCvuaOzl0hjO5c0xBpqth6s2rIHX3NW3Ui+4QScPg22jWrJ4jrV8ujZe7Gq+3fVU8bwaVmKtbl4b6KVP7AcvL2wr+SO8p2JFfNm+k/sT81U4vd2nL2BvX8Eb+HMTwbs+Z2lpYxqNDV99Ipva+dAfHfheDq5tND+rg3L14sF/xN2LVRvz92rxbMwRHIwTPjO8EOfxgM3j4Nm0NhujSZl/Jcbz8WxeLuSL5kb2Sh6uZ4Q3ms8a+IhLFuvl5f3hzcM2i/tVrJ06ZBr13L0K9AXsXv0fn90OYj4c8T46oL15z/YEAbRJP4GTcvC0Q1OzOf7hZqdxOtY8NvZ8YPPmEGPPaqNFXsaLsD3fzIY5PI0TazUTq1jVWN5T1Zgol9pRj+nFn5F+5qs+Hk/NF41n1xq5IrwZexWr4lfxqXLbiVXNOfKrcKr4jPL0/LwCfQGb1+xnI/TwhhCR3eajuciexbDwWfzKAtkBhB/Dxo/Zos+IQzYfzUV2jwN8mTv08/zVxrm8vJ4N+DiwVR+LqX4Q6/GAzePg2ZiXvvMYvD2Mqi2rjzF0P1XjPD+PG9fixVRtzLMaw5oat+oHnDP/io/FV/2yXJirYFV8Krl2+jyR0876vo7VF7Cvr/Dm+viw1aaAsdpHFEb+o3ngR36RPeKFhmTzFms/b/igThzKWreOvZo8H9iiOcOxnLMf6Aq+GUaUO4uJ+CDGMMEh8t1hZ46782Gv7sCN9s1IA44b+do8/DPfis9urIzP7rlKfRWf3bwa71oF+gJ2rd6vysaHOjcRLqJ68HMD9ZrpHcJUeHCDq9ZqtWTY2Zyng+fv2TgW62V+Hm+O97A8G9el814OrxbPBqzRM9M1q0e5goOure7xKG7W7uXzdNhhy9Yh4s15ed/M8GEtK3GVy0XFp5LLfCpYV/pUebfftxXoC9i313dbdXp4e81Kk2mMznvjSkzFB9gzvsxH47jB2JzOe7XM2o5gaizGM41RMYw/bNGc+ehemK17xd/jU8XRWPA3u/2c/UGjRy7lo/lH8/CfWWvNoePKZURjbDwTV/Hd5eNxbVsrcLcCfQG7ewVelJ8bAb+jgfFhWW1ko+Yymod8Vb+jcqPJGY7l9OrMuGRzHjfP37N5sWrD+nC8h+XZUC8wsOawa65szLHmp/uGc4y4Mi8vZ1QL+8IHa2vjKG7WHvHjXB7vGZty4nWewVFfXhedy8YzcRXf9sn/o+CN+mT755fm+h9i/aXVnqjVDnV8+AuOw57nFVb9bd5s9tFmobFXjTMe2ZxXg2q1UsMo5womYhgba6Pr5+WHjZ+Mae+Vw1+5I7fGRty8eOynmTnz9epUDOUR5dK41THroLkqfL28wNE19HzZpvkibuqnuFGc+tmYfb152LBv2sdX4G36rPDV74evxHusfQF7z1rdxpQPcSYxOty5CXhfNj3EdewV7Pl4NouN7B7uERsfCl6dq9hV/uqnY2/NWB/mHMXCzk9gzNTnNVsPW/1GvDwOUUykB+wax/p4DUD9R/geV/6u2LyXx4sb2VTHkb83z9xmeM3mHmFnOoP3Dp8dGMancfL/Yc5In9G8t1ffZus/gnzbit3El78M0RcjshtlO1z5IDff0SfDG8Vm82fhIicaj+XhOqO8kd2rYcbX4qv+2iwR58WjplHDHPH3sDWGeZl/FpPNzWjhceC9q/OrY48vvifQeITtYWjM7PdO4zHWPRL5qR3rpvYetwK/rkBfwH59Bzj18+HPTbZy2Cscx+AdTcZ8Zw7nlfzKZzQe5RjNAx81ommxpiMOM/PKR8eMxXORn9dk4asxszXxRUDfoxyqp42RV/lEtUZ6ZvEaA9+z15PrndVXOesYezLCrejh7Q/No+NRXvXvcSvwKwr0BexXVnqxzsqhrNCVGG5ofKijOVQwLG/kF9mV685xlBOXDfBFjVluD8uzZRhH5qJGC+5cUzUP8x/V4s3D5nHz/JnXaB6+FT++UGT+2VxVM9RqWKsf5XEUE2s/y8lbt9WaOq4V+IICfQH7wiqeXAMf4HiPnkeocGMznNkDvpJbm1ElZpcP6uMGeISPxo7GqMNbz6jGqNnOrg3j6LvuJeaiNfEc61iNierM7BEHrmNWjwjTWyP+XnCeEUZWE2Nmft4c8kJ/zyeyrcREWG1vBd6uQF/A3r6Cm/njgEdzAfzKYc8xM/HIzQ12Jn7Gl+UbxY3mZ5YCDdBiDNd+Mq2P5h7FYz56ztTm+XL+KhcPR23eXlEfL1/Vplg8BgZfZsxmHw8/w6rMcZ6Kf8WHv2MVf/VZiUeMYvW4Ffg1BfoC9msrXqwXjQQNrhhWajzanLKxd1E5s8lV61Q/rYHnoznYvQau+LPjKGeFl+aqYGkMj7GHGAfv+oz4ebGaU/eKzp895nXMcu3Q0zAqn0qu2e+45q3WzXEWU61B8/W4FfiKAn0B+8pKnlSH1/i0aVYO+R30cNDz4T1ziGc8sznjPprfVR9wLF9Wm/LRMfPhOc9PbRiP4qo1z+Aol1EO9ccYe8TG+tEYm/dsmV0xdZzlV18dR1zU70gOxbLxUbzZ+Fl/j3PbWoE3K9D/DtibV+/B3Gea7qgMryHh8ObLGHDM9pSPx33EjfnjAjFTUyWn5wMbchpPtrF9VIPN89oojq6f1sf8ovcRB80BTqO4yrynn8ahJuimNar/ynh3DsZb4TvLh/0r++sqn6vy2Jp3rnjnqzYrezJGv3+mL2D3r8FjGHib3Wz2Yxtf55U4/NSejTVGx1Es+/GXEnwtTu1nfXmrnLmWagx0V+2rtXEeL6dnM56wQ8/K+utagTPXkOFEXBQXY/XXMcdBL3CKMFfWaISluc/Yh16OTI8KZ16/SPMIJ1vnLCaaM3ulnh0+OzCu5PvVXJV1yPbLG+b6AvaGVbqJI74A3LTYttJIrvhSaTMayTfiNJof4VfnvTyRzbNX83h+uq425o+OPQy2cQNmbM3j4XBt0bsXp7ZII+9yMLOXI1zLn80hL7T0cmbxqC/zmd37GWfG8riq3t44q9Xzb1sr8EsK9N8B+6XVPlBrdOh7drZ58zM0ZuLV15oGfiynzaMhzHBY9VU+wInslTyI1WY+wuac1fxVP483dB5dCJDjSC6s7eiSwDm8vcF1HOXjaQIbclsO6JT5r8yNdJ/BjPZaBYNrrfi3TyvwSwr0BeyXVjuplRsBN7JqI6r6MYWVGIufjYO/Nr4dzW+WS7IE01NYp6hBjrhhPnpCa3vynpghyhxmLwUZ/2xuZo8AJ9JQax3lVX8ea6zuxyx2dm62rhE+uELbkb/OQ1+197gV+GUF+gL2y6sf1K6NAm6wR/MB3P/Mo7jR/Ai/Oo9mUmkKV3Hy8ni2qEa+IFmc/XifKqb6RXheDrMpH2gNO2vPuTQv8CN7lH/Fjn2BWmdrXuWoeTPuKzkYf7YmjwuvnTcf2RC3g0OUo+2twJsU6AvYm1brQq580EeHfmS/kOb/Uh3hwo1hpjlkOaO5yF7RTGN1bBhotsAzH89PbRizXX0qHDmvcRl94AOeI3+bV16jsRczyrP70qIco/xnXlK4JuSv8lINV3l6HCIt2t4KfF2B/kv4X1/hQn12COODg9XGOJx53oPjQzx617jKwe/5eDbFXhnzZUH1WME7GrOjTu9yw3VGa4zc9mQtqjVxc/beYWMubENO5q+8q1wyv4rGzMGwIh4VrIwLz1VzVvHUD1qrfXZ8ZH14vWfztn8r8BUF+gL2lZXcVEfUcLkpR00oozBqUKP5DDuby3CjOW4srEe17gg34jnr7+FEGGy3d9Tj1QJf+K026hkcjzfygivXq/46ntHG841sHidPwyh+ZPfq4H2I+EpOD0vzM3bFX+N5zPukwo9r8dY4y9VzrcCXFOgL2JdW84RaogPy6KF9AtVTILmhqBYzzcbIHdFMY3XMxWdzaJZcC/y1Ph3PCOxhZrx4znuvcslyVDQaxXv7YbQPRpgjXXdelrxcqxcoxmKOwBvpYvFam8dP1+0Kn8p+a598JXbooxiVPZWzetZsX8CetR6PYsMHqX0R9MugZLnRZE0nmwOm5+PZzD+yK7+jY/7ysx5HDgWPu2c7yl0xo7WFnz1XP8BmLNh4vZRTli9q1Ee0z/LpnMeVOan/WWPW8WjtXBPXcgSX+c1qMMrrrYHm2OGzA4P3uXLkceeK/55oRZtM2zfM9QXsDat0Ikfb5PzJDlDMIQbPowfnWV+0DDebMz1G8+bDTUs13LlkIy48H72DD+a9J/ugPvOb/TD2bGzmrzrYGPywN3UvaswMfuarc/q9UR7qz+MKR/bRfce5KlgZF65jpgbGBMZRLhnPnmsFvqBAX8C+sIon14CDVJ+W1mz280sfbSzaAKGH2lcbmmqr+XX+yJgb8Oy6ciw46J7xuLMteo9qgqbg6uFrbMWHY6r+ut7A2LXuWofWviuPh1vVgDnyftjFTTXocSvwZgX6n6F48+qdwH22ARoFHK44cLkZrlCcOexnfFe4rMSYDqwF9FAsj7tn0zgeV/xHPjw/8q1yGeGM5jWP+uvY24Pqo5g7xlEO7AHLYT5nfni/7cyzA1e/Czv5NVYr8HYF+gL29hXcwB/NC1BRU9FUnh83QlxCLA5NSGN0rDlmOVX8RzlH81WO3IShwWwzVi46Zi485/nBpk+tZ5Yj7x+Pg8fFW6fMTznqmGNZd7NzPVGOyK55Vsb4HjAPr/4VbI7BOmjNT8DFmngaHOXX8a3AWxXoP4J868pt4I3DEE++MG2A/x8ENwYzcr6dea7AWm3Uekm5giu05txRXtS10iB1/0RYbB9xWtVZ69O9p/Oj8REeHOvxGGkAblUO6sfronWqr857Y66hyl1xLC7jpf49bgW+rED/BuzLqztZm3cow6bPSeh/u+PQticfxDiQzcfjEOWa8Y0w7rCzDlYD/8w0tqh+z+7ZVO/Ip6rR0fgoj+Lq2ItTH+w51GzzRz+ao4IHHrz/K3ErPvw921EvOID7KibzWqmrY1qBryjQvwH7ykpurgPNpXLIciPKmpLO4SDXZqR+Oh6Vmvlnc4Y7mo9yR3GRHThWOz7maz/2YW14nv2ZyyiPYsAfOY80VV4/8Gd8rxbjw5yjd64xep+tnbXAe6RrlHOXnbU7iwNwsTazeTx9j2Kaflz7Lj0bpxV4kwJ9AXvTap3ElQ9CbpxZOu9QVv+RD8/zgf7Ug3lUj9Y/M1ZsNMsZDPVVTJ3fNdY9g/VDDVzLUU5H47lm3nPMUffiik4zPPUyY/l2cFDemmeGo2JhrJgYR/5qj9ZA/TDmdTrT56o8VkPnilbyT21m91eM/IyZvoA9Yx0uZ8FfehzE0UGw46CeLZC/aJafudncHZxma4j8K9xRY2VNGM/DVhvG/EQe5I24R3bGYp+owY44A0O5a35v3rNpXIYPLaIYs8/kyHB4Tvd8NW6FD6+LxR9tbDvwRhwqmu/w2YFRXZPO9dv/EGv/HbCZU+7DvnwQ4F0PBx3vlsPDh80OZ/yYDQeccvAw1CcaH4mNMFftWjdwzI76Z7G9+tQ2i62XBht7mPDD/Bnrl+mhnDJf7DNwnNUkw+Z1zC4cyqGCueLD36kddaKmHVgr9XRMK/AmBfo3YG9arQdy5caWNTmd0/FMadzkZw76IzkzfhFuZM+wsjltblnto9yYtye/Z/m9uZVYb/08vmrTscdnl01z2Zg/2eVJY49ygl7AyXKv5tK9dTQHcz6KtVpTx7UCT1egL2BPX6ET+HEz4YOy2kwrDabis6M0PdwtL+rTuSP5dtXj4Xi2EVdtmFHNwPaenAPxo7yYj/aNl0fXQev1atEYj5fimI9n82JnfZmP5ZjJE+Uf2TmH5rfYikajHDqva3Ekx04s5dnjVuALCvQF7AureKAGbpgMo430QIrtoaPmpwd/hcAIs4Kxy0e56FjzcL3mW/1Ea1+JRx7Lbe8jrFENyKlrV43LOO/AUHzUrbzV74yxamQ5jlyUPI5eDs+vYlOs3VwrHNqnFXiiAn0Be+KqXMyJm2fUSM9oYlymh+/ZMmnUnw96m7MPnruagOYEv8ie8d8xh4sBnlyzcjOO4AldZjkcjc/yaePOfHfOVdfO21/GY7S3qvijmlgfrN8ZuXkvjfAzzsz3CE6Wo+dagTcp0BewN63Ww7hyI8mais7p+KqyooY5yr+Lr4fj2TI+keYRDjdP8/E+kd3zhY1xYQMHfTLOLH+LRS4vZ4Sdcbe5SK/VOL5cQM8jl4xZfpwfmo1qmZnfic/reESjGf7t2wo8UYG+gD1xVU7kxM2WD0Jumln6SmOo+GQ5srld2HrwG+6Oxplxr8xpfTquYHg+WGs8UavnW7GBF3TjvaTxu2owXL4IZDnBYWdurSsaM0f46H6LYo/aNffuvLvwFedo3R3fCrxRgb6AvXHVNnHmJsqQbN99gHvU72iSXr2wVS8nEe/I7tW+2zbKHa35Co+dWKP1iPahNnKsXeQ/qnOk3yie55kD76lVbl7uiK/qYrE78yr+KjbjsEZerWa7yueqPFfW9MZcug6r+yzaT3fb+wJ29wrcnB8HuD35nWl5hzzbvPmjZc1iZv7ZnMfTa5yGYZ/VA8Dj4Nk8PrBFmns4sHnPLEdlzjSAHspN8zHeDP+Mh1ev+Xvr5uFE8Z5vxN/zzXC9i8bqXvJyR7aqJlH8yM51me+Rmkaxmb7gucNnB4bxaZz4H1mt6FPRb7Q/nz7fF7Cnr9DL+emXSMdvKO/sJgYNVBsd79IKuPZc+XD8COusGka8bc08bqMmP8LdMa+XFsPUPXYWT+iiOY/W5dV0FLPjW4GvK9AXsK+vMNXHDZcP4mojrjTTis+q5Gdgz2Jyo2ENrSaMz2qeI91GtfCFhN9HuN780XgP02xag46juMzO62F4Xp7IluEenfN4HcWsxHuXJW/PrmrP3wsPt8KxfVqBX1CgL2C/sMpOjdpAcWhmDcqBOWxaPeQ5cYaRzR0m/y8Ar4lCw6z5zPKK/D07bN5TdZvVgJsr6vTyaO3MM3qvcMnqrcSDP9dhccpXsby8quURDN1Ho3zKb2WsOSs6VPMAG3tkpE0Vt/1agS8p0BewL63mZC3cOL0misPTYPWdD9jocF1tIqtxk+UP3Wd5mA4cw5pFGoGE5tIxk83mRkUhlrmNYrzcGq9jiznCc4aT5xvlZrt3AYnivBxn2rCXkMPbPzu58vfZcnr5Vuo9C3eFS8e0Ak9ToC9gT1uRB/HxLhRotF7DHVHf2TBGuZ4wz81nRa+ZGkbaYt6e/D6TA74cz3sE2Oa3Uq/WoOMVrtUYrQNxuy4iVR5cM+dmPc/kpBemXWuguGfWUNW6/VqBuxXoC9jdK3Bzfm6mGRU+iPX9iuawqxFwjauYUVxkt5xeM4Vuo2YU4Xp22Lyn1p6ttzdnPMEZ814ebraRv8V7/L28mkvrGOmXYXrY3lqt8K3krfpEnKrxs1pjrXnNd+jMe8O478CsatB+rcDTFOgL2NNW5CQ+3Aj5UN2Rjg/VrOFqrtmmoPE2zjCyOQ/rDFvEwWuo0C5rShFehTtidY0qsay1xY+wmKf6ruaf5an+K9rhu6IXB8NmW7ZmrJ1yWhl737dR/pU8iNHad+RSzCP8OrYVeKsCfQF768od4K0NEVBstwNytWF5eGqL6K/kjLCO2K/mwU0NF5Qqh5Efryu/r+hzJF73lGGhVuOiGuxo9Cs1ZjHKMfM9c07XPNJxJwfv0nR0jRiTa4h4X+VzVR6rs3NFq/2nNkf3W5zpnpm+gN2j++1ZcYDbk99HxOCLgyP6QrCf+Wgc8rB9lPuX5rXZVQ9pvSBAe9augqVaRzi8tt5a6rrrfuE6Z3l5+ZR3ZbyKE3HXGiscjvrougNvlUumiZdrNQ/XPcLIOAFnh88ODOPTOP0PsY6+130BGynU89sOEm0KOKDsmX0qB1kW782tYkZxkV1zV/04jhu92aFX1LA8XT2bcsvGHH8UCzUof23sqBO81D/ju2uuul7KnTlXMap+o9oiLqO4lXndmysYHdMK/KoCfQH71ZX/V907GumqfNxstGFo441yZA0rm4vwYD8Sy9grOKMYbnisU0UzYFd8Rxpl86Masliey/ZFdBmLckf2KpfIz8NV3hbr+UWYO+3GBeuNZ6Tdkby6L8/IcYRfx7YCT1SgL2BPXJXNnLjh8oHspbmrURiXKLfZuQbz/coBH9XsrY3asJba/NgP+NBPdVRMHWsD1/1T5Z/56ZyOwYnXnOt58l7gNWLtr+bsaXfW90j3yNW16h7ucSvwVAX6AvbUlTmJF5qbNmK1R02wQutIbISvhzg3YIvR+QjnTfZIR8/O66cNUNd2RgONjfJknDSf56s+PI78seY2v/qJsFfxsrhdl6CjnD0eu78/V+TItO65VuANCvQF7A2rtJkjN1F+H6Xhg3+mCcz4KocoFpeMlSYcYWpuHUdxkb0ar37euJqDY/kiZvGrH+SuYKzwXOWFON4DXLNqMZvnzFq8C8osvx3+3veHuc3kiPTSHKv4M1zatxV4gwJ9AXvDKt3IMTpUmVLFZ3cJmlMbmteIKwe/4q7yruCoj45HuUf+mLcnPp4uUR729bCiuBm71qDjGSyukeMMExpU9kA1Z4VrxQc6e2uzk29WF+eBVhXuGabOIQfwbf6q+pRLj1uBJyjQF7AnrMINHHC48tk58LwAACAASURBVGF4FQ3vYPdsR/no4c61npHvKN9d8dnazqx3hMN2vjwwf9Z3t9YreF7z36X3Tpxsz+rczryKpXrtzM1YM/tROfa4FXi7An0Be/sKDvjrAYeG6YWtNDYP56k2biqZDjP8z9IswvXssPETNXi2lfoMZ4TlcdNcFR+OmfXXfDr2mr/lwGfnRUNzr4w9vjM4R/Xj78wZGjE+r0NU41U+V+WxOjtXtNp/avO072fMvDbTF7CaTp/2wiGNg2B0aGfz2dwTRGR+3pfZ5vlA5Abh+VdrOqLLkVjjh3iuq8ob8fBfxZjJt+IbaRTZkUPX1Fv7FT5nxBhXby21hrNye3tgZ+4R1mgtjd8Onx0Yu7j8Mk5lHc7Y61di9gXsSrUfkIsPcO8wjyiufhlW46oHT8R3xe5xNRs+3ryXp+KnPjr2cNk28sc8+Ot4hG/zaPjZO/AjvIynzuk4wjzTzhdurY0vCBWuFR+rperHdSsXzI0uMTu083JfkXcH98ZoBZ6kQF/AnrQaD+NSaQwVn91lZTmzuRUe3JD5QrKCdUaM1ouxPfXj2dSHx4zl4UIP1gU5vIasXLPcNuf5e7YRzuq81jCr32re2TjvQmQYyn8Wt+LP3w/zv3J9KvzapxV4sgJ9AXvy6mziphcHr5luSjWE8Q5ozzYEuslBm51qu4NWpEdkt5zemnq2HfwiDG7Glhsffo9ir7ZnWkZcdO25risuOxEvtitHm1uptZJL83r77Sm6zNbT/q3AFQr0BewKlW/KgQaBp3dZ4EOzD0t/oUYNTHUzf27Ohqo+fqY/raPcf0b80+I1xVEMz6/Go17mr7roZWG3Rke1G+mk/Nl/tZZRzpl54+Ct39ncPF3OzjmjS/u2Ak9RoC9gT1mJh/DwmpY20egw1Vgd313iFXy8HGazH/5ok4o09TTzcrAf5pFTc3uYakPzjnC5uXs+ZvN4ok5PE89feV0xHvHw5nX9VHudv6IOzqH7DXNn8+L1virn1dp2vlZgVYG+gK0q98I4bsQrTfnKkr0md2b+s/NpA9yhv3LGeCe2Ye3AVa62lqqJjTPuHsaZe+IottYHPLVXL0Gz9Uf+mp95RTFXaHE0R8e3Am9ToC9gb1uxg3y5yeEdTU+fo8Zw1mGdlZjlzOYyzDvmtAlCe+bC9WS1YY4xPNtZdWbcZnNClzP57+RbrU/Xuxp3tp/HC/to9P1f5eblXMXquFbgzQr0BezNq7fA3WtsuIjpUxv6Qrp/hHiNz7MdzXNFfJV31S+6ePAazNblrfUMxtH4mVyRrzZrTw/volDVPcp7pn1Uk1fPmXyAzd9/s7HWZ3Hife+trdZ9lc9VeVRnrRfjX+WjdZ+1DyPdz7b3BexshR+Aj4N1lgofjtFB+eRGN1uv5392fRG+1wz5MNKDiQ9qXu/Iz6sVNm+/gGfEV/EyP53TsWLxWA9gi9Ua1SfD07kZLhq7Ola+XI/OreZYiePcV3Aa1VpZmx0+OzBM78b5f+m2G+kzmk/BXzLZF7CXLNQsTT4wsZHZxgfE7EbHQenhco7RgTpb0xH/2RpXclVyVHyi3Kanag691R5hVOyMFeF6dXg23meV3JFPhG3+us9YE+CpT5RnZM94jGKr89HFpxp/hl/ESc+CM3I3ZivwVQX6AvbVlV2oy2subPPmLQ1fDJDWfNEIZ6lEeWZxqv5X54t4RTwiu17IoPeq7hGvzB5xy2JGc0cxo/04yrtrvsq/4qcXHF3bXRfLmdqjy9gMRvu2Aq3AX3/1BexHdgEOe3vy+2r5M80DOZBbc1awLCbzy+Y03xvGK/Xg4rGjvh17ZAePDGNGo9FFxvLccZnJ6vPmlKNpgI/OefG7bazr3Vx219Z4rcDZCvQF7GyFX4g/09iq5XmYbOPD2zA9/2qus/2q3Kp+u/gin2o5g+9d4hj3aJNXTXQ8wzXyrWB6dUA3PD2fKOddduao6341/4jL1TzuWovO2wrMKtAXsFnF2v8UBfTwtrE2FEtcaa67CJ6daxY/8ofd02tWC8aIcD0ebPPmZ3nc5a/7kHk8/SKh3HU/XMlfuUDHKznctYc6bytQVaAvYFWlPuAXNdSnlqaH9Sr/Ky4ElRwVn8pasA56UV3ViPMyJpo4nuxXqafiM8KcxahoWPHx9p/FsRbqU8G9yke53cW7L2NXrXjneZsCfQF724oV+OpB6zVPwOxobjswCmX9z0Ubi00YB69Oz5dzXc09qjPiEdkjnB125PSe0JifI413cNqBsUNLrRU6MD/12cF9B0Z0ETJsm9uhz4hnxsHTUvGu8rkqj9XXuXSV/x6rNk/9bsUV5DN9Acv1ef0sDlXdyGrHmAtmmzcfiTPjqxgrsVkM6sYT+Z78Rc7qUb28MeK1Zs+X9cj8mRPjo3EbThaP+V26H9Uo02JmTusxXqqD+uzWYoYvrzfHgTOeHueVPFmMXsZGOStrvsNnB0Z1jTtX/G+FVbTJ9tcb5voC9oZV2sgRmxoH7UboU6FWv4y4IOjhzvXjXX28gqo8qn5eDs82wtN1nV1fjQcHtUc8oJ36G07EJcLy6q/azsCs5oaf7iOtX+dH+FfUpN8T5jzLd1RPz7cCrcB/FOgL2A/sBK8pHin7ioZwhF8lVi8MFqONErZRA1rRYyXGq2vn2jLWUVxt6NBSNd6lg6fNjO1MHrp/oAGeOj/D+yxf5qRr9kS+Z+nQuK3AmQr0BexMdV+IfUYj8jA9291yadPhSxpzW+G+EuPpARx+ws+zeRg7bKv1eBobluprY+8St4P73Rhal9aP2ld5rq5NlE8vXMpX5yOctrcCrcA/FegL2I/siCub85Mk3dGMZi8Ns/VHHCP7LP6M/x37hC+6qrVx54Z/V7M/cy28mvSSM7OGZ/sqX3A9U6Oza2r8VuAOBfoCdofqF+W0g/LJB/lFMoRpjjQMvSjwJQIJV7Q/wsnyIn4m92ifHOXEvMLFcCbAS7X29NVLgcLtqEExdbwzh9bsreeoZuV31pjXSXk+heNZtTduK3BEgb6AHVHvgbF8AEbNmO1HD0htOjqekWgldiVmhtOsr3dpMAzjyWszgzuqkdcTuVbwlZ+Hq/uFuY14MqcZX47L9IUf6lCuM5qc6btSu1eLrpfnc2YdHrZyeCJHj3fbWoE7FOgL2B2qPyyn1xBWG+sZpXn8zsgzwjzKA80JONyctFGNuNi8h1OJ83wYawfuUa08jpnNu5ipphGnyJ7le8Jcdtl5Sk0ZR517gqbNoRW4UoG+gF2p9g253t5Yb5DsfxebSu5Ko4t89EJm+cyXLw76zheNaK7C+4hPVM9uzKN5uMEDizU7wveq2BkNdD95td596dE1YR09vqrzVT5X5bH6Opeu8t9j1ebu/RszXZvpC9iabp+MmjnsqwJ4mJ6tivcLfnzJsnpNLxxE+typB9ZFD72dOe7G8g5w1pf5eb5385/J7/HXtdVL2wz+UV+9jHl8OUfl3NjhswPDeDdO/I+sVvSp6Hd0D94d3xewu1eg85+mwBu+wMwx48uXMvjZ037w4feqqMCt+r/RL9MV9XjNX/XE2PN9iy7K3ds/6jOqraLvCKPnW4FfVKAvYD+w6t4hq83lB2T4R4lfahpHLlHQQfcD2/nyF+2TTE+d03GE6dmPxHp4mQ0XEc2pWgFj9uKS5b5qzqtR63tjXVfp13lagSMK9AXsiHoPjtWmzE2UD1i867NSmjamSkz7zClwhcbIYU9+HzG9gtuIA+av5OJdSKCd8vV81WfneIcOytkw+aPzO/k3VivwSwr0BexDq60HpVcaN1j9r18+vLWhMHZ0yEd2j4faVmJXYjRvdVzNNfIbzc/y4XWpxnp+jIN3D7vCv+LjcXi7zbuYeBp6fk+uXfl6NT2Zf3NrBZ6qQF/AnroyB3mhCY4OS69Zsk3nFVfxMdZDe7Uczb+KU43bnW8XHutu2rLuuibVWtmPMfGOJ3LpcyWPF+Np5Nm82KO2s/Po98Dy8drpGhyt54r4Sk3qcwWvztEKvE2BvoC9bcVu5MvNips0KPE8N5mo4dxYypbUZzXvs3CzopHTWyu9kKG5mm+0znfUkNX3pLnocuJp/yTeGRetyatFfTK8nmsFfkGBvoB9eJW5qWYN9gwJvAua5cl48KH9C4f1zktKpmu0vlijaL7Cjy9j+s7rye+8D6Lcv2jXPQ/NVDvTRn2fppfHT+vwfJ5WR/NpBc5UoC9gZ6r7IuxKs91Zjh6+mj9r3sZD45Wb4un808YrfBEDrXQ8qjHyV/uIWzRva6RzPAZv48nvEW/FivzYvhKzM77CMfOJ9rmnV+Sb4V85p/y0Bh173K7yuSqP1di5vJX+j0210T0UR75jpi9g71inn2OJL1rUQPHF1C9oRagIsxL7dJ8VPVATdKlg7NAwW2PD93h4eT3b09fpKD+vEUEv1c3zPZp/RzzzqqzhVT5X5TENO1f8j7VWtNmxD+/E6AvYnep37mUF7PDOvqA2p41oOVkxMONThPiHW4QH+476dmIZ+YjzSv16cci4QguNWck7G7Oz5tnc7B99J7x9codOR2rr2Fbgiwr0BeyLq0o1ZU3rzaVXml7UZCzWa0qRHpVcUSzbV3F4DdFkgXvl+q7yz7TxMD0bY+i6sr+96wc2jVO/r469uiOdPN+v6tJ1tQJ3K9AXsLtX4KX5R01ypqydWNW8XqMBj6g5ARuXIA+D899RV7V+j6dX9wrenTG6JrwGUX1vWaedukY6eRqp704ejdUK/LICfQH74OrjghCVdkbDeQtmpAnbteFobWhSXrNS30o+9lmJR4zHJ8o/2iNR3Jvt2brOaLeqwcraruZajVONDMfTxvNbzdlxrcCvKtAXsI+svHdIammzjfoNDUNrvGKMy4s2IU9fXRf2QfyKzl6umdpH8SucZvI/zVfXEvxMB11D5h7F3VHf6pqN4rwaVROMPd87tOicrcAbFOgL2BtWaZLjqLkCzjt4Pdtk+p93jy5Wui7cxLShzYp4NF73BPBG+yGb1zkdz9S4ErsSw5wq8ayT1vPlywjXxjpBD9biyzromve4FZhRoC9gM2r9sG+lGT1FnqdztYakTYsvbdzEtMF7DW5Vd3CwJ7+P8J6u74j/znldS8b21optX7yYeDV5OphOnu/OtWmsVuDpCvQF7OkrtMhvtbkupvsjzGvSnu2PwDb8uzGxVryWLE/U2O6S8I71vSNnVV+9YCjX0fppfDXv0/yiOrR+HXt1XOVzVR6rsXN5K/0fm2oT7aUY4dkzfQF79vpcwk4bwyVJb0pyVq1X4uKCZhLy+5mSnlXfmZyfjp01E9Nbmw/qyeKeXjPz4zoq++sqn6vymBadq/8h1jd9Z5trK/BKBSoHbVYY4qOmnMVmc4yH9905ovyeJp4tin+C/Uy+0UXrqvV5gr7NoRX4sgL9G7Avr27XdliBMxvsYXILAN5vzGDTp17IuPH3JWBB/E0h2cUsW5cobhOthmkFWoFJBfoCNinYm9xxecgO5TfVA65vuBStcDwSU13jyp5gHuyPBq7znFt56Pgp+41reAqnHTyyS9ZT12JH3Y3RCrxRgb6AvXHVbuaszUvHM/SOxM7kGfnO8JjxHeW9Yx78tSFH9hHH6GKmlwHD93KO8Ht+jwK6HkD11oUzRnF7WDVKK/C7CvQF7GNrb4elNjku8S2Xh7fwXNk+XNtKnYjBOmfrvcIPMSNuo/nRvvPizRbVo/Y3XQy8Wo+sze7YTEvVnXNncbs5Nl4r8DUF+gL2gRXlA1IPS4w9Hz08uUk8vWF8YNleWcIV+yLblyyat7dVVPgopvr1OFYg0y5bgywuztYzrcDvKNAXsA+utR183Hj0HfOwmwTeQcrz8OlD9RsbxtaW9wHvmbdUCM7enkR9qEX3Mu95rhdYGv8WTa7mOVqDiI+3ZpFv21uBryrQF7CvrmyhLm023HSyd4PWhqZj9skO6QLNKZcvNM431nAH55mc2vCjWN7H3p7GZlS8qU36IedIRysx08jT1rOpVFf5XJXH6utcusp/j1WbbE/FKM+d6QvYc9fmkcy8y5Qewt44O2j0S3ZW4crrrDxn4YL/VXqhjrfrNrMe+h8lUSyvQbYeX2sYkR6zdtWlsseu8rkqj2nWufofYp397rT/ixTAFzxrEmeX413akDM6gMyecfbm9FA/u65RDdX5iCevHTRUTE+HCK/t+xR42kUt+h7tq7iRWoFWYLcC/Ruw3Yo23jYFogtV1GxwGckuJToX5bAiojzbCrwZiC94V1PxtPVsV/PanW/logYOulfNnu3X3dwbrxVoBc5VoC9g5+p7C/qdjfWWgv+bNPtNm7l4DZ6bnNfwPNuoRi/PKOaKef0t2hU5v5xj5zrzxSrDzfYjz/VF7cs7r2v7igJ9AfvKSi7WkR32i5CvCst+QxFpY3ZthJVx1hSjXJmYiNHcUcysf4TT9vsUiPaQ7p/qnojw7quwM7cCv6NAX8B+Z60/Uak2mquL8vKrLRpzU/TePdvu+sCNc1kOtn+9Kev67Nb4CXjVNcQ+0P2gNVTxNK7HrUArECvQF7BYm575EQWuasjWxDSXd/FhmzZIbZQ63rVkynMG90jsTJ723aNA5XKV7TOeq2DtYd0orcD7FegL2PvXsCt4qQKViwpf2tDoYFstmxtm9O5hM98Kd2DM+Hp523a/AtHFSteW91PGOsLLYnquFfiaAn0B+9qKvqgePbxfRP31VPkSp5c8NFHvcubZIEa1+b5evC4gVKB6sfL2imfTRFf5XJXH6utcusp/j1Wb6v6KEZ810xewZ61Hs2kFbleAL2RGxg7ByAay8IG/Hpw6hp8Wy36aU317/F4FtJHy/omqusrnqjz4DqgWWv+v8qnUrVq9bdwXsLetWJEvNq/X+IoQt7n9whfvNnEvSsxNxVvPig17N9vD2dxFpQ7TeLUOg9qhFWgFPq9AX8A+v8R7C9RmouO92RrtDQqctQdGvwGL8sKeXc6yOWge4b9hTZpjK9AKPF+BvoA9f42a4Q8pEDX9yqXih2T6439N6tUe/dFOpDEweH50URvNe7za1gq0Aq2AKdAXsN4HrUArECowuqyEgR+ZiC5xVl5VG/Obvaipf8bjI1J3Ga3AzynQF7CPLDn+uCYrZ6Zh9IGfKXnvHNZRm/S9rDp7psDM98n7nlbWeuQzwyGrpedagVZgjwJ9Aduj4+0o3ZRvX4Im0AqcpsDo8uRd2pRMdEGL7Bpv4xEPL6ZtrUAr4CvQFzBfl9dYK4enXs68w9qzvUaE/xL9Qg3QnNes8tvNt61V871eAe/yNPud8c4bzxZV53GIfNveCnxdgb6AfWiF9aL1odK6lM0K3LlXvKbv2TaX3HAbFNAL1Oy6ZZe1bA7Ur/K5Ko/V1bnijana6P6LI98x0xewd6zTq1nOHtJnFHsWhxHuaP6MWhuzFXiqAlEDrXxPrvK5Ko+tUef6f+FWrWgTBr9koi9gL1moKk3btPh477Blc5zrF74EVW3f7Nd/jPnm1WvurUAr8EUF+gL2sVXlRuu9w4b/EsUFiy9a9u5d0CAVz5lNx57N8/H8ohwfW6bLy+F1vjx5J2wFWoFWoBX4Q4G+gP0hSRtMAb2gQRW+qJltNPZ8IqyRHVjRZQ7zwNHnSpwXozYeR3/EolyOjvtCdVTBjm8FWoFW4F4F+gJ2r/6dfUGB6JKjl0GGnp2L/NXujS0vX8r4PZuD3+iJuhR3JOXIX2sZ4fV8K9AKtAKtwLoCfQFb164jWwFXAb4g6qWGx3jPbOrDlyj+I2aXiGPkGGAxpvfu2Qw6sutcZez5gD7n4ZKgjVNmm1qBVqAVeLwCfQF7/BI1wVbgHAX47wPikqN/9MyXnMq7MdWL0WjsxaBijVV7djnLVIviGD+L3+0X/Va3wqF9WoFW4J0K9AXsnevWrFuBVuBfCngXl+jSBsGOzldxZvz0QqjjymKvxBjuahzXx/y8Nanwb59W4NcU6AvYr61419sKtAKPUyD7Y+sK2dGlMsJYjQOeF796oavEXeVzVR7TsXNFu/NPbb52ue8LWLz2PdMKtAKtQCswqcBKk/Qucpr2Kp+r8lh9neu3/yHW/9NN3uNWoBVoBVqBVqAVaAVagXMV6AvYufo2eivQCrQCrUAr0Aq0An8o0BewPyRpQyvQCrQCrUAr0Aq0Aucq0Bewc/Vt9FagFWgFWoFWoBVoBf5QoC9gf0jShlagFWgFWoFWoBVoBc5VoC9g5+rb6K1AK9AKtAKtQCvQCvyhQF/A/pCkDa1AK9AKtAKtQCvQCpyrQP87YOfq2+itQCvQCtymwK5/5DMroJIji8dcBecqn6vyWO2dK94dqs3KvzEXo98/0xew+9egGbQCrcDDFNCDP6K32w95qrjMy4sZNSyLGflEtZv9aDzXO+JRybXDZwdGVZvO9dv/EGtfwLLTpedagVagrABfAPQyMBqjYXnJNBY+kT3DqsSaz+gygBw7/ZhbBZe1qjRy9u/3VqAVuF+BvoDdvwbNoBX4hwK4WERPOGcXkEhSjlF8i1mZRxwuDXoZGI01nrlrLNceXVKimEqsasBc+r0VaAVagZ0K9AVsp5qN9RoF9PKiYyvEs3l29ZsZw5dj7GKBS4T3hMjwq4qu/qM8PI+6vUsWOFZ5tF8r0Aq0Aq3AX3/1Bax3wWkK8KVCLyVIOmu3uChmZo5/exJdIDy72nQMDt5FJZsDTlbbaQvVwK1AK9AKtAKXK9AXsMslPzchN3DvHbZszhh682Cul4RoHF1CGIcvQiM7eHkxR+bOXZFz0PHbqXPQG7UVaAVagVbgbAX63wE7W+GL8fly4r3DZk9+N5pq88bsp1jqf3HpnW6ggF6UB+493Qq0Aq1AK3CiAn0BO1Hchv6PAnYx+2rz/3JtvX9bgVagFWgFzlOg/wjyPG0vR+7LQCw5tMFv7WLPvTN35d1bxflordP5Gp+d4eh/ZFXir/K5Ko+tSeeKd6Zqc/X5HTPbM9MXsD063oaycunymp1nu62oTvzvPw62w2dlfSvynYU7k/trh2ml9qf6aKOb4YnYI+uJvZ7lvcrnqjxWa+fqf4g12/M99wEF7my2V8rXl8gr1e5cT1EAF6DVS1TlEhDVeiQ2wmx7K/ArCvRvwD600qMDuHpBqfp9SLpXlfIrF+pXLcoi2eg7G9m9NEe+r32B8hRtWytwjQJ9AbtG587SCrxSgSPN/ZUFT5KuXpQiP++P7fpSNLkI7d4KvFSBvoC9dOGa9m8p0L/12r/e0aXIMmVzzMS7QCnTvlCpIj1uBVoBU6AvYL0PphTQ34joeAqsnf9Q4I163sU5uyRlcyb66FI0mgfGHwvYhlagFWgFigr0Bawo1Nvc3vwbk7sa+tvW+K18cTnyLklVW7ZHRpen0fxuXTOuu3M1XivQCrxHgb6AvWetmmkrcLsCfEHSy1J1LrqQeBcjzzYSIcIfxfX8vQrofvLYXOVzVR6rsXN5K/0fm2pj3+0vffoC9qXVfFkt3SjvWzDvsgSbPo0lbDgAbcyHIY+zudmKe4/MKvYsf22gGbtRc9V95WHt8NmBge/MU2p6I5/KOnh74E22voC9abWa66cUuOtygbwmpveuvLLLVWVBFK8S0z7PVoAvVtkla3QBQZUZxrOVaHatwLoCfQFb164jP6LA3RcENB+vqWVzkJ8vUbuWZKRJNp/N7eLXOOcoUL0I4WLFl/NzGDVqK/BdBfoC9t21/WRlT27u3gUKi5DNaU1oatkTuLOXr8g/sn9yE/1gUdnFiudwsfpBibrkVuByBfoCdrnknfANCqApeY0rskW/FcBFCnXz2MO6Ux+9DN7J5azcX6qR90+2l7KLle7Ps3Rv3FagFfinAn0B+/Ed8aVmFC1ltUmxX6aLNiwdZ7ERxyMxEaZnz5q059+26xXAXqhkxsVK92Altn1agVbgXgX6Anav/qdknznATyFwIiguENlFQucqTcprYCuXohNL3w795X2yXSwHcGV/6N50YP9nwr7NfHquFWgF3qtAX8Deu3Yl5k9usqPLlNesRk3Pu0iVhDrgNOI0mo9Sc5ynRRT3BruniWd7Qy3GsbI+M3uzgvcWbZpnK9AK+Ar0BczXpa2TCmjD0LHBqS1ruDPNqko1y1fFeIofarmCz5d0m9VL96wXX9mrFR8Pu2r7whpVtR5psgNnB4bxbJx8tUb66Lzt8y99+gL2pdXcUAtv+OjdO1j0i2GxFdsGyv+A+EIjijS58tIVcYjsb9RdD3etzdvDKz4a86Vxdd1HWpsmel6oTrvWY4Qzmjde7ZNfhHboU8HQPfK2cV/A3rZik3z54MO7PnGg2BOHoG5+Hntzk7TaPVGg2tQSiJ+Y8nTy9nskRtbwdY9HGG3/WwHWXnXJtDbfLFaxetwKfEWBvoB9ZSWpDj7M0KRsWhsWmkx2ufqgPF0S7QXeF08WJmvQut9RR3aJyvC878qTtbmSW6RbpvWV/DpXK/AmBfoC9qbVCrjyJStw+cflq3JY6mUtwm37MQV26VzZA7NMPW5s8+ajHJGv19A9m+Eahn4qe1ljepwrEOnfa5Dr1rOtwKwCfQGbVaz9//hNWtRcj0h1BuYRPjtjj9aGeHDS8Yhr5B/ZR3jRvNfI1aaXquhCpXFRzqfaj6757rpUTx7rmuzO3XitQCvwHwX6AvbhnbC7oZ4h1VMa0wyPGd8Zzc7CneFgvhkPNGpu2N67h6GXK70EzPJs/1yBTF++ZOm65Kg92wq0ArsU6AvYLiUb5zIFvOZ+WfJioqs4Ik+R1r/dosaslytvrHVx835TI9c6ZvR7kq+uJY/5kvUkzs2lFWgF/qNAX8B6J7QCiQJfadRJif+7kHGtuEzpM8PZMfcLes/qpJcsjudL1psuwLMatH8r8EUF+gL2xVWdrKmb3qRgjvtIw9G8A/lvk16K1C9rzurrjYHvzbFtlX+GewZmlu+MuV01eOsIm+X48gd1EuLGOQAAIABJREFUehpo3Vf5XJXH6utcusp/j1Wbr30X+gIWr/2rZ6qN9awidzWm3fyeyiuq02tOeihFsVfb36btlfp468j5vcZiMZ79St67c3l7t7pvKnrs8NmBYbo1Tv4fDiN9RvO79+YdeH0Bu0P1i3PuuIxVD8mstB0YGT7mrspT4TLyQUPixsQ2rgUHEuaPrivHH8Ua1XnW/JPWmtdQ630ST+V2xjjSwnToTyvQCvxHgb6A9U5oBU5WwLtcWUq+UKExwYb5GWpnXKK8iwPbvPmI84yvYqzErsRwXi8+uljwuin3XxirLqZdf1qBViBXoC9guT6vnEXjUPJq9xqMZ1OcHv9TgeiCZV56oUJjYvuK5tFaVtdG4xHHXI5eKlbqqvI/008vEzzG+nH+ozqdWctObNWFsT1dduZurFbgiwr0Bewjq8oNNTsordxqY6z6fUTCtAxPU9jQfLQR65gT7NSW1z4tgia9eqqxX/BD/Z4OfJnI1vBpOqzuKS9upAvX7vk+TZvm0wo8UYG+gD1xVV7ASQ9tHe8o4QxMjxc3kKiZcFMGxqg5r/BfifFqmrEh50zMG3xHl6zR+u2u8Y61HdUQ7X1vv4+wer4VaAXmFOgL2Jxer/N+Q3M9uzF5lyq2cbPxmrIXf+VGYH2Uy5Xre8Y6eZieLdL7yCVrJk+U/0123TvGHXvf2/dvqq25tgJvVKAvYG9cteY8/PexTCI0HL5gwa62TNJqox75jeYzDjwHnKr/lX67amTOfHHQS8QZ+a7U66xcqpPlmdnzZ/Fq3FagFfhbgb6A9W54vAJeMwHp6L/cI/vjiyWCV1wu+DJ358XOW2O9QEdreoVO2b65M3+k25suW6jBq0V1v8rnqjxWX+fSVf57rNq8aV/HVf090xewiko/4HNnE4G8+mWDPfrSmX80ly3ZE2rN+FXnUAfrFGlYxfT8PL3Y5s17OODmcdR19Na2msfL/QXbqm5Pq13rqK6rtye0th0+OzCMV+Pk/xTJSJ/RvK79G8d9AXvjqhU5a4Muhm1z44OVD109gJFQm7DZI98RyeqhPsI5c5453sE32h+6bt66eLpEaww7cPRgXV1jj4Pajup6NF75VMaRjtV1qOS4ysdb2zfWcZVenee3FOgL2I+sd9RsZ8rPmhEOWu/A9RquHsJe3Ay3L/lmOkd1rqzvquajC0JlvaM6fs3urQF/N1TLp+uj9ej3/On8m18rcKUCfQG7Uu0X54qaLuzRpeFtDSSqw1u6im/Fx8O+2sYXOKxp9ERT5bXVxns1/6fni74/b76geDW9uZ6n76Hm9z0F+gL2oTXlJsrvXKLadaxN12K10XoN+CwZwe/ug30Xj1UcjtPLjq7hylowpuZSzrwfVnJpjOLbvGfTuB3jM/Lo+qAe8N2t3w4dKhhal2lnn7fWU6m5fVqBMxXoC9iZ6t6IrYclxmznd21EfKgqFsrSGB3PlL8SuxIzw2nFdzenCA/2FY4aw1g7cCPOmvftY/1eYGz13/XZqb3Wd2ddd+nZeVuBMxXoC9iZ6j4Imw9mXK74+SCql1DZ2aguIXxzEk8vtnnzEeUZX8WIYiO7xq+O9TJiOJaTP/wfLat57ozTGrW+O7l17lbgiwr0BeyLqyo1oTn9QKn/KPHsprxbzxm+3Cz5fWat4auN1+piLkcvFjN17dZUaxnhe1oAYxT7pnmvzr5wvWkFm+sXFOgL2BdWcVMNZzRKD9OzbSrhdTCZFt4lCza9IFnhsFVF0CY8G1/N81Q/T9/oEnL0EnqnBrrO2CvKabXGbA9rDm8Mfh5P9b/K56o8Vl/n0lX+e6zaRN/PGOHZM30Be/b6HGa3u6kePWwPF/QwgF168EHD74xvdhxAejBdKcuumpmzh+nZVuqEVqoZa4n3FfwzY1Y10D10JsdZbG8deG9HeFf5XJXH6uxc8d+XrGgT7ZW32PsC9paV2sATh/kGqEshVpvQKsnd+RgPzcdrQsaXDx3Ph+d5PY+u7U4sq2O3htW1VM0qXO7iWq1p5BfVPIq7cp45mt79aQVagb/+6gvYh3dB1JTV7jUgtnnzkWwzvoqxErsSo3mr42ou1Rf4erkyP/t4DZQ5VfN6MdXaKn4eD7Z58xXcFZ9IM2i6gnlVzBGdvLq1Zs/nqtqQRzkox6v5dL5W4IkK9AXsiatygBMOd4PQQ1BhjzQCYO3AUF5vHHtac9Phy9fu+njNDVvHlXwRf/A+yl/3iY4zjh431KlxR3kq3t1j1I4n76m7uWl+Xqcn81TePW4F7lKgL2B3KX9x3pWmfDHFy9PNXAKMnDZDJqwNJ7o0eEUyj1lOind0nY/GK5/ZsaebastrUcU/qmslz9EcUe1PvVQqX2+dKrq1Tyvwqwr0BexXV/5H6j7SFL0G4zVD9dslbcbduyh5tl1cFCfjpr7eGJqpdtrEdd7DusJ2tF6Po9amtXsxFdsZXC1vxlfnKjzbpxX4dQX6AvbrO0DqP+Pw9jA9211LETWPakOs1FLxqdSvOBhXYkc+jLUD18OA1loHuNm8zeET+Y1qmZ0/O4+3x7jOWb5X+Cvnp/O9QpPO0QrsVKAvYDvVfCgWN0KvKc7SPrtZzfKp+mtDQVzUWPQyYP7V2kd+o3mtadafuSrWkbHHQ/eU6gx9PT2PcHlybKQBOOv8U2phXtH34ilcm0cr8HYF+gL29hXcxD9rrDbnzW9KXYKZye81t6j5e74lQg9z0kuQjit0PS1Yd9YQvl7D9vwsv66hjisc4RPFRvYZ7BVf1iHaayu4nm6rOF6crrnpd/XH20sRB+Xr+e3w2YFh3BrHW6G/bSN9dP6O/ZlXcGy2L2DH9HtkNDdffmey3Khskx/Z2Nr0dDwj0kwsfzn5XWvJ6pvJN1PHrC/zOMoJ8bMc4M/x0FWfylEPytXcZ8Yp59VcXq3Yc9le43y7uMzWoNzB23B0bhZ7xp9zVbWoaLvDZwcG9GR9PX06V3zhr2jjafomW1/A3rRaC1yvPFQX6JVDUIce3AD46pfVa05s0/XFXFlYx1E1hrb8tDCPmwM3ZToDc4qA48x6jPbZ0/lnF4Kzueu+cqRuUyvwUwr0BeyHlntHcz5bLhzS0cUiayARt7Mbi+Wt5FAfHUf8R/ad68pYO3B31LgDY6Qh5nXfYW2z+Sr2VX76HTL97violnfxuKP2ztkKVBToC1hFpR/zOaPhRZjeIT36LcNVyxFxjuzKq+qncdF4Fg/+EZ7aI3/Oi7XRNWKfjKfO6Vg5nT3W/Wf5jNObPlrDnZoyl7fp+KY1b67fUKAvYN9Yx2EVOJSHjkWHmUOeD2U9oLWRZ+lncmY4b5hbqVXXWBvzqG5vbUYxd85HGkV2cNU6uYZZze6qP6vBOI002MkbXGa+yzvzN1Yr8FYF+gL21pU7wFsb9QGoP0K5MeDd8tmnekCvNI+VGJA/EvuHAAcMEY/IjlTcALWmA3RKoSNuJZCTnLzL1JP4znIZXbpOktGFVS7V77YL1sZW4EcV6AvYDyw8DnotVe1eQ2Abv3tNXw9hHWv+K8debVfm35nL097wvfVZycv7QvfIETzDqny8tfJsiqUXrmo+xcnGFR4VnyyHzXm13P19Yk5naDvSpOdbga8p0Bewr63of+vhxqmHuZacNQyv2aMRaEMY5dG8XxtnOqJW9dGxasKa4h3NT9fB05/3gWJ748ifeWper7ZRXV7uGVumi+F4WlTwz+adcWDOWOPM/4q5Kqc7dbtCh87RCpyhQF/AzlD1wZhRgzXKOGz5qQcrmu9KiYplGJ5tBfusmIhfZFceVT+O85oe656tAa9vttbKE2PNzeMoZtaumujYw9O9aTH2ibSoYHp5rrRFNV3Jwcule8Dz2WlTHTLsyn7c4bMDw+ponGw1x/qofvje56jvme0L2HvWajtTPfi0aenm305gAVA5LkA8JoT15Xc+ZMz+9EPnrDVRTTwtVnKvxOzYNPp9uouHV4tq7fnstGk+b20131U+V+Wx+jpX/NcSKtroHnnbuC9gb1uxg3yjg4/t1RRnNpAV7JUY1HoktqoXa8yHix40OjZ8jx/bEIMcmKtyUz+OP4oV8UdOcGZ9RvUq36eOtaYn8Yy4eftvB+8o3w7sxmgF3qjA/72RdHNeU8CaGj5RU/Xs1WassTpeY70v6mo+1nD4cmH58XOkqtk6zH/mE+GrXceWg23evPmwJtzsoc0s35nadvhGdaG2mTXPsJTrjK+uBbCwJ6E7NNdcO8fI+Zb13Vl7Y7UCmQL9G7BMnQ/NRYc37Pz8UNlbSqlog6ZrCfFucRjj3SNUwffiIhuvdbTuUSzzt3cvfpavauPpMovJ/KPYyJ7VzjWDZ+bPtSEW/jqX4Zw5xzwqNe3gckfOHbwboxW4UoG+gF2p9sW5uHk+pRl4TdGzXSzVdDroqZctAzIbN7oj9R2JnS5qQ4DqYpDQQnXZkO4WCK7xqgvNTKH6Xb+So/d9mOHevq3ALynQfwT5S6v931rR1EelV/1GOLvn7+JlzQU/xgGNbXeDi+rz7LDp0zT3/GfWguMzLO9CYv72w58Mw+Pl+Xs2L3Zkm8HhdedLpNY3ynnmvLc3r+KH3Faft+5n1t3YrcCbFejfgL159R7AHY3sjMN+BXslBjKOmvLOGpWnjkdLu+o/wrV5YONipTF64cKlBHbmNstTc90x5vqgxwqPs2vn9dm5Nyu1ermj/VLBa59W4BcV6N+A/diqoymgsXiHJvtAnkqch+lh3Sm5x8c0wA9qMD/+meHs5fBsM5izvtX18nC9PQGb4UIjL3bGppro+AgWYquYvAew7lmdVdxKDbNY4AqeWJNKriM+nkZX5T7Cu2Nbgacq0L8Be+rKnMArOuhh5+cJ6R8FyZcMbiLe5cOIR9pE9qPFMm70XskRrXklFj5VjLO0mOFa9cU668WyGn+ln+5VG/OezbjsWJOzNdK1yOqJvp8cs8NnB4ZxapxsNcf6qH7VfZ9nfc5sX8CesxanMOHmyZu52lTPIOU1Bc+2K7d+iQ33S19k1s5q3bm2jBXhemvn2aA7OFbW18PxbCMs3QOGYZ8ZLqMcO+f1u7oTe4Sl6wytRnEz81pfZR2u8rkqT3X//SqfSt0ze+6Jvn0Be+KqPIhTpdlVfHaXFOXEwa4HPOfnOeUV4arfjrHm0vEox8gf8yOcbN7TivNWDsmMp87pOOM2msv2wCj2jvm7+epa21rs/iDHGdi7uTZeK3C2An0BO1vhB+JzY97RpM8scdSQo6aRXQxGmDvq8XJ4th25rsB4+j6BBtElJtsPkX6j9RrNG+7IJ+IbcTrD7l2K9Ht1NK+X4yhmx7cCb1egL2BvX8GT+HuNg23ePKjonI6PUNbGYNhXfaI6IvtRXpHeo3zQiJue6jbDDfksht89jBE3xqiuXYSpNUV+Hk/YVmIyvNGcxxkxNlfRZAdn5lHJOarLW9czclR4tE8r8BYF+gL2lpU6wBMHNh+SCseHerURKMbuMR/geOdmoc1sd/634EEHrBs/tQbeCzoXjT2dvf2i+4Z9dlwajJ9y2XV5iGrfZff27y7sKg5rd6ZuT6i1qkn7tQJ3KtAXsDvVvyG3HsLa0K6iFDVk5Wd8tLGDY4Rh89ncqMYjsYxdwVEfHXtcoZFq5a0l8FgTD7NiY6yKf9VHa+Yx16T7wKu3mvNsP+VmNd35Ue3O4IKa7671jNoasxU4Q4H+d8DOUPVjmJXGW/HxZLFDGz84uO3Jh/gqtpcPtlXM1bijedHcuJGqTmfU6/EeaTCaz3hiL5gPasVe4D0RYUS5I3uE49Xt+TKu7mWsz2puL1/VplyqcSt++v1dweiYVuAXFejfgP3iqv+rZm4KVzUIXCJY8kpTfcMSQcNd9bBWfOmC3cvHNsR4mpue1TWHn4ejGCNOuu7KUetkLWewZ/eLh13FgC7MvRqrfkd4GBavEWuneXaMr8y1g29jtAJPVKAvYE9clYdw8hoC27x5pq6HtDYpnn9IybfSUL1AZqTTaB0wb3h4H2FGuRkLPqP86sci857Q+nW/3Lo4lPwJPFlz8DHbrk+0pmfkAmZlT17lc1UeW6/OFe9a1WbnHo+zXjfTF7DrtL41kx7YurGNnPrMbHY9RKMDnEXwfDxbJlzmn81lmKrFyDebzzjwGtg7663jLMdVc6ilkk/r5lpR51k1am7wjeyVejz+O3AruT0f/r7xvvF8d9iQb2cuxqzshat8rspj69K54v9oqGizY2/fidF/B+xO9W/IjUMPqWeaKtM1HGDxF8Xwdh7SR3lmEq/WvhpnXFSzil6cL3pXneCX+c+sk9asY9WZ67Q5r84RhmJ6/p5N41bHvMejGqrYO3iCj37fKhxW8yOnt36VvJ7PGZhenra1Ak9XoH8D9vQVegA/baZGyQ5k+2gz4LFSRxNArM6/fezVp9qxbjvr9XIzvjZgHY+4oA7z41h+51qVD/aF2j2O0CjzHfGdnff0AA/D4vpnsWf8vZqRm/nMYM766lrPxkf+V9cR8Wh7K/AUBfoC9pSVuIEHNx1+zy4NaAIrDfWGEm9JqQ0MWmVktPHqOIudneO1no1Vf26qqNOzadxTxrxWxumqS86oft1DI/8d87xuhqfarOZQ3FWcjmsFvqZA/xHk11Z0sR49bNGIdjZrj5qH79m8WNgy/2wuw7S5aqxphx/EWWymYRXb48ixHg5s+pypycsL26ihZpwU1/NVHx5X/SM/2LFeNsbPkbxRvgxT57I9pL423pnTcld08HhENtU48mt7K/CrCvQF7IdW3g5Y/vClC3Pq8yR5djQcrecIpjYYNDDWVfOtjo/wRE7FOLLWjIV3xY9qzfx0TsceZsUHa4W1sRj74U8Fx8tftUX4uo+qeEf8NKdqYdgR31FexR7593wr8KsK9B9B/urKU93VgxZ+3mENuJHPaP6py6GXqjPqUEwdj7SZ8YfvCPPo/Ayno7m8eL5wYV7X0os728YcTCP+nKmZp8euWrOaduVonFbgSwr0b8C+tJoLtXAjnmnK1bgZzAX6p4agodjT6uCf2cSeDp6tintE/6N5jSM3cuijDZjHFhPljeyRFpm/5cSP+SEvY2XxUc6MfxbDc9F+qsav+kEPxEOXVTyNY713Y2uuHrcCX1KgfwP2pdXcVAsalPfclOIfMJwHE54ty535Z3OM6V0YbF7tI47VfFk93twMrvpi7OHO2FgLD1PzRtiZXzbn4enFxvOp2mZzM24UC37RfJWb55dhcl7ERnvZwx7ZPPxRjDfP6+fNs63Cf4fPDgzj3Tj5io700Xnb71/69AXsS6tZqAUHNlx1gxcgbnXJGs4KMT78n/Dl1vp0PKqx4o+adS+MsHmeY0c4FU5Z7iie67D4J+1l5mL88YlqyeqfnVNdZuNH/rvwdR+yTh4H87/C56o8VmPnii9UFW28ffImW1/A3rRaJ3IdNVGkrjSQkc9o/sQy/2jSONC5YZ6Vf3fdFTzU5TU7rrm6/tDG00sxPH6ezTAjO6+F5sTaZesV4Ub2DGs0x1pXuGV4s/x0LTPs1TneQ6sYFrcL5wiHjm0FnqBA/x2wJ6zCzRxw2BsNfmdanr0Sl2GOyvZyjmK8eW2Mhosfz19tu3go7oo2ERe1ew0ZPuqrY49nZPNiPZsXn/lhzurghm12/HCNK1p6nEY4HmdwBK8I9wy7p83uPLvq24Wzu77GawXuUqB/A3aX8g/J6zUUowY7P8+kvCNPVotx14bN9azmj+Ii+5kaokZduyxnpFkWgzmOHeFU9dA1sjh8bI7HFY5n+TDPWU5VLTLufPFSzbK4am7Fn61ROTxp7ZRbj1uBuxToC9hdyt+Yl5ulNpKZwzwroXrQZxjRnIetdUSxd9s97spJfXSs/pXaGUObK/B4X2gOb+ztFc3jcVeb4ti8fdSuHBRH57Uu4I7sEU5F5yh2hz3KX9WhwoH3RsV/5LMbb5Sv51uBNynQF7A3rdZDuO448HdgeA1p1LRXJdzBN8q9gs2Nzd750sIXjQgbduOE91XtGCuq0bOP1k+569jDrPh4cZnNu0Sw5hq7i4PqauOzPl6NR3LtxjvCpWNbgacq0H8H7KkrczEvPuz14AcVz16Js3gvtlIix9mhjh9g2jw3pixPNreLI9c0ylepn31QO+rluhWrmrvqp/gYc3wFy1u/CPtuO+udab3Cs6qVYZvv7vzgvLtGvnidxXlF745pBZ6oQF/AnrgqF3OKmgHs0fxumpqHm7W9oxHhicN+N48n4EGLyqWLdVMNrRZdR88HfrO1e2ug+QwT64c8EeeIW8Sr6h/5sR1aK9co9xl2j0MlT1SfFwtf/k55frM21m02tv1bgV9UoP8I8hdX/V81a+OBDNWDHH72jD4VHy8WTR3YTznYV+vRGj2cSPdIXw+jkod9OGeUXzGjMcdj/Xgd8R7FR3atU8deXMVH47w9luFkc4Y9mvfyI47nZnEUV8e8Doa946Pf11nOul8yTpV9tMNnB4bV0TjZao71Uf127dmc1XWzfQG7Tuufz6QHM8YqzNEvmeZh/GzO/EbzyhXjKC6yM07UFPXwiXIftXvr4Nm8PPDzuDIG62C+No4+Fc2i2Kpd+WZ8qpgrfuBxdn7No/Vn3KP1UMwMw5vj+NGesPirfK7Kc2VNb8xVWQdvX73J1n8E+abVOpmr1zA1JftgrhLHOPbFwo/ZLZ5/cDB7+MrnzWNogNq1FtVax+w/WgPM69PLaTZdA/XDmP0MG59RHvMbcVasiIOni2ezeNXc/CLfKN9RO+996HAUM4rXeiO/GfsOTMOA9jO527cV+JICfQH70moeqCVqQpVGOkqLAxvNGgevPY98Is5HMEexR3KyDqidNZjFrviPfHh+5JtpM4NzJI9xmIkfaZ7VNMo14qHzenGx+Z0fzqe5duU5enFiXrs4NU4r8FYF+gL21pXbwJsbAC5HBquNI0qV+eGgRaz5eg0nw4jyHrWfldPDha7cuDwdopoUU8dRXGYHBmMp7gxHy8X7h9ccdfOTuUUclE9WjzcHPoaDH/M7iuvlGtnwXWAeo5hIo0oc77XIf0UH4EaYI3uF1wij51uBLynQF7AvreaNteBA50bsNZzKwe/5eLas3Fl/xjoSazhouKOGczSP5WKM6B21Rfk0DjVk+kZzUY7Iv2pX3Gislx3ej1kuxct8q3PIbdj243125UXdliPK5eUf2Xbg8pqM8vV8K/BLCvRfwv+l1S7Uyg0hag5q5yaHw7/a+AqUUhdw2dl00oT/mvRyehqMcLx5D9vzm7FVMXVdqzk4ji8d9q6YzAXzUZ4Kb91nFrP7k/HQOW8fjOo8wpf1NhzVYxV7F+6Zta/W1nGtwFMU6N+APWUlHsBDmyUoadPUw9nms8YX4Sr+lRKMOFW4mA74gQYRbmSv5NFYHTMGz3l+sOnTMLh523z1o00/y+thjjh7MbwHLR4/ysWL9fiZX2T3MNTm7QP1OTJWbpoP2Oo3m3MnrmEZn/60Aq2Ar0D/BszX5WesfGBrA8ZYnxyD95mDdiXGFmQ2btafFz2KVY2ObhQvj2fL8lT8Ix/Ug3nWOcsZzc3gRJwibLMzX4wNJ/qs5IiwPLvy8XxGthmOO/KBj+Y17EzLUR02f+T7wbFRrqt8rsqjmt1d99P46Doc3Z+RvnfZ+wJ2l/IPz8sHffbOXwg+0PVwny13Jn7Gd5YH/FkDtr31QPDW1OqClvpe1c3D5fWxeW+9sr2jmDs09zhkNWoN8AUX1OVhzObyMLz95/mt2HZhswbArPCp5s80Rp4dPjswjE/jxP9hVNGnol9lfz3Zp/8I8smrcxM3r8FFDegmipeltUMAB4Gni0cEWulcZFc/b6yxOuYYnsM7mhwfarqmXpzHZWTLuI1ieV652pxij8ZeTMZB8dSX94L5nv3R/Yd13JEXWFbHkVqYI3iNdIQfr/GOmhqjFXiTAn0Be9NqncQVhy+efDBXDvzKYas+o3FUqsZFfrBn/t4cmgk3BugyyrU67/HwbBl+5L/SZBVrtn7eM8DyMKEx+0N/qxV5NTbT4Yw5cMp0OMpR4zlnlterV7HUp1KPxkRjrOEsx50cIm5tbwWerkBfwJ6+Qhfy40a4mpYP/1EjGOWYiZ/x1bxoBtxMKg1lJedKDPhqrI7hh3VEPVqvjRGrT/aFBqv7wuOnNo+r+aif8so4ZbFVHG9PeDpWbVVOyAsNqvhVP97jFlPlpb7Ms5obfsphNr79W4GvKNAXsK+s5OY6+GDGe/TcnPoSODQQS4ZmZ89dn5nGtiun4XjNzVvLKKeuceSX2aEjLkmeFjx3VHcPX/lVfKAfYi3mKDflEY2relTr0DxHLkwe1qo22J+K2eNW4BcV6AvYL676oOaVQ74Soz6jcURT4yI/2OGPJsSXlBHWaH6Uuzrv5fFsHt7R5oo8UT6zz3xwmbAYxczm1J9jFWfEp+oPP9YwqzfDzeYivpqX9YliKvbZuiqY4JbpE+Ec3aMRbttbgTcr0BewN6/eRu58qI6a5CgtN6KVpsT4M/GeLw5+w7R5/IxqqM57OREbzUX2Sk7EakMzu344j5fTs0Enbrarl4IMP+Oqc95YsXVcifH2BuIqeF6OzMaYvH5m3/3h9duBb3irOIhdjd+tTeO1Ak9RoC9gT1mJB/LghqENCWO1P6EMNLfqwT+qYTS/q2YvD9uyCwM4eBjKr+JjMexn77MfvgQoP2B7XDQv4+B9lgv7Q0fLs1KXx3mGT3VfRpij/MCP4tWe4bFWGlcZz3KpYLZPK/AVBfrfAfvKSm6uIzqUYfcaVzYHeiOf0XxUJjfmVW4R9hPs3Mj0EpJpxnOeH9uQg59WO3xWdODYEY7HL8up/qNxtEc0rrpXPW4RVpRbMaJ49fPGyGEY9jmCZfG855CviqlcPL5q032t8+Dk2dm2A2cHxpV8v5pL1wF7e7QH3jLfF7C3rNQFPHG46peZ7VUafFBnh3bKbihdAAAgAElEQVQ2h1yej3LiL6bXOKq8V/w8fhl3m8tiVH/4jzCr85X8ihWNYY+eeoBqbqyVrlmkT2SP8psdHLBHPE5Z/JE5zQ0+vF+P4Hv13Y3Ha1rh4mnkxekeOcvnqjzVvfCrfCp1e3vgTbb+I8g3rdYNXPmiw+9MJbKfQde+lPgxfMu9o5mNahjN76wVBw9qOzs38PWpa2xjNMuZerE+K7FY4yg20gZ7BLnxjHhHOCv+wOJ1jHA8e5UL1ziqz8ujtqN4nubRuiE3NFIuPW4FfkGBvoD9wiov1hg1Atij+VG6UZzO4xDnhrbScBR3xHNmfgUbMWhcM81I82VjnovevVrhq9ieb2bjJqyY0djwVvPyPvF4zeDO+FourCX4H83vxauens+qzepd+Yw09zBn9rsX37ZW4O0K9AXs7Su4mT8fwHrQ8zhKyw0retfYqMmhmdm81xiiuMiuea8aR3ygJ+pDjZ6/ZzuDP/JE+cBxJXeEWcHiWA+H94rief7qY+OqH2LZf7RXvXwrttmLzqimTLcqP3Ca8Z+NqWK3XyvwJgX6Avam1bqJ66j5Ga3RQV+ljoYATMPd+cl4ZnO7akR9OxqQ8tUx6zZawyzWuO6oX3E0J8Zqj9ZfLw8WV+VZzVHBw1oifyUmqgl25ae17sjh8R7x4nmP0yj+aM4Rfs+3Am9SoC9gb1qtG7hqIwCF2Wap1BkXjZkP5yhvhqNzV49HnLU+4zeKOVJDBTvywZrYvPKEbYWbl8+zAZvn8A5u4FXhkeWoxKsPLh8zHBijyocvOUd059yMqXVVxuBuzxlO2P+VHO3TCvyCAn0B+4VVnqyRD1VtdjyOYKPmwnbg4FCuHOQRrsdjxteLj2wzuGh0K43Hy+PZlGfmw3Oen9owHsUph2yMdfewOU65QEvzsTn7yfw13uPk+Xg25NT1BI/oOxFheVzUxjppreo7GjOP7PtW5RvVm/FY+Q5keD3XCnxBgb6AfWEVL64hOqg9ux7+RpUP46PNZaV0jydwsrlqLjRqw8JPFnsk5yh2NG+84MNN3+PLWPa++vE4waZz3OxtTjmsXAZWeLM2R2rn3For5vD9iOYrGF6NRy9BvK89/Mh2NG+E2/ZW4O0K9L8D9vYVvIi/1wy0aXqNCY0LhzAfxhzvlTGaR0zkF9m9XEdtqJM5KeYsH8/fs2memTHzxvrpWvHYsMFhJg/7ImeGo7xUXy+3ajMacy2oXW0VrpqHuWVzWgPn0rkj4x242AMrPFjbLL6yxlf5XJXH9Ohc8a5Qbap7KUZ81kxfwJ61Ho9ho82RD3H9UihpzNtTG5COOTabg1/FR/nMjkc5eJ51QZ6RPh6fUU4vJtJEsXiMd4tVP6xXJRfHZ/7RnMfDfFk7z8dsXj1m2/1RPVSvXfm8PQTsIzkVV+up8vfiRrw4txfPuUfz2BejNW6c/DvwJH12canu4af69R9BPnVlXsgLh65R58MSh/WTSjrCCXXiENHGkGFnc54+nr9n82LVZnzBXTmzL/CjJ9aX11tzjcbMQzkxt9la1X801lqgUaaPV5vm8XzUxvrN5vPWCzauYRaX61jVwuIMp5IbvqoNj5/mk3F989yVOr9Zp53c+wK2U82PY/HhrAc1DtvKocsyMY7ZR2PPJ7Jl9pWl0oY0W+tKzmpMphsavfngh23ee5aXcx3VQHMDW+vRtVQOwMl4j+bQgLKaPF4jXI3hfZTlGuF685UavDi1reIgTvG8ccW34uNhn2mrcHqjz5maNbavQF/AfF3aSgqgSdihgg/eswYSNUltSHeJnfHAnNWJH7Oh3izW6snmo7nIfkQfNIJZbPhHz1GNM5xH3Ebzmkv9szHWFvUwlsZpHh1X/Hk9ED+KG80DZ9T0qzieFlqrNx7l55gZXy/XLFYlX8VnxKXnW4EZBfoCNqPWj/nagW0fO5j4A3skx8xBH2FoPuXgxe3Mi3yGiR8v5xU2ry7PBi7GfdRMOD56z2rTmMw3m1Mc8OZntBe82CyXziEH1reyxwwj015z8Hi0JllsNrcLl/dNVQvwmuFQ9a34VXwy7WbnKvl2+cxya//3KdAXsPet2a2MvaYHm9eYPJsWoD46Vn8bV3wQV/VFA8IBOoobzXu8R7ZVTONsH+auuWax4R89DX8WUzmBt+ZQv9k86o8x1tjGlY/iVGLYp5pvlMebr2JXOGf7JopnTat6Ik+ECXvFr+JjeBW/is+I8+75CqeKz25ejbdPgb6A7dPyk0g4WPG0L7x9vIYwEoBjVuJH+Cvz2kRsXG0mo3xZjdmch+v5e9w11ouDD89F74rHY43JfLM5jyNs2ZxhKgfsT85nNt63FuN9vFyen+ZlH2Agp42RbwY/ygs7Gi/XUsH3fFabOGs64mvz1TxVv505d2Ht5F7hVPF5IqcK71/w6QvYL6zyhhpx2CqUd6CbT2TXeIxH/qP5EY7GWz34Ad+IW2ZX3My3OlfBjLiPYkfzyhH+0RPaRftD8bwxYjUHfCO7h6U2NB/D0Np1rLGaP5r37MjnzUW2Ch+su/ke/RzBgq5VDlX/3X4VftWcFayKz9X53sqpwvvtPn0Be/sKXswfB78dIvzJmmTUWCK74WZzyFvxUXm46Vj8qJGt5PB0UR7VGj0sHODgr2uhubIaeC56VzyPU+YzmsMaaB1HeK82uSyn1qG+vLe0FsRqjGJWxtCr4hv58B7yfDKeq9pCH30ifxV3t59Xv9qqOTVudXx1vgrPJ3Kq8H6yT/9DrE9enYdw48PYvoT4ZId0RB0xO5pIlEPtylnn7+CkHEbjUQ0cP6pnNK9c2B+HMD/Nf2UvII/W5uXwOChPxWFe2G9au44VE+PMD3mRI8JYtTM+1+jhZTzNfxTvYbINazPyw3zFnzl5/FjXCh7qrKxHFa9S706sJ+arcGqfOQX6N2BzerX3fxXAQW9DPvRxCPGzKhpjMi7idd7zYZtxAA+L9eIr3EZxR+ajWNgrNUQYXFvmw3PRu6eTcdM1sPiVD+Jm9g1rhJxmy2qtcKvGo35owNgZxswc71/VulIL+yjWany1TuQb5cHaY+30ie8A9Oaxzo1yeXqMYqp1jHBsfifWE/NVOLXP3wr0b8B6N0wrkDWQCAwxOFy5Gew8lHBIGw8c7BEntjO/iv+ZPqs1zNQzWy/7Kz+MdV/oONPMw9CcOgYe1pl5ZVpo7Tq22JGN92yUN6t3NMd6jHx13uPOfNU/Gqve0DnyZ/tMvpEvr2/GQddBx8Yvi6/UFfmMaojiPPtOLA//TNubuZ+pS4TdvwGLlGn7PxTgg4sPNhzSkVyj+Sguskd4xglffvOJ/CJ7lA/2UdxofoRv80dqqOTPfHguegdHe5oPfzSGff/hmAwUw2ugyiGKyWpNKJSmtMlEuSK7JYnm9LvlEYpiPV/eUzw/i2H+1Y/qk8VVfSt+4GjP6Ad6QGce67vxruTN6uO5nVjVnBW/p/KqcH+7T/8G7O0reCN/PsTx7j1nKHK8xemYsXCIwoYDeCYf+2a5VjGZW3bQZXOruUf1jOZVa29twZufWBf4V/l7cZrT0zOqg+3qMxpbHi/3bE3V2s2P94Du7Rkc+B7dU7we1fwzOau+Vb8KR1s/1TqKQ/071iLKsWrfqckqh447rkBfwI5r+HMIaEJ8QFcOqaghajOsCKoHUCV/BfeIz2wdFf1mMCu+mY+3PqYH7J423hxss2uicYztaeXV4tnAO5vzaoNN95rnG2FHdsbg2o5y9bhFtowb1zyqn9fJ3iufEWYFQ32qmFU/w6/UAzyso/LisefDOWa4ZXl67h0K9AXsHev0CJY4aL1DxAjyQcyEs4PeK8zz55xeHi/GszFPPvg8HmqL8NQvGitvzj+LXfUf+XnzqnW0ltwsGEfjo/2iOkVxiu1xZlv0rvkUR/PwXok0UMyZsebfEQsNgT2DCV9e15X4UcwMftW36jfiNjvPeU3z6JPx431v8TrOMG0uypvljDDbfq0CfQG7Vu/PZfMOem1kfEDMNh0+jKKDZqeos/yquY/UMcOp4hv5eBxxiHsxbNOmgTm1z+oFnCjO4xX5mn3kP5pfwfYwK7p4cVl+bbiz8YatGFk+zHGM1mUc+DODP+Nb4TlT3xm5I46sUSWv+qjmqneUt+q3so8qOdvnr7/6Ata7YEoBfBkRhC+/2iug/MXmd2DyQaOHTPVQiPwi+4j3KE7nWR/WzPz0o7E6r+Oqf8Uv07qal/Mc2RfIBzwbK7ZXE9ui96wW3WPKwzAzm2JHY9bafHQcxand00R9RuMKhqc1cJU7a4TaRhyOziuHCK/qF8WfbV/lp5pHaxPxH+XF9wLPCIfzjnxsvoKnPlGtlXxP9OkL2BNX5WWccEAbbe9Axxd89EXHlxJfMv7yZU0AclV8KtLuwAH3XQfGDKeKL3x4zTwdGcvDZRuvs4db0Z59WEPdQ9G4ksOrQ/emjiu4XLOuu+p9FE910nxVfPit1FuJYV66P5Db417Btviq34weVczdfjMcd/lWavC+L1H+Cl7F56y1jXjfZe9/huIu5T+SlxtLtSSNsS9k9UtZzcF+mg9zkX2UI4uzOhjfw8ris7lZrEgD6G3zlg9P5h7Fwj7iyfPI4fHPbIjD3oj4RVyVg8bP7DuvXs8W1YPcnhYzOIwPXaKcZh9hZ7wy3EruiKtx4h+sAz89nTI+o7lZviO8p8//Wr1PX4+IX1/AImXaHirAhyMOcHMeHfY6z4eEd+Cq/2hc4RAWJROaaxSH5mFxXi2j+Mr8DKfIF5qDJ68fc4ji2Y736Omtx4w24HY0Z6Yt+Gi9Os4wdI5jdV9EeivGaC34u5PFZnO8F2Z4zeYe+Zte+OE9A+3w1FpGuOpfGVcxn+5XqbV97legL2D3r8EnGFSaJA55PNH8WIAjje8OIdEcuIEYj1Ed2Xw259VY8a80DMXhcfTu8YFNY8yOtc/idI73Sxav/A1HOfB6aZ7ReISv8dDc4kYfD9uL8fiPYr35yn7g/MCYjZv1R07Lpz+oHU9PH8+2ysHDalusQOscaxPN9AUsUqbtZQX4gI8OewOzOTxHMdXkXr6qDVzs4Jj5wB8HDuqawVj19WqLsOCbHYyKp+MIG3b4R0/VeEUrxED3LJfywhhNm/NrraOx1hJpM6M3Y2h+b858VjRkLI9fljuqc2T38mQxI3/UjvrBGWvLzyxPNDfKj7iqX5Sn7a0AFOgLWO+FJQW4CdiB5H1gZ9/Zg179dezl3WXTXDjgzc41Rfk0Xv2y+WxOcWys/uCKOcSon4fFNvaP3hXD8zObfaK9ohg85hhgax2RXWM1j+LMzps/MHh/sH0FU2NGulXrMByshebIxojTWqOY2Twz/uxrfLwfrAV0G+kX1XHEXq2p6neEixdbzVv183K0LVegL2C5Pj07oQA3ARzysHkNQv1xSHq+GY2qf+QX2ZETh7n52Q8+o7iM85G5LK9yzXyjOioxzB/+XhwOb17b2dpZcw8P2IzLNotnbh7PSAuP6yjei6naFFvX06u1gn1Ef2jOGrGm4Fjh4fkovufz/9l7GyXrdRxHMDZi3v+Vd5s9hVk0BqAoH59MOz+diDu2+AOCkJPS3K6u3rWBX+U5ruAMXb7BYZfzKn7KcRq3qnf831fgXMC+r/GfrVCDjX8YZnqIqAAr/yp+kj+J0Tq6Rj9l1141Nq1XPDp/59N6O1x3cNG721uHozZe67v2kNbam3IBrqutNldDY1Zrxigu3YGnWMhNdsWuuPpn8kuYHT/GdfmrXPBDLvSY8L0Ss+Lj9GPNmS/e8T2BOz+V4059zT3ro4AqcC5gqshZf6QAD3G865MLuKFf/mT/iFyDy/UwgDGgu5rf4tnVZH0mXB1Hta3WO3zAj3MYX2utsNmPw9JhsM/57+LA+hdm/cO2nX5SbDroXV8Jo+yM80luVwM+1gG18H2m/NSni/9WbNXCPuoT/LmPVU+qu+sFtp2eOpzje6cC5wL2zn17JGse8LvDvhrqctS3Wq/wVMAahPXDQCx8/LSW5q7Wq/zOn3zgW/47uaZemId7Vz7QUZ/QuJ7MO9VVO3K4Ht6ByWu1Oe4as1oXvtZQnrxOe+js0KvD63yMeQUL+VdyNaew8A80Y+00vuvrt3zcA76L1BP3eDffN2h1d8//At65gP0Lu/zFHmsY4VdDQn8Y6Omp8bxGThfzqQ9DE31wP1Psn+DJGmMYp7rOPrFpjK7d3mDPK9bFJ1thce5Ua/3G+GBCLX1OsR1XzWXtXbyzKUZau15c7KQGYzHGJLfiK27nl+oBo/D4H+yj7mequcLnvG/FKjftCWvEFY/0j2Ldtd7p/a6aB+e6AucCdl27k2kUwOCeDtaC4ENhekCY0lsXAAxGHppd7c7nuKhtld/54cNwrfW3fhMeXBv6Yb+RrzjOjj52vxWt3+WnusrX6ck9pBraZ+FMbRyLvXU8ftIGHvXEP6v6V7mXTtCqq3cVf8V7x7/LAb2lJ2vLvXc67PBdxe72s8I7/msKnP9bkNd0O1mkQDqoYHcHUqWzfyKoxut6glGDB7/Kv+t3hcuk9opvquvsUxvz0hysK4Z9Gqd+DHz043Cu6KF4zEMPGcdReWqMritecSe8tQ5ymL/iuNqIcT7VQvG63PJxX4U/4XhFC83hWuDBXFMfzq7YLob70tpd/J0+t3+Kj/1kvhqD9bf62NEzcTv2rMC5gGVtjucDBTBgGIKHjv5hsy+9T+ikwcaHE3CUQ9lT/sr3CTfkqj6o2fGd1OWYrj/Hg/tWnFR7VUP71IMm4aqd9xR7uXqmHhW71lNerl9n0xr8/blvUeO7teZP6jOe5rOvsFQP2DpOztfVQTxjYw/wvFrXcfmGbdLftC7rvuob+ug+TWt9Gndn359yeVP+uYC9abcezJUHfv0x8sDk4aAt7B4UGq9rxefaqyGmubvrFZcp3u4wS3WTXXms4ngvkQuOnJveEeuehYc85dWtOYdxuxyuVfmJb8XpHvB6pVfHgXnXO34JM9m5F7x3ddXHuNqrxjJHvOObSLHOPq3DNVijsmtd9u/gfyvW9f0Ttu47cfWrf9XSxTnNNU73SP1nnRU4F7CszfFcUID/qDEUCsYNfB2CaYgke0cPPDAc3LBJuMmufXT1k6/Dhh6O6x21wanjoDGoW0/dL40tXIfNNu0RPsXCOj2vfGeo7TiiDveY+oUm7HeYzgbe5Zv+HA7nJqxVXmF0Pa74oe6VnlbYya+98neQcp5o/0T3u/pRLR3uhCf2YGcvprEaN+Hs+niq7VzAnrozL+eF4V9t8Ltryx0UzoZc9Sm++pnDt/+AXW3XM9vuOMBS3WRXThq34qTxijfRnPcN7zpwHa7amGu9M67ygB8YGqvYGlfx6ec0YRvXVh7KM9VgO/fa8VphOS5djsajNvYBvTiuHe6VeK6d9lK1Uf4dp2/FdjW/7dvpacLFffcpb6f2Tmyq93T7+d+CfPoOvYgfDzoexmjBHUYuzrWchmvFAqNidNg6LLYl3GSv3M63qsf5xRtDhnl3+Fd9ysvhwMaceH80h9fpHXXhd8+KmX4Hrg/YwJu/h4SrvWBfuj40R9fKjdfgpnp0OezTWoqXcDRPtSo/YpJWXR/KUfEKc8o19bCyMz7q8xMc8FzhPcn/be2e1Ou/yOVcwP7FXf+hnmsI1m8y2EGJD4x0eCC2G+4u19m+IcWqDvTAIbHLYYWveNN45uX2o2xTrJQ/xag6kx9/W8wN7+kJ7NUBt+pX/bpe4WuPmq9+982vchxG5fCv1sBJf687vQCPdU64E34as7MGF+4ZOuLp8Hb6/Vas43Vsf0eBcwH7O3v5iE50yIEUhjueSjbZNa7WPMhRbydfMVNusld+51N8rDHsK3eVv/KnGinP2WHb4aV1GXf1rhx0DV3rOT2smQ8fgnh3OKhbT/wS965f9SnW6lB2/RdGsjO+1u5y2DfhhHjWbpWnfHhdePincPCPy9mtsxsPfZkT97vi5zg/wXZFhxXvb2Cuav5r/nMB+9d2/Bf6dYcDbJ0Pw7IGAX4YCpW3+q2wV/mf+Lk2hjqG/ie4yHW97eJC1xUvraVrrss+FwfbyrfbC+K5J31HTf6eEt9krzrKXddc9679wnd/VZfK28GonpxeO/VdPeAyNu/HDv5urOPD+8Pc6h2aVR7+2a35SXzH9xPck/scBc4F7Dl78WeYYHihIQxYPai0YedHrhtGGq9rxe/WKTfZC6vzce8VV//ob5W/8ise1imP7dDTxU5sHOPilZvG8DfBWiqu4qzWlV8//eaAC7/WQXzCV/4p7lNdgcv1+NvveHQ+4K761L5Ur2k+c1ZM7rHwwXuKzb2AX6px1c77CI7Ms/z8z5THRJernE/e+xQ4F7D37dkrGfPhgHd9amM8BOFjHI13axfvbC73qg2DeTqUr9a52oceAg7H2TqeHD95LyzE6ZN9XU3nwyEO7bFGz+7JOIm71lJ9uAfEaoxiTOJ0r65ow39H4ARdEifYuX7lTvId51Ud9MX4HcfdGrvxiS804GfFFr7+kzB+036XDr/Zw1+qfS5gf2k3H9oLH0STQ2lnSCiernckSbnJXtjswwDGcJ7U7rAVf4KHGMVlbjs4HKuYuk6xiCsO6Ak296yYnW/A9YNazud4ci+Td/TBh26nB2pOYlacO7/iOx0rBnGdTi4XfXN+h9FxTT7w+2aNVLvsqe8uhzmrvvyNAL/D2vVd4btbo4v/7fodt6f7zgXs6Tv0Un41hPBzAxrDFc+K1T9k9qX3iTyci3hnm2ClGHDnviv2jjodRueDpsrN5Uxtqf+uV+x/1ejqsE/fu7oTH/D0ybmOm2K7GPSlsUmThAGd6sl71v39uJqw6d+TxoI36rF/lYveFGOSpzy6HOBDM8dV8XTd4Wvs7rrDZu71zpqhD32ifoe7y/HEP1eBcwF77t78KWYYQDVY+Ic1/FeaxnBGrq53MFOus2N4fsK9uDnsHc6r2Ck/x0NtO2vE1pPz2K7fA+sB3hwD26pn/hbqHQda92RMx1drMhbX055UM8XRXOiV4jRe41hf9bk16oE3+nKxycb7ov2nnLLv1GJd0GPl79TruOzyWWF1fvSiT+4H7/zsMI/vfQqcC9j79uw1jLuh7IYmHxzww1ZNp/eJIJyLeGebYFUMDg7uMeVO6qxiOr/6MLDLrr47eldMXUMfaOT2UnkAQ58VVzb83HeTdAcPYCgfzkt1E3dgMTbwnB7K0cWk3lys4vGa+0yYLn+3TsIATtXeqe/w1Ka6Vy2txzU5XrE+XX8DG/0UN7zzE5rys2J1/cTePuX0F/PP/ymiv7irL+kJg5OfV6krhq53cFMu7IVV7/xLOYhZ+Xf4udiOm4tPNsfT2VK+apLiHCbbcIhqX3y4Jmxnx2GpuCse7NdYPoDVt1oXR+231vVjXPSieMmunICHesjrnqjFNbp41AB/rcV7xjGuz1Wd5Gdc8Emxv2G/q1ft02nPerte+W/A+Y/t5xQ4F7Cf0/qfrKTDHCLwgaIDGsMKT45N7xNxOdfx6DCUYxd71ef4MVbn74Zqykv2CX/Nxbpy671+O/uH2NRv+blH3o8VX3DTfO4B9R1n9KJ1VAP16zrFa+8pTvF0rTjw836UDesun2NYN82pdaqr9RHr7A5Xbas6HK97qz7FBrekjYv/lm2nTxebetBY7GvqI/kTfsI59qzAuYBlbY7nSwpgODI8D8yrZRVD1zu4ypGHjg4y4K7qrfw7/BCLIQl+u9wcp6mN+aJuN7QRs8JnLN4HvKcaST/WqN4dPnOCX/F2NXZ9KubOOuElu2J3/FPPhcF5vK73Lk/rKxbvi4u9ywb+wNPvR/2Turt9TzB/Oqbru+tP9Svezpb6+SS245zqPdl+LmBP3p0/xg0HBQ9e/KHzHyUfKPCzjWVJ9iSdi3c25piwvmF3XFy/sH1rIDkeasO6uDgeGu/0cjFsW30rDjPZplhaH725b1H5T9e6f8Bmu9qgs9qxnn6z4Jjwkn6sA3JTbGd3/FUPzdcc9eu6i0cfyIFute7ytMZ0/Q3Mae1vxDn91JbqTrWYxqU6b7Gf/xD+W3bqxTx1cFcrfAigNWdzbXdx6tO1w2Nb/eHjjz/lJnvqi/G73BU3xSks/XX4yZfsiq1rNyQVi9erd81FPdg1X/lM1+Bdz/o5/LKnOM7R9ykH5CHe9e5sis97UPGTHNSexmrNnTqam74ZxsS+INflKO4n66qtmlRN/ucT/J3cb/e6w+XEfl+BcwH7vsanAimAYYchi0NADwNn1xjAJnsSPsVj+IFjyi97wlj5OsxVPzgQutp31O94oHZ3UHT82OfiYOuexY+/n4mm3JPmoxd9djpoza4v9nW6KWZar/aA/QkDGlTsNJ6x+G8F32VXa+pTPtjnaT73Nc3RPQEHfqJHPMv32z/l/dt8Tv19Bc4FbF+zk3FBAQwsHqgY/AznbK5cF6c+XTPeaqB2uY7XxLaLyRyh4y4GeKW8qd0N/ZS7qpn2HXiMi7r4fqADf08T7V2+1tP1iqerq5owZsWrf8fm6qmt8FHDaaT7uIpn/FWuq1f5mqeceQ0+sFVuwu1w7vKBTz3RCzh13HZ6vourw9nh8YRY18NftJ0L2F/c1Yf3xEOsqOKgwBP0nV1jNHandQwa8EnYCbOL73wJj+3IV46T3Irp6idfshceDhlopTw0t1uzL72rFi4ucVFubl391I9xYdPa2AOX43ghX7E7TVxOsvE3gX1xPaI/rZtiNd7pMclFvd38hF14+Af9Jmxok7A+tbP2zIt7XnH8lMPJ/zsKnAvY39nLx3dSQ6p+PDzd4eBsrrkuTn06IMHF4apNsdR/Zb3CnBwkK4wrvLoc1szVVpuuGZt97h02xXD2sl396UHu8IHteJYv2ZHX7aX2l/pAnGKVfYLB+YrhajIuazTJhSa7NZWHqwVeiq2507WrMc3VOOaG94qpGvqP5iKu8szyL18AACAASURBVM7v31HgXMD+nb1+VKcYNBjuGKhKEnb2r2IVA8OtnjwYHY6zIY8PItRI8V1Ol4tBXbiT39X6KY/tzMXFO1vHWeN5rT4cjKtn1eNvqKuvvqrJP3BIz4pVnorJMbvfC7C6GspZc1xNjsF7F8c9VT3wwV64npON+eJ7SrG7dnBjfoUx7W233m489GKeqic02eV8ZS92+Z/47ytwLmDf1/hUIAUwkHngYIBWGN7Z1gnYxfFg5sHX4f2WD4MYPMGj62/CtctPPtiVy5V6WkPXiqkHC3OBj5+VXzH1wzeFtWLrWuMdvtZnDO7F9VU2/JO+d/Bnv7MxN40FJ1eL+QKD4xKWaoV1xe/moJ+duuCaeKi9sLkOeHZcd2vsxitHXvO3gffyM+9JD12N43u+AucC9vw9+rMMMTQxJGvtBibsya+DDRiMm0R0mM5W+bv2Lgd8uDfokbgme+KV4js7hr6LcXUmNo3hNd513zWHtXT5ZcNPsVwvbKt45ON98mRO/M65qKP9rNYODzbN1f6cptwjc1phMXbF4p/uO+GcVV2H43K0R11rjuNaMU//Me/UA/pw2rn+VBsXc2y/o8D5L2L9Hd3/6arugOCDAO/8VMHY5+J46PC7i53alMOn6+mB4Pjt1O7yO63d4HZYzqb8pjGVh7odt4pTP9u0/mqNvXCYnKv+Wqfe1K5r5bTyOx7o2WGVjfvSGKxRN2Gl72CF7/KYQ9XFb8Iz8V/ZXZ1Vzk/7d7SC7ugL2v0051PvcwXOvwH7XMOD8IECOkT4MHCwnb8G0WqQOcwdW6qf7IWtPuZZPvU7PquYT/1OtxWm4wnbKhf+aV3Ed8+q7fA6nupDPg41rcfx2qOrrTFdfuKSMMqefLwP0EXxlQuw0Dvyyp5+zIHzUnyyay87WE73VZ3yc7+F0dXcqTHRLfG7Yod26Qk+6DE9f5r3lV7/Ws75N2B/bUdf0o8b9rBVC3h3T7TI8WxTCRhDsRWrYjubYvNa6zgf6nc4V31d/YSJg6U7fDTX1ZnYdC+dPqw/tAJHzdc1x+u79qBrYJWdNeF3rVdrzgMmx3U9qE85sxaKyfyZA+dwL3hHDc5XrGlsl7eqk+pzHn+T2leXv+NTXP07UP8O9rdi8U3u4E/6QO+qQaozwUy5x/6/Ffh//t//+h0xjgK/oQD+0PkAKR56oOghWDFuOOtg+nSNOm7QKDb06+zoLWmdcjl+FTP1Qz/uLeXu2DVW16qp+nnt3jtb+aAx3pPWyZ6+Rdj1CRzo6Phpz6s196E8O5/iMhfGSfZUq+zub0DjsWbtd/NSfOp72suV/qEnchM3p8MOr51YcHoCF95np8E3bDt9f6P+3Zjn34DdrejBGyuAw0wHNg9bDCd+ooAeesC7+kfq8p2ta1DjuZfK64at5ro6q5iVf8XhSk3O0fq61qGtfl6nd9UQccWDc7SW601t+u2574/rac3EueuTMfBeT/121FeY+lMt1J9qaZxqrGuN1zW4uR40drJWPPQxyf0kZvU9uT3Y1eoTfr+d6/pPnHZ02YlN9d5gP/8ZsDfs0j/CUQ8PDG+0z8M8xSZ7YbDPrXdkVizNLa4YIjtDSnGurBO31VBLeYnDNB5xrAfvbYfjfLCpz9nLduXHWuGdOeP7STURyxyV74pXxacc2JUTMFMe+xOG+05SrPagudxD+RJfzVNc5c39JUyHMa3jctELP9FT15vD+inbJ/3+FMd/uc65gP3Lu/+A3muY4YdBysOV3ytO13e34PCdbcKFewPPhDX1T+qqJjgcwKfjkHw7do11h4DG8Fp9ThvE6LNiuZ6rrfqkdfc9Oo6ph4kdPFe4zLViNZ77hQ99uD4Vo9OLYx3mJHfCyfFMNuXkeKXcib3rqfJR3+lYuT/NZ9LTiXmOAucC9py9OEz+M9B4aOG9Bhx+GOJ4ln3yrnFu/ckmYOAyV4fHXK/4XY7aUAMHiHLqOCTfjl3rKz+nPePvvCsvrOtZP/cNOT7Jxocw3t3T9eQwXW/gmjBYT8VkH+MAS/XR/FTTxSkm/62meLUXH+bM+mpsWmsOMBWX8zUnYX9qZy7KpziwZj/F6dOeTv53FDgXsO/oelA3FOBDww10DDE8GdrZtPQkZoWZMHjA1jt6SfHK7ep6hQ8dwedqHc1b1UW8qz/NBQbHp/fET+Mr7pPDzh2awONn1UFt5eC+bc11vbMtaVh29Ih4fiLPcbgSVzmFybjg4Oo7G8cXrxU3h+Fs4MXc7sJ29VY25qOaVe6dva+4dH58i13M8d2rwLmA3avnQbtBAR7MGKLpyeUQUzZ+V0rq03XKd3EY7MwZ9Vz8xJfqr/qAH4O0q7+qscrtuHT1FXdnzbF456dqW7768cHS7Zf2lNauNmowfrKx9uAITORzDNvYzvw6zRFXNVyd8rNGXZzThHVWri5ebaiXuGk8c1WfrhkbfU457tTRuqs1eFWc6l11+Z8V1vG/V4HzvwX53r37U8wxfKspDEi2dc0irp7pN4lJuc7OHMG5q+8w7rYpp8Jf9d35ky/ZnQ4uVm2rdacTDkl9cg7jQyM8O2yHwT1qTV0jn+vjvXz6XmvGR4zaNJfj1AfM/wb+z8/VYb+LK5vDKjv6Rh5rm3JcHteYYqDm6tlx5LornM6vNbpY50ta6beKdYoH9qd8HMertidxudrDN/LOvwH7hqoH8yMF+IAooFrjD9g9uRhiOc+R4bgUqzHAAYfVAEy4wEn4Uz/jd5xWdZw+K5tidgNWYx22xvDavWs9xEyerv7KVvWgdz3dd5hqIw8YXKtyut4RqzHMhfE43uVo7eKkWiqe44gYl4t41Hd9aw1dJwxXT3Mna8ZnnuB6V52Oy7QGuBaW0wV7yM+u7vE9R4FzAXvOXvzzTGq41I8HNobjSpxJ3Cpm5e8GZpd71Vc9d7mq1Uqj5O9qdD7gsS6T+NRXl5t8bMf76on6SY/Ozr3iffLknouf9pPW7m8BNtRFLseih863E8P8XZ2kGffKeeCe8tiueu3UL5xJLdTgfai83VqTfu6KYc76Dt7oQZ93cTg4nylwLmCf6Xeyv6BADRP8MEgwGNOTafAQ5Xel2vkQixge4ikv2bXuXWtwqrqr34pb5+98rItqlvaki+tywKOezMnx41hwZK6O90pD+B0OvlPHH1yYR8Upb7fubOVjLTV25eM+Kjfla0/aD/vTO+M7rVKe2hXnEyzFZr3q3dVK9T75nhKPT+z4NtCDPouv/lP1nO0THie3V+D8nyLq9TneX1CAhxwfCu4dNgwcHoSTdwwd5PNaeagUbug6G/Ku+pQjeDFnjVGun3JQ7klbrqs5iaPGuTVwJ/vtuMHGz8Lkbyppluzue2RM5lp14aunclQfr1286vDf4P/5aa3kU50n+Ryj/XOd7h38Kka/4VWei+/wUo9X6qg+WHd7kep8g5fW2q3h4llbxe/Wuk8Ou8vfje+wnuw7/yH8J+/OP8qNBzsGgA57/IHq8y7JdADoOtW5MowLa5Wn/bv6KwyXw7Yun32qRZenNV2s2nQNjLLrj2MdR2frvinF79YdjqtbWNBOeauP1/XuNIENfnCFTrpPHAfuyOEn5yu2xu/EVq5yYh7A0houz/FF3Iqzw9+xKU/0wN/DDt4kVnWb5OzEJHztFZgpnv1av/vmNLbWLj7xcflvsJ0L2Bt26R/nqAdN+sPEUMATefVM7yUt+xiDZecY2J1N8VYY061Fz58OoMR51RP8q8E76XfFgTXEez3dvib9XA3dZ97rtO8Jn+0JR+txX+VTjtM1164c1kZ97rvhPez2M2G7HI5FnxPtkIcednIdvvJwMd+wuT5Qh33fqO0w3R65uG/ZtOddPrvx3+rj27jnPwP2bYUP/iUF3EArGx8o+COFDYU4LhV3MfxH7/wJa8fe4SYfeCU/178jxmGsOLic4pXsqlmKK7v7cfzqvcPmPf9k6Dsc/j6LA3jgyf56d3ox924PGFO/B4eBmJSnGFUb/1RO+nGf6AmxrJHLT7mrvIRVdu5P+bi8K7UUB31oP6yh5pz1v6nAuYD9m/v+uq75EMF7enJzLo/9k0MF8YzV2crnYndFd9wmuJOYHS7TQynVdfaVDTX50NQcXq/e4e+epQnqVdzuj3Vi/o5b2ZiLi0F99q1sLrZykh0++Flv7h98y5ZiXHzFTuLvymUcvIM793iFl8Oe2Lh+veMHDj/JZcL3xPycAucC9nNan0qbCuiwqvTuIGH4aRwwHfYUYxoHfl08fDjAWYNN+drwjgNrAR5TbROusztb1eGaGtOt2efeYeue6NP13Qr6HydfNoDBT35nndN7xSMn9c41FUc5Kwb7y9f5lYfW1Vrg0mG6HNgqj/uZ1EMuuCo+euReoXHKUQxeX8lBTysu6PdqjY738T1DgXMBe8Y+HBYLBTCMMZQw1NOT4fgAwPvVocZYC8rtYZZw0F+HnXJTzwmrw1np0+Wmes7OOKip2DtrjnXvsHVP8Fxp4PqBrfDrBwztzXGreLVrDaeF2hgH3xP3gvj0rTm/alExLk758no3XnM5P3Hv6jsf+qhn/Qr3LmxXr7MxF9aXef0mv4778V1T4FzArul2sn5IAR6MKIlBvKKgcRhewKx8jVmtXU6ydXbHHYcc83NxU1ztJWGx3WmU8hL+rr3w9YDXmorZrdmncaizeqL+ipfydHmFgR5d3fI5zvw9AINjJzbg1pN/tVZtkp/r/A+Q//AGTopjDblu2VOO1sEa+VxTMbhewkl2x0/xU+437Ng37lt7h47g+Un/3+jhYGYFzgUsa3M8D1IAg6goYdBgEKWno8848CPfxZdt5Z/iKL4OUuY2ramYul7hsB+D+w4eqW6yT3hrrq4Zg30uDrb0xL7Xk7835dmt+SCsOsCEnZ/sS7UrnrloX7VWG/hxLnNGPHC1H/BWu665NmOxBlo35TDnrj7yVz0oV7dWnozN+JPeHP60py436ac6VBz2W58OX3t3Mcf2HQXOfxHrd3Q9qDcrwIMPA7FKuHfY1FfxPGzSu8a59Y4txXb28t3hn2BMYrohfcWn+5k4OGy1TfYxxcDunsWJv6H/vSP7/69+j2mt9SrO6dL1D3baj9pdF5UDDi7e+R0OOMOHPlIs1+L62ucq/2pd5O3y3O1vtw7rMuW2qoE9TFpO6+zuzbfjUz9Pt58L2NN36PD7Pwro8ODDUQ81JOkhxoNAh8LuOg07xQEXrV125p22OuE53F0MaPopj46j8znbVE/N7dapP87Bu3vyHiVtd+z6naruE75OJ87j7wL8maOLVb/+3ajf4aoOqDOJvYKv9Wqt+4oY9ONyNC/FqJ2/F/Z1tZif4rn1bvyVXpJmjs+0T83d7WM3Xuu9ZX3+i1jfslOH5/9QAAdXGfkdQz8dIHzg6eH3UxLrcPkJHq6G8lj17zCQ0/kUF3VdfYejtula63JeeldutWabYk7XqOfwtR+nKWLKV+9uXT7FZxvjwg48+LAuHOdjWxczrcV1OQe6K46LT7bSCD9wrTXbaw3NEo6zc47D4xz4r9Rxtb9p015cLf7GnD/ZeA9czKS2y3uz7fwbsDfv3j/IXf+I+SCCHLDxs3w8ACfvmuPWu7aKT4OmG9CdL3EoO/9SzylG8yd1Ek/Y1a9r1HR2tXXr8tXPHX6c595h4yewgOu0Wdn4W3XfKHN2vJI2HFsxjMM56EF5ar7mpDyN4+96hZn+BsBf/a6naR8uDjadERqb1qk/Fw/u7NP+XF7Zdupcib+Ss8tpWsPppLpMddO8p67Pfwj/qTtzeC0V4AMNwd3BtgT8rwDFXK0TpuZhaKk95at9lbfyFx5iugG6wln5lTfWyKsn/xKes6strZ3WHLt6Z66sVadb6pvtDgs25QwO7K/3+qW+lQPikaN5iOdasDGflMf5DkP5KA/m52LZVvhcYydXsYHFfX2Cp/i6Rj3Xf9X9Zm3l8htrfEur2rwvrJXaVzhv8p8L2Jt263D9H//2CIOr/kC7HwYtD9z03uEkH2NpDAbsimPldTiK69ar/J1B2B0KXR3nYw0crstx/TnbKpf9k3fUQCw/yzfV0HHVfGgBTNWpanP9xL9w4QMW5zIXjlO7Yqgf/FJvqaaL51j+Jlb6Ik/7WOU5DrApF+bT5X3i4z64F2jM38IndU7usxU4/yPIZ+/PYWcUwIDE4EII1t2zYjGsdWjzuvMxBtNzOeUvPvrT2A5n6ku8nL2rj3qrmM4Pn4txNsdx11bx0Fpr8Hr17vxl41/69v5H0GCRcPgbVh2UH/pmjvzNwa7foWoEuil+x899aV0nS+LuYtX2aa7j5/ab+3c5yovXSetVjvN3ta/W6TCVw26N3fiqdyVHeb5hff4N2Bt26XD8HwpgWGBI8poHfyVhrXb2OXldPMd1/uKFAZLikt1xmdZ1PTGXFfadftZ9ius0mdq0hubxevWe/NC3nnpA4FtUHmldNRSHNQM+7x9/7+kbKwzXu9rQC3DAE3UR7/riGupHPvA7HNYGekATxU06wq6cJvnMVfGBdwVXsT5ZKw/WE3uH55U6nQZX8E7OngLnfwtyT68T/RAFMIiKDoYt2/BeT/2xL713OerDuquZcpz9UxzV4WqNFY/Oj8HuBnyXN+XKGFyD37UOryfvyl1rco/FG37Xg9rwzZZdtdK1xqAW24GPXOZS78hBXbYBh3G7GqgFDO4FNsQojtbgOPUpV411a66/4uXyk01x78RONZPdaVyx4MTcyp7iE/6x/5wC538E+XNan0o3K6BDkAd2vdfgSc+ioj62gSpiVmtXm9tVnIQ3yXE8OW/in9SfxnBvrMOKx64mLn5i0xjlyxcJfXexsHGv7l33ZLrW77by2Ka6dv1pbLen3INy7XwdpuKATz31UpMuCqitOTt1HX/VzXFVm8thfp9wnNTSGF47buVXfoqRdNc4rFOdu+LBeZdXqv9k+7mAPXl3DrelAjpcdg4vHiSTdzcYUH9ymKTBtWuHKC6P+Ti/E3QSt4pxOnQ8V75Uj+1411hd676p32FyjvNz7YrFd6fvTu9kYwyO0W8a31px0Hrs028SscDWfIerXDmHfU4PzdV1qq9xWof74L3p8uBDTcaY5HE+6+pytcYux8L8yRzXg9r0W1ppwPk/1YtyfsP6XMDesEuHY1RAB38F4sDid9j4WX4eDpN3zuHaOpDc0HE25aCNphzEJc7Or9h3xhSP+qkOkxqpx86utTRW1xXfaaU+4MOufv2e0Cee/A2qr1srblozP7zXU3myT/3g4bRCrOZzDvsUo9YpFxgJS/1uDfxpDcXg/B0M7VNxda11prV26xTuN3NcH9qrW+u8dTHOdqUXh/N027mAPX2HDr+lAjqMsU6Hl7NXEf6j1wGgvorny4bGKx6acHEpdpWDPMQxH9hW2JMaqxj0lHpb5XccFbPW9XO9uliN0310e6g1XH9q4zX6/fTpvtPEP9mdtq4/cFW9XD73pVja88rP+JNYV7vjrnywZr3AgWN3dUh1uD+u/Y1a2lPHKemwytmtgT1d4U79bl+muU+MOxewJ+7K4bStgP6h4/AqIHeQlR3DhIfK6t3lgKwOJ12nuKt29IAegaPPxONKnGKt1js1FEt1SXvDNRRD19AMg1z9qQbs9ayf+6ZSjGqwWq++XcfB9QWe8PF6x5Zi0QfzSb2lGNV/VYvxNRc1tE/lpHnqZw6MNclTrEkO8+b83cvGpNYVfpzzEzWg/27/2tsb1ucC9oZdOhyXCmCI8eFVSauDUg9iHjD6DjyQ0WGk64pztrvsyq8bWImHCjuJqxj8XM0VRvIne9Irxat9ukYcx6/eNYfXxVu/R9V7Z63fsuJzLf2uUUf7SfuomnE+6tbT4blvYpKPGI3leuzbqcPYqTetP+GRcqY8XX7xc79Vv53f4e3qUBhPznE9Pt12LmBP36HDb6wADy49jODTgwkDRQ8SjisCmgdSOpB0XXFTW4rVWtrLKk/zsU5Px5djXX3FmmC4A8Plwdb5VvU1d2fNse5d+fFaeU3X6fvlfMS4b1N5Vp5+02rT/SgMjuHaV33A6PK5Torn/ly85qGPaZ5ipj1VzVKe2rt14gjNNFe/A/WndaqT4sv+5JyO91N957+I9ak7c3htK8DDkAe8e1dwd+Clgae5vGYc2Ke2inexilMxOvi7PM3v+K980wE84eNqad6qnsY7TKcr56EG7zf7V+/wuydrn7g5O3NxGmgt7QF+2LUHrcnxzNnZoWc9meckj2OQXxgOhzkWj8SF4/Qdedz/qpZiOB7K5xPMrl5Xmzmolj/BZ8r7xGUFzr8By9oczwsV4MHDQxfv3RNDjGPYBjlwqE3XDiPldnb0VvzST7m5uKsxmqfr3Vpdfuo15Tj7xKYx3Zp97h0293TaXLXpN1w4yVa+FVfkg0/Fqy3hwO7iOzzVeYKjeFh3fw+I4VyeCx1vznV8HbbadrgpR8Xq1o4f9tHl6YxzMc7m6rg4tv1UzorHE/3nAvbEXTmcPlJAB086nHgw4B25OqB0iOyuqyHNSTa1Myf1OaFcHY5b+RHrNNF6E6wuJvm05wl/h9XZuD8+KDWH16t3xXRr1fDTtX7f6KXjWjW7nsuvOsAGvnq5qHjFRSzn6t8Wx2ic+uBX7l1dYLh+uF7CSHmOG9ugB2yqV8q/Um83R7kpl8R1tw70TXha90q8w3iL7VzA3rJTh+dYAQwJHjIY+gXCB4DG6uHAAye9p6HhhtXUBkzw1eYdDsd86gfWCif1/gmXTucVL8d3YtOYbp34wc5P3Tf3HWrMZJ2+4YSvduxbPXE4Fm9euxi2aex/J//Xz+HAN/F3OLovDrds6En9zq4xWLMuqzzGYP6cB10UX+vfUcvxUdtUS83T9YpvV0exar0b7zDeYjsXsLfs1OG5pQAPuxoQfCjgD5yfANehq8OA150vDRLNQV1nZ86ueZfT4SlGlw/+9VwN2NQr15vUwj5pvZS7Y+dYvGt+rblft9bvQ3t32GxjTe56Z92Yc+qZe1T+WLsY2BRXY9GX6sd2/ZuEzz1TTy5WazM35t3ldhiTPM7Xb5nz0ZdidjkaW+vdvqb8prVSHy5/atvVYIr7tLhzAXvajhw+tymgg0GHPvv1YOWhlt6LqA6/1drlqA28lJMKo7V2/VqX87uetQ7Wn/DRnrVGwt6xuxouX21JC7UX59VlCDnMBe/a82rN3zPHKgf3HakWui481SHZOjt89WRezNfVZj/eWSf05OLUNsXXvFpDg93aTjuHrzauA9+q1yu1np6juky1SHlPtf+vpxI7vI4CdymAwc+DWAeqDiQ+LNL7hJ87dDpbYa4GLuo6HOa08jv+rNG0zjQu8WHtdR9W2Akz2bVnF6c2Xqf3Tnf05J5sU26rdfqGXZ3CAne81xOx5eO1i1euyHGx/w32nx9jsz35GVfjFauLZfzirnopdrfmOoxTORMOHbb6FE/rfaOmcvjttWrw23y+Vf/8G7BvKXtwH6GADl2s6w+cDxS3rgY0Bk3BzjHOl2ycDwzEuuGj8Yh19dm34+9qTHCuxLiazoaekm9l7/Yr8VbMhFH2+uEb4nfsJXLdE73d9dRvmXGVD3oHZ7fesaVYtoOP+841jmN0P7pY1ECM1sKelV99q1z2Jw6Oq+bpeieH+QOn6+OTWsjd4ffTOdrfW9bnAvaWnTo8LyugwwoHVAHqYaUHFA+d9F44OpxWa86ZxLoaLIhiTH2I6/K/gYU9SYdGxyf5duwudmLjGLzrU/e21u4707xaf/Lj79rhuO8e3MBZ1/z3AEzdM/Be2VXflMfcWRPF1x4TntZNedw79FjV7LAUT2N1veKp8Vgjj7XSWO3jSq0n52i/b1mfC9hbdurwvKyADnEe1Dy8cEDxs4ry4EnvGjdZu5hkQ/PdEPzU1+Wz+JO4VUz566cHw6TPTiOti7XaE8YkjmM0PvmUB6/RM7471vrqu2Lx2n3fvBfaA/ODbhwPv2rBdhc/9Xc1gcHP4oGf9uriU27Z0/fZ4ST9VnhJv2mtVVzyT3v8Jj/dgymn1NNb7OcC9padOjw/UsAN5QLkAc2Hog5uHaoYEMle2G5gcQ2tzw263ISJvJTT+TVH18xpwm8Swxp0g3bFJfkTvou/aqu8+uE7wXs9GdO9Mz/FgH6MC9vkucrT773j7bjxfrEG4OZs5YOd62k/XS7/vXUYU0yNc+sJ55SXvmvG1D74W3G4znYlp3A4Tzm5OvzdOH+yXeF3JSfVf7r9XMCevkOH320K6KDRwxN/+DqcdPg4P0jq8HDritWDzA1szU01WKCUo7nQYqfuTh2tN11zjXqf9jPNc3hOixTXXQQ4Z/XONRHLT+3nkzV/v1rDfdtVK/W5oxVwVEuHwf2pX/MrFjHM1Wmk/a7igaE1ud4KQ3MdL66jfvc3qTGJZ4pT+w7HytX+FU/X/P3s9INauzla/y3rcwF7y04dnh8rgCGCQweA6YByh5MbLDrMujVz4IY0B75de+WlnBXm1H81LvFK9kkdlwub83X6aHyt68eHgdpczuob4Rzmin71ewQH1EbczrPD5L8H5c41VQddq1a1Vr2Yc+db5U5xdH8Y1/EFrstzNRVjlccYisfaaxxrnfI0J63v4JiwYf/kW+2wkw5dzpN95wL25N053G5XQA8UPgQwmNKzyPDwmrwjB43oAccNusHobMi54uN+O3E77BVnh7vC+8Sf9gHau6Gd6jm74heuXj7SmvXWd3fglg31+Ok0/cSmddCTcuRe2QdtnRaag1oaC/6Ky33Bl3K7WOjHMfqe8Ce5yh9r971pXV2v6jFPrrPK0zq1vpJzNe9KrSs5rs832M4F7A27dDjeqoAOs3QY8dDBUODhoIMi+VBPB7PmpyHn4lIshHI5iV8S12G42C4OvVee9q9YHc6k31Qj4e7Y0QdfmrifiV9zWRtwVxtrxBcZ1W5nnb531oP7UZ3cWrXnPjqdzhMO9gAAIABJREFUmLdqqHueMF3vDsvFufrayyovYezgqKaTmqwHx3/6d5ZqX+W44qP1rtRRjLeszwXsLTt1eN6mAA/n7p0PqiqOwcADIr0jvp568KIRN2icjWurCCle+TKPrv4OPsc6HmrTtdbq+lxxLmzX4yTPHRDK1eFrjPJXP6/xzrjJf9fFy+kNzZQPx3J9/pZVb9UIa42DTs7OvuRf5cOvurl9rlj9Me+Og+ZxXfimWLz3DtfZUo7WRG6aQw5bbamWxun6St6VHK37lvW5gL1lpw7PWxXgIaUHDAZAehYRHhLuXfFBXoeLrhWbm3axXfzKN/FPYzTuCtekEWugdXSd6mocY6Yc2NmvsbWuHx/uGs9+9emhyHhan9fM/5N3fPvpb0B10351zfHaq+qEWGdf+dAz6isG117Fws9xup/wdZc4V9Nhs43119jVelKPMVgrxe76qtjdWsC/knclR/t5y/pcwN6yU4fn7QroQNLDqFvzUNKBwevO1w0pzetimQuLBIyEtcJ0WKtNgKbdQF/xSf04Pg6r4+Diu3oufmLTGF7jXXmmGL4csQbJvtqj8qdc/eY1FvvquCMWevIanDQv2VULxK2+K+Y7iU0cUy74Oz7MGf7VU/Ecn4RxpV5huTzHQ+smTTSO165WF5/4rXLe6j8XsLfu3OH9sQIYDjx8+GDSw4gPH/ZhaDAhHlY6hHSdhs40DnU5XnN1reKt/InjFZy7sFack3/HXrH108PHYaitW7OPa+h79z2q9p+uuRawXH3WI/UIO/fD/FZ2p3nZUt4EO+njNE+xakcu7PqdaLxbOw05LmFqnsN2tit52qfDVZvOSPWn9RV+Cevp9nMBe/oOHX5fVYAHiztseIhgMPCAYFsRxbDUIbK7RtOaV3ZnY/vKnwRNeR0XxmIt0qHh4hOfT3pdcU69sj29d9iK69aVr9+a9spacnz6HjsNVz7mwrHKUfXo+oAPeJWrtlo7O2wufoUHTO1p+j0CfxKPWO6DbVMM/UYYo8Ne5SkOa+N8ne1qrQ7zim+q6RXs38g5F7DfUP3UfJQCOvD5UMDgSc9qhIdTete4ydrFQDg3EJm3E9jlcNzKv8NngtXhdbwUW9fae/J39sLQYe/iy6axGscxq3jOde+w8RP96qVDdbi6Bi7jQxvl6Liwjq7/ylGNGJ8xtQfkld1xQryLUyzwUB2Zv8vhPPZParJ+CdvZGZv9K66f1FthJ567eVc5uvpPt50L2NN36PD7EQV0oPEQxjs/i5QbsDo8eN350KTGoI4bYgnbYXT4LHCXmzBSTrLrhk7iEJNikz1x7uxdrfLVT/dD6+u6ctimOMnHccxLNdQ1f7/q69buW9e67m8DmoAv1uib18nW2Ve+ib9iOK7eeR/dnmm85vwHMv5bafbjnTFSTY517ymP9f+Jeo4b2xLPLu9KTof3ZN+5gD15dw63H1MAg0sPrnQggRgGOA+N9F45Olx07WJWtikGOLt4FnrlZz6r2JV/yilpsMM7cSl7/XivV7wcltoYF/xRx+G7eP2+HFfU5Sfrcue7u3wxR+7P9eP61xytofwVl/3wwQZuioG10zPFao7jvcp1GIyzk7/qjbFUF/ZNcPBtTflV3JWcT/J2uD0l9lzAnrITh8evK8BDSg8BDBMXo4ekDhEdRKu15kMYzUtxXfzEt8KdYtwZx/p3B4bTCDxWfaXcHbuLLVv93HfiODFG946++FvlXu96B/7O38SqX/ZDA+4H76od96S+ifZJE2AprxSv/HbzOD/t3yffeeLdaZRyeP9TjLO7Wi5ObVfzFOcN63MBe8MuHY4/pgAP4iqaDp/yYVDwwJi8cy4a06Gja80Bz9VwdDipJuwr/7Q243U8VnGaq+sp764vYCbsHbvGsl7Mod5xyGoMY7CPeSI/+dPBrnrtrtPfxLSHlQasi8bu+ib5FeP0drWAx0/dE/i6CxTzSnHQk2vx95LyHMdJvZTneKTYsv8Gx47Pk33nAvbk3TncflwBPcwwUNTOh1DF8BBOA0iHvA5Q9jMmi8A81K54CWOSh5gpJ1eb60y4uJpa38VonUmtbi92a7p42Lo6jqfGV4x+TxUDu77ju3SafMvGNbt39Ms9sY3t3JfyTj7YFT/laz33DU8wec+4Fuc6TilP+XaYDneV7/q8M0f77rB3fbvcd/F/Ov5cwH5a8VPv8Qro0OWBj6Gpz2qqs6FpHro6gHXNmJxf724QuXyHASzHSX2cn/AnNaa1OK7eXZ9TrI4vOKcaKbfsLsfFu9hk4z4Vi9erd8ZHLD+h3adPXLS6C5dyYd1UB6xV22TX/WNd2Kd42neH38VqL913ChytpZy1XlprHuNyjnLSvISv9rfkKe83rM8F7A27dDj+uAI61PTA6dZFlodWetc4t2ZbhwOB0rBM9lSTBYcWOtA5ZoKz4viNmh33zrfqx+nJeKu90vzpGjWK3+ryo98o9OU83cOra8cF34vqAu7QmHmxTb+3tF/JDlzVTHtkP3PTOF2vcDWe11pzt65q42q5Gjt1gFk4k3rK4afztP4b1ucC9oZdOhx/XAEMDx2ybNcDjtdFmAdQete4tC67DsE04HbtriYLDg20PsfgPdXW2C6u00pxVtwTr2mNKc+VXg5HbarzZM2XHH1HPrjh+3Qa3mXTv4nCVV7YM/Xx2sWAo+rCsYhJ32rK5XjWLeEwF9V1laO52tekh2kNYEEj5cr+VFe/U5fjbD+d5zg83XYuYE/focPv1xTgYd29Y6hhKPLgmbxXgzqssNaniqF5DotzXDz8zpf4K49pjVXcikOq6/I0tuulyy9f/dyh5/JSvLMnG9fSmNQHx7kY2BCHnnitmn265gNf3wvb9aZaK19wSnaHq31oz25vGUc5MQfNnWBjL5QXrxUHHCa5Dnea5+oqnvas/lpP62nu1TzFecP6XMDesEuH468pwMNIDxAMCn3y8OFhooNl5SscPYh18CkmhEp25uZE7Titchmvq5/iupzON+mZY+pddURvyQd/yoN9pV/C0f4UR3l1fvjqiTy1/bfj5h/+PvjvBCXc3w5z47h6B3fEwM89qU1jOxyX6/IRp1iwu++Bc1we66SxqzXrssMBPCZ8lQN/a/A5Hprn1pP6rp7D+gu2cwH7C7t4eviqAnoY8CGAYZGeRYwHSnp3cWXTgeWGk7MpngqUcpDnagOjy92J4diu3g7milv5V7U6jORLuJ19tbfIBV/FcmtgMk+8M55iQuM7n3zRYK7pvWprTyub7qXLR0/cv9OJaymu08XhuTi1uX3QmLSuXPfduHgXpzaXpzZXU2Pc2uVp7y6vs13h3+H9tu9cwH57B079xyuAQaIDl+162PC6GuRhlN4RV890QCgWxHPDLsV2dscBNfiZ6u3GTOut+pzU7XTXHrv+nK9s+LlDIuVorMYBl+NcDH8vxQPfn74zR8YGJvehmny6TpzUXnVS3+gHXFwc52u85iX/FEN1B77uK+xc/0qu7r3i8jrt5YqbYu7U1Pq7taD7lTzl/Yb1uYC9YZcOx19XQA+rIqQHBw8qvDubDhmORaM8gNwAnNq0FgupGNxjlwcMzWfsaUzSx2FNMR13x9XZOn0636QPV081B3fU4kNav4mK0UPcxaMu13Lv3N83393fDXoBr7RmfYDDeKwJenAaMw7iWF/tX3khP+W4eOaT8hwv7gl7qfxWa85jbi5Pud1R09VJtqv1Et6T7ecC9uTdOdwepYAOVaz1IOB1NYCBokOQB50OndWacVkkzYNvZV/500akvKucJnipd+VYWPjpobLSZeIHV8fZ2TreLl5t6Gf63XD89D19y6rt3WvULVz0p/2mNedAY7WxHb6kr8stG37gsYpz8bCl75Hr8DvXvIKhvaY6ZXe1NH7Cf6em9jrBV05vXJ8L2Bt37XD+NQV0+PKhgIGjzyI7sfHAcsNLbbqGKHfZV3hTP/c/yUn8ddMncRVTv26gr2K6Ol1u8nV2vny4S0nSkntUfF5zL84Om2r9zbX22fFH/+CTLmspDnncp/s2Jn7mzfqvtFKNXf2E4faPYxMW5yVsZ0952oPLdbbEj2NTTYf3dtu5gL19Bw//H1dAhw8G8eRZZHWI8iHCA8oNIrXpGmI4e2dzPhb2Uz/3vcJSjboN7rDY18V1mrGv3tP+dPjJ5+xl0zpODxeneFgjFriaq3H6HUODO57Adljs03dowNpoHy4GdTSWtVKfclP9UIe/Ba6NfPUzF/2OuGbKS3U5l7lqHx2uxiauKc7ZWWPGc7FT25Uepti/EXcuYL+h+qn5agX0wKpmcGBMnhXPQ18PAx3O3RpYOpjc8NNYjdE1b1LnQ9xdMTt42lOXewc/YDgsZ+v4OO67+Fqz1vXD9+DWzsdxeAf39E3D/8kT2IzBNn2HZq7HlY1zORa1uW/9e9qJcbHKLeErR2DxHsC289Q95dwVl87fcdBvs4tl39W8Kf6T4s4F7Em7cbi8RgF3YOlhgUHCA0XzMNw0hoeeDiRdl2hTG2Lr6Qarw8GmdL5JDPInOBM8xKAnpyXHaJz6pjU7/uWr3462nMPYro7DTzb+HpmTxqeasCM+6XWHXbmCL3PtePDeq/7ab/kVS/eL/c6X+HZadJhdnuOrPU7ytQ/kqBaKlfI0TteFeyX3ap7Wf8P6XMDesEuH4yMV0IHKgx5DxD2rGQxwHlA8eHQIrdaFqTGdDRycsA4HcZ2vi9E8XTseHZ6LL0z8usE/qd3FoM6VGl2uq5niU2z6nkoXxWIM9nXv+G6d/t+ycU2tj35db/otIKbsunc7Pqc96+vwwQW5XE95Jh217g6G5qYaanc1NIbXvB+qcZfHvqtcp/hPijsXsCftxuHyOgV4QLmDAjZ+VpM8iNPQ0kG0WjMuC8l56V2F11oJT/OwntTpaijuNLbi6rca/pM4V1P76mq5fKdP2RCbcpzd9cA2vCvHrofkY37AY3z09ZNP/XuDjq5ftilv/VaSboyPPjUX9lSD9VWtUg5jpnqp7oqnctB1x1dja609uJhPbKv+P8H+jdxzAfsN1U/NP6MABpQObbbz5UvtJQQPOR14u2vFg9DgpwNM8XljrvpWNac19CPp+Gjfq1jmqJokfgkz2ZVT6kfzu70qDOWr+a6uYnbr5AN/fM/ggvrI0z7vWru6zMHxgx+acAzembfTVjE4psvlvqdxKcfx5tjufbUv2rNy6PypLr6J5O/sn+R2uE/0nQvYE3flcHqVAhhw6YBAMxhkGDA8aNJ75XY+9ae1cmCBu4F31Qce9VwN8K4G83S9we8wnE3xOkzGXvXR1Spfyl/5nHauFuPA77A1t1sjnzWbfONa32n+iS1x4L8v1nuqTeU4zdie9nES0+ni9pk1cnsB/yS3i+mwu36Zn77rd6X+bv1Jbof7RN+5gD1xVw6n1ynAQ8wdELDxIZFs1TwPIR1IutZ4XmusriF0sjts3pyU1/F3m1vx9esOisQ1cVhxn/TBGF2dSS2XD5vzAdPpkvRydsXWmG499SGONf3Nd/4bhH7Mkf8OwZO/PRfL+8G9uW9W9dC/ddXGxXNM+V2dCacuV3noWnmpP+nwac3Ua1f/jb5zAXvjrh3Oj1QgDSsevhhMPKB236t5HXC6djEQzcV28bs+h+9sbhN34ybxk5iuR85fYZW/fukA6bC63FRX7cBQDg475erlBN8vYzKevnO82+O7bMpLeTi+sDmdnK3i2a66qr/bd+47xSFGa7q6jKfvLn8XA72tuHaclden6ymXT+v8VP65gP2U0qfOP6GADnE9FHBo8LOEqTgMl8m75ugaGIzFG7BrV3zdzFW9Vf6Em6tZtslQ5n1QnK6202mC5fJQZ5WfclMe7KqFw1Gbw0SMPgtf4xmP48EF8Z3md/rwd+Xqs4+1Yo78NwhezqY+rLVf/jZVK+579Q0rLvNf6dfV7Thw3qqG+n8rV3k8fX0uYE/focPvVQpg8OhQZzsOAn5WkxqDxnWApqEOjHp2MQ6XRU7DM9lXeBNsjkEf3aHUaaJYu/XTPijuJ3pUbv1Sjx128jm7qzOxaUy3Zp97V91+Y42/NdYcXJ1N/37AWffLYXB/7F/tN+e5Os6mWmpM+YuDs2uuclV/x19jpzU1b4evy32b7VzA3rZjh+/jFXCHEA6A7snDhweYDrNuzbVZKM1ZDToX3+UgPuWtuLhNTVjO7mwOs+tBOdZ6dXCt6pZfcTjH+cFj5WNuwEw5jqeLZRx8q8xfc3i9885af+NduTtuk75cDPjqt4Eaut+1Zl/KZx1245Hr8hwfrpXeC6vrMeVN+utyXd0u/s2+cwF78+4d7o9VwA387vKFocPDJ71X0zqkuJ7z79ggqtZIdo3TtdukSYzj3OV1PuXQxbKvi0t6aC3uI+Elu9OA69Y7f1cdp6qBeMQ5fBenNrfGYc2+1Tvz+Ol3vqRBF/BlnZwNujFnvqxwDmJWlxn1I89hMb9Ot8rVPjW+q5t8iqHrxFnjdtdX+ezW+an4cwH7KaVPnX9OAR3cOgwxGDFU2K+2Eg9+CMlr9bn4HZurwRvouDo/2/TdcdYY5jyJn8R0vbl8Z1OeFVO/7oBYxXR1utyUl3KcnW3AS3Hco+axBsnn7KrnN9b4ewNH8JisXYzut+JxD+zTPMSlmLK770rjgaP743I7buxLXDVG14mzxrn1J7kO78m2cwF78u4cbq9XQIcy1jgM+FnNYvjwEFq9uxwI54bZ1MZ83EY4HI5b+Vf4ilXr1WGyg+liE+eyT+qnfNRCT6mPVR3Fx7rL0xxwcHaHozZdq47wQy+OX72D208+9WLGe4V90p5YQ7enGl9rvRhxj+57YAxXI2l0NU/xwNnhaWyttT/Xk8tTm2ql/r+0Phewv7Sbp5dHKuCGcRHF4HfP8vMgmrxrDsRwA21qW2E6HN6ElT/hMwZi6jkd6tB8Eq/7o7Xv6Ed10LXW7Pzcm8alvqd24Cmu2yfF3FlrD9hb2FWP31jj7xK18S0xR710aCx0Y/7um9S+FdfVdrVUJ95P9U04Oa4JR3tIcZ/Yd/h8Uuencs8F7KeUPnX+aQV0aOsBhGHPzxIMA9S9l03jNQ6iM86uTTEVS9fA7+rsxCQNFMOtV9yYY71PBvwE0+2v8uMY9dV64k98E8eE6exXbZrXrdnn3qELvnOn0122robzJRvvHfPHO/p0vp2YFMu4VSt9I6ybcmLfJJ/j631a9648xXnL+lzA3rJTh+erFcBA4kGHAd49eZgxBudwDERyA/ATG2rU0w1kh80btvK7HnZsXEvfV7XZv4oF9k5c0myK5WrBVs+Ev/LxPiLWYTmclc3haQ6vV++6p99eu8sVakK3rkfWkeM6fRW/1pWbuLi/Q9ZF6zp8jtf3rrbGKjZyU1yyX81LeE+3nwvY03fo8PszCnSHzO4lDKLwwNLhpevK+dRWGGnwc39u01xtjev64dhVrQ5XcbSfCc/CmHCYxABLeSjPWvPhz/Ed5+Rjbqo71wIP18vEpjHdWjmBh7OzPj/17i5DauM9Yl4ru+qMdfouoImrwVia7/JcrYrT3JXOHfYqd+Lf5TPB/M2YcwH7TfVP7X9OAXeQYICvniUWx0A8HpQ6NHVdOVdsXQ3dRIfPXNGH5u3EuN4TXhebuPI+XcGtHNWsbN0BMqnZxdztS3jOzjb0rXE7a8Xr9gB/E13Mt3xaW9e85+gJXPAtqL3L4T7ct+SwGG+lQ8pf1VVcfANqX62v5q1wn+o/F7Cn7szh9WcV4CGnl65qWi9ZGl8xOqh43fkgqsY4TNjACbkp9i6/65ex9d31ojFYdzq5nCm2xuna1Xf1ypZy4UOeO4A5xvmhLftQL9V1OYmni1XbzhqxVY8vN/wOPX76qRxWa/QAntzbji/lOwzss9ZirdJ34uyV12ExLt4Tjost7J14h/Em27mAvWm3Dtc/o8DqYMEw56HOthKCh5UOrtVa890atnq6oYgenC/hlR0/5ehyXAxjdFguDjXqmXhr3g4H4HY5K906jozb1QBG6hG5itFx01jlqdxUY8Xu1vAxBsev3nUPf3rNf7eonWzwc8/oG5qqT7VNGCmO9XDY7E/fEMcoHues8BOOs+9ycRhPsp0L2JN243D5pxTQQ0YPFQxsDB0exmor4eCHiLtrxeB8xeKNuurr6k3xP4nreDMueNZzcgBMcSdxqz0of8er81/xpZwdu8amNfqCX9fuQqP79lPrFRfnTzZw5r7dHqtfY8rvarAm6XtGbsW6Ok5XN5NcXGfjul3cX/GdC9hf2cnTxysVWB0uGKA63HRAqh9i6EBbrSsPnHQ4ay4LftXX1Zvi78QpT12vPqJVPPyrON6felettadJzApD/cw14VeM86l9haXxhak2rLleisHfBXTidXpH7E8/lSv64347G/hqPOvUxbi4VXyXg1x9On4a8+lav+FP8X47/1zAfnsHTv1/WgE9uEoMDOzuWXHI7d7VN12DRz35xzXv8jlOij2NQVw93bB2/J3N1YctxasdB5Ljofia6/ypJ+bVxTAfV6/jm3ywa91VPGuivLh3xClet2ZOquMT1tMLWeLqtEuaqX6Kmb7NHQ0Vo3LVpnXT+pPchPlk+7mAPXl3Drd/QgF3AGFId88ShwdWete4bt1hYDO6IXnFh5wud1JbPxbF0zXHl69+04PDYTmb01p5rnpj3AnPVczEn3RwPQLP6ZdqOfvEprWma/wdJe1/0+64JRu+J+XL+8WacJzb0xSLPJejtVcYGu/WqFNYk5oO4422cwF7464dzn9OAT589B3D2D1LCB5a6V3jJmvE1FOHYjcod3waq2u30ayP87MNeBNcp0mHzzxW+FPOGpdwk931rj1MNFEeiltrd2imvKkdcYyPfVnZOJf54u8GNl6rj/N+691xcjbWo+sdfaQY1bXW/I1MdOD5gNxJ3oQb4+gc2qnxxNhzAXvirhxO/6QCfEjpOwawe5ZYPPTSu8bxmgeuG3JuqDobNm7iSzHJrh/F3XET7srBaepidrFX+4G69XT7xfU0hnWrd/Ujd1Wjy02+HTtimV9ngw4a062516e+d5cv7g38dUa4vvSbcTicp/GKucrXeLdm3s7/F23nAvYXd/X09FoF+IDSdx2sOrAqng8h917CcNxkDTE1z+Wy8C6+w5rm7sSBQ8eF8ZhfvU8OHt0Hh6ecp9h3xa104G/N8U9+2BPPVR7r22E5HLW5/FUM+znfafAkG7455ZTsiOOZoLkcU1qkvUl5+AY0t4tn30T/1d/jtNZT4s4F7Ck7cXgcBf6jgDsU+JDHgNNnpfPwS+8c5zAUhzfGDVdnQ47zpZr6AVRc/VZD19VwPUzxVv0m/y5+4q3cu7jEhe14n/BbxbBfeXW5yQd7cUwHvrMnGzhpPVdHe3GavcmGGeE4Qy/WgeOcng4n5cCe8FdYU/9qFkxxnhJ3LmBP2YnD4yhACuiBwQcLBq17FgRiu3f1pXXZdegxPijzYQYb+/gA0GGv+F2++lyNzlY+xz/hdvEJJ9ldjaSbYqQ4xezigNnFsHb1nvamw7jiQ46r6fBc/FWb5nVr1fsNa8wJx5X/Lp0fNvcdsE5dLvscDvsLcxUzrfWGuHMBe8MuHY7/pALuIMAw7Z4lFg8y9w6bDjxdKxY2wsWlWNjr6YYr+nS+VT34tXbit4On2Mx/gp/6ZVzHp8OeaKVauDVsK46JC3h0+R1X9mmNlLeyMxfHr7O5iwj+xrBHqzXi3vLUfhxvp4uLU1v6W+Y90JzJOuFOcp8Ycy5gT9yVw+ko8B8F9NDAYbV6Vjpiunf1ufWOrYstXzdAmW/F6m/lR+1VHeBC245T4jDhAj5T/B0+k/qM18Wv6jo/4zk/69b5r/iQo/ucsJxdbQ5TbTtr/W7ett69ePE3zjrd3ff0b+nuut/COxewbyl7cI8CNyngBn8NorJ3zyqPGLzXk3NAkeM0L8WkOLUrh26IKg/U7jhwjGqi+W69qqk5V+ILo+ub+7s7tvhOMFd9ASdhTf16WON7hAaqU4fLvYF/ind2tfGa+1zFgfu/9sReqW67OjCO7v8u1pvizwXsTbt1uP6zCrgDgA8uHWA4jEowvANDYyEq53Aei64xKU7r8lBVHrqprsaKg+OxwplgJm6rHjTP8dMY5ruD3/W5izmp+2kM5zvuHX7yreyltfsG2Q6MZIN9Eqd7e9b/twJpP/7vyP/f8tcuZ+cC1u328R0FHqSADn4cXnr4sN1dtuCv1vh9snYxydbZP/Eht546xHVAa3+Vk36rWOd3toRfdt0rxCacZNcaO7gTzAleimFuXQx8Fa/71mnlfOipw0w+Z3c2rgvOHKd7gnX1pniTvIT3L9vdd/JmPc4F7M27d7j/cwqkQY4hrxcuxCd/CVgx3UVG/S7H2ZDn8rFxV32av8Kp+MnwZr1QQ2s5+xQ/YX2D/x2YqofD1BjVp9YuhrGcn7XCu+4h8pz+E59+965OwnH2iY1jwFttTsNjm/0Nv0mncwF7024drv+8AjWocZnS4c2XLBdX8bB37+pz65WN66TYsk98FaMHL3JX+VfiHKb2w7h4n8Q4PtO8aRz417PT7e644reqiZgUt8JwfujifNA71WU7c/rEDs0dxlUb+vjXn6vv+W36nAvY23bs8P3nFXAHDh8+7OfDYOe9RAYOBNe1i0m2zr7ydX7XK/i6p+vBxXHNKzkJU+28b+pz62k84gpjcmhNcKeYO1iJ26oW16h3xtnJhcac4zRLmGpXHMZSX3FWm9vzY/v/FUjfy1s1Ohewt+7c4f1PK4BDBwOchznek62EQ373rj63VhvzcsOS+eoGMif1aZ20Lrury3gdB627E4vcnRzWa8J9WkP3d4qduOvepLipzjt9d7XgS/11fvZp/jQvXfwYL9VxdrUBx9lZ63/lffW3/TYdzgXsbTt2+B4F/qNADWV3yeKhjYHFsWqrePj1fbKGcBQpAAAgAElEQVRGDOr+h579z/2wzw1THDTOx1yYLzBX2FfinG6Kk9YdR+6F81c5WsvFOxvq1TNp2/H4BFP31GEhpuOnOKrhCqPzT33Kj/M6350XNdTR2rx/f/V98u2+qfdzAXvTbh2uRwFRAIeZG8a4nOmFCzkFNXnXuLQuuxuQXIPpJ7vD17xUC3EdtmI5zo4DNE7xjMs8HNeO324dju9wV5yUP3Ad/xTbaTPFW/U/wZli6N8I9h39uX5SfbarZld8msOYyefsuldvXrv9eHM/5wL25t073I8C/6WADl0cKhjY5cfgwruzVXyyq4/XXQ42iGN405Ld1WMsvHcDucNecehyOx/jdjUmGJMYrVHrThONn8QWjynuKhZ+8Ojq72AlHK7nYr7p73p1vrLx3y7vFf/9sp33RTFZ4+RTrKev3R4+nXPH71zAOnWO7yjwIgX0MMEaQ52HeLJVuzgI9D2ty86DkeuyfIw7sad6WqsbyokL10cd9JF4TjkrNta6PylO64DXKv4b+Pot7HLRvVFtJ/uT+nLcOn4rnOR3+6d1OBfxrnfeQ/2OdX+nfleb+V31AyPlK9+fWKumP1HzmzXOBeyb6h7so8APKoADCQOzhpUbnrDzs2gi372XDcOP66iN22U82J1N6zEG+67kruq6WmWbDHrWWXHS+koONFjx0v1bxTNHx6vTe4rNuAlv2h/HdfVR85MYxkg4q5hdv9a5Ox/7zX+zsOlzEsM5adYo7qfryd/lpzV+Mv9cwH5S7VPrKPBlBXDIuYOPfXz5gr2opXfnKxsPRM5Fm1Mb8BWzw4FPubH9Skzi8Amu9sH7k3Cd3enZ9b9bh+NTLe5lqtWUB+JWuLtx6eBmnK7mqt4E51MMraF8nR97pX+n7tvi2A6Lc3cval1dx3US/+aYcwF78+4d7kcBo0ANT/7/kbrLFsewv+Dg03dep8OEc0Et2crvDsYuPuWAW+dfxWjfKyz0t8JFXOrLacDY+g7t+fBbYWiOYup6J34Si94nsaxXvWtvquMEEzGKl7A0jvVRLMWoWI3hfPXD5/rUvEmM4858GHOKl3ISrvJO6936Gp9w32I/F7C37NTheRTYUACHAgZkDS62desqw4eKHjC7a8XjNhQLvp36KkvCXNV1ec6m9Va4Xf/w1XP3cAG3HY7TWMaecqucFKt1EZvi/xvoPz/FVSyNW2FOa0/idmMSN8ZBP+576OJYFxfnaqe4/yP+f70oj0kO57u68O9iKRet87b1uYC9bccO36PAUAEMZAy57tLFsRhyOtBdPg9SHo6cm2Im9opxQ9fhsywrf8W6/hiD+SUe0/gpn5066OHuHMe1bNM6GuvwWDeNd5pyrxMewOxiOaaLW9VGf1M8F+c00rjE0cXtxkLz9LcGf3q6mcGxiWPCS3bHL8W+wX4uYG/YpcPxKHBRAR187hLFBwj8VY5ja62HxGQNHNAHHx2kioV6mg+cO/wTDK2nvNmv76qr+tPaabGKTbqmvK73rv5OHcRWrYluE2zW9FNc7XPKl+M6DlfjdjA5tuuHv4O0F8qXc/D+Sa7D27Wl+rs4T4k/F7Cn7MThcRT4ogJ6uPBBxhctHuIcU9QQh/d6uqGvQ1JjXJ7alAfXrHf+OfypX3VQbF1XfP20R43Dejd+J8/1faUe5zhM19u0Dus71Q3YLl75dbHKm2MdNsdPca9icn3tqXyK2/F1sVfiuxxok2qxdvw+/Tth/N2cVPsN9nMBe8MuHY5HgRsU0EMFgz89q6QOXAxHPjT4HTk6RDVmFTeNhywuniVL/q6PTvKEpzmIm8an/Kmd9ah33QfF4XVxvDtH+96twfGKpb0gdtLDXbHKiXFXPHZiC0vjGV95pPiOk8NXjbF239UOh4S7sru6q5wn+88F7Mm7c7gdBW5WQA8eDM3uWRRWFy/gchzn1Xsa0DpUFYslcBjwdz5X38V3tZkH8LTHjusOtuJoHcdd+bmeXQxswLzCM+UknojXvhK/hL+KT/jMa4cLx6K2fr/MSeNdLLhobOLe4V/NmfSyqsv+9O76V9xVTMJ+o/1cwN64a4fzUeADBdKg54OghqAeUqtLWFHinMlaY1JNbldrqK/WaYhz7ylGOTG+e3d8nA25nc/hcx7eO+6KgZ5XOcprmsf1OEfxlJf2NeHHGKv4hN/xAv/KXeFz7CS+YlzOlA/6cbwYQ2tMNevyGCP12vWB/J0aWjPVdXFvsZ0L2Ft26vA8CtyoAAZhDXN9h42fVVqHPA4CHby7a2DXUw8XxYIEzNnJkvK6WoqzqsHxWk/Xn2C7XNVJY9y666fj2+W5Ojsaq4a1dr05fuCVcpTbJ/GuhnJifBevfGp9Rw5wnW5aU+txrvajubxOOF1O+VYcdzisar3Bfy5gb9ilw/Eo8AUFMERx0cKA5OHqfO7ipYNzska9empNbpd5qgxaR/PcwEdOhzvBcVxgc3U1vtZTDsjd5T6t2enItet90tsnPJ0mK37ImfDj2Em89o+cHU6pjmIot5QHTvV0OfBP9mqFMcXSXpgj3juuLl5t034076nrcwF76s4cXkeBH1AAA5EvWigLm164eNDqe+VqPPDcgOb6XVz5XH5nh6/jtMpnTowDu3smni6W8SeHi2I7/bo67EPutC/muspJPFd53+anvKreFR0+zYEOjg9roPzg42+lw2CeijvFQF6Hpdjoz9k7W9dLl/dW37mAvXXnDu+jwE0KYLB2l7AqxRcyl+MuXjpQdV24U1uKhR0cnSzMN/mvXIAUC72s6mnetIfE8Uo9cHD6O35qSzVXeClP8Zkf+5IGmo86ZXffpsbXmnM4T2O5x2mOw1Dbld6AMc1FvPK+yoXxmMMKX+tN1rs9TjB/M+ZcwH5T/VP7KPAQBfhQxOGiBxjb3YGmhxLHVJtu7TAhCXNimbiOypd8CUtxmadiMy93ELjak7paJ+G4mpNcjdGeCxc8J/0rnvbo+GtOrTXPxSDOHewTPYB5tb+U1/XIOSs9FWcnl3vTPVQtV1opD94fxeK17suqToeFmp9irGo8yX8uYE/ajcPlKPCLCrjhj8Gcnjo0eZDrUJ+sC08HsOahpotVPpCT+ac8jcXaPaHV9AByPThc5sA8d/Idt1TL4e7kM+6nedwv66Dfg2rk8ly/+g1M81y9nVzoAhz047RX3prr6l7FYawJhnKrtePn4jrb9G+ow3ir71zA3rpzh/dR4AsK6CFVw5Ftbl00eICnd45TTG7FHQbOpnUVo9bMV/3pYAcu8jlP37s+XOwEU3nu5iC/uHW5SdNpvvZXa9Ts6rq8VHPFUfO6ug7rCl/OQf3uW9J+NX8nt7A0/woHp5vy3MV1+iZMtqd+XO6uVg7jSbZzAXvSbhwuR4EHKIBBisHoLl1dTLXAw1gH82qt+ZBE81b2hMN59d4N9VQTGKixwtH4ribHXsGf5k9626mveLXGb6ffnZraa8pVbl1e+Tq+Dot7XeWjNnA0d5qPXsHV4UyxXE/ME++rZ6fbKrfjsMp9q/9cwN66c4f3UeCLCnTDnA8OHv58UStqPFCBh5jy87BmP9pyA9nFoZZidnbUQEx3cKSaynMVpzUdX45Rbjv4igMs1HTaupwdzh3mFe7IAYdujxz3T/K73K5P8OjyOSb1pPnYN+3zChfG0L9fxd9ZO847+ZPYpNck94kx5wL2xF05nI4CD1EAQ5UvTqCmlykcBi7HDXqOA6YeKC6mYjXO5XNMwnF5SXpXc2rrMMvnDhaHjd5TTqrD9pUWK4yUn/hera14qHul909yWfMrtV2+9rbSXDE43n07E7wOE/lT7Cv9KMc7MBTz6etzAXv6Dh1+R4FfVoAPXAxJPdDYvrps6aBdrat9jUk22OvpDg+HA3m5zyQ5x3yKxTUclrNpTuoz8S87cCf9rnBQf8VVcVA78V/hrfK5nmLt5Ha84XPfmeYpH/XvYiCfe2HMHTzVZ8VVuV/VQXE6Hhr7V9bnAvZXdvL0cRT4ogI66GvAY2CmZ9FhX63d5Yzj0ALq8UHiBnSKA447iFwOS+fqsB98uR/1cx+Og4tnXhMOXGPCBbyVz0oPx5Vt38i/s/8OC9zRj2qjvTssxljl857pt621JliOD/ZZ8VKPCSPlO7vq6GLusE00uaPOT2GcC9hPKX3qHAVergAGNYZtDUO2uXW1zANe38uPocq4kEoPBxezqpGGtmLz9qQ6zAvvCV9jV3FX45NW3M8kZtWzwysbdLyar33XeqoVc0J9ze/2WXtKGMyx48b5ykO5djgVq1gOb6c37kH7xnrFKeVd4aFYd2Ao5tPX5wL29B06/I4CD1IAQxKHQw1stum6qLOt1pyLNQ9+HcS6djkOF7K5/Imvq9PxBbY+tW/1Mye87x6IXY1OB+bSYTjOiov8it3lXzmf5n8LQ/t0WqiNe2E9rmBpX6h1RWPmyVyUr/aTal7tJ/FIdf+a/VzA/tqOnn6OAl9WIA1pvXxhXXT0vWw6+LtLjRvwamNeeijBp3bwAEcnneZq3QkG47p8+NWntR0/Z3N5iu3ylGetnWaJr2I6Hhqja+aJ/BUPxWB+7Ot6SRhl/5RH4nO1L3DivyvlP+1197tQPbTuap14XeGxqvV0/7mAPX2HDr+jwEMV4MOVD6iiywcD3jF49YBlO3LrqQOZ60ESxLhYN+g1jqXtfODD/DhX+Tif1nJYiYPrfVWDObtak3zG2NVz0q9ySP2veCgO1ooHHa/oASzG+ASHOTJ/p7PrT3vTGOWZaqxwFNetdzA6Xg478V7FvsF/LmBv2KXD8SjwUAUwTPmSxQNW7atLWLXJw5zxIYEOexejOCxfikdOPd0hqH0x5hRfc7RXV/cq9h15HYbug/bm1isNJ5grDNRdYU1xCq/DYpyKnexhF6N4CbPj5LRnm6vB/o6fw/6EC/DuwHDcnmw7F7An787hdhR4gQJpmLvLF2Lhq/b0vWw6jLs1fBoDHNRQKV08YpyPbc7v8FNtji0s/KYHH3Im8cp7wkl7+ZSvw9MeJpoqTqfdDl6HUzWvYjmtd7DQL/NjDSb7r5rxOnFJ9RQL9ROOxnfrOzA6/Cf6zgXsibtyOB0FXqYAhicG9+Ty5YY3D2EdyG5dMvEhxPVZQs2FL8WX3/WimFqf/VxjdVCi1gRPOUywNabr2/Wgtqt8FafWd2EpTtpzx0E15TV/y6tc52de5de9cDkrm2Jq/LTGVY1Qb8VDebm1mwMu7i/azgXsL+7q6eko8AsKTIYxH2Y8/Lv3aoWHNNbIcYdIsjEWS+Ti4e98FYO+u0NvFaP9J57Mmfml+Du4p5q6J4mDy3c2aPQpTuW/AYs16L6dpFWXw/13dVbfh6vtbJ/gJK6uTtezi3+67VzAnr5Dh99R4GUKYKC6yxYGNT+rPY6tNWNgzcN35XcYkDEdForJ8XjvDoCEi1zXR7J1dsZT7FqrTh1n5KfeXa2uzx0c5a684Z/wV57MEZxUG81J64R1BS9pxxwnfSec1APsrg7nXNG68q/y4dp3YKz6f5r/XMCetiOHz1HgDyigg54vWBi0PHDZVu3jIHAx5Qe+O7T1EHGD3eVD9lQTdRWft6vDZXz06Ljt4nE8OMLWcdU8zu3yVpynONpnqjnRVHtJHIFV8aneFIv7RM4KM/HSmg6bOe/gOGzYFIf16fK0T8XpcpPvDoyE/VT7uYA9dWcOr6PAyxXAQNWhXsNbfWyrtnkY63v5cQAAmw8EN8idTeuw3A4X/s7HMXpIMT5qcy/qn/JJeROeV3KTlg5rwmGKB6yVZr+Fx3sKLVbfpdOss7EGrkaX63xTrTTX8dCYbu3+Nq5y6eo83XcuYE/focPvKPBiBfTQdIP7yoWsJOkON9TRGM2rtYvt7NiOlLfjR++OF3D4uarJtdH7NGdS7+ohqd+B9uQOZMdHtXW6XeGY+F3B0t54vdtn0oB5MXeNX9X7tL+qdwWj46w9fEO/rsZP+s4F7CfVPrWOAv+oAhi4etly65IIQ13zypcuFhwLmd3h4Gxc071zXWB3NTjG8dIabq11Jpgdp8Sjq8N4eF8d6is85ZH2Y4Wj3Pi7+IQj+N3Vr/Lkvq7w3NFLe+GednC6vXgaTsf1ab5zAXvajhw+R4E/qoAeBu7yxYczD/ZkL6n0AHDriuPDjvFY7mR3daZ5iNN+3OHb1ed6DrOz7XJNtWB33F1OZ0OvFfNEvOLFHD/lqd+lw5/UcDidzs6nfbmY6Z7cwQdaTGs6vm+0nQvYG3ftcD4KvFSB6eDHUOdntYwBDRxery5Y7qBINq7FUmtd3QaHt5OP2FWdDnPF4UqNymFc8Cv7J4cmMHf65d71XfHu4qeaYT3tfbonhcvaujo7WKoPr1c4jkfCm+qQ8tH3HThdjaf5zgXsaTty+BwF/gEF+MDlQ7MGsFuXJPDhvZ58iDAmJNRDJsUwPl/quBYwtS7b4Ut57O9igOn4ar0rsYwxqaE67uY7zg4TXCbaXMHcwXX8tCbz7bAnWIrtNNaYTy4sn3ICF9VAOd65/qTfO3nchXUuYHcpeXCOAkeBLQV0cE8uX3w5ShclPVh0XSSnthQLez3ToYD+2K91dZ0EdFguljVNvFzeqp8JzylH1F9h7vaywuO6eO80muKxnsy57O57TfpP7cxL6036Yh26/q/wmea4uCt6O5w32c4F7E27dbgeBf6YAhi6epDUwQAb3p2t5HCHHOdWjK5h4wOIOejB5PKxFZ1P66Bf3sZVvsYqN+bh+knxjKs1au10TTkunzFcntPCxZVtotEOHuqs9nxXO+XP+Cs9NNetpz1qXca6uq+OT9mmnFI+7HfhrOo8yX8uYE/ajcPlKPAPKqCHoFvXocEDevJeUupQd2tIrpcXd/hqPm/XylexDhMY6LuLQU8OK9Wf4nIvXMfV0ti0TrUT14QDO/Acp6uYDtvhr7h1fnBj/ohf7TfjftpjYTkOXGOHD/B2c5xWd/TmcJ9sOxewJ+/O4XYU+IcUSAcDX74QA1vJ072Xn3Mma0iueSu7w+Yc5QmfPlPdLm5yeE1xuQ7vySeHrNae8NV+dc3cyvcJv29ir3rVPrpeVljaR7dOWI6Pw4HeCcfldLa7cLoaT/OdC9jTduTwOQr8wwpgCHeHAF/ISioe3Old43itNfUgB5epvauFrZ0cNqmufh7TOK5d79qP4mofvCeT3IQH+1WMn8DV/eHep9qBp2I5/mrTeqh5BUuxa30HjuPoaq1sd1/kVvWe5D8XsCftxuFyFDgK/I//EQlftnBo8LPkWl3IEFNPPXhwiPBlwNlcLrZKMdmOd3fZSHWQs8JX/xRP+TluXb/w1TPlag+81v27iuMwmdsnuGlPURNaY93psMLqtNIeXWxX28VDoyt5Du/T/lRLV2Oic5f3VN+5gD11Zw6vo8A/rkAazLhwlTx4dzb468mHBOPiEHKHSLIxLrYImO5Q63zg5jCB3cXscGS8q9iKsepN49GL6nQFB9hOA/bhXWs6bolfinV1ysa1On4rXPU7LGinsV2/Dkfzp+u7sO7CmfJ+Qty5gD1hFw6Ho8BRwCrAhwtfsioYa7azrWJ4qAMLB5MOfPUjH7WYoObCp/auPuN1tbQu89F6XazW07X232GnXOamMbVeYYLDCoexV5iInWJP8Vx/rtZOLyvM7lKludyv+n6Lk+PBmu3012G9xXcuYG/ZqcPzKPAPK6CHyeryhXi9nJWEnQ9+PQjcocw4vDWKP8FK+WnLU20XvxPL+tS7cnf4auvqOR01H2vgrHjsYDpsxb+C1/XA3yDirup6Jc9xY22dXzVJMd/QKtX6i/ZzAfuLu3p6Ogr8QQUw7N3hoRcyHFR8QLh8juNDBzX4wHO2ytm1dzm8bavDjXWYHMyJp/tUVKsJvuJovVU/mq9a1Fp5fILp8F2NjtfKl/jx3gFDe1PshKVxk/UEy3FM2CvuKY/tE04TnDfFnAvYm3brcD0K/OMK8KFQQx9D2z1LKsS497Lp0Hdr5EJ6cNBDh3P1XTFWWCv/hCcw9Jn4c03XW+pB8XWNelfzGU+xVAetvbtmfOSqFjuYO/xWtXewVhzvwgKO477icMX/yV5cqfftnHMB+7bCB/8ocBS4XYHJwOcLWhFATmfXOBB3B1ayIUcPCxfP+PWuOcmfsLhH5KZnik3YhYOcjuuq3pVch/kJF4eH/nQPuM4O907HVF/tWht+5ah5q/Ud3JJeq9rJfxenhP9E+7mAPXFXDqejwFFgqYAewBjg7qlguISVHYeZHgBuzfH1Dg58ICovru3i7/QDa1Un1dSeOU7fd2tMNdI6ac1cO81TvrNP+p/WmmA5DsmW+uX4ycXsTl5PxUoaPs1+LmBP25HD5yhwFNhSgA/ElIgLl7tsuYON4wrTXR7UtsJmbuCcDszuYON+Uz5qrerscEraTmrc1Y/ydf3v6DPBS32XnWvVOn0THcbE1+mnPSQ8932m2Kl9ymuCdyfWpN4TYs4F7Am7cDgcBY4CHymghy6GuXtWoTqMkKPv5WefW8OmBy6wuRnF+sSnh1SHPa2DONYKNnfBYdxJDeWc8ss+7QexK37Am/SzwzP1sFMvYTj7N7hpnZWWGj/dA5fnbHf06HCfbDsXsCfvzuF2FDgKbCngDkAMdj7cedjrexVM/7ZADwmHyTYmn+wVM/VpfeB3+Tsc9BCe4roa0DFx5hx9R11gOL9y1Ri37nCv8HQ1YONaHHeV95U8xy/1mfgqBvNIWJozWd+JNan3hJhzAXvCLhwOR4GjwG0KdAdJHR4Y9IiDrQi4ixfHVYyud2wpFs13h5Crq6JNYhyHrq6L17ppPeWT8rl2vbv96XI7H7gh5q4LDjgnPK3LfSW+q/1Jec7+KZbj7+okW6dL8iWst9vPBeztO3j4HwWOAlaByUGhly++MOjlQQ8uXnMtPUQUB2Sv2JWvbfy/jAlb4zveGlvrK/HMuTBUH1cn2XbrJxy1M+6nHCu/8Hb61PrKYRdP++P1b2O5Xju+7NvRdIr5m3HnAvab6p/aR4GjwFcV0AMbhw8/iwAuCRjwfEjpO+Lrqfhs08MiHXyd3XGDYKitdeDvuHDMTtwutuvNaaZ8ujUwP8XRXlhHxq64TmPH1fXt4jqbckDsLhetcQc3YN6FdReO9vr09bmAPX2HDr+jwFHgYwXSYVbAfPlCHGzsx3s9XRz7NabWydbZV76JfxXDhx/rND3oWYv/tPl/el1hpFzG0Xd3WF/hvcOV8Stv0tcqRvtKa+1XuSBvWk/xUt2J/S6su3AmnJ8Ucy5gT9qNw+UocBT4mgJ6SGPo64HmLl843BDLaz741F/NTG1drHJyIrk6GudioMMkVmN4zTqC786lAFhdTuLa8eg4l2+CqRjaq9bvelCs1XrKjzkpZvpeNW5nPeU1wbwTa1LvKTHnAvaUnTg8jgJHgR9RwB1UfGHgwwDvyNGDjLH40NX4aswdMi4OsfV0F5mUA/FWfsZHDeS65wRP867kKH/HzWmotXkNHg6L631yYeIawPwET/vZ7Vnza+04ctwVvnfwumsPXM9vsJ0L2Bt26XA8ChwFblVgdSChGC5Ate7ey+8uHXpIuZiU29lXvomfY+p9dQizZpNY1muCXzH605qqp8Z3a91z9PAJpqundSpmpZfDge1OfgnLcXacuI+E5fJWtjuxVrWe5P9fTyJzuBwFjgJHgZ9QgA9f1MOFQZ/lZ1utcWDxJUMxa61+FwN84CJGeXGc5qhv4tdDj3tCbX4yr1Usc8f7NGdV03Gb2FTX6aVjgq0xk1oaoxg/uZ5yUc103XGe1ugw/prv/Buwv7ajp5+jwFFgW4HuIKmDA5cVF4eDRS8Yq3WR1Bi21bseWi4ezXY+Vws9qVgrHI53sQlXebr+lIvWwl6wXTXqMNQHrugD/quYq961H+WjdXfwFMut78TbxVKNHb+VTfVZxT/dfy5gT9+hw+8ocBT4EQX4gOguXXwJ0PciqgeTW1ccHyaovbJBCBc/8YGf1kcuP1UPF6M1sZ4elLs1HO4Ohvage3NHP46j1k1r7mVXy4TJ9tTvJFdjnoqlPJ+8PhewJ+/O4XYUOAr8uALpEMSBAz9f0oqk2suGw5h9aCjZOlwVw2F0+OrDenVp6OrscNJYXrPuygfad/nl6zBc7hXcwlF+wJ7iOS7Oxv2oP3HQOF7fye+pWF3/T/Od/wzY03bk8DkKHAV+VQFcgPTgqjUORL4ksQ0x6eLFsRyDd1c7YVWtKz53cGoPugFdHdVJY5mn4vIaedBwmrfCSDhOh8SPuTG/hJ1wrti1NjCwZw4z5bjYY/s9Bc6/Afs97U/lo8BR4OEK8CFXhxoObT384Kt29L1sesHp1lpDD1PNZQknPnB00nf5ro5igbtis17aj8ZO6nQ5zufqJ64uv7MxNuJ2elxhX8FynKrOFazE7y79Cv9OrMT3ifZzAXvirhxOR4GjwKMUcAeau5Dp5Qt5OPh21yWC5kCYZJ/kACMdyNxvilEetV7FdtyAp08czjucFIPXupcTzh0efODJPXLebh3Gm9RfxWjfXfyE65387sTq+nqa71zAnrYjh89R4CjwSAVWB1h3+UIuX8T4kMMBxM8SQWPUVmvFZvHUpwed+p3wk5gVjw7X9aQ96IUAnFa5ri648l5wnNZKGGpXbZ1/p84KT/FX6x081neFe1Uvxt3htuLzJv+5gL1ptw7Xo8BR4NcVWB1O04uYXmx0XY1ObSkWYjFnd2C6Oir0KgaH6KqW4jL3eld+wHV5muvyXV6HyfyneOCh3F1t2LSO1uo4drjJ9y0810fi8Kl9R99Pa/1E/rmA/YTKp8ZR4Cjw5xTQi4YeRLiI4dDgA1DfIY5e3mAHNh9AWr+LLV+K5425GsP97OLph+F01JhuPe1hephP8KDvFDPx194R9ynuXfx0b+/g9Q1uSd+n2c8F7Gk7cvgcBY4Cr1JAD2hcRvQw1csV/GyvxnGosfvHes0AABDiSURBVB+COFv5nD3x4niup6I7zBTT4Sj3SewnOcxRNWDcK5cHt6eFWfYreMxV3xlT6yJ2p+bdHO/EuxNLdXzy+lzAnrw7h9tR4CjwCgW6AxKHC2K6i1g1y3FunWxX7F0OhFc+uiHa++RSsMLk2nohLd+kRsfzSr7isXbsuxN7haXadzzwHbo+dm13YkHHVa+7HN8Qfy5gb9ilw/EocBR4hQLdgVgNdJcvvZSs1oWnMRBJ7Tgw1c6idj6uhT64Fh+eKxxXUzFRLx3KqOHyGN+9cy78qY7LdzboC94ccwWb8Vy9ic31+Y1+J1xWMXf0u6rxRP/5L2J94q4cTkeBo8ArFcBhmw4/vpxwjLMrlq5LILVhvWt3WGzTd+arG6W1NZfj+XLCerBd8RVvJw9Yiq/7pX7HIdk0V7GVf8L51K7a6nqCr71Mck7MXIHzb8DmWp3Io8BR4CiwpYBeDtxhDMA67HYuYpWnFyFdc0y964Gq/LQ5h8cxKz9iV3VSXcdZYx2flFc8VAOHx3wTFvc2wUw8YdcL0i6m6+MTjpWrOnQ12LfLfbov0/pviTsXsLfs1OF5FDgKvFYBvYDgwOELzOS9BOA4CKI2rZfiWFDFmPi0j8pZHb6Jm9YDziSec7VXrAsPfF18Z2MO2uNVTK2nNZi3xu6u7+KIuiu81Msub41ffVsa//T1uYA9fYcOv6PAUeBPKJAOJVwMqsnpe8UCjw8ltXFNF4eaLLBiOB9s7kBMNRkH76lW2T/F1no7vDRX14xVPsdVc3bW3L/WAs5OzaTnDieOfTre1b5+Ou9cwH5a8VPvKHAU+KcV6A5U+O6+iJXgjM0bsLJXrDvsU57DThiIZU3Qu6t5BVtzWFv4VrUYQ9+7/dTYyXp6uUl1q4b2M8Wc8KuYp+NN+/jtuHMB++0dOPWPAkeBf1KBdIBOL196AUrrEpcPZI2D+MlefufDIcx96MHPG+sw3MZP8Ry29qoxiR/X7DASX4d7FRO6ulpTm9bmPMf1/2vvjFYdyHEgCsv8/zfvakGgKSRZ7ji53cmZlxvLUkk+DrjIDMxU1/NOzDi9m93ZnpSPAXvSbTErBCDwdQSqx3LXiBkYrXFYmfmpjE4VN61ub7I/yYmP+6pf9mWoaqJuVhdjUcPilWl5RbPS3dFcncP3K6ZdfXVmqzk942m97lx32sOA3ek2mAUCEPhZAvroOwg1VZ6nccvvNHQ/PrBRM17AKm651UNd1Wb6Uad6jOPZqp5RW8/bzap1uq56V7NqfbVe3VdVtxO/OmM1W9d7ei+qcXVG1XnaGgP2tBtjXghA4KsJTB4+NV9e4w/gam0ANaeKaVwfyzhv9gCv9v0yp3lxHq/N+sYvic8ce9j+qi5qZHNO+2c6VUxnjHlX571SV81ncf0OdGw6nd290+fY7X86HwN2mih6EIAABA4Q0Ic4mi6XjzH9bDmu4Q+XrrOcGLPP8dFbmaRMP6KY1Os5J4/uVDfOoufUs2putnYjkt1Vlj+JuWaWq308p2PU6WU9JrHTmqf1Jme4Qw4G7A63wAwQgAAECgL66KpBsbIs5nKdMfNa+xv7ZKbLY/5YVvmdVjyi12svNRNdn6jnn7P86QOf1WY9/Iw6azaDx6pcZTLJ05ni3Lpn6yuamU4830nN6f10Mz1xDwP2xFtjZghA4OcI6CNrD6DGIhR/ID1H87N9r481XWxnz3KzR3vX9HjPTEu/FDvaXW02+65pyO5Kz7CrqTNn66yv5ukcuh/X75pxZ4ZuviftYcCedFvMCgEI/DwBfVDVWBkgjcW1P3SuU61Np8rxS9BHM86me5levMzsXN1lr3p5rRuGXX3trfW2n51R67r1OzS1n59f43GdzZHl+/fo1XOr9mRGrfmGNQbsG26RM0AAAj9HYPfRNEDRiOlajZjv29/YKz6+Vbyrqfb0EdbzdY/+ao6sdkffZtZ/tN72sz5a160zzZh/RV+5dv1Xe6v5VvW+r+c4OeN0hjvkYcDucAvMAAEIQOAige5RjIZLP1s7r417FvcHUvczDR87zpE9sFE3HrWrezXP63WeqJvNX80aczPN7C6yvKy/xVZGJNO/Oms1wyq+mnFV7+ec5GnODkutveMaA3bHW2EmCEAAApsEqsdZZTKzFY2W5Vdr21NzFmPeS+s1rjX+qMczdI/tlTzt6TNVf5VnnMfnrWpjXHW6OXZ0Vz18v+M4mV9zrs6oOjr/6Tm7fnfZw4Dd5SaYAwIQgMAhAvroq+nyNjGuOdna6lxbDUnU9M+dUcpmjMfvaqd5ahZWPTv8r9Sqrmpl7LTmyrrqk2lNDZAyzbR2Y+/Q3J3hL/IxYH9BnZ4QgAAEPkCge4Ar8+UPsdeujJgd4xUzpjNmRmCSY3PEPJ8703P0U129Kq3z/a6Xauj6XZrTmar+Oqetp5pZbRaz3qc1sz53i2HA7nYjzAMBCEDgMIHp4+qmxdvHtT+QanIsN4vFuD6unu/6cb/Sikh2c6xWZ8gQK6espjMLk/qsr7Oq+mU1Wa7mdbNq7nStZ5zWaZ7e+eQ8qvH0NQbs6TfI/BCAAAQ2COgD6iZIJWJcc/yxzIyQx/SBdf1J3HMzfZ2zylHzkZ1btXSd1aiu1sS11tteZTR2dE0n0/be8X6qft3c3d7unJVWN39Vc/osVZ9PxTFgnyJNHwhAAAI3ItA9gGq44ti6Fx97y9N1jNln7Zvla43WVQ9xpR3n9887ua/UaG/t62c9ZWyUlfb3fll8Ejs5Z+Ra3elkpqfmYMCeenPMDQEIQOAAgcwQVLLRfKlx0rVpdDHbj731AZ7uxT5xbj2X6usZp/nRgGhNNYv20nWmc1VLGWTnrvrpXFVtFtfanXVkulP39FwM2NNvkPkhAAEIHCLQPcz26Fb7utcZr6gRH/Iqbkfr9rL97EHX2VcmosrPtCN+rbO9Sa8sJ9PyXlm+fg1Ws2q+rrv+mqvryXxW8+qM2vdJawzYk26LWSEAAQh8gMDq4Y2GK3620bK1xV3TH2btER/suKcPebcX+/gsFa6uf1azmx81tFZns309ZzbDSjPqXtFc9bT9qW525ol+l7PLqNO6wx4G7A63wAwQgAAEbkhg9xHNzFfUyPb92Jq3itt+V6O9LL97wPWsWW40H5q/0tfrfbVe9TJeVU52tio3xuP5J/mTnHdoTvreIeefOwzBDBCAAAQgcD8C8aGuDIPH1fDEtetEjSzfCWheFZ/MF6nqGWK9mpIu1zQ132JaU+Vp3E1IVu/zZ/3i2TTPNbOcrk/Mn/bMehBbE+AXsDUjMiAAAQhAIBBYPeDRXGVGK9b7I6+aWTwagi5fe9romZmoNLLL3smN9ZM6y8nm63R8r6qbaGbnnPRc1dl+NZfWnphTNZ+yxoA95aaYEwIQgMANCajB6EZUY6Rrq/WHO+p2Me+X5cdZVvuWq2eJJkKNgubG2TsGV+sqzUzPc6cmqNLWuDLQ/bju5urqur3T5+l6fWIPA/YJyvSAAAQg8OUEdh9cNV+dyYraWZ6hreJxz69AZ60e9mlepZv11q+B9tD9ajbN0/VKN+ZPe+wYMJ2nWr9Ds+p1tzj/DdjdboR5IAABCDyQQHzEs8c/Gq742Y6arS2+Ml5VTzUUOs90X/VVx2f361JdPUOVl9V5btaz0vH4dH/SQzVZnyPAL2DnWKIEAQhAAAJCoDMQGaxXzJj/mqI91eBc2XdtnXmlpfm21hqL6YxZncYyHdeq5lWNnXXVb0fDc/2875jzyjx/UYMB+wvq9IQABCDwYwSqx1sNV8SS7WksPuRa62vtrWYn7uueaWi9xbK83VzP1zNV54jx7nM2r+ZX82teXJ80S5MZdZYrM6vGndYYsDvdBrNAAAIQ+AECVx5fw6JGRdeeY3+1R3y8d/cy49Fp6BVqbjzLylRkta5f1WbzTmbSnMjTmVY9s9pJbDLrROeJORiwJ94aM0MAAhD4EgKdwYhHVLOla8vV2Cumy3tn82UmZJrX6foZpleb9fTabMapbszrekz1ulkwYFOK5EEAAhCAAATeSGDy4GdGS+s0x0a+Yshcp6tVbcejM2leZj6yGtfrjEy8kk4j5k314nl2a6x2Ok+cLft8pXemc5cYv4Dd5SaYAwIQgAAE/kVg8nBXRktrqzxvGPPfYbayPvGwE3OhZ/J6rc2MXfbVqvQ01/Wnulrfrd+h2fW70x4G7E63wSwQgAAEIJAS2DELmluZryzPmldxH0z3La4maKoTzU128ExX87J5Ys5EQzXjeqXf1a7mwIBN6ZEHAQhAAAIQ+GMCO4ZAzVdmeLKYHVFr47HV1GQzTXK8T4U00/Vc1fe4mppOoztT3FPNat4uPp2j0qjOW+XfPc4vYHe/IeaDAAQgAIGSwIlHXTU6Q+aDaI3F1SB0OdHQZHmZnkKo6ia1qmXrTk/z9ay6P11HDtOab8nDgH3LTXIOCEAAAhDYMhEZruxXr8qQWX00IpmBUaMyyfG5slzfU91JjZ630tA8W6tR6mbL6k/EduY90e/dGvyviN5NGH0IQAACEPgYAX2kO6OgZkvXNnQW87j9zfTjDNV+NDRZjgPT83j8So1eQqcRc7MZspjqT9aRwyT/m3L4BeybbpOzQAACEIBAS2BqOjqRd5gy65eZmmreLNc0qnw9T1WveTuaWW2MZT0xYCtq7EMAAhCAAAS+kMDUsPjRO/OVabnp6PZcO8uxvcq4VNeR5Wtu1Uvz4vwTXa2P62nPSuPV/pXuX8X5BeyvyNMXAhCAAARuR+CKSdg1ZXboqsaBRLPRzaSmpMtV2Fqr+7be0cvq/azVnulP5qjqnxzHgD359pgdAhCAAATeRuAV85EZLDcale7EdKlZqbQciuZHWKtay40zd1rdJUz6dPWTs0zq75aDAbvbjTAPBCAAAQjclsApMxEPuDJmljvN0V+UJvN2xmpSP7msqofOO9H6lhwM2LfcJOeAAAQgAIE/IfCKSTFj0tWvjFc0Np2Og8mM0KSuq59A3+lR6WWzV7lPiGPAnnBLzAgBCEAAAo8icMpwVDorY+aw1LRUego3q1uZRdWYrrXXtO7peRiwp98g80MAAhCAwCMITM3P6jArIxQNzbSnmqBpXTaramU5Htvps6Pb9bzLHgbsLjfBHBCAAAQg8JMEdkzICtDKnMX6K0bN6ldG6OR5qnlXHJ6wjwF7wi0xIwQgAAEI/ByBdxkZA7lj1DzfL+Cdc3WXvDJ+Xe0d9zBgd7wVZoIABCAAAQg0BD5lgnaNWjPy/7fURNk5NLbS+JZ9DNi33CTngAAEIAABCPyPwKfM2RT21X/VqfrfZtQwYHrDrCEAAQhAAAI/QOBuRm2F/NsM2D+rA7MPAQhAAAIQgMD3EZgYmqeZtCfdEgbsSbfFrBCAAAQgAIEPEpiYtOk4mLl/k+JfQU6/OeRBAAIQgAAEIACBQwT+c0gHGQhAAAIQgAAEIACBIQEM2BAUaRCAAAQgAAEIQOAUAQzYKZLoQAACEIAABCAAgSEBDNgQFGkQgAAEIAABCEDgFAEM2CmS6EAAAhCAAAQgAIEhAQzYEBRpEIAABCAAAQhA4BQBDNgpkuhAAAIQgAAEIACBIQEM2BAUaRCAAAQgAAEIQOAUAQzYKZLoQAACEIAABCAAgSEBDNgQFGkQgAAEIAABCEDgFAEM2CmS6EAAAhCAAAQgAIEhAQzYEBRpEIAABCAAAQhA4BQBDNgpkuhAAAIQgAAEIACBIQEM2BAUaRCAAAQgAAEIQOAUAQzYKZLoQAACEIAABCAAgSGB/wJ1QMN8/9GV8wAAAABJRU5ErkJggg==;shadow=0;clipPath=inset(0.33% 9.9% 1.33% 12.94%);" parent="1" vertex="1">
          <mxGeometry x="90" y="40" width="293.69" height="570" as="geometry" />
        </mxCell>
        <mxCell id="anlM4kEG1VwZlz8mWikU-2" value="" style="shape=image;verticalLabelPosition=bottom;labelBackgroundColor=default;verticalAlign=top;aspect=fixed;imageAspect=0;image=data:image/png,iVBORw0KGgoAAAANSUhEUgAAA2MAAAJzCAYAAACCkMsmAAAABHNCSVQICAgIfAhkiAAAIABJREFUeF7sndGuHLeubeOD5QDZ//+tefCLb5RzuK9MqyRSIiV192gg8JI4OckaZVSHrupe337+8/pj4vXnn//548ePvycyc1Nu6utkLydq76iZXSPDP9ozym/VZzZ/V56njlVr0Y00vXhkrOVl2dOa3roXK1f6Ou7RRua2vMqevH/d0pe8M4760ccjeU/72u+pzuz+U92R30reKNdSO1pj7cmjy9R6vWf0szkreSdzV2tH5BePG32i+8ryi2QnPVp6/dJi1hCAAAQgAIF3JlAGsTKk8IIABCAAAQicJvA/pxugPgQgAAEIQGA3gTKQ3fh0x24O1IMABCAAgbMEGMbO8qc6BCAAAQgcJlDuknGn7PBJoDwEIACBDyXAY4ofeuI5bAhAAAIQ+F8C9efHYAIBCEAAAhDYSYA7YztpUwsCEIAABK4lUA9l3Cm79jTRGAQgAIG3IsCdsbc6nRwMBCAAAQisEuBO2SpB8iEAAQhAwErga+Vf/1ZyrQ3O6G7q62QvJ2rvqJldI8M/2jPKb9VnNn9XnqeOVWvRjTS9eGSs5WXZ05reuhcr1+867tFacrO/gEO+dbH0nV1r5r2OHAhAAAIQeH0CX7NvMLe+Od3U18leTtTeUTO7RoZ/tGeU36rPbP6uPE8dq9aiG2l68chYy8uypzW9dS8mw1R9l6l+v4nILR47XjKU7ahFDQhAAAIQ+CwCPKb4Weebo4UABCDwNgR2Pk5Y16qHQD0Qrq7LyRl5tDRyUnWuVzuj7+VkxUa+PR4Si9ZYe/LoMrVe7xn9bM5K3snc1doR+cXjRp/ovrL8ItlJj6NeGcY0KdYQgAAEIPByBGQImX3aw3PAEXf7Sj19d7C1Z9FI76vaVv2e96lYr0/pabfGWs+jy9R6vWf0szkreSdzV2tH5BePG32i+8ryi2QnPVp6ZRjTtFhDAAIQgMDLEdh5l+zl4NAwBCAAAQhcS4Cvtr/21NAYBCAAAQh4CTCUeYmhhwAEIACBkwS4M3aSPrUhAAEIQCCFAF+6kYIVUwhAAAIQCCbAnbFgoNhBAAIQgMAdBMpAtuMzZHccLV1AAAIQgMArEuDO2CueNXqGAAQgAAEXgda3DLoMEEMAAhCAAAQSCHBnLAEqlhCAAAQgcBeB+i4Zg9ld54ZuIAABCHwyAYaxTz77HDsEIACBDyTA58k+8KRzyBCAAAQuJcAwdumJoS0IQAACEMgjwECWxxZnCEAAAhCwE2AYs7NCCQEIQAACb0Sg/hp8Hl18oxPLoUAAAhB4IQJ8gccLnSxahQAEIACBeAL8brJ4pjhCAAIQgICNAHfGbJxQQQACEIDAmxNgKHvzE8zhQQACELiQwNfKoxkruZksburrZC8nau+omV0jwz/aM8pv1Wc2f1eep45Va9GNNL14ZKzlZdnTmt66FyvX+Tru0Vpys36HmHyeLMs/8/0PbwhAAAIQeC0CX7NvNuVNdTY3E9FNfZ3s5UTtHTWza2T4R3tG+a36zObvyvPUsWotupGmF4+Mtbwse1rTW/di5Tpfxz1aa672jHxvkYEs0hMvCEAAAhCAgCbAY4qaCGsIQAACEHgJAtkDU/3YYhn8eEEAAhCAAASiCTCMRRPFDwIQgAAEthGoB6asoqVG9uCX1Tu+EIAABCBwNwG+TfHu80N3EIAABCBgILBjWJIa9V0yfcdsdV0OdeTR0gginevVzuh7OVmxkW+Ph8SiNdaePLpMrdd7Rj+bs5J3Mne1dkR+8bjRJ7qvLL9IdtLjqFeGMU2KNQQgAAEIvCQB/VihrKMPpq5T19CfYfOuS5+jnJZGjk/nerUz+l5OVmzk2+MhsWiNtSePLlPr9Z7Rz+as5J3MXa0dkV88bvSJ7ivLL5Kd9GjplccUNS3WEIAABCDw8gR23Cl7eUgcAAQgAAEIHCfAMHb8FNAABCAAAQhkEGAgy6CKJwQgAAEIRBJgGIukiRcEIAABCFxFoH6k8KrGaAYCEIAABCDwDwGGMf4aQAACEIDA2xPgLtnbn2IOEAIQgMBLEmAYe8nTRtMQgAAEIOAloL/gw5uPHgIQgAAEIBBNgG9TjCaKHwQgAAEIXE2ARxevPj00BwEIQOCjCHBn7KNONwcLAQhAAAJCgKGMvwsQgAAEIHCaAMPY6TNAfQhAAAIQOEqAz5MdxU9xCEAAAh9N4Kv8ksjZ10rubE1L3k19nezlRO0dNbNrZPhHe0b5rfrM5u/K89Sxai26kaYXj4y1vCx7WtNb92Llel3HPdpRruW9wKNhIPPQQgsBCEAAAlEEvuQxDa9heVOdzfXW8uhv6utkLydq76iZXSPDP9ozym/VZzZ/V56njlVr0Y00vXhkrOVl2dOa3roXK9ftOu7RWnKLX3lFvg/JQKZ79bwHoYUABCAAAQh4CPAFHh5aaCEAAQhA4AoCmZ/34i7ZFaeYJiAAAQh8BAE+M/YRp5mDhAAEIPCeBLKGsuKb5f2eZ4KjggAEIACBGQIMYzPUyIEABCAAgasIZN7NyvS+CiLNQAACEIDAdgI8prgdOQUhAAEIQCCDQObQVHvL59XKMdQ/R6wtHi2N8NT9eLUz+l5OVmzk2+MhsWiNtSePLlPr9Z7Rz+as5J3MXa0dkV88bvSJ7ivLL5Kd9DjqlWFMk2INAQhAAAIvS0CGpowv4RDv+vFF+bkA0zW9a4tHSyMnS9fzamf0vZys2Mi3x0Ni0RprTx5dptbrPaOfzVnJO5m7Wjsiv3jc6BPdV5ZfJDvp0dIrw5imxRoCEIAABF6eQOZdspeHwwFAAAIQgMA1BPjM2DWngkYgAAEIQCCSQBnI6jtXkd54QQACEIAABCIIcGcsgiIeEIAABCBwNYHWZ6mubpjmIAABCEDgIwhwZ+wjTjMHCQEIQOCzCXCX7LPPP0cPAQhA4FYCDGO3nhn6ggAEIACBFALlLhl3ylLQYgoBCEAAAk4CPKboBIYcAhCAAARem0D9bYivfSR0DwEIQAACr06AO2OvfgbpHwIQgAAEpggwlE1hIwkCEIAABAIJfK08qrGSG3gMv1nd1NfJXk7U3lEzu0aGf7RnlN+qz2z+rjxPHavWohtpevHIWMvLsqc1vXUvVi7OddyjteRGfVMiX4P/29soGxCAAAQgsInA1+ybWXlTnc3NPLab+jrZy4naO2pm18jwj/aM8lv1mc3fleepY9VadCNNLx4Za3lZ9rSmt+7FynW+jnu01lztufLewl2yFXrkQgACEIDALAEeU5wlRx4EIAABCBwlkHVHqwx55T9eEIAABCAAgWwCDGPZhPGHAAQgAIE0Ahl3tIpn1qCXBgJjCEAAAhB4SQIMYy952mgaAhCAAARqAhnDU8agx1mDAAQgAAEI1AQYxvj7AAEIQAACb0EgYyArYLJ83wI6BwEBCEAAAksE+D1jS/hIhgAEIACBmwjI4BT55R7l+OqBrP48mf5s2eq61Bp5tDRyDnSuVzuj7+VkxUa+PR4Si9ZYe/LoMrVe7xn9bM5K3snc1doR+cXjRp/ovrL8ItlJj6NeGcY0KdYQgAAEIPDyBDLuZoln/fii/FyA6QHQu7Z4tDRysnQ9r3ZG38vJio18ezwkFq2x9uTRZWq93jP62ZyVvJO5q7Uj8ovHjT7RfWX5RbKTHi298piipsUaAhCAAATegkAZlOph6S0OioOAAAQgAIG3IsCdsbc6nRwMBCAAAQi0CLQe32vp2IMABCAAAQjsJMCdsZ20qQUBCEAAAkcIcJfsCHaKQgACEIDAgADD2AAQYQhAAAIQeC8C5S4Zd8re65xyNBCAAARelQCPKb7qmaNvCEAAAhCYIlB/AceUAUkQgAAEIACBIAJfK/86uJIb1H/T5qa+TvZyovaOmtk1MvyjPaP8Vn1m83fleepYtRbdSNOLR8ZaXpY9remte7Fyga7jHu0ot3nxd27KtyOWvviiDyc85BCAAAQgEELga/YN6NY3r5v6OtnLido7ambXyPCP9ozyW/WZzd+V56lj1Vp0I00vHhlreVn2tKa37sXKO1Qd92gtucWvvGbfw+p3UBnKIrxC3pkxgQAEIACBjyHAY4ofc6o5UAhAAALvQyD6UUMZyN6HEEcCAQhAAAKvQIAv8HiFs0SPEIAABCDQJBA5lEV6NZtlEwIQgAAEIKAIMIzxVwICEIAABF6eQOSdLfGSRyFfHg4HAAEIQAAC1xJgGLv21NAYBCAAAQh4CEQPZHyGzEMfLQQgAAEIzBBgGJuhRg4EIAABCFxJIONRw3KHjLtkV55umoIABCDw8gT4Ao+XP4UcAAQgAAEIaALRd8mKPwOZpswaAhCAAARWCTCMrRIkHwIQgAAEriQQfZes9VkyPaCtrgvIkUdLIydA53q1M/peTlZs5NvjIbFojbUnjy5T6/We0c/mrOSdzF2tHZFfPG70ie4ryy+SnfQ46pVhTJNiDQEIQAACb0egNaTMHmQ95NWfKys1Vtaln5FHSyPHoXO92hl9LycrNvLt8ZBYtMbak0eXqfV6z+hnc1byTuau1o7ILx43+kT3leUXyU56tPTKZ8Y0LdYQgAAEIPB2BMqQVA9Kb3eAHBAEIAABCLwkAYaxlzxtNA0BCEAAArMEIu+SzfZAHgQgAAEIQKAQ+Fp5U1rJzcR/U18nezlRe0fN7BoZ/tGeUX6rPrP5u/I8daxai26k6cUjYy0vy57W9Na9WLnO13GPdpS78h4S+eUeK32QCwEIQAACEPiafWyjvKnO5mZiv6mvk72cqL2jZnaNDP9ozyi/VZ/Z/F15njpWrUU30vTikbGWl2VPa3rrXqxc5+u4R2vJ1X7e95X6c1/eXPQQgAAEIACBKAJ8gUcUSXwgAAEIQGAbgci7W2WwK68b/4FxG1AKQQACEIDAEQIMY0ewUxQCEIAABFYJRN3divJZPR7yIQABCEDg8wjwBR6fd845YghAAAJvR0Dubq0cGEPZCj1yIQABCEBghgDD2Aw1ciAAAQhA4CoC8thi1FAW4XMVIJqBAAQgAIErCTCMXXlaaAoCEIAABLwEykAW9bmvyM+keY8DPQQgAAEIfA4BhrHPOdccKQQgAIGPIVDubK3e3eKxxY/568KBQgACEDhGgC/wOIaewhCAAAQgkEUgcpDiLlnWWcIXAhCAAAQYxvg7AAEIQAACb0ug/izZyiOM9XBX33HTd99W1+VEjDxaGjmBOterndH3crJiI98eD4lFa6w9eXSZWq/3jH42ZyXvZO5q7Yj84nGjT3RfWX6R7KTHUa8MY5oUawhAAAIQeDsCkXe36sGsHvDKILSyLtBHHi2NnCyd69XO6Hs5WbGRb4+HxKI11p48ukyt13tGP5uzkncyd7V2RH7xuNEnuq8sv0h20qOlVz4zpmmxhgAEIACBtySwcmfsLYFwUBCAAAQgcJzAV+uRBmtXK7nWGjO6m/o62cuJ2jtqZtfI8I/2jPJb9ZnN35XnqWPVWnQjTS8eGWt5Wfa0prfuxcr1u457tKPcmfcGyZE+GM5WKJILAQhAAAIRBL5m34zKm9lsbkTjTx439XWylxO1d9TMrpHhH+0Z5bfqM5u/K89Tx6q16EaaXjwy1vKy7GlNb92LlWt0HfdoLbna7+k9obVfP2bYirMHAQhAAAIQ2EWAxxR3kaYOBCAAAQiEESgDVRnIyn+zL4ayWXLkQQACEIBAFAGGsSiS+EAAAhCAwFYCZZiKeEJDBrutzVMMAhCAAAQg8A8BhjH+GkAAAhCAwMsTiLhLtnKX7eUBcgAQgAAEIHCEAMPYEewUhQAEIACBSAJyl2xloOKxxcgzghcEIAABCFgIMIxZKKGBAAQgAIGXIMBjiy9xmmgSAhCAAAT+jwDDGH8VIAABCEDg7Qjw2OLbnVIOCAIQgMBbEmAYe8vTykFBAAIQ+GwCPLb42eefo4cABCDwKgQYxl7lTNEnBCAAAQi4CUR8Dky+bXHl82juxkmAAAQgAIGPIPD1EUfJQUIAAhCAwEcTWP36+nqoq4cyPaCtrstJGnm0NHJyda5XO6Pv5WTFRr49HhKL1lh78ugytV7vGf1szkreydzV2hH5xeNGn+i+svwi2UmPo16/ff/+108tZg0BCEAAAhC4mUD9RR1lALGuPdpy/D19LzbKbcVbe7pGSyPnaVXr9e7VzYz1+pS6uzXWeh5dptbrPaOfzVnJO5m7Wjsiv3jc6BPdV5ZfJDvp0dLr1+w3T7Uu+rrwifVNfZ3s5UTtHTWza2T4R3tG+a36zObvyvPUsWotupGmF4+Mtbwse1rTW/di+k3No7Xkaj/P+03JLa/Z9z9PLbQQgAAEIACBHgE+M9ajQwwCEIAABK4ksPLYYcldyb8SCE1BAAIQgMBLEmAYe8nTRtMQgAAEILA6UHFnjL9DEIAABCBwmgDD2OkzQH0IQAACEJgmIAOVPHo4Y1RyV/JnapIDAQhAAAIQKAQYxvh7AAEIQAACL09g5S4Zjy2+/OnnACAAAQi8LAGGsZc9dTQOAQhAAAI1gZWBrPhE3GXjjEAAAhCAAAQ8BBjGPLTQQgACEIDA1QQiBqrVoe5qQDQHAQhAAAJXEeCXPl91OmgGAhCAAAQiCKwOVKv5EceABwQgAAEIvD8B7oy9/znmCCEAAQh8JAH5LNjswUfcZZutTR4EIAABCHwGAYaxzzjPHCUEIACBjyaw8m2J3CX76L86HDwEIACBVALfvn//62dqBcwhAAEIQAACwQTkrlWxLYOWZS0DmUUr7dbeKwNd8OFjBwEIQAACb0Lgq35T8hyTfvPz5GZqb+rrZC8nau+omV0jwz/aM8pv1Wc2f1eep45Va9GNNL14ZKzlZdnTmt66FyvX+Tru0VpytZ/lfUXucM3kFn/Jrx9fnB3s9DFK/7o3vX7Ke9pv5T9pZ/Z7OVmxke8TS9mv/3zi49VYe/LoMrVe7xn9bM5K3snc1doR+cXjRp/ovrL8ItlJj5ZeeUxR02INAQhAAALXE6gHK2+zkuvNQw8BCEAAAhCIJsAwFk0UPwhAAAIQ2EKgDFWzT3cwkG05RRSBAAQgAIEBAYaxASDCEIAABCBwP4HyuJn3VT9u6M1FDwEIQAACEIggwDAWQREPCEAAAhA4SoDHFo/ipzgEIAABCEwSYBibBEcaBCAAAQjcRYDHFu86H3QDAQhAAAJjAgxjY0YoIAABCEDgxQjw2OKLnTDahQAEIPChBBjGPvTEc9gQgAAE3pkAjy2+89nl2CAAAQi8DwGGsfc5lxwJBCAAAQhUBHhskb8OEIAABCBwO4GvmUc55KBWcjPB3NTXyV5O1N5RM7tGhn+0Z5Tfqs9s/q48Tx2r1qIbaXrxyFjLy7KnNb11L1au83Xcox3let9DSm3v1+DXd9e8ud7+0EMAAhCAwGcS+Jp9g5l5Y9uB+Ka+TvZyovaOmtk1MvyjPaP8Vn1m83fleepYtRbdSNOLR8ZaXpY9remte7Fyva/jHq0lV/uN3l9ksBrpWvGV3JYfexCAAAQgAAEh8AUKCEAAAhCAwKsRkAHJ8w+KK3e6pE4ZAst/8qp/Lnura4tHS/PUj1c7o+/lZMVGvj0eEovWWHvy6DK1Xu8Z/WzOSt7J3NXaEfnF40af6L6y/CLZSY+jXhnGNCnWEIAABCDwEgRm71jNDHI1kHowq4dBfbfOuy41RjktjfSmc73aGX0vJys28u3xkFi0xtqTR5ep9XrP6GdzVvJO5q7WjsgvHjf6RPeV5RfJTnq09MoXeGharCEAAQhA4GUI1IORp+nZQc5TAy0EIAABCEBgRIBhbESIOAQgAAEIXE9gZriaHeSuh0GDEIAABCDwMgQYxl7mVNEoBCAAAQj0CMwMZMVvNq/XCzEIQAACEICAhQDDmIUSGghAAAIQeAkCs3e7GMhe4vTSJAQgAIG3I8Aw9nanlAOCAAQgAIGZ4Wp2kIM2BCAAAQhAYJYAw9gsOfIgAAEIQOBqAjMDWTmg2byrYdAcBCAAAQhcSeBL/04UT5cruZ46Xu1NfZ3s5UTtHTWza2T4R3tG+a36zObvyvPUsWotupGmF4+Mtbwse1rTW/di5dpdxz3aUa71fUEGq1Jb7nxZchnILJTQQAACEIDAKoEvz5tTXcz7xrbaqDX/pr5O9nKi9o6a2TUy/KM9o/xWfWbzd+V56li1Ft1I04tHxlpelj2t6a17sXLNruMerSVX+43eI2aGq9lBbtQLcQhAAAIQgIAQ4DFF/i5AAAIQgMDLEagHJWvzs//4ODPIWXtCBwEIQAACn03g67MPn6OHAAQgAIFXJSDDVblL5nmJ3jOc1QNZXU/XXl2X4xh5tDRy/DrXq53R93KyYiPfHg+JRWusPXl0mVqv94x+Nmcl72Tuau2I/OJxo090X1l+keykx1GvDGOaFGsIQAACEHg5Ap7HFmeHOBnI6vx6oNM9eNcF+iinpZGTpXO92hl9LycrNvLt8ZBYtMbak0eXqfV6z+hnc1byTuau1o7ILx43+kT3leUXyU56tPTKY4qaFmsIQAACEHg5AjOPEnrujL0cEBqGAAQgAIGXIMAw9hKniSYhAAEIQGBEYGYgK57ljlLr8b5RPeIQgAAEIACBVQIMY6sEyYcABCAAgWsIzDyCWHJmB7lrDpxGIAABCEDgJQkwjL3kaaNpCEAAAhDoEZgZrnhssUeUGAQgAAEIZBDglz5nUK08Tz76cqL2jprZNTL8oz2j/FZ9ZvN35XnqWLUW3UjTi0fGWl6WPa3prXuxcims4x7tKNdy6Z4ZyOq6DGcWymggAAEIQGCFAL/0eYXeILf8j8epN/MTtXfUzK6R4R/tGeW36jObvyvPU8eqtehGml48MtbysuxpTW/di5XLYx33aC252u/pciwDmVVffOS6XXJ4QQACEIAABDIJ8JhiJl28IQABCEAghYD3rpdXX5o+9Y9pKcAwhQAEIACBKwkwjF15WmgKAhCAAARGBLwD1uxwxR2y0ZkgDgEIQAACswQYxmbJkQcBCEAAAscJzDxSWIYrz4BVP+p4/IBpAAIQgAAE3orA11sdDQcDAQhAAAIfSUAGJsvdr5kBrs6pBzk91K2uy8kbebQ0ctJ1rlc7o+/lZMVGvj0eEovWWHvy6DK1Xu8Z/WzOSt7J3NXaEfnF40af6L6y/CLZSY+jXhnGNCnWEIAABCDwkgRmHltsDS+jg68Hs3r4K14r61J35NHSSL8616ud0fdysmIj3x4PiUVrrD15dJlar/eMfjZnJe9k7mrtiPzicaNPdF9ZfpHspEdLrzymqGmxhgAEIACBlyUwc9erDDEzQ9nLQqJxCEAAAhC4hgDD2DWngkYgAAEIQCCKgOcuWdF69FE94gMBCEAAAhDglz4n/x04+a+tJ2rvqJldI8M/2jPKb9VnNn9XnqeOVWvRjTS9eGSs5WXZ05reuhcrl9c67tGOci2Xbu+A5dVbekADAQhAAAIQ6BHglz736CzGyv941J8fWLRzpZ+ovaNmdo0M/2jPKL9Vn9n8XXmeOlatRTfS9OKRsZaXZU9reuterFyw6rhHa8nVfk8XyJkBy+r9VJN9CEAAAhCAgJUAX+BhJYUOAhCAAASuISBDlvUfvMqAZX3NDHBWb3QQgAAEIACBmgCfGePvAwQgAAEIvCQBz9BUtNbBrcDw6l8SIE1DAAIQgMBxAgxjx08BDUAAAhCAwCwBGbA8d7482tKXVz97LORBAAIQgMDnEWAY+7xzzhFDAAIQeDsC3rtkngFLvD05bweYA4IABCAAgRQCfGYsBSumEIAABCCwm0D2QFaOpwxk9VCmB7TVtdSo2WnPlkb0q1qvd69uZqzX54hdHY/0sXp5dJlar/eMfjZnJe9k7mrtiPzicaNPdF9ZfpHspMdRrwxjmhRrCEAAAhB4WQL1XazRZ8Q82hpI/WhkXaMMQivrUmPk0dJIbzrXq53R93KyYiPfHg+JRWusPXl0mVqv94x+Nmcl72Tuau2I/OJxo090X1l+keykR0uvPKaoabGGAAQgAIGXJ5B5l+zl4XAAEIAABCBwDQF+6XPyqWg9MpJc8r/2J2rvqJldI8M/2jPKb9VnNn9XnqeOVWvRjTS9eGSs5WXZ05reuhcrF6M67tFacq13vizXXM/wZvFDAwEIQAACELAQ4Jc+WyhNasr/eIz+Z2HSeph2ovaOmtk1MvyjPaP8Vn1m83fleepYtRbdSNOLR8ZaXpY9remte7FykarjHq01V3u2LoyeIUu0Ft9WLfYgAAEIQAACXgI8puglhh4CEIAABK4g4Bm0yoBV/rO8PL4WPzQQgAAEIACBJwIMY09k2IcABCAAgesJWJ8+KDqrthw0A9n1p54GIQABCLwFAYaxtziNHAQEIACBzybgufPluUNWqFr1n30GOHoIQAACEJghwDA2Q40cCEAAAhC4ioDc+bIMTt67Xl79VWBoBgIQgAAEribAMHb16aE5CEAAAhDwELA+iugdsLx6T89oIQABCEDgcwnwS58/99xz5BCAAATeloDlGxFlwLJoC6haL+D0nbjVdfEdebQ0T/14tTP6Xk5WbOTb4yGxaI21J48uU+v1ntHP5qzkncxdrR2RXzxu9InuK8svkp30OOr12/fvf/3UYtYQgAAEIACB2wnIXTA9TMla/1mOx6Pt6Uexmbglp6WR86SPzaud0fdysmIj3x4PiUVrrD15dJlar/eMfjZnJe9k7mrtiPzicaNPdF9ZfpHspEdLr/yeMU0rcN16Ywy071qdqL2jZnaNDP9ozyi/VZ/Z/F15njpWrUU30vTikbGWl2VPa3rrXky/qXm01lztqS+KnkcLPVpdhzUEIAABCEBglgCfGZslRx4EIAABCBwlYBmg6rtno2Y92pEXcQhAAAIQgICFAMOYhRIaCEAAAhC4koAMUKPmLIObeHi0o7rEIQABCEAAAj0CDGM9OsQgAAEIQOAlCJRHFkcv6+BWfBjIRjSJQwACEIBABAFObMKNAAAgAElEQVSGsQiKeEAAAhCAwFECMjxZhrKiseg8w9vRg6c4BCAAAQi8LAG+2v5lTx2NQwACEIBATcD6mS+rTrxlcGM44+8bBCAAAQhEE/iy/OvgU9GV3CfPiP2b+jrZy4naO2pm18jwj/aM8lv1mc3fleepY9VadCNNLx4Za3lZ9rSmt+7FyvW8jnu0o9zRe0WpNRqerI8ieoe3UW/EIQABCEAAAkLg289/XjM4LG90M76rOTf1dbKXE7V31MyukeEf7Rnlt+ozm78rz1PHqrXoRppePDLW8rLsaU1v3YuVa3kd92gtuUVTD0n14CW19J/aV9YWr6Kp9bLmTwhAAAIQgMAKAR5TXKFHLgQgAAEIHCEgd7V6d788d770sNg7qNEQKLnac7QueTOap3otv552Rt/LyYqNfEfHKPFIH6uXR5ep9XrP6GdzVvJO5q7WjsgvHjf6RPeV5RfJTnq09MoXeGharCEAAQhA4CUIWIYt6yOGFq+XgEKTEIAABCDwUgQYxl7qdNEsBCAAAQjUBCKHLasXZwACEIAABCAQRYBhLIokPhCAAAQgcIyA5c6WDFujJi1eIw/iEIAABCAAAQsBhjELJTQQgAAEIHA9AesQVT6XNXpZvUY+xCEAAQhAAAI9Any1fY9OQMzyph9QpmlxovaOmtk1MvyjPaP8Vn1m83fleepYtRbdSNOLR8ZaXpY9remte7FyYarjHu0ot3nR+2fTMkRZNMVfdKVv6121p77YhwAEIAABCLQIfM2+wdz65nRTXyd7OVF7R83sGhn+0Z5Rfqs+s/m78jx1rFqLbqTpxSNjLS/Lntb01r1YecOp4x6tJVf76Te4UVze+4pu9JKhbPb9cuRPHAIQgAAEPpcAjyl+7rnnyCEAAQi8LIHR3a36rtboID0D2ciLOAQgAAEIQMBDgN8z5qGFFgIQgAAEriFgGchKs6Nhy3rnqzXgae/Vdatf7dnSyElZ1Xq9e3UzY70+pe5ujbWeR5ep9XrP6GdzVvJO5q7WjsgvHjf6RPeV5RfJTnoc9cowpkmxhgAEIACBlyEwGsjqN8HeY4ZWn+InPvpRyNV18R55tDS9Y9R+Pa3Xe+TV81uJjXItfUVrrD15dJlar/eMfjZnJe9k7mrtiPzicaNPdF9ZfpHspEdLrzymqGmxhgAEIACBlyPQuiNUH4Rl2KqHrJcDQMMQgAAEIPCSBBjGXvK00TQEIAABCNQEWo8QakK9O2MtL53PGgIQgAAEIBBNgK+2jyaq/Eb/WptZ/kTtHTWza2T4R3tG+a36zObvyvPUsWotupGmF4+Mtbwse1rTW/di5fpWxz3aUW7r2mm9syV99IYzy520Vg/sQQACEIAABDwE+Gp7Dy2ntrzh997snXYu+YnaO2pm18jwj/aM8lv1mc3fleepY9VadCNNLx4Za3lZ9rSmt+7FygWrjnu0llztpy+Qvbh1aGMg01RZQwACEIBANAEeU4wmih8EIAABCKQTGA1Ko3hp0PqPZWWw4wUBCEAAAhDIIMAwlkEVTwhAAAIQSCcwGrhGcWlwNGyJz0iXfsAUgAAEIACBtyPAV9u/3SnlgCAAAQh8DoHRwFUPUk93wkTzFC80JVYGsnoo0wPa6rrUGnm0NHLGda5XO6Pv5WTFRr49HhKL1lh78ugytV7vGf1szkreydzV2hH5xeNGn+i+svwi2UmPo14ZxjQp1hCAAAQg8HIEyhAyGqZag4oc6Gioq4HUg1ldU/fgXZcao5yWRnrTuV7tjL6XkxUb+fZ4SCxaY+3Jo8vUer1n9LM5K3knc1drR+QXjxt9ovvK8otkJz1aeuUxRU2LNQQgAAEIvBwBGaZGA1fvwOohq6cjBgEIQAACEIgiwFfbR5F88On9j8FDStj2ido7ambXyPCP9ozyW/WZzd+V56lj1Vp0I00vHhlreVn2tKa37sXKxayOe7Sj3NaF0jpMlT4sd9F6mlZ99iAAAQhAAAJeAny1vZeYQz96w3dYuaUnau+omV0jwz/aM8pv1Wc2f1eep45Va9GNNL14ZKzlZdnTmt66FysXrTru0VpytZ++SPbichetN2yJRvuyhgAEIAABCEQS4DHFSJp4QQACEIDAFgKjYWk1Xg6iN6xtOUiKQAACEIDA2xNgGHv7U8wBQgACEHhPAqsDlwxb5S5a71XiI00vnxgEIAABCEDgiQDD2BMZ9iEAAQhA4HoCo4HKcnfLMtSNNNeDokEIQAACELiSAF9tf+VpoSkIQAACEPAQkGHpafga3dmyDFuiqb207+q6HPPIo6URVjrXq53R93KyYiPfHg+JRWusPXl0mVqv94x+Nmcl72Tuau2I/OJxo090X1l+keykx1Gv375//+unFrOGAAQgAAEI3EygHrrKACJrGUZ68adYOd7aa7T2aEdewnrk2fJ5yvVqZ/S9nKzYyLfHQ2LRGmtPHl2m1us9o5/NWck7mbtaOyK/eNzoE91Xll8kO+nR0ivfpqhpBa71m2qg9dDqRO0dNbNrZPhHe0b5rfrM5u/K89Sxai26kaYXj4y1vCx7WtNb92L6Tc2jteRqP7koWu5wPeVa3jSHF18EEIAABCAAAQcBPjPmgIUUAhCAAATuIDAausrA9fQa5bYeR3zyYh8CEIAABCCwQoBhbIUeuRCAAAQgcIxAb6jqxUrDlnj9OOOxg6QwBCAAAQi8NQGGsbc+vRwcBCAAgfcm0BuYLAOXhU7vLpslHw0EIAABCEDgiQDD2BMZ9iEAAQhA4GUIPA1MMqw9xcsBllgvPhrqXgYSjUIAAhCAwHUEvnpvQKNuV3JH3ivxm/o62cuJ2jtqZtfI8I/2jPJb9ZnN35XnqWPVWnQjTS8eGWt5Wfa0prfuxcp1vI57tKNc/R4xGph6ccvA1svXvbCGAAQgAAEIWAl8+/nPyyqudeVNtfd4yIxnRM5NfZ3s5UTtHTWza2T4R3tG+a36zObvyvPUsWotupGmF4+Mtbwse1rTW/di5Xpexz1aS27R1ENU/X7Uq9WL6bpP64j3KjwgAAEIQAAChQC/9Jm/BxCAAAQg8HIE5E7V0z8K6qGrPsBerOhG8ZkhsOXbqqP39LrlI8e2qvV69+pmxnp9St3dGms9jy5T6/We0c/mrOSdzF2tHZFfPG70ie4ryy+SnfRo6ZXPjGlarCEAAQhA4CUI9B4dnI2VA+/lvgQYmoQABCAAgZchwDD2MqeKRiEAAQhAQBN4ujNWdL2hqhcb5eoeWEMAAhCAAARmCTCMzZIjDwIQgAAEriFQHtFrvUbDWskZ5T7FW/XYgwAEIAABCHgI8G2KHloT2pNv4idq76iZXSPDP9ozym/VZzZ/V56njlVr0Y00vXhkrOVl2dOa3roXK5fMOu7RjnL15Xh0p0vXrvMl92lwG8V1L6whAAEIQAACVgJfT28+I4PyxjabO/Jeid/U18leTtTeUTO7RoZ/tGeU36rPbP6uPE8dq9aiG2l68chYy8uypzW9dS9WruN13KO15Gq/kiPvSSWmX72Y5LbyxGc07Ol6rCEAAQhAAAIWAnybooUSGghAAAIQuIrA6G5Va1iTA3iKjQYuiddDmx7gVtelx5FHS1Mfmz5R2q+n9XqPvHp+K7FRrqWvaI21J48uU+v1ntHP5qzkncxdrR2RXzxu9InuK8svkp30OOqVYUyTYg0BCEAAAi9BoDc89Ya1Xqwc+NOwJlDqu2zycytP+4zWFo+WRvrS/l7tjL6XkxUb+fZ4SCxaY+3Jo8vUer1n9LM5K3knc1drR+QXjxt9ovvK8otkJz1aeuULPDQt1hCAAAQg8DIE6sFIN20Z1nROWbfugLV07EEAAhCAAARWCfAFHqsEB/lPj4cM0kLCJ2rvqJldI8M/2jPKb9VnNn9XnqeOVWvRjTS9eGSs5WXZ05reuhcrF7I67tGOcvVF8ulu18pApnvQNVlDAAIQgAAEVgnwBR6rBDv55X886kdYOtLw0InaO2pm18jwj/aM8lv1mc3fleepY9VadCNNLx4Za3lZ9rSmt+7FykWtjnu0llztV3J6g1dLLxfeXkz3En6xxhACEIAABD6aAI8pfvTp5+AhAAEIvCaBp8Hr6R/AnvTl6EePJfZyX5MeXUMAAhCAwC0EGMZuORP0AQEIQAACLgK9Ianc7dIvGdSeYk+DXPHp1dJ1WEMAAhCAAASsBPg2RSspdBCAAAQgcB2BpyFJ9lsDVi9WDvDpsUXJq4c5PditrqV+DVp7tjSiX9V6vXt1M2O9Pkfs6nikj9XLo8vUer1n9LM5K3knc1drR+QXjxt9ovvK8otkJz2OemUY06RYQwACEIDAyxFoDVBPg1o5OEusNchJbvlT11xdWzxbGjlZur5XO6Pv5WTFRr49HhKL1lh78ugytV7vGf1szkreydzV2hH5xeNGn+i+svwi2UmPll75NkVNK3jd+lfK4BKPdidq76iZXSPDP9ozym/VZzZ/V56njlVr0Y00vXhkrOVl2dOa3roXkze2+s2ovmCt5tbD0tPdrvpulh6uLAPZ4wWWAAQgAAEIQCCAAN+mGADxyaL8j4Z+83/SRu+fqL2jZnaNDP9ozyi/VZ/Z/F15njpWrUU30vTikbGWl2VPa3rrXqxc0+q4R2vN1Z6zw5X2ketxzy/6mo0fBCAAAQh8JgG+wOMzzztHDQEIQODlCbSGJfkHsDJg6dfTP461fOrclpf2Zg0BCEAAAhCYIcAwNkONHAhAAAIQuILAzIDVGq56A5nEWnlXQKAJCEAAAhB4WQLfvn//6+fLdk/jEIAABCDwkQTqIUyGpPqumL5DpmPyaKJ+RLHnVUAzkH3kXzcOGgIQgEAaAT4zlob292/aSiz1m7X+H4zfBAkbO2pm18jwj/aM8lv1mc3fleepY9VadCNNLx4Za3lZ9rSmt+7FyiWmjnu0llztJ3ev9J2ypzteT/ul9pOXXDb1YCf7uifvWh93a/2097Sve3jqdXb/qe7IbyVvlGupHa2x9uTRZWq93jP62ZyVvJO5q7Uj8ovHjT7RfWX5RbKTHi298piipsUaAhCAAASuJ9Aaplp79RuhPig9uNXxnpf2YQ0BCEAAAhCYJcAwNkuOPAhAAAIQOEqgNTA9DVgtrTRf7h61Xk9eLS17EIAABCAAgRkCDGMz1MiBAAQgAIErCDwNTK0B60krg1orpxzk0/4VAGgCAhCAAARemgC/9Dn59J18Ez9Re0fN7BoZ/tGeUX6rPrP5u/I8daxai26k6cUjYy0vy57W9Na9WLm81nGPdpSrL93Fux62RnfC9GAma91jqSNeOkf3wBoCEIAABCDgJcAXeHiJOfT6fw4cqcvSE7V31MyukeEf7Rnlt+ozm78rz1PHqrXoRppePDLW8rLsaU1v3YuVi1gd92gtudqvNTA9DVi9QU3XlovxKGf5oo0BBCAAAQh8JIGvjzxqDhoCEIAABF6awNPwVYa01qs1vBVdS9/yLlrZr3N0/uq61ZP2bGnkmFe1Xu9e3cxYr0+pu1tjrefRZWq93jP62ZyVvJO5q7Uj8ovHjT7RfWX5RbKTHke9MoxpUqwhAAEIQOAlCLTuVrX2ysE87ZeYHtRG+uLVytM+3rXFs6X5t5l/Xrre017kfs8rKzby/RfGP68WD4lFa6z1PLpMrdd7Rj+bs5J3Mne1dkR+8bjRJ7qvLL9IdtKjpVe+wEPTYg0BCEAAAi9DQAYj3XDrDtGT9mlQe9LrWqwhAAEIQAACswT4Ao9Zcsa81v8QGFOXZSdq76iZXSPDP9ozym/VZzZ/V56njlVr0Y00vXhkrOVl2dOa3roXKxexOu7RjnL1BbJ418PT04AlvnrQ8up1fdYQgAAEIACBGQJ8gccMNWOO/p8DY1qI7ETtHTWza2T4R3tG+a36zObvyvPUsWotupGmF4+Mtbwse1rTW/di5UJWxz1aS27xKy8ZqmSY0gOZeNUX1pZWvMTXoq81/AwBCEAAAhCYIcBnxmaokQMBCEAAAkcJyNBVD0+eu1sebTnQWl/X1MPb6rrUGnm0NHIydK5XO6Pv5WTFRr49HhKL1lh78ugytV7vGf1szkreydzV2hH5xeNGn+i+svwi2UmPo14ZxjQp1hCAAAQg8DIE9FAl6zKU6LtkelDRuXLQsl/nl5je1zVW16XGyKOlkb51rlc7o+/lZMVGvj0eEovWWHvy6DK1Xu8Z/WzOSt7J3NXaEfnF40af6L6y/CLZSY+WXvnMmKYVvNZv/sH2XbsTtXfUzK6R4R/tGeW36jObvyvPU8eqtehGml48MtbysuxpTW/di8kbW/1mVF+0VnL1xa94tYav1l4rt+xZtDqXNQQgAAEIQGCFAJ8ZW6E3yNX/czCQh4ZP1N5RM7tGhn+0Z5Tfqs9s/q48Tx2r1qIbaXrxyFjLy7KnNb11L1YuaHXco7Xkaj9916p4PN35auVKzfpCLPlaH3qxxgwCEIAABD6aAF9t/9Gnn4OHAAQg8JoEWoPW054+wpauaOo7Y3XOk177soYABCAAAQh4CTCMeYmhhwAEIACBKwi0hqSngarc3apfrVyJa23Z7+mvgEETEIAABCDwkgS+ff/+18+X7JymIQABCEDgYwnUQ5cMT7LXWtfDlM5treXRRP2IYmtQ+9iTwIFDAAIQgMAyAT4ztozw2UC/iT8r4yMnau+omV0jwz/aM8pv1Wc2f1eep45Va9GNNL14ZKzlZdnTmt66FytXtTru0VpytZ8MWzJY6XXxrAey+qqrvXpaiekeI9YWj5ZGjqV1HK09r0dPfyI2qtnjIbFojbUnjy5T6/We0c/mrOSdzF2tHZFfPG70ie4ryy+SnfRo6ZXHFDUt1hCAAAQgcD2B1mCl9/S6flOsD1B0ZXDR+9eDoEEIQAACEHhpAgxjL336aB4CEIDA5xJoDVtyZ0yo6HXZf8praYteD2mfS5wjhwAEIACBaAL8nrFoosrv5Jv4ido7ambXyPCP9ozyW/WZzd+V56lj1Vp0I00vHhlreVn2tKa37sXK5bCOe7SjXLnUtgYrya2HK137Ka+VK9qnYS35bQR7CEAAAhB4YwLffv7zmjm+8sZ24xvTTX2d7OVE7R01s2tk+Ed7Rvmt+szm78rz1LFqLbqRphePjLW8LHta01v3YuV9pY57tJbcopH3oOItr3pwkpqjPrRXy0N6+m8hfoAABCAAAQgEEPgK8MACAhCAAAQgsJWAvlvVG8x0Y3ow1F5FL3t1rtZpn9V1qTXyaGmkR53r1c7oezlZsZFvj4fEojXWnjy6TK3Xe0Y/m7OSdzJ3tXZEfvG40Se6ryy/SHbSo6VXHlPUtILX9b/YBlsP7U7U3lEzu0aGf7RnlN+qz2z+rjxPHavWohtpevHIWMvLsqc1vXUvJm9s9ZtRfeFayS0+vYFJ6vQ0MsBZvYYXXQQQgAAEIAABJwG+2t4JzCMv/6NRv9l7cle1J2rvqJldI8M/2jPKb9VnNn9XnqeOVWvRjTS9eGSs5WXZ05reuhcr17A67tFacsVPhi2vf29I09df7a3jrCEAAQhAAAKzBPg2xVly5EEAAhCAwDECepjyrkvjT/9YVoav+qW9jx00hSEAAQhA4O0IMIy93SnlgCAAAQh8BgE9JFnWLTKW4Ut7t3zYgwAEIAABCHgJfPv+/a+pb1P0FkIPAQhAAAIQiCJQ39XSjxH21jJ4Sb5o9Z+lT62t96KOAx8IQAACEPhsAnxmLPH86/8hSCz1m/WJ2jtqZtfI8I/2jPJb9ZnN35XnqWPVWnQjTS8eGWt5Wfa0prfuxcpFqY57tJbcFT+5y1UPdK07X6290pse5OQCvNKT1UOzkbynfd3TU53Z/ae6I7+VvFGupXa0xtqTR5ep9XrP6GdzVvJO5q7WjsgvHjf6RPeV5RfJTnq09MpjipoWawhAAAIQuJ6AHpRW1+WA6+GsBlAGGl4QgAAEIACBDAJ8tX0G1crz5Jv4ido7ambXyPCP9ozyW/WZzd+V56lj1Vp0I00vHhlreVn2tKa37sXKpbCOe7Sj3BJfHcAkv/RVD2J6LbqnYS35bQR7CEAAAhB4YwLffv7zmjk+/WY145GRc1NfJ3s5UXtHzewaGf7RnlF+qz6z+bvyPHWsWotupOnFI2MtL8ue1vTWvVi5vtdxj9aSWzQyHHm8i7aVKx5Pf0pP/ybzggAEIAABCAQR+ArywQYCEIAABCCwjYC+W+UZyHRuaXp0l63WzAyBJX/U46xGoGv/ll9PO6Pv5WTFRr6jY5R4pI/Vy6PL1Hq9Z/SzOSt5J3NXa0fkF48bfaL7yvKLZCc9WnrlMUVNK3gt/wobbGuyO1F7R83sGhn+0Z5Rfqs+s/m78jx1rFqLbqTpxSNjLS/Lntb01r2YvLHVb0b1xWslt/jUA5QesJ7WUl8PX9qvXpc+ZQCr++dnCEAAAhCAwCoBvk1xlWAn/+Qb+InaO2pm18jwj/aM8lv1mc3fleepY9VadCNNLx4Za3lZ9rSmt+7FyqWxjnu0llzxaw1kclnWA9doLXm6Vz3YdS77hCAAAQhAAAIuAnybogsXYghAAAIQuIGAHqzKAFVecgdLr+ueJSZ7ZV3vaW/x1Xk3cKAHCEAAAhB4bQL80ufXPn90DwEIQOAjCbSGLrmj1fqzQKrvcGlNiesBTq9rzUdC56AhAAEIQCCcAN+mGI70/xvKm31iiUfrE7V31MyukeEf7Rnlt+ozm78rz1PHqrXoRppePDLW8rLsaU1v3YuVi1Md92gtuUVTD2St4Ux8RFt60Hn1WtcdrVeOqeXd2tM1Wpp/D+qf16r2yaO3fyI2qvm/NNo8JBatsfbk0WVqvd4z+tmclbyTuau1I/KLx40+0X1l+UWykx4tvfKYoqbFGgIQgAAEriegHyXUg5YcgAxpZV3/3FpLjng9ra+HQ4MQgAAEIPAyBPg2xeRTpd/Uk8v9Yn+i9o6a2TUy/KM9o/xWfWbzd+V56li1Ft1I04tHxlpelj2t6a17sXJBquMe7Si3xOuBrH4EUXLr4avUttw9q31Fr71/udCygAAEIAABCCwQ4NsUF+CNUus3/5E2On6i9o6a2TUy/KM9o/xWfWbzd+V56li1Ft1I04tHxlpelj2t6a17sXJNq+MerSVX/FoDWcnXA5TWSQ3R1us6v/zcWss+f0IAAhCAAARWCPBLn1fokQsBCEAAAkcI6GFrNJyVJuuBbGVdasmr/rnsra4tHi3NUz9e7Yy+l5MVG/n2eEgsWmPtyaPL1Hq9Z/SzOSt5J3NXa0fkF48bfaL7yvKLZCc9jnrl2xQ1KdYQgAAEIHA9gdYjhzKQyUBUa1r6cpAtbdnv6Vu+4iWxmbUlp6Upe0/7wkQ0Pe2TR2//RGxUc3SMNYsnPl6NtSePLlPr9Z7Rz+as5J3MXa0dkV88bvSJ7ivLL5Kd9GjplccUNa3AteUiH1juF6sTtXfUzK6R4R/tGeW36jObvyvPU8eqtehGml48MtbysuxpTW/di+k3NY/Wkit+9d2u1s+twUl0EvOus67b+EIAAhCAwOcR4NsUP++cc8QQgAAEXp5APXiVgynDWXnVd6Zaw5kcuM73rl8eIAcAAQhAAAJXEOAxxStOA01AAAIQgICHgAxd9RAmd8v0YFbflevFSn3LHTxPn2ghAAEIQAACPQL80ucencWYflNftHOln6i9o2Z2jQz/aM8ov1Wf2fxdeZ46Vq1FN9L04pGxlpdlT2t6616sXLDquEdryS2aeiCzDmfSR/2n9hqtW3V1zzNrS05LU/ae9jX3nvbJo7d/IjaqOTpGiUf6WL08ukyt13tGP5uzkncyd7V2RH7xuNEnuq8sv0h20qOlV37PmKYVvC5vhKdeJ2rvqJldI8M/2jPKb9VnNn9XnqeOVWvRjTS9eGSs5WXZ05reuheTN7b6zai+Hq7kymOFejCqHzd8+rn00IqJl/bW61PXdOpCAAIQgMD7EeALPBLPafkfDXlzTyzTtD5Re0fN7BoZ/tGeUX6rPrP5u/I8daxai26k6cUjYy0vy57W9Na9WLkw1XGP1pIrfuXP8tIDk8RbQ5dcNK2x2l9y+RMCEIAABCAQQYDPjEVQxAMCEIAABLYSqIcvPZCVRizxoqtzZV3/I1priNx6oBSDAAQgAIG3JsCdscTTq9/EE0v9Zn2i9o6a2TUy/KM9o/xWfWbzd+V56li1Ft1I04tHxlpelj2t6a17sXJRquMerSVX/Mqf5WUZvlpanatrt9YyrK0cU8u3tadrtDRl72m/lf+kndnv5WTFRr7/S+P3L2OR/frPJz5ejbUnjy5T6/We0c/mrOSdzF2tHZFfPG70ie4ryy+SnfRo6ZWvtte0WEMAAhCAwPUE9GOJpeH6scN68JKDqe941Vqd24tdD4YGIQABCEDgpQjwBR7Jp0v+hyC5TNP+RO0dNbNrZPhHe0b5rfrM5u/K89Sxai26kaYXj4y1vCx7WtNb92LlwlTHPdpRbonr4aus6yGt1JMBrPVzb+jqxZoXXDYhAAEIQAACEwT4avsJaNaU+s3fmhOlO1F7R83sGhn+0Z5Rfqs+s/m78jx1rFqLbqTpxSNjLS/Lntb01r1YuZbVcY/Wkls0etCSGuVPifd+7g1ctbeu9a85LwhAAAIQgEAAAb7AIwAiFhCAAAQgsJeAvgNWqtfDlY7rwa3o60FNr+vBzuIl+VJnZm3JaWnK3tO+HoJ72ieP3v6J2Kjm6BglHulj9fLoMrVe7xn9bM5K3snc1doR+cXjRp/ovrL8ItlJj5Ze+QIPTStw/fQmGFji0epE7R01s2tk+Ed7Rvmt+szm78rz1LFqLbqRphePjLW8LHta01v3YvpNzaO15Ipf+bO89MBU7z351cOb1vdi/xbkBQEIQAACEAggwJ2xAIhYQAACEIDAXgJ6+KrvfEkn+m7YaHArebVG1vpu194jpRoEIAABCLwzAT4zlnh29b8EJ6HbH6EAACAASURBVJb6zfpE7R01s2tk+Ed7Rvmt+szm78rz1LFqLbqRphePjLW8LHta01v3YuWiVMc9Wktu0bTuXtW5UrP8Wev14NYa7Fq5lr704OZZa//W+mnvaV9z/xfEP6+o/Z5XVmzk+3+H+HiMEo/0sXp5dJlar/eMfjZnJe9k7mrtiPzicaNPdF9ZfpHspEdLr3yboqYVvJb/CQi2NdmdqL2jZnaNDP9ozyi/VZ/Z/F15njpWrUU30vTikbGWl2VPa3rrXkze2Oo3o/ritZLbG6Ckbj2s1T+XumX9FC/5rVg9WJkuwoggAAEIQAACAwJ8ZmwAaCUsb/grHrO5J2rvqJldI8M/2jPKb9VnNn9XnqeOVWvRjTS9eGSs5WXZ05reuhcr16467tFacsWv/FnrZa2HtaJp7dW5Ehfv1kD2bzFeEIAABCAAgSACfGYsCCQ2EIAABCCwj4AerFrr0o0MZ+VnPVxJvJWrh72i0X77jpZKEIAABCDwrgQYxt71zHJcEIAABN6cQD1clUNtrct+a7B62hMfyat966Gt9i0/R6wtHi3NU32vdkbfy8mKjXx7PCQWrbH25NFlar3eM/rZnJW8k7mrtSPyi8eNPtF9ZflFspMeLb3ymKKmFbiWN/tAS7PVido7ambXyPCP9ozyW/WZzd+V56lj1Vp0I00vHhlreVn2tGa0Nl+UgoWlL+lt9GcpXWvKWt8lq+Pyc0sTfBjYQQACEIDAhxPgztiH/wXg8CEAAQh4Ccgje968aH0ZmupX686YaFqxkiuDl/xc/qzvgNX5teaXwiwgAAEIQAACkwT4avtJcJa0+k3eoo/UnKi9o2Z2jQz/aM8ov1Wf2fxdeZ46Vq1FN9L04pGxlpdlT2tG68jr1oxX6a+89ADVWhedHE/9p+TXcfn5yVtrI9YWj5am7D3t6/PX0z559PZPxEY1R8co8Ugfq5dHl6n1es/oZ3NW8k7mrtaOyC8eN/pE95XlF8lOerT0ylfba1rBa/kfhWBbk92J2jtqZtfI8I/2jPJb9ZnN35XnqWPVWnQjTS8eGWt5Wfa0Rq9NF6BNIhm6So/13a/WWr8pynHVg1vRSG7tp++sbTo8ykAAAhCAwJsT4M5Y4gmWN/TEEo/WJ2rvqJldI8M/2jPKb9VnNn9XnqeOVWvRjTS9eGSs5WXZ05rR+vEitDlQ+iyv1h2x+hjkZ/1nyX3yEN9as/nwKAcBCEAAAm9KgM+MvemJ5bAgAAEIZBEoA8+NLxmmpDd9N6t3p0uOSQ9uxas14JX90aDqjVs8Wxo5Xl3Pq53R93KyYiPfHg+JRWusPXl0mVqv94x+Nmcl72Tuau2I/OJxo090X1l+keykR0uvfJuiphW4br0xBtp3rU7U3lEzu0aGf7RnlN+qz2z+rjxPHavWohtpevHIWMvLsqc1rXX34nMw2Bq29CBV2tN79brE5ZhbfgcPj9IQgAAEIPCGBL7e8Jg4JAhAAAIQ+FACMkDJQFX+LC+9rgetp1jR1Lm1t+AV/6i11BO/1vpp72lf9/jU6+z+U92R30reKNdSO1pj7cmjy9R6vWf0szkreSdzV2tH5BePG32i+8ryi2QnPY565TFFTYo1BCAAAQh0CciQ0hUdDsoAou+CSVt60KoHsjpW9NpD54qneMyuS97Io6V5qufVzuh7OVmxkW+Ph8SiNdaePLpMrdd7Rj+bs5J3Mne1dkR+8bjRJ7qvLL9IdtKjpVceU9S0Atf6TTXQemh1ovaOmtk1MvyjPaP8Vn1m83fleepYtRbdSNOLR8ZaXpY9rWmthxegCwT6LpYch/6ztFrv1WvxKHv1zxccHi1AAAIQgMCbEODO2JucSA4DAhCAwC4CcmdoV72VOmXQKi89TLUGLX0HrK5b3w1b6YdcCEAAAhCAQE2Ar7ZP/Pug/0U5sdRv1idq76iZXSPDP9ozym/VZzZ/V56njlVr0Y00vXhkrOVl2dOa0fq3i8+FG+UYyksPW/W6xEUnWtlr5dWxf83/eY1YjeIWj5bmqb5XO6Pv5WTFRr49HhKL1lh78ugytV7vGf1szkreydzV2hH5xeNGn+i+svwi2UmPll7/R4tZQwACEIAABN6JgL6rJUORDF/1sFaOW99F0/p3YsOxQAACEIDAWQI8pniWP9UhAAEIvBwBGW5erXHLHTKtKceo74y92nHTLwQgAAEI3EuAxxQTz41+JCWx1G/WJ2rvqJldI8M/2jPKb9VnNn9XnqeOVWvRjTS9eGSs5WXZ05rR+reLz+Ub5XjKS9/9qtd6+NJ31up1PZiOWI3ipa8ZjSDXuS2/nnZG38vJio18R8co8Ugfq5dHl6n1es/oZ3NW8k7mrtaOyC8eN/pE95XlF8lOerT0yu8Z07RYQwACEIDA2xKQQUsGl9af5eDr4Uw0da4AkuEual18Rp4tzVN9r3ZG38vJio18ezwkFq2x9uTRZWq93jP62ZyVvJO5q7Uj8ovHjT7RfWX5RbKTHke98piiJsUaAhCAAAS6BOq7QV3hxUE98NTDV2lb3/3SQ1vR6DtRq2uLZ0sjmHV9r3ZG38vJio18ezwkFq2x9uTRZWq93jP62ZyVvJO5q7Uj8ovHjT7RfWX5RbKTHi298nvGNK3AdeuNMdC+a3Wi9o6a2TUy/KM9o/xWfWbzd+V56li1Ft1I04tHxlpelj2taa27F58XCdbDl/ys/9RvooUFLwhAAAIQgEAkAR5TjKSJFwQgAAEIvAyB+rHDejirB1D5uf6zHsr0gLa6LvBGHi2NQNe5Xu2MvpeTFRv59nhILFpj7cmjy9R6vWf0szkreSdzV2tH5BePG32i+8ryi2QnPY56ZRjTpFhDAAIQgMDHEGgNZPUdsgKiHsTKWj/CKLBEN7uuaz15tDRRWq93r25mrNen1N2tsdbz6DK1Xu8Z/WzOSt7J3NXaEfnF40af6L6y/CLZSY+WXvnMmKbFGgIQgAAEugRkGOmKXiyo7yjVd8qeHl98sUOkXQhAAAIQuJAAX22feFL0v5ImlvrN+kTtHTWza2T4R3tG+a36zObvyvPUsWotupGmF4+Mtbwse1ozWv928XnhjXKs5aWHr/pOmMTLnyM23rjFs6X5t+lGP097kfs9r6zYyPdfGP+8NH/Zr/+M0ljreXSZWq/3jH42ZyXvZO5q7Yj84nGjT3RfWX6R7KRHS688pqhpsYYABCAAgY8k0HpksYCQ/2Gv4wJIBriotdSrT4Cu0dI81fdqZ/S9nKzYyLfHQ2LRGmtPHl2m1us9o5/NWck7mbtaOyK/eNzoE91Xll8kO+lx1CvDmCbFGgIQgAAEPpZAayCr75QVMPWdMvm57Ou7LN61xaOlkZOl63m1M/peTlZs5NvjIbFojbUnjy5T6/We0c/mrOSdzF2tHZFfPG70ie4ryy+SnfRo6fWr9S9u2uBpvZL75Bmxf1NfJ3s5UXtHzewaGf7RnlF+qz6z+bvyPHWsWotupOnFI2MtL8ue1uh1xHX6Zg99B6wcv+zd3De9QQACEIDA6xHgM2OJ50zewBNLPFqfqL2jZnaNDP9ozyi/VZ/Z/F15njpWrUU30vTikbGWl2VPa0brx4vQGwTKsZdXfWdM9t7g8DgECEAAAhC4gACPKV5wEmgBAhCAAATuI9B6ZLF0yWOKv54rPbDX0YxY8e/5Sv2dGmtPHl2m1us9o5/NWck7mbtaOyK/eNzoE91Xll8kO+nR0ivDmKbFGgIQgAAEIPB/BFoDWX13TN8pW12XsiOPlkZOmM71amf0vZys2Mi3x0Ni0RprTx5dptbrPaOfzVnJO5m7Wjsiv3jc6BPdV5ZfJDvpcdQrv2dMk2INAQhAAAJdAvWXVnSFbxRsDTlvdHgcCgQgAAEIHCLAZ8YSwVsekcgqf6L2jprZNTL8oz2j/FZ9ZvN35XnqWLUW3UjTi0fGWl6WPa0ZrbOuYTf6FhblxWOKv54d/XekjmbEin/PV+rv1Fh78ugytV7vGf1szkreydzV2hH5xeNGn+i+svwi2UmPll55TFHTYg0BCEAAAhBoENDfslgkMqCJfHVt8Wxpnup7tTP6Xk5WbOTb4yGxaI21J48uU+v1ntHP5qzkncxdrR2RXzxu9InuK8svkp30OOqVYUyTYg0BCEAAAhDoEODO2K9wenegMmKles9Xutupsfbk0WVqvd4z+tmclbyTuau1I/KLx40+0X1l+UWykx4tvfKZMU2LNQQgAAEIdAl84mfG6jfULhyCEIAABCAAAQeBr9k3Vcu/ODn6CJPe1NfJXk7U3lEzu0aGf7RnlN+qz2z+rjxPHavWohtpevHIWMvLsqc1rXXYBftFjbgz9uuJ039H6mhGrPj3fKX+To21J48uU+v1ntHP5qzkncxdrR2RXzxu9InuK8svkp30aOmVxxQ1LdYQgAAEIACBDoHyP/nyqn8ue6tri0dL89SPVzuj7+VkxUa+PR4Si9ZYe/LoMrVe7xn9bM5K3snc1doR+cXjRp/ovrL8ItlJj6NeGcY0KdYQgAAEIACBDgHujP0Kp3cHKiNWqvd8pbudGmtPHl2m1us9o5/NWck7mbtaOyK/eNzoE91Xll8kO+nR0ivDmKbFGgIQgAAEINAhwJ2x3+HoO4K1IiNW/Hu+Un+nxtqTR5ep9XrP6GdzVvJO5q7WjsgvHjf6RPeV5RfJTnoc9coXeGhSrCEAAQhAoEtg9rPGXdMXCdZ3W/Sdl9V1QTDyaGkEnc71amf0vZys2Mi3x0Ni0RprTx5dptbrPaOfzVnJO5m7Wjsiv3jc6BPdV5ZfJDvp0dIrX+ChaQWuW2+MgfZdqxO1d9TMrpHhH+0Z5bfqM5u/K89Tx6q16EaaXjwy1vKy7GlNa929+BCEAAQgAAEIQMBMgMcUzagQQgACEIAABH59PK4Mq/VrdV28Rh4tjfSgc73aGX0vJys28u3xkFi0xtqTR5ep9XrP6GdzVvJO5q7WjsgvHjf6RPeV5RfJTnoc9cowpkmxhgAEIAABCHQI8AUev8LRd0/raEas+Pd8pf5OjbUnjy5T6/We0c/mrOSdzF2tHZFfPG70ie4ryy+SnfRo6ZVhTNNiDQEIQAACEOgQqO8+6TtRq+tSduTR0ki7OterndH3crJiI98eD4lFa6w9eXSZWq/3jH42ZyXvZO5q7Yj84nGjT3RfWX6R7KTHUa8MY5oUawhAAAIQgECHAHfGfoXTuwOVESvVe77S3U6NtSePLlPr9Z7Rz+as5J3MXa0dkV88bvSJ7ivLL5Kd9Gjp9av1r2ja4Gm9kvvkGbF/U18nezlRe0fN7BoZ/tGeUX6rPrP5u/I8daxai26k6cUjYy0vy57W6HXEdRoPCEAAAhCAAAT++OPbz39eMyDKm/ONX298U18nezlRe0fN7BoZ/tGeUX6rPrP5u/I8daxai26k6cUjYy0vy57WjNYz7x+vnFN48IIABCAAAQhEEeAxxSiS+EAAAhCAwEcQ4DHFX0+zHtjraEas+Pd8pf5OjbUnjy5T6/We0c/mrOSdzF2tHZFfPG70ie4ryy+SnfRo6fV/tJg1BCAAAQhAAAIQgAAEIAABCOQT4M5YPmMqQAACEIDAGxGoH1XUjy2urgumkUdLI3h1rlc7o+/lZMVGvj0eEovWWHvy6DK1Xu8Z/WzOSt7J3NXaEfnF40af6L6y/CLZSY+jXhnGNCnWEIAABCAAgQ4BHlP8FU7vccCMWKne85XudmqsPXl0mVqv94x+Nmcl72Tuau2I/OJxo090X1l+keykR0uvfJuiphW8bv0rZXCJR7sTtXfUzK6R4R/tGeW36jObvyvPU8eqtehGml48MtbysuxpjV4/XnQIQAACEIAABCDgIvA1+42I5c15NtfVoVN8U18nezlRe0fN7BoZ/tGeUX6rPrP5u/I8daxai26k6cUjYy0vy57WtNbOyzJyCEAAAhCAAAQeCPCY4gMYtiEAAQhAAAItAmVAlVf9c9lbXVs8WpqnfrzaGX0vJys28u3xkFi0xtqTR5ep9XrP6GdzVvJO5q7WjsgvHjf6RPeV5RfJTnoc9cowpkmxhgAEIAABCHQI8JmxX+Hou6d1NCNW/Hu+Un+nxtqTR5ep9XrP6GdzVvJO5q7WjsgvHjf6RPeV5RfJTnq09MpX22tarCEAAQhAAAIQgAAEIAABCGwgwDC2ATIlIAABCEAAAhCAAAQgAAEIaAI8pqiJsIYABCAAAQh0CPCZsd/h6M/K1YqMWPHv+Ur9nRprTx5dptbrPaOfzVnJO5m7Wjsiv3jc6BPdV5ZfJDvpcdTrt+/f//qpxawhAAEIQAACTwRu/Cbdp16j9+vPIenPJK2uS68jj5ZGjlHnerUz+l5OVmzk2+MhsWiNtSePLlPr9Z7Rz+as5J3MXa0dkV88bvSJ7ivLL5Kd9Gjpla+217QC1603xkD7rtWJ2jtqZtfI8I/2jPJb9ZnN35XnqWPVWnQjTS8eGWt5Wfa0prXuXnwIQgACEIAABCBgJsBnxsyoEEIAAhCAAAQgAAEIQAACEIgjwGfG4ljiBAEIQAACH0Cg3C2UV/1z2VtdWzxamqd+vNoZfS8nKzby7fGQWLTG2pNHl6n1es/oZ3NW8k7mrtaOyC8eN/pE95XlF8lOehz1yjCmSbGGAAQgAAEIdAjwe8Z+haMfZa2jGbHi3/OV+js11p48ukyt13tGP5uzkncyd7V2RH7xuNEnuq8sv0h20qOlVx5T1LRYQwACEIAABCAAAQhAAAIQ2ECAYWwDZEpAAAIQgAAEIAABCEAAAhDQBPhqe02ENQQgAAEIdAl8+lfbd+EQhAAEIAABCDgI8NX2DlheqeV5da+nVX+i9o6a2TUy/KM9o/xWfWbzd+V56li1Ft1I04tHxlpelj2taa2t16F31fGZsV/PrP47UkczYsW/5yv1d2qsPXl0mVqv94x+Nmcl72Tuau2I/OJxo090X1l+keykR0uvPKaoabGGAAQgAAEIQAACEIAABCCwgQDD2AbIlIAABCAAAQhAAAIQgAAEIKAJMIxpIqwhAAEIQAACEIAABCAAAQhsIMDvGdsAmRIQgAAEIPA+BMpnkeRV/1z2VtcWj5bmqR+vdkbfy8mKjXx7PCQWrbH25NFlar3eM/rZnJW8k7mrtSPyi8eNPtF9ZflFspMeR70yjGlSrCEAAQhAAAIdAnyBx69wel+UkREr1Xu+0t1OjbUnjy5T6/We0c/mrOSdzF2tHZFfPG70ie4ryy+SnfRo6ZXHFDUt1hCAAAQgAAEIQAACEIAABDYQ+NKPVHhqruR66ni1N/V1spcTtXfUzK6R4R/tGeW36jObvyvPU8eqtehGml48MtbysuxpjV57r8noIQABCEAAAhBoE+D3jLW5hOyW/4E59ctRT9TeUTO7RoZ/tGeU36rPbP6uPE8dq9aiG2l68chYy8uypzWtdcgFEhMIQAACEIAABP7gMUX+EkAAAhCAAAQgAAEIQAACEDhAgC/wOACdkhCAAAQg8LoEyt1CedU/l73VtcWjpXnqx6ud0fdysmIj3x4PiUVrrD15dJlar/eMfjZnJe9k7mrtiPzicaNPdF9ZfpHspMdRrwxjmhRrCEAAAhCAQIcA36b4Kxz9KGsdzYgV/56v1N+psfbk0WVqvd4z+tmclbyTuau1I/KLx40+0X1l+UWykx4tvfKYoqbFGgIQgAAEIAABCEAAAhCAwAYCDGMbIFMCAhCAAAQgAAEIQAACEICAJsAwpomwhgAEIAABCEAAAhCAAAQgsIEAw9gGyJSAAAQgAAEIQAACEIAABCCgCXz7/v2vn3qTNQQgAAEIQOCJwKnfn/jUz859/W2JO2tTCwIQgAAE3o8Av/Q58Zxavskpq/yJ2jtqZtfI8I/2jPJb9ZnN35XnqWPVWnQjTS8eGWt5Wfa0prXOum69ii/fpvjrmdJ/R+poRqz493yl/k6NtSePLlPr9Z7Rz+as5J3MXa0dkV88bvSJ7ivLL5Kd9GjplccUNS3WEIAABCAAAQhAAAIQgAAENhBgGNsAmRIQgAAEIAABCEAAAhCAAAQ0AYYxTYQ1BCAAAQhAAAIQgAAEIACBDQQYxjZApgQEIAABCEAAAhCAAAQgAAFNgGFME2ENAQhAAAIQgAAEIAABCEBgA4GvDTUoAQEIQAACEHgbAuVb+uRV/1z2VtcWj5bmqR+vdkbfy8mKjXx7PCQWrbH25NFlar3eM/rZnJW8k7mrtSPyi8eNPtF9ZflFspMeR70yjGlSrCEAAQhAAAIdAny1/a9wel8hnxEr1Xu+0t1OjbUnjy5T6/We0c/mrOSdzF2tHZFfPG70ie4ryy+SnfRo6ZXHFDUt1hCAAAQgAAEIQAACEIAABDYQ+NKPVHhqruR66ni1N/V1spcTtXfUzK6R4R/tGeW36jObvyvPU8eqtehGml48MtbysuxpjV57r8noIQABCEAAAhBoE/iSxy3a4efd8uY8m/vsuh65qa+TvZyovaNmdo0M/2jPKL9Vn9n8XXmeOlatRTfS9OKRsZaXZU9rWuv1KzUOEIAABCAAAQgUAjymyN8DCEAAAhCAAAQgAAEIQAACBwgwjB2ATkkIQAACEIAABCAAAQhAAAJ8myJ/ByAAAQhAAAIOAuXRTXnVP5e91bXFo6V56serndH3crJiI98eD4lFa6w9eXSZWq/3jH42ZyXvZO5q7Yj84nGjT3RfWX6R7KTHUa8MY5oUawhAAAIQgECHAF9t/ysc/bnCOpoRK/49X6m/U2PtyaPL1Hq9Z/SzOSt5J3NXa0fkF48bfaL7yvKLZCc9WnrlMUVNizUEIAABCEAAAhCAAAQgAIENBBjGNkCmBAQgAAEIQAACEIAABCAAAU2AYUwTYQ0BCEAAAhCAAAQgAAEIQGADAYaxDZApAQEIQAACEIAABCAAAQhAQBNgGNNEWEMAAhCAAAQgAAEIQAACENhA4Et/Da+n5kqup45Xe1NfJ3s5UXtHzewaGf7RnlF+qz6z+bvyPHWsWotupOnFI2MtL8ue1ui195qMHgIQgAAEIACBNoEv+Yredvh5t7w5z+Y+u65HburrZC8nau+omV0jwz/aM8pv1Wc2f1eep45Va9GNNL14ZKzlZdnTmtZ6/UqNAwQgAAEIQAAChQC/Z4y/BxCAAAQgAAEHgTKgyqv+ueytri0eLc1TP17tjL6XkxUb+fZ4SCxaY+3Jo8vUer1n9LM5K3knc1drR+QXjxt9ovvK8otkJz2OemUY06RYQwACEIAABDoE+KXPv8LRd0/raEas+Pd8pf5OjbUnjy5T6/We0c/mrOSdzF2tHZFfPG70ie4ryy+SnfRo6ZUv8NC0WEMAAhCAAAQgAAEIQAACENhAgGFsA2RKQAACEIAABCAAAQhAAAIQ0AQYxjQR1hCAAAQgAAEIQAACEIAABDYQYBjbAJkSEIAABCAAAQhAAAIQgAAENAGGMU2ENQQgAAEIQAACEIAABCAAgQ0EGMY2QKYEBCAAAQhAAAIQgAAEIAABTYBhTBNhDQEIQAACEIAABCAAAQhAYAMBfs/YBsiUgAAEIACB9yHAL33+/VzqX3ZdKzJixb/nK/V3aqw9eXSZWq/3jH42ZyXvZO5q7Yj84nGjT3RfWX6R7KTHUa/fvn//66cWs4YABCAAAQg8EZBfevwUf+f9+hcJ618qvLou3EYeLY3w1rle7Yy+l5MVG/n2eEgsWmPtyaPL1Hq9Z/SzOSt5J3NXa0fkF48bfaL7yvKLZCc9Wnr9mn1TbV30deET65v6OtnLido7ambXyPCP9ozyW/WZzd+V56lj1Vp0I00vHhlreVn2tKa1PnFtpyYEIAABCEDgHQnwmbF3PKscEwQgAAEIQAACEIAABCBwPQGGsetPEQ1CAAIQgAAEIAABCEAAAu9IgGHsHc8qxwQBCEAAAhCAAAQgAAEIXE+AYez6U0SDEIAABCAAAQhAAAIQgMA7EmAYe8ezyjFBAAIQgAAEIAABCEAAAtcTYBi7/hTRIAQgAAEIQAACEIAABCDwjgT4pc/veFY5JghAAAIQSCNQvu5fXvXPZW91bfFoaZ768Wpn9L2crNjIt8dDYtEaa08eXabW6z2jn81ZyTuZu1o7Ir943OgT3VeWXyQ76XHUK8OYJsUaAhCAAAQg0CEgv5+z9TvY6t/d6Y2XkqOclkZa1ble7Yy+l5MVG/n2eEgsWmPtyaPL1Hq9Z/SzOSt5J3NXa0fkF48bfaL7yvKLZCc9WnrlMUVNizUEIAABCEAAAhCAAAQgAIENBBjGNkCmBAQgAAEIQAACEIAABCAAAU2AYUwTYQ0BCEAAAhCAAAQgAAEIQGADgS/9YWNPzZVcTx2v9qa+TvZyovaOmtk1MvyjPaP8Vn1m83fleepYtRbdSNOLR8ZaXpY9rdFr7zUZPQQgAAEIQAACbQJf9YeN25L2bnlzns1tO8bs3tTXyV5O1N5RM7tGhn+0Z5Tfqs9s/q48Tx2r1qIbaXrxyFjLy7KnNa11zNUaFwhAAAIQgAAEeEyRvwMQgAAEIAABCEAAAhCAAAQOEGAYOwCdkhCAAAQgAAEIQAACEIAABBjG+DsAAQhAAAIQgAAEIAABCEDgAAGGsQPQKQkBCEAAAhCAAAQgAAEIQOALBBCAAAQgAAEI2AmULzWRV/1z2VtdWzxamqd+vNoZfS8nKzby7fGQWLTG2pNHl6n1es/oZ3NW8k7mrtaOyC8eN/pE95XlF8lOehz1yjCmSbGGAAQgAAEIdAjINwm3vmmy/pZhb7yUHOW0NNKqzvVqZ/S9nKzYyLfHQ2LRGmtPHl2m1us9o5/NWck7mbtaOyK/eNzoE91Xll8kO+nR0iuPKWparCEAAQhAAAIQgAAEIAABCGwgwDC2ATIlIAABCEAAAhCAAAQgAAEIaAIMY5oIawhAAAIQgAAEIAABCEAAAhsIMIxtgEwJCEAAAhCAAAQgAAEIQAACD2jq4AAAHHtJREFUmgDDmCbCGgIQgAAEIAABCEAAAhCAwAYCDGMbIFMCAhCAAAQgAAEIQAACEICAJsAwpomwhgAEIAABCEAAAhCAAAQgsIHAl/4FlZ6aK7meOl7tTX2d7OVE7R01s2tk+Ed7Rvmt+szm78rz1LFqLbqRphePjLW8LHtao9feazJ6CEAAAhCAAATaBL7qX1DZlrR3y5vzbG7bMWb3pr5O9nKi9o6a2TUy/KM9o/xWfWbzd+V56li1Ft1I04tHxlpelj2taa1jrta4QAACEIAABCDAY4r8HYAABCAAAQhAAAIQgAAEIHCAwNeBmpSEAAQgAAEIvCyBcrdQXvXPZW91bfFoaZ768Wpn9L2crNjIt8dDYtEaa08eXabW6z2jn81ZyTuZu1o7Ir943OgT3VeWXyQ76XHUK8OYJsUaAhCAAAQg0CEgj+i3HuGsH9/3xkvJUU5LI63qXK92Rt/LyYqNfHs8JBatsfbk0WVqvd4z+tmclbyTuau1I/KLx40+0X1l+UWykx4tvfKYoqbFGgIQgAAEIAABCEAAAhCAwAYCDGMbIFMCAhCAAAQgAAEIQAACEICAJsAwpomwhgAEIAABCEAAAhCAAAQgsIEAw9gGyJSAAAQgAAEIQAACEIAABCCgCTCMaSKsIQABCEAAAhCAAAQgAAEIbCDAMLYBMiUgAAEIQAACEIAABCAAAQhoAgxjmghrCEAAAhCAAAQgAAEIQAACGwgwjG2ATAkIQAACEIAABCAAAQhAAAKaAMOYJsIaAhCAAAQgAAEIQAACEIDABgIMYxsgUwICEIAABCAAAQhAAAIQgIAmwDCmibCGAAQgAAEIQAACEIAABCCwgcDXn3/+Z7rMSu50UUPiTX2d7OVE7R01s2tk+Ed7Rvmt+szm78rz1LFqLbqRphePjLW8LHtao9eGyzASCEAAAhCAAAQMBL79/Odl0P0mKW/OP378/dv+6Y2b+jrZy4naO2pm18jwj/aM8lv1mc3fleepY9VadCNNLx4Za3lZ9rRmtD59zd9dv/DgBQEIQAACEIgi8BVlhA8EIAABCEDgEwjIP0SOBlVvvLAb5bQ0wlznerUz+l5OVmzk2+MhsWiNtSePLlPr9Z7Rz+as5J3MXa0dkV88bvSJ7ivLL5Kd9Gjplc+MaVqsIQABCEAAAhCAAAQgAAEIbCDAMLYBMiUgAAEIQAACEIAABCAAAQhoAgxjmghrCEAAAhCAAAQgAAEIQAACGwgwjG2ATAkIQAACEIAABCAAAQhAAAKaAMOYJsIaAhCAAAQgAAEIQAACEIDABgIMYxsgUwICEIAABCAAAQhAAAIQgIAmwDCmibCGAAQgAAEIQAACEIAABCCwgQDD2AbIlIAABCAAAQhAAAIQgAAEIKAJMIxpIqwhAAEIQAACEIAABCAAAQhsIMAwtgEyJSAAAQhAAAIQgAAEIAABCGgCDGOaCGsIQAACEIAABCAAAQhAAAIbCDCMbYBMCQhAAAIQgAAEIAABCEAAAprAl95gDQEIQAACEIDAM4E///zPf4P1z2VzdW3xaGmkIV3fq53R93KyYiPfHg+JRWusPXl0mVqv94x+Nmcl72Tuau2I/OJxo090X1l+keykx1GvDGOaFGsIQAACEIBAh8CPH3//Gy2Dj/wcsbZ4tDTSqu7Hq53R93KyYiPfHg+JRWusPXl0mVqv94x+Nmcl72Tuau2I/OJxo090X1l+keykR0uvX61/RdMGT+uV3CfPiP2b+jrZy4naO2pm18jwj/aM8lv1mc3fleepY9VadCNNLx4Za3lZ9rRGryOu03hAAAIQgAAEIPDHH1/1v+p5gJQ359lcTx2v9qa+TvZyovaOmtk1MvyjPaP8Vn1m83fleepYtRbdSNOLR8ZaXpY9rWmtvddl9BCAAAQgAAEItAnwBR5tLuxCAAIQgAAEIAABCEAAAhBIJcAwlooXcwhAAAIQgAAEIAABCEAAAm0CDGNtLuxCAAIQgAAEIAABCEAAAhBIJcAwlooXcwhAAAIQgAAEIAABCEAAAm0CDGNtLuxCAAIQgAAEIAABCEAAAhBIJcAwlooXcwhAAAIQgAAEIAABCEAAAm0CDGNtLuxCAAIQgAAEIAABCEAAAhBIJcAwlooXcwhAAAIQgAAEIAABCEAAAm0CDGNtLuxCAAIQgAAEIAABCEAAAhBIJcAwlooXcwhAAAIQgAAEIAABCEAAAm0CDGNtLuxCAAIQgAAEIAABCEAAAhBIJcAwlooXcwhAAAIQgAAEIAABCEAAAm0CX+1tdiEAAQhAAAIQaBH488///He7/rlsrq4tHi2NNKTre7Uz+l5OVmzk2+MhsWiNtSePLlPr9Z7Rz+as5J3MXa0dkV88bvSJ7ivLL5Kd9DjqlWFMk2INAQhAAAIQ6BD48ePvf6Nl8JGfI9YWj5ZGWtX9eLUz+l5OVmzk2+MhsWiNtSePLlPr9Z7Rz+as5J3MXa0dkV88bvSJ7ivLL5Kd9Gjp9av1r2ja4Gm9kvvkGbF/U18nezlRe0fN7BoZ/tGeUX6rPrP5u/I8daxai26k6cUjYy0vy57W6HXEdRoPCEAAAhCAAAT++OOr/lc9D5Dy5jyb66nj1d7U18leTtTeUTO7RoZ/tGeU36rPbP6uPE8dq9aiG2l68chYy8uypzWttfe6jB4CEIAABCAAgTYBvsCjzYVdCEAAAhCAAAQgAAEIQAACqQQYxlLxYg4BCEAAAhCAAAQgAAEIQKBNgGGszYVdCEAAAhCAAAQgAAEIQAACqQQYxlLxYg4BCEAAAhCAAAQgAAEIQKBNgGGszYVdCEAAAhCAAAQgAAEIQAACqQQYxlLxYg4BCEAAAhCAAAQgAAEIQKBNgGGszYVdCEAAAhCAAAQgAAEIQAACqQQYxlLxYg4BCEAAAhCAAAQgAAEIQKBNgGGszYVdCEAAAhCAAAQgAAEIQAACqQQYxlLxYg4BCEAAAhCAAAQgAAEIQKBNgGGszYVdCEAAAhCAAAQgAAEIQAACqQS+Ut0xhwAEIAABCLwZgT///M9/j6j+uWyuri0eLY00pOt7tTP6Xk5WbOTb4yGxaI21J48uU+v1ntHP5qzkncxdrR2RXzxu9InuK8svkp30OOr12/fvf/3UYtYQgAAEIACBJwI/fvz9FHr7/TLsyPHXP5cDX11bPFoaga7re7Uz+l5OVmzk2+MhsWiNtSePLlPr9Z7Rz+as5J3MXa0dkV88bvSJ7ivLL5Kd9Gjp9Wv2TbV10deFT6xv6utkLydq76iZXSPDP9ozym/VZzZ/V56njlVr0Y00vXhkrOVl2dOa1vrEtZ2aEIAABCAAgXckwGfG3vGsckwQgAAEIAABCEAAAhCAwPUEGMauP0U0CAEIQAACEIAABCAAAQi8IwGGsXc8qxwTBCAAAQhAAAIQgAAEIHA9AYax608RDUIAAhCAAAQgAAEIQAAC70iAYewdzyrHBAEIQAACEIAABCAAAQhcT4Bh7PpTRIMQgAAEIAABCEAAAhCAwDsSYBh7x7PKMUEAAhCAAAQgAAEIQAAC1xNgGLv+FNEgBCAAAQhAAAIQgAAEIPCOBBjG3vGsckwQgAAEIAABCEAAAhCAwPUEGMauP0U0CAEIQAACEIAABCAAAQi8I4GvdzwojgkCEIAABCCQReDPP//zX+v657K5urZ4tDTSkK7v1c7oezlZsZFvj4fEojXWnjy6TK3Xe0Y/m7OSdzJ3tXZEfvG40Se6ryy/SHbS46jXb9+///VTi1lDAAIQgAAEngj8+PH3U+jt98uwI8df/1wOfHVt8WhpBLqu79XO6Hs5WbGRb4+HxKI11p48ukyt13tGP5uzkncyd7V2RH7xuNEnuq8sv0h20qOl16/ZN9XWRV8XPrG+qa+TvZyovaNmdo0M/2jPKL9Vn9n8XXmeOlatRTfS9OKRsZaXZU9rWusT13ZqQgACEIAABN6RAJ8Ze8ezyjFBAAIQgAAEIAABCEAAAtcTYBi7/hTRIAQgAAEIQAACEIAABCDwjgQYxt7xrHJMEIAABCAAAQhAAAIQgMD1BBjGrj9FNAgBCEAAAhCAAAQgAAEIvCMBhrF3PKscEwQgAAEIQAACEIAABCBwPQGGsetPEQ1CAAIQgAAEIAABCEAAAu9IgGHsHc8qxwQBCEAAAhCAAAQgAAEIXE+AYez6U0SDEIAABCAAAQhAAAIQgMA7EmAYe8ezyjFBAAIQgAAEIAABCEAAAtcT+Lq+QxqEAAQgAAEIXETgzz//899u6p/L5ura4tHSSEO6vlc7o+/lZMVGvj0eEovWWHvy6DK1Xu8Z/WzOSt7J3NXaEfnF40af6L6y/CLZSY+jXr99//7XTy1mDQEIQAACEHgi8OPH30+ht98vw44cf/1zOfDVtcWjpRHour5XO6Pv5WTFRr49HhKL1lh78ugytV7vGf1szkreydzV2hH5xeNGn+i+svwi2UmPll6/Zt9UWxd9XfjE+qa+TvZyovaOmtk1MvyjPaP8Vn1m83fleepYtRbdSNOLR8ZaXpY9rWmtT1zbqQkBCEAAAhB4RwJ8ZuwdzyrHBAEIQAACEIAABCAAAQhcT4Bh7PpTRIMQgAAEIAABCEAAAhCAwDsSYBh7x7PKMUEAAhCAAAQgAAEIQAAC1xNgGLv+FNEgBCAAAQhAAAIQgAAEIPCOBBjG3vGsckwQgAAEIAABCEAAAhCAwPUEGMauP0U0CAEIQAACEIAABCAAAQi8IwGGsXc8qxwTBCAAAQhAAAIQgAAEIHA9AYax608RDUIAAhCAAAQgAAEIQAAC70jg6x0PimOCAAQgAAEIZBEovwhbXvXPZW91bfFoaZ768Wpn9L2crNjIt8dDYtEaa08eXabW6z2jn81ZyTuZu1o7Ir943OgT3VeWXyQ76XHU67fv3//6qcWsIQABCEAAAk8Efvz4+yn09vtl2JLjr38uB766tni0NAJd1/dqZ/S9nKzYyLfHQ2LRGmtPHl2m1us9o5/NWck7mbtaOyK/eNzoE91Xll8kO+nR0uvX7Jtq66KvC59Y39TXyV5O1N5RM7tGhn+0Z5Tfqs9s/q48Tx2r1qIbaXrxyFjLy7KnNa31iWs7NSEAAQhAAALvSIDPjL3jWeWYIAABCEAAAhCAAAQgAIHrCTCMXX+KaBACEIAABCAAAQhAAAIQeEcCDGPveFY5JghAAAIQgAAEIAABCEDgegIMY9efIhqEAAQgAAEIQAACEIAABN6RAMPYO55VjgkCEIAABCAAAQhAAAIQuJ4Aw9j1p4gGIQABCEAAAhCAAAQgAIF3JMAw9o5nlWOCAAQgAAEIQAACEIAABK4n8HV9hzQIAQhAAAIQuIhA+d1r8qp/Lnura4tHS/PUj1c7o+/lZMVGvj0eEovWWHvy6DK1Xu8Z/WzOSt7J3NXaEfnF40af6L6y/CLZSY+jXr99//7XTy1mDQEIQAACEHgi8OPH30+ht9+vfwl26xdi12y88QJvlNPSCHSd69XO6Hs5WbGRb4+HxKI11p48ukyt13tGP5uzkncyd7V2RH7xuNEnuq8sv0h20qOl16/ZN9XWRV8XPrG+qa+TvZyovaNmdo0M/2jPKL9Vn9n8XXmeOlatRTfS9OKRsZaXZU9rWusT13ZqQgACEIAABN6RAJ8Ze8ezyjFBAAIQgAAEIAABCEAAAtcTYBi7/hTRIAQgAAEIQAACEIAABCDwjgQYxt7xrHJMEIAABCAAAQhAAAIQgMD1BBjGrj9FNAgBCEAAAhCAAAQgAAEIvCMBhrF3PKscEwQgAAEIQAACEIAABCBwPQGGsetPEQ1CAAIQgAAEIAABCEAAAu9IgF/6/I5nlWOCAAQgAIE0AuXr/uVV/1z2VtcWj5bmqR+vdkbfy8mKjXx7PCQWrbH25NFlar3eM/rZnJW8k7mrtSPyi8eNPtF9ZflFspMeR73yS581KdYQgAAEINAlMPv7KbumLxKsf+9a63ew8Uuffz2RmlEdnY0Vj16u1Nipsfbk0WVqvd4z+tmclbyTuau1I/KLx40+0X1l+UWykx4tvfJLnzWtwLXljSCw3C9WJ2rvqJldI8M/2jPKb9VnNn9XnqeOVWvRjTS9eGSs5WXZ05rWOuu6hS8EIAABCEDg0wjwmbFPO+McLwQgAAEIQAACEIAABCBwBQGGsStOA01AAAIQgAAEIAABCEAAAp9GgGHs0844xwsBCEAAAhCAAAQgAAEIXEGAYeyK00ATEIAABCAAAQhAAAIQgMCnEWAY+7QzzvFCAAIQgAAEIAABCEAAAlcQ4PeMXXEaaAICEIAABF6FQPmGSXnVP5e91bXFo6V56serndH3crJiI98eD4lFa6w9eXSZWq/3jH42ZyXvZO5q7Yj84nGjT3RfWX6R7KTHUa/8njFNijUEIAABCHQJ8HvG/v6XT+tr//k9Y7/+1dGM6uhsrMW+9Re25y/6KI21J48uU+v1ntHP5qzkncxdrR2RXzxu9InuK8svkp30aOmV3zOmaQWuLRf5wHK/WJ2ovaNmdo0M/2jPKL9Vn9n8XXmeOlatRTfS9OKRsZaXZU9rWuus6xa+EIAABCAAgU8jwGfGPu2Mc7wQgAAEIAABCEAAAhCAwBUEGMauOA00AQEIQAACEIAABCAAAQh8GgGGsU874xwvBCAAAQhAAAIQgAAEIHAFAYaxK04DTUAAAhCAAAQgAAEIQAACn0aAYezTzjjHCwEIQAACEIAABCAAAQhcQYCvtr/iNNAEBCAAgdch8Olfbf86Z4pOIQABCEDgdgJ8tX3iGdJfCZ1Y6jfrE7V31MyukeEf7Rnlt+ozm78rz1PHqrXoRppePDLW8rLsaU1r/dsF58M2ZBhtseH3jP36l0EzqqOzseLRy5UaOzXWnjy6TK3Xe0Y/m7OSdzJ3tXZEfvG40Se6ryy/SHbSo6VXHlPUtFhDAAIQgAAEIAABCEAAAhDYQIBhbANkSkAAAhCAAAQgAAEIQAACENAEGMY0EdYQgAAEIAABCEAAAhCAAAQ2EGAY2wCZEhCAAAQgAAEIQAACEIAABDQBhjFNhDUEIAABCEAAAhCAAAQgAIENBPhq+w2QKQEBCEDgnQjw1fbvdDY5FghAAAIQOEmAr7ZPpG/5Wt2s8idq76iZXSPDP9ozym/VZzZ/V56njlVr0Y00vXhkrOVl2dOa1jrruvUqvny1/a9nSv8dqaMZseLf85X6OzXWnjy6TK3Xe0Y/m7OSdzJ3tXZEfvG40Se6ryy/SHbSo6VXHlPUtFhDAAIQgAAEIAABCEAAAhDYQIBhbANkSkAAAhCAAAQgAAEIQAACENAEGMY0EdYQgAAEIAABCEAAAhCAAAQ2EGAY2wCZEhCAAAQgAAEIQAACEIAABDQBvk1RE2ENAQhAAAJdAnybYhcPQQhAAAIQgICZAN+maEblF1q+ycnvass4UXtHzewaGf7RnlF+qz6z+bvyPHWsWotupOnFI2MtL8ue1rTWtqvQ+6r4NsVfz63+O1JHM2LFv+cr9XdqrD15dJlar/eMfjZnJe9k7mrtiPzicaNPdF9ZfpHspEdLrzymqGmxhgAEIAABCEAAAhCAAAQgsIEAw9gGyJSAAAQgAAEIQAACEIAABCCgCTCMaSKsIQABCEAAAhCAAAQgAAEIbCDwtaEGJSAAAQhAAAJvQ6B8Fkle9c9lb3Vt8Whpnvrxamf0vZys2Mi3x0Ni/6+dO9qNEwaiAKpK/f9fbssD0q5D2LE9Y0g5eSrLzB3nsEplCciuia6pp66ytjd7pH60Z6bvyt7Z2Rn9W8Ydc7LXVZWXabev8dNavU2xlXJMgAABAqcCT3+bohd4vH89zl6UUXFum36Wu69uZU10TT11lbW92SP1oz0zfVf2zs7O6N8y7piTva6qvEy7fY2RtXqbYquVeBz5jyBx3FvUFbNXzKyeUZGfnZmVN5sz2r+qr2dOtDZS96nm7HzmuaOsyGdtzdFx1d8tuQQIECBA4GkCnhl72hX3+xIgQIAAAQIECBAgcAsBm7FbXAaLIECAAAECBAgQIEDgaQI2Y0+74n5fAgQIECBAgAABAgRuIeAFHre4DBZBgACBnyPw9Bd4/JwrZaUECBAgcHcBL/AovELtg++Fo75EXzF7xczqGRX52ZlZebM5o/2r+nrmRGsjdZ9qzs5nnjvKinzW1hwdf/mD87APvE3x/YK335HXsxXntvyz3H3+ypromnrqKmt7s0fqR3tm+q7snZ2d0b9l3DEne11VeZl2+xoja3WbYqvlmAABAgQIECBAgAABAgsEbMYWIBtBgAABAgQIECBAgACBVsAzY62IYwIECBA4FfDM2CmPkwQIECBAICzgmbEwVX9h5H71/tRYxxWzV8ysnlGRn52ZlTebM9q/qq9nTrQ2Uvep5ux85rmjrMhnbc3Rceyv0P9b5Zmx92vbfkdez1ac2/LPcvf5K2uia+qpq6ztzR6pH+2Z6buyd3Z2Rv+Wccec7HVV5WXa7WuMrNVtiq2WYwIECBAgQIAAAQIECCwQsBlbgGwEAQIECBAgQIAAAQIEWoHf7QeOCRAgQIAAge8Fttvf9p/Xf2+fzR5HMo5qvltPb+1I/VlP1blPuWce+7nsmuiaeuoqa3uzR+pHe2b6ruydnZ3Rv2XcMSd7XVV5mXb7Gj+t1Qs8WinHBAgQIHAq8PQXeHhm7P3rcfZsVsW5bfpZ7r66lTXRNfXUVdb2Zo/Uj/bM9F3ZOzs7o3/LuGNO9rqq8jLt9jVG1uoFHq1W4nHkP4LEcW9RV8xeMbN6RkV+dmZW3mzOaP+qvp450dpI3aeas/OZ546yIp+1NUfHVX+35BIgQIAAgacJeGbsaVfc70uAAAECBAgQIECAwC0E3KZ4i8tgEQQIEPg5Ak+/TfHnXCkrJUCAAIG7C7hNsfAKtbf3FI76En3F7BUzq2dU5GdnZuXN5oz2r+rrmROtjdR9qjk7n3nuKCvyWVtzdPzlD87DPvDM2PsFb78jr2crzm35Z7n7/JU10TX11FXW9maP1I/2zPRd2Ts7O6N/y7hjTva6qvIy7fY1RtbqNsVWyzEBAgQIECBAgAABAgQWCNiMLUA2ggABAgQIECBAgAABAq2AZ8ZaEccECBAg8K3Ak58X21C2W9/8ECBAgACBLIFff/79ZIXJIUCAAAECBAgQIECAAIGYgNsUY06qCBAgQIAAAQIECBAgkCpgM5bKKYwAAQIECBAgQIAAAQIxAZuxmJMqAgQIECBAgAABAgQIpArYjKVyCiNAgAABAgQIECBAgEBMwGYs5qSKAAECBAgQIECAAAECqQI2Y6mcwggQIECAAAECBAgQIBATsBmLOakiQIAAAQIECBAgQIBAqoDNWCqnMAIECBAgQIAAAQIECMQEbMZiTqoIECBAgAABAgQIECCQKmAzlsopjAABAgQIECBAgAABAjEBm7GYkyoCBAgQIECAAAECBAikCtiMpXIKI0CAAAECBAgQIECAQEzAZizmpIoAAQIECBAgQIAAAQKpAjZjqZzCCBAgQIAAAQIECBAgEBOwGYs5qSJAgAABAgQIECBAgECqgM1YKqcwAgQIECBAgAABAgQIxARsxmJOqggQIECAAAECBAgQIJAqYDOWyimMAAECBAgQIECAAAECMQGbsZiTKgIECBAgQIAAAQIECKQK2IylcgojQIAAAQIECBAgQIBATMBmLOakigABAgQIECBAgAABAqkCNmOpnMIIECBAgAABAgQIECAQE/gLRW73SHItDkoAAAAASUVORK5CYII=;" parent="1" vertex="1">
          <mxGeometry x="460" y="50" width="407.86" height="294.96" as="geometry" />
        </mxCell>
        <mxCell id="anlM4kEG1VwZlz8mWikU-3" value="" style="endArrow=classic;startArrow=classic;html=1;rounded=0;exitX=0.932;exitY=0.001;exitDx=0;exitDy=0;exitPerimeter=0;entryX=1.008;entryY=0.001;entryDx=0;entryDy=0;entryPerimeter=0;" parent="1" source="anlM4kEG1VwZlz8mWikU-1" target="anlM4kEG1VwZlz8mWikU-1" edge="1">
          <mxGeometry width="50" height="50" relative="1" as="geometry">
            <mxPoint x="330" y="90" as="sourcePoint" />
            <mxPoint x="380" y="40" as="targetPoint" />
          </mxGeometry>
        </mxCell>
        <mxCell id="anlM4kEG1VwZlz8mWikU-5" value="\( R \Delta \theta^+ \)" style="text;html=1;align=center;verticalAlign=middle;whiteSpace=wrap;rounded=0;fontSize=27;" parent="1" vertex="1">
          <mxGeometry x="350" y="10" width="60" height="30" as="geometry" />
        </mxCell>
        <mxCell id="anlM4kEG1VwZlz8mWikU-6" value="Orifice sharp edge not meshed" style="text;html=1;align=center;verticalAlign=middle;whiteSpace=wrap;rounded=0;fontFamily=Roman;fontSource=https%3A%2F%2Ffonts.googleapis.com%2Fcss%3Ffamily%3DRoman;fontSize=27;" parent="1" vertex="1">
          <mxGeometry x="358.4" y="10" width="611.07" height="30" as="geometry" />
        </mxCell>
        <mxCell id="anlM4kEG1VwZlz8mWikU-7" value="" style="endArrow=classic;startArrow=classic;html=1;rounded=0;entryX=0.065;entryY=1.001;entryDx=0;entryDy=0;entryPerimeter=0;" parent="1" target="anlM4kEG1VwZlz8mWikU-2" edge="1">
          <mxGeometry width="50" height="50" relative="1" as="geometry">
            <mxPoint x="464" y="345" as="sourcePoint" />
            <mxPoint x="450" y="320" as="targetPoint" />
          </mxGeometry>
        </mxCell>
        <mxCell id="anlM4kEG1VwZlz8mWikU-8" value="\( \Delta z^+ \)" style="text;html=1;align=center;verticalAlign=middle;whiteSpace=wrap;rounded=0;fontSize=27;" parent="1" vertex="1">
          <mxGeometry x="450" y="344.96" width="60" height="30" as="geometry" />
        </mxCell>
        <mxCell id="anlM4kEG1VwZlz8mWikU-14" style="edgeStyle=orthogonalEdgeStyle;rounded=0;orthogonalLoop=1;jettySize=auto;html=1;exitX=0.5;exitY=0;exitDx=0;exitDy=0;endSize=2;" parent="1" source="anlM4kEG1VwZlz8mWikU-9" edge="1">
          <mxGeometry relative="1" as="geometry">
            <mxPoint x="590" y="335" as="targetPoint" />
          </mxGeometry>
        </mxCell>
        <mxCell id="anlM4kEG1VwZlz8mWikU-9" value="\( y^+_{D} \)" style="text;html=1;align=center;verticalAlign=middle;whiteSpace=wrap;rounded=0;fontSize=27;" parent="1" vertex="1">
          <mxGeometry x="580" y="345.96" width="20" height="20" as="geometry" />
        </mxCell>
        <mxCell id="anlM4kEG1VwZlz8mWikU-10" value="&lt;div style=&quot;font-size: 22px;&quot;&gt;\( y^+_{d} \)&lt;/div&gt;" style="text;html=1;align=center;verticalAlign=middle;whiteSpace=wrap;rounded=0;fontSize=22;" parent="1" vertex="1">
          <mxGeometry x="635.89" y="200" width="56.07" height="30" as="geometry" />
        </mxCell>
        <mxCell id="anlM4kEG1VwZlz8mWikU-11" value="" style="endArrow=classic;html=1;rounded=0;exitX=0.44;exitY=-0.019;exitDx=0;exitDy=0;exitPerimeter=0;entryX=0.466;entryY=0.475;entryDx=0;entryDy=0;entryPerimeter=0;endSize=2;" parent="1" source="anlM4kEG1VwZlz8mWikU-10" target="anlM4kEG1VwZlz8mWikU-2" edge="1">
          <mxGeometry width="50" height="50" relative="1" as="geometry">
            <mxPoint x="490" y="300" as="sourcePoint" />
            <mxPoint x="540" y="250" as="targetPoint" />
          </mxGeometry>
        </mxCell>
        <mxCell id="anlM4kEG1VwZlz8mWikU-15" value="" style="endArrow=classic;startArrow=none;html=1;rounded=0;endSize=1;startSize=1;startFill=0;" parent="1" edge="1">
          <mxGeometry width="50" height="50" relative="1" as="geometry">
            <mxPoint x="394" y="227" as="sourcePoint" />
            <mxPoint x="302" y="240" as="targetPoint" />
          </mxGeometry>
        </mxCell>
        <mxCell id="anlM4kEG1VwZlz8mWikU-16" value="" style="endArrow=classic;html=1;rounded=0;endSize=1;" parent="1" edge="1">
          <mxGeometry width="50" height="50" relative="1" as="geometry">
            <mxPoint x="394" y="227" as="sourcePoint" />
            <mxPoint x="309" y="245" as="targetPoint" />
          </mxGeometry>
        </mxCell>
        <mxCell id="anlM4kEG1VwZlz8mWikU-17" value="\( \Delta c^+ \)" style="text;html=1;align=center;verticalAlign=middle;whiteSpace=wrap;rounded=0;fontSize=27;" parent="1" vertex="1">
          <mxGeometry x="400" y="209.99999999999997" width="60" height="30" as="geometry" />
        </mxCell>
        <mxCell id="wLlQRmRSQfqe1XnFVE53-2" value="Orifice sharp edge meshed" style="text;html=1;align=center;verticalAlign=middle;whiteSpace=wrap;rounded=0;fontFamily=Roman;fontSource=https%3A%2F%2Ffonts.googleapis.com%2Fcss%3Ffamily%3DRoman;fontSize=25;" parent="1" vertex="1">
          <mxGeometry x="560" y="640" width="269.94" height="30" as="geometry" />
        </mxCell>
        <mxCell id="wLlQRmRSQfqe1XnFVE53-3" value="" style="shape=image;verticalLabelPosition=bottom;labelBackgroundColor=default;verticalAlign=top;aspect=fixed;imageAspect=0;image=data:image/png,iVBORw0KGgoAAAANSUhEUgAAArIAAAI3CAYAAABnBLjrAAAABHNCSVQICAgIfAhkiAAAIABJREFUeF7t3Y1u4zYWBtBokfd/ZW/UXRUaDkmJIq8sOmeAoh3+XFKHsv3BdZzl9fPna/dnWZavpGnfPfy/71gvco2I2iNrjqjVW+Pq/CvzWue0jD8zdsSYoxql/lL7+qCN6IuqG7FXNf94mv/jeZxN3mYWF4/DcmaZ5Qxr+3S+x+f7n+HJVEECBAgQIECAAAECNwgIsjcgW4IAAQIECBAgQGC8gCA73lRFAgQIECBAgACBGwQE2RuQLUGAAAECBAgQIDBeQJAdb6oiAQIECBAgQIDADQKC7A3IliBAgAABAgQIEBgvIMiON1WRAAECBAgQIEDgBgFB9gZkSxAgQIAAAQIECIwXEGTHm6pIgAABAgQIECBwg4AgewOyJQgQIECAAAECBMYLCLLjTVUkQIAAAQIECBC4QUCQvQHZEgQIECBAgAABAuMFBNnxpioSIECAAAECBAjcICDI3oBsCQIECBAgQIAAgfECgux4UxUJECBAgAABAgRuEBBkb0C2BAECBAgQIECAwHgBQXa8qYoECBAgQIAAAQI3CAiyNyBbggABAgQIECBAYLyAIDveVEUCBAgQIECAAIEbBATZG5AtQYAAAQIECBAgMF5AkB1vqiIBAgQIECBAgMANAoLsDciWIECAAAECBAgQGC8gyI43VZEAAQIECBAgQOAGAUH2BmRLECBAgAABAgQIjBcQZMebqkiAAAECBAgQIHCDgCB7A7IlCBAgQIAAAQIExgssPyVf48uqSIAAAQIECBAgQCBW4Pv1+jPHLsvylbZFbuGO9SLXiKg9suaIWr01rs6/Mq91Tsv4M2NHjDmqUeovta+P34i+qLoRe1Wz/H4Fm7zNLC4eh+XMMssZ1vbpfI/P10cLIlO62gQIECBAgAABAmECgmwYrcIECBAgQIAAAQKRAoJspK7aBAgQIECAAAECYQKCbBitwgQIECBAgAABApECgmykrtoECBAgQIAAAQJhAoJsGK3CBAgQIECAAAECkQKCbKSu2gQIECBAgAABAmECgmwYrcIECBAgQIAAAQKRAoJspK7aBAgQIECAAAECYQKCbBitwgQIECBAgAABApECgmykrtoECBAgQIAAAQJhAoJsGK3CBAgQIECAAAECkQKCbKSu2gQIECBAgAABAmECgmwYrcIECBAgQIAAAQKRAoJspK7aBAgQIECAAAECYQKCbBitwgQIECBAgAABApECgmykrtoECBAgQIAAAQJhAoJsGK3CBAgQIECAAAECkQKCbKSu2gQIECBAgAABAmECgmwYrcIECBAgQIAAAQKRAoJspK7aBAgQIECAAAECYQKCbBitwgQIECBAgAABApECgmykrtoECBAgQIAAAQJhAoJsGK3CBAgQIECAAAECkQLLT/FX5AJqEyBAgAABAgQIEIgQ+H69/syxy7J8pW0RC28171gvco2I2iNrjqjVW+Pq/CvzWue0jD8zdsSYoxql/lL7+liL6IuqG7FXNcvvV7DJ28zi4nFYziyznGFtn873+Hx9tCAypatNgAABAgQIECAQJiDIhtEqTIAAAQIECBAgECkgyEbqqk2AAAECBAgQIBAmIMiG0SpMgAABAgQIECAQKSDIRuqqTYAAAQIECBAgECYgyIbRKkyAAAECBAgQIBApIMhG6qpNgAABAgQIECAQJiDIhtEqTIAAAQIECBAgECkgyEbqqk2AAAECBAgQIBAmIMiG0SpMgAABAgQIECAQKSDIRuqqTYAAAQIECBAgECYgyIbRKkyAAAECBAgQIBApIMhG6qpNgAABAgQIECAQJiDIhtEqTIAAAQIECBAgECkgyEbqqk2AAAECBAgQIBAmIMiG0SpMgAABAgQIECAQKSDIRuqqTYAAAQIECBAgECYgyIbRKkyAAAECBAgQIBApIMhG6qpNgAABAgQIECAQJiDIhtEqTIAAAQIECBAgECkgyEbqqk2AAAECBAgQIBAmIMiG0SpMgAABAgQIECAQKbD8FH9FLqA2AQIECBAgQIAAgQiB79frzxy7LMtX2hax8FbzjvUi14ioPbLmiFq9Na7OvzKvdU7L+DNjR4w5qlHqL7Wvj7WIvqi6EXtVs/x+BZu8zSwuHoflzDLLGdb26XyPz9dHCyJTutoECBAgQIAAAQJhAoJsGK3CBAgQIECAAAECkQKCbKSu2gQIECBAgAABAmECgmwYrcIECBAgQIAAAQKRAoJspK7aBAgQIECAAAECYQKCbBitwgQIECBAgAABApECgmykrtoECBAgQIAAAQJhAoJsGK3CBAgQIECAAAECkQKCbKSu2gQIECBAgAABAmECgmwYrcIECBAgQIAAAQKRAoJspK7aBAgQIECAAAECYQKCbBitwgQIECBAgAABApECgmykrtoECBAgQIAAAQJhAoJsGK3CBAgQIECAAAECkQKCbKSu2gQIECBAgAABAmECgmwYrcIECBAgQIAAAQKRAoJspK7aBAgQIECAAAECYQKCbBitwgQIECBAgAABApECgmykrtoECBAgQIAAAQJhAstP5VdYdYUJECBAgAABAgQIBAl8v15/5thlWb7StqC1/yl7x3qRa0TUHllzRK3eGlfnX5nXOqdl/JmxI8Yc1Sj1l9qPHmdX50XVvbof8/LvSdRcnGH59a7m9qQ+Zzj/GdbuJ+d7fL4+WvBPnPaHAAECBAgQIEBgNgFBdrYTs18CBAgQIECAAIF/BARZNwIBAgQIECBAgMCUAoLslMdm0wQIECBAgAABAoKse4AAAQIECBAgQGBKAUF2ymOzaQIECBAgQIAAAUHWPUCAAAECBAgQIDClgCA75bHZNAECBAgQIECAgCDrHiBAgAABAgQIEJhSQJCd8thsmgABAgQIECBAQJB1DxAgQIAAAQIECEwpIMhOeWw2TYAAAQIECBAgIMi6BwgQIECAAAECBKYUEGSnPDabJkCAAAECBAgQEGTdAwQIECBAgAABAlMKCLJTHptNEyBAgAABAgQICLLuAQIECBAgQIAAgSkFlp9dv6bcuU0TIECAAAECBAj8aoHv1+vPHLssy1faFil0x3qRa0TUHllzRK3eGlfnX5nXOqdl/JmxI8Yc1Sj1l9rXx29EX1TdiL2qWX6/gk3eZhYXj8NyZpnlDGv7dL7H5+ujBZEpXW0CBAgQIECAAIEwAUE2jFZhAgQIECBAgACBSAFBNlJXbQIECBAgQIAAgTABQTaMVmECBAgQIECAAIFIAUE2UldtAgQIECBAgACBMAFBNoxWYQIECBAgQIAAgUgBQTZSV20CBAgQIECAAIEwAUE2jFZhAgQIECBAgACBSAFBNlJXbQIECBAgQIAAgTABQTaMVmECBAgQIECAAIFIAUE2UldtAgQIECBAgACBMAFBNoxWYQIECBAgQIAAgUgBQTZSV20CBAgQIECAAIEwAUE2jFZhAgQIECBAgACBSAFBNlJXbQIECBAgQIAAgTCB5afyK6y6wgQIECBAgAABAgSCBL5frz9z7LIsX2lb0Nr/lL1jvcg1ImqPrDmiVm+Nq/OvzGud0zL+zNgRY45qlPpL7UePs6vzoupe3Y95+fckai7OsPx6V3N7Up8znP8Ma/eT8z0+Xx8t+CdO+0OAAAECBAgQIDCbgCA724nZLwECBAgQIECAwD8CgqwbgQABAgQIECBAYEoBQXbKY7NpAgQIECBAgAABQdY9QIAAAQIECBAgMKWAIDvlsdk0AQIECBAgQICAIOseIECAAAECBAgQmFJAkJ3y2GyaAAECBAgQIEBAkHUPECBAgAABAgQITCkgyE55bDZNgAABAgQIECAgyLoHCBAgQIAAAQIEphQQZKc8NpsmQIAAAQIECBAQZN0DBAgQIECAAAECUwosP7t+TblzmyZAgAABAgQIEPjVAt+v1585dlmWr7QtUuiO9SLXiKg9suaIWr01rs6/Mq91Tsv4M2NHjDmqUeovta+P34i+qLoRe1Wz/H4Fm7zNLC4eh+XMMssZ1vbpfI/P10cLIlO62gQIECBAgAABAmECgmwYrcIECBAgQIAAAQKRAoJspK7aBAgQIECAAAECYQKCbBitwgQIECBAgAABApECgmykrtoECBAgQIAAAQJhAoJsGK3CBAgQIECAAAECkQKCbKSu2gQIECBAgAABAmECgmwYrcIECBAgQIAAAQKRAoJspK7aBAgQIECAAAECYQKCbBitwgQIECBAgAABApECgmykrtoECBAgQIAAAQJhAoJsGK3CBAgQIECAAAECkQLLT/FX5AJqEyBAgAABAgQIEIgQ+H69/syxy7J8pW0RC28171gvco2I2iNrjqjVW+Pq/CvzWue0jD8zdsSYoxql/lL7+liL6IuqG7FXNcvvV7DJ28zi4nFYziyznGFtn873+Hx9tCAypatNgAABAgQIECAQJiDIhtEqTIAAAQIECBAgECkgyEbqqk2AAAECBAgQIBAmIMiG0SpMgAABAgQIECAQKSDIRuqqTYAAAQIECBAgECYgyIbRKkyAAAECBAgQIBApIMhG6qpNgAABAgQIECAQJiDIhtEqTIAAAQIECBAgECkgyEbqqk2AAAECBAgQIBAmIMiG0SpMgAABAgQIECAQKbD8FM//fr7IVdUmQIAAAQIECBAg0Cnw/Xr9mWOPfudv53p/Tb9jvcg1ImqPrDmiVm+Nq/OvzGud0zL+zNgRY45qlPpL7euDLqIvqm7EXtUsv1/BJm8zi4vH4fKV5pgtaMxyhrV9Ot/j8/XRgr+itQYCBAgQIECAAIEZBATZGU7JHgkQIECAAAECBP4SEGT/ItFAgAABAgQIECAwg4AgO8Mp2SMBAgQIECBAgMBfAoLsXyQaCBAgQIAAAQIEZhAQZGc4JXskQIAAAQIECBD4S0CQ/YtEAwECBAgQIECAwAwCguwMp2SPBAgQIECAAAECfwkIsn+RaCBAgAABAgQIEJhBQJCd4ZTskQABAgQIECBA4C+B5acl//v5/hqqgQABAgQIECBAgMBzBL7T31F89Dt/R2/9jvUi14ioPbLmiFq9Na7OvzKvdU7L+DNjR4w5qlHqL7Wvj9mIvqi6EXtVs/x+BZu8zSwuHofLV5pjtpwyyxnW9ul8j8/XRwtGJ3P1CBAgQIAAAQIEbhEQZG9htggBAgQIECBAgMBoAUF2tKh6BAgQIECAAAECtwgIsrcwW4QAAQIECBAgQGC0gCA7WlQ9AgQIECBAgACBWwQE2VuYLUKAAAECBAgQIDBaQJAdLaoeAQIECBAgQIDALQKC7C3MFiFAgAABAgQIEBgt4Dd7jRZVjwABAgQIECBA4BYBv9mrk/noN3JcKT+y5ohavTWuzr8yr3VOy/gzY0eMOapR6i+1r/dgRF9U3Yi9qpn/7VXO8Pi3BuWew590PznD+c+wdj853+Pz9dGC3LOUNgIECBAgQIAAgccLCLKPPyIbJECAAAECBAgQyAkIsjkVbQQIECBAgAABAo8XEGQff0Q2SIAAAQIECBAgkBMQZHMq2ggQIECAAAECBB4vIMg+/ohskAABAgQIECBAICcgyOZUtBEgQIAAAQIECDxewC9EePwR2SABAgQIECBAgEBOwC9EyKk0tB19kXFDqX+Hjqw5olZvjavzr8xrndMy/szYEWOOapT6S+3rjRXRF1U3Yq9q+oUIuefiT7gvPA6PvzB/5rN3vsfn66MFuTtcGwECBAgQIECAwOMFBNnHH5ENEiBAgAABAgQI5AQE2ZyKNgIECBAgQIAAgccLCLKPPyIbJECAAAECBAgQyAkIsjkVbQQIECBAgAABAo8XEGQff0Q2SIAAAQIECBAgkBPwPbI5FW0ECBAgQIAAAQKPF/A9sp1HVPsewqulR9YcUau3xtX5V+a1zmkZf2bsiDFHNUr9pfb1Pozoi6obsVc1fY9s7vn4E+4Lj8Pj7xmd+eyd7/H5+mhB7g7XRoAAAQIECBAg8HgBQfbxR2SDBAgQIECAAAECOQFBNqeijQABAgQIECBA4PECguzjj8gGCRAgQIAAAQIEcgKCbE5FGwECBAgQIECAwOMFfP3W44/IBgkQIECAAAECBHICvn4rp9LQVvv6loYyfwwdWXNErd4aV+dfmdc6p2X8mbEjxhzVKPWX2teb62pfz9yra5qX/6qsCBfne/zVPrnn8YizuFrTGc5/hrWzd77H5+ujBblnKW0ECBAgQIAAAQKPFxBkH39ENkiAAAECBAgQIJATEGRzKtoIEHiLQO1/sdX63rJZixIgQIDA2wUE2bcfgQ0QeK/A6/X65zO0/hAgQIAAgdkEBNnZTsx+CUwu4J3VyQ/Q9gkQIPAgge/cOzG5tsg937Fe5BoRtUfWHFGrt8bV+Vfmtc5pGX9m7IgxRzVK/aX29fFb6zvqr8290ndlzrbH9R3k9M9aL9eejvN3AgQIEPgsgeXnyf+PV4W7XxDuWC9yjYjaI2uOqNVb4+r8K/Na57SMPzN2xJijGqX+Uvv6lFXrO+qvzb3Sd2XOfo/r/P2f7aMR+6eydMxnPW27GgIECBDYBL5RECBAYCaB9J3XLbTuw2tuTNq2XXNvsM7ZzVJz3fsse7XPv/9PhHv48+9fj9Hy/23bnhN8Rjb3KqSNAIGpBLaQuv67FFinuiCbJUCAAIFTAoLsKSaDCMwtsP3v91mvovZu3KzXZN8ECBAg0C8gyPYbqkCAwJsEBNw3wVuWAAECDxHwGdmHHIRtEPgUgf1nVff/vb++Uvs6ptaX1vAxgk+5a1wHAQIErgn4+q1rbn/MOvvC27LUyJojavXWuDr/yrzWOS3jz4wdMeaoRqk/bW8Neun87Z4tta/9ad+25tqeW7/UvtUqzSmts+1x+/hEbn7LY89YAgQIEJhHwNdvdZ5V7UX5aumRNUfU6q1xdf6Vea1zWsafGTtizFGNUn+ufW1r+ZMLgbm6W80rfaU5pfZ1rbQv/XtuP63X3uJkLAECBAg8Q8BHC55xDnZBIERgH0xL4W9duNYXsrHOorl3X7fguv17xLXXXD6h7+jsP+EaP/0anGH+//x8isunXEfk49APe3W+oJpO4NMFttDYep1X57Wusz5B7p8k13Vz7yy31jWeAAECBJ4vIMg+/4zskMBjBVrD6vZu6fbvKxe2Bdd17hZgBdcrkuYQIEBgfgEfLZj/DF0BgW6B3P+q7y66K7AF1/R/969DaiF0H3jTGvt3Ybeloq9jpIlaBAgQINAvIMj2G6pA4FcJ5N5NzbVtKLnAufZtATYXVre5+zG1wPurDsDFEiBAgMC/AuuPNJd/gTMoAgSmEygFvlKg3C4w158LqGn93Lx9zfW/0zkp6rZOaVxujVzbWndrz+09XdffCRAgQGBuge/0haP04hB1mXesF7lGRO2RNUfU6q1xdf6Vea1zWsafGTtizFGNUv/Wvv679Gfflz72tzmlMaV1a2sdvaO6rbWOq+07t8Y2Z7/G/hr211fb+2/uW71+8/V/wrU7Q99aUHsu/w19PlqQe4XURmBigbNPXLngWHth7yFJQ2fuxTc3prbmtv/t3/tAWzKo1dNHgAABAvMJCLLznZkdExgikIa9XLC9ulAuEO+Daq7/zFr7PbYG3zP1jSFAgACBuQQE2bnOy24JXBI4Co77/qOxtQ0cheEr4XOr2bOv2p71ESBAgMC8An5FbefZRby4jqw5olZvjavzr8xrndMy/szYEWOOapT6S+3rLV7ry/WXxq/ttT/7d3lzNba2XN9WN12j9pGBXJ19W1qrtnd9BAgQIDCfgHdk5zszOyYQLrC9c5pbKP1IwjomFyj3c7dAmZt7ZVxuX9s+9v+uheCtRm3vn953dHaffv2fcH3O0A97lZ5XP+H+PnMN39sLTO7FpPRiMbo9t4eZ1ojY/8iaI2r11rg6/8q81jkt48+MHTHmqMZR/6jHT/oE2bLuPgyndba+ffta+0zwTK9tv6dc3XS8vxMgQIDA5wj4+q3Os9y/+HaW+nf6yJojavXWuDr/yrzWOS3jz4wdMeaoRql/bV//Kf3Z+tJQWapXqnO2vbaXtcY+6G5/r9VOx+9rpNdUq6OPAAECBD5HwEcLPucsXQmB4i8e2IfVXMAcHWbTeunf16Pa7yMNouk7q7Wxjp0AAQIEfq+AH/bqPPvcC3RnycPPG7bUH7G/3hpX51+Z1zqnZfyZsSPGHNUo9Zfa1/vlTN86pvYnDZfp2P38NJim6+//nvZtdXP1cmNLben+/J0AAQIEPk/AO7Kfd6auiMAlgTPhcy1cC7xpjW0j+xCcBs9cQM6F2LVWbmxpT/u9pGvugX5z32ZXOrffbDPLtTtDP+z12x+/guz+Fc1/EyBQFCiFyP0Lae3Fv/aCu9XeFt+emGuhuRR2t3WKF6KDAAECBD5G4D8fcyUuhACBcIE0cKYLlvq3gFvq3+qs/aV3F9YxW3jd1zuqme7R3wkQIEDgcwQE2c85S1dC4C0C6buwabA807+NSd+B3Wqt7fs6tbD7FgSLEiBAgMBbBNaf7ni9ZWWLEiDwGIFcMEwD6LbZNGyu7aX5tb4tpO7npmtua6X1S+MeA2ojBAgQIHCLgG8t6GROX1A7y/0zfWTNEbV6a1ydf2Ve65yW8WfGjhhzVKPUX2qv3VPbnPXfLX/OBMtcUN3W2NZL62x73cZt/em1pfvN1Wm5HmMJECBAYE4BP+w157nZNYGhArkgmIbHbcE0RO43kgbUXJjd103XSOenF7lfO7fndLy/EyBAgMBnCwiyn32+ro7ALQK5wLotvPXt/572pfPTgLuOz7XdcnEWIUCAAIHHCgiyjz0aGyMwh8D+XdSjsJl7FzUNsetV18LvHCp2SYAAAQJ3CAiydyhbg8AHCdRCZhpK048KpEF3/1GBHFEu+ObGaSNAgACB3ykgyP7Oc3fVBP4QKAXKUvs6uRQy90E3HbMPurlQW5vryAgQIECAQCrg67dSEX8n8AsF0sC5EqRBc2PZ2tN3W/f923/n6p6p/QuPwCUTIECAwAWB7/SFpvTidaH2qSl3rBe5RkTtkTVH1OqtcXX+lXmtc1rGnxk7YsxRjVJ/qX19IJb6Su1nHrzbc8e+Rlov9/e19v6d2W2tdOyZPRhDgAABAr9bwEcLfvf5u3oC3QJnPw6QBtXaxwy6N6UAAQIECPwKAb+i9lccs4skMEYgDaP7qvtAu7VvbaV5uXdmx+xUFQIECBD4DQLekf0Np+waCXQIrCF0+5N793UfUnNhdpubC7O5to6tmkqAAAECv0xAkP1lB+5yCewFasFzHZcLmuucrW/99/b3tO72932NLRR7J3av5b8JECBA4KqAIHtVzjwCDxbYv4u6bTPXtvWlYXQLn7U569z0Hdpc8N0z7UNwuuaDOW2NAAECBB4q4Ou3HnowtkWgRyAXEkshM9e+b9vC7L5mac5+z6V3XXNze67VXAIECBD4vQK+fqvz7CNelEfWHFGrt8bV+Vfmtc5pGX9m7IgxRzVK/aX2zlv8348OrPW3P7mgvPalYXdti9pX73WZT4AAAQLzC/howfxn6AoI3CKw/1jAFmqPPiqw7982WQrBt1yERQgQIEDgowQE2Y86ThdD4JrA2XdN03H7d2lrK+cCbW28PgIECBAgcEZAkD2jZAyBDxBIP7Oae1d1u8yz75puNdd5aahNa6Qh+ANIXQIBAgQIvFlAkH3zAViewDsEcqFy/65pLpTm5mx7z4XWXI13XKs1CRAgQOBzBQTZzz1bV0bgX4F9qKwF0m1CLpiufWfm5mqkodbRECBAgACBEQK+fmuEohoEHi6Q+4xqGlbXS6gF1a0vDaVpnVyNXNvDyWyPAAECBCYQ8PVbnYcU8QI9suaIWr01rs6/Mq91Tsv4M2NHjDmqUeovtae3+NlQu5+3r70Prmv7+k/tz9l91WroI0CAAAECOQEfLcipaCPwCwTSQHr1knN1jsLt1bXMI0CAAAECewFB1v1AgMC/v2p2DaVpCE0/OrBxld5pTYNtaT52AgQIECDQKyDI9gqaT+DDBNLguQXbfcBNx3wYgcshQIAAgUkEBNlJDso2CfQKlN5BPVM3Da65cHumjjEECBAgQGCkgCA7UlMtAr9IQLj9RYftUgkQIPBQAV+/9dCDsS0C0QJnP8uaeyf3TFtuTPQ1qU+AAAECv0vA1291nnfEi/XImiNq9da4Ov/KvNY5LePPjB0x5qhGqb/Uvt3iaf/69/2f9O/pO66dDxXTCRAgQIDAcAEfLRhOqiCBOQSO3pHdB9s05K5XuLUJvHOct10SIEDgEwUE2U88VddEYIDAGlDTd3G3svv2o8A7YCtKECBAgACBrIAgm2XRSIDAWYFS4M29i3u2pnEECBAgQOCMwH/ODDKGAAECm0DpXVpCBAgQIEDgbgFB9m5x6xEgQIAAAQIECAwR8PVbQxgVIUAgJ+AHwXIq2ggQIEBglICv3+qUjPjfrCNrjqjVW+Pq/CvzWue0jD8zdsSYoxql/lL7dovX+kt9ufaWts6Hl+kECBAgQKAq4KMFVR6dBAgQIECAAAECTxUQZJ96MvZFgAABAgQIECBQFfAZ2SqPTgIEegR8RrZHz1wCBAgQOBLwGdkjoYP+3OcFD6Ycdo+sOaJWb42r86/Ma53TMv7M2BFjjmqU+kvt2w1X6y/15dpb2g5vdgMIECBAgECHgI8WdOCZSoAAAQIECBAg8D4BQfZ99lYmQIAAAQIECBDoEBBkO/BMJUCAAAECBAgQeJ+AH/Z6n72VCXy8gB/2+vgjdoEECBB4q4Af9urkz/3gS2fJr5E1R9TqrXF1/pV5rXNaxp8ZO2LMUY1Sf6l9ux9r/aW+XHtLW+9jwXwCBAgQIFAT8NGCmo4+AgQIECBAgACBxwoIso89GhsjQIAAAQIECBCoCQiyNR19BAgQIECAAAECjxXww16PPRobIzC/gB/2mv8MXQEBAgSeLOCHvTpPJ/eDL50l/bC68XCBAAATbElEQVTX/wGv2LbOaRl/ZuyIMUc1Sv2l9u1+rPWX+nLtLW29jwXzCRAgQIBATcBHC2o6+ggQIECAAAECBB4rIMg+9mhsjAABAgQIECBAoCYgyNZ09BEgQIAAAQIECDxWQJB97NHYGAECBAgQIECAQE3AtxbUdPQRINAl4FsLuvhMJkCAAIEDAd9acAB01J37Ce6jOUf9I2uOqNVb4+r8K/Na57SMPzN2xJijGqX+Uvt2v9X6S3259pa2o3tdPwECBAgQ6BHw0YIePXMJECBAgAABAgTeJiDIvo3ewgQIECBAgAABAj0CgmyPnrkECBAgQIAAAQJvExBk30ZvYQIECBAgQIAAgR4BQbZHz1wCBAgQIECAAIG3Cfj6rbfRW5jA5wv4+q3PP2NXSIAAgXcK+PqtTv3cVxF1lvwaWXNErd4aV+dfmdc6p2X8mbEjxhzVKPWX2rf7sdZf6su1t7T1PhbMJ0CAAAECNQEfLajp6CNAgAABAgQIEHisgCD72KOxMQIECBAgQIAAgZqAIFvT0UeAAAECBAgQIPBYAUH2sUdjYwQIECBAgAABAjUBQbamo48AAQIECBAgQOCxAr5+67FHY2ME5hfw9Vvzn6ErIECAwJMFfP1W5+nkvoqos6Sv3/o/4BXb1jkt48+MHTHmqEapv9S+3Y+1/lJfrr2lrfexYD4BAgQIEKgJ+GhBTUcfAQIECBAgQIDAYwUE2ccejY0RIECAAAECBAjUBATZmo4+AgQIECBAgACBxwoIso89GhsjQIAAAQIECBCoCQiyNR19BAgQIECAAAECjxUQZB97NDZGgAABAgQIECBQE/A9sjUdfQQIdAn4HtkuPpMJECBA4EDA98geAB11575T82jOUf/ImiNq9da4Ov/KvNY5LePPjB0x5qhGqb/Uvt1vtf5SX669pe3oXtdPgAABAgR6BHy0oEfPXAIECBAgQIAAgbcJCLJvo7cwAQIECBAgQIBAj4Ag26NnLgECBAgQIECAwNsEBNm30VuYAAECBAgQIECgR0CQ7dEzlwABAgQIECBA4G0Cguzb6C1MgAABAgQIECDQIyDI9uiZS4AAAQIECBAg8DYBvxDhbfQWJvD5An4hwuefsSskQIDAOwX8QoRO/dyXw3eW/BpZc0St3hpX51+Z1zqnZfyZsSPGHNUo9Zfat/ux1l/qy7W3tPU+FswnQIAAAQI1AR8tqOnoI0CAAAECBAgQeKyAIPvYo7ExAgQIECBAgACBmoAgW9PRR4AAAQIECBAg8FgBQfaxR2NjBAgQIECAAAECNQFBtqajjwABAgQIECBA4LECguxjj8bGCBAgQIAAAQIEagKCbE1HHwECBAgQIECAwGMFBNnHHo2NESBAgAABAgQI1AT8Zq+ajj4CBLoE/GavLj6TCRAgQOBAwG/2OgA66s79lqOjOUf9I2uOqNVb4+r8K/Na57SMPzN2xJijGqX+Uvt2v9X6S3259pa2o3tdPwECBAgQ6BHw0YIePXMJECBAgAABAgTeJiDIvo3ewgQIECBAgAABAj0CgmyPnrkECBAgQIAAAQJvExBk30ZvYQIECBAgQIAAgR4BQbZHz1wCBAgQIECAAIG3CQiyb6O3MAECBAgQIECAQI+AINujZy4BAgQIECBAgMDbBATZt9FbmAABAgQIECBAoEdAkO3RM5cAAQIECBAgQOBtAn5F7dvoLUzg8wX8itrPP2NXSIAAgXcK+BW1nfq5X9fZWfJrZM0RtXprXJ1/ZV7rnJbxZ8aOGHNUo9Rfat/ux1p/qS/X3tLW+1gwnwABAgQI1AR8tKCmo48AAQIECBAgQOCxAoLsY4/GxggQIECAAAECBGoCgmxNRx8BAgQIECBAgMBjBQTZxx6NjREgQIAAAQIECNQEBNmajj4CBAgQIECAAIHHCgiyjz0aGyNAgAABAgQIEKgJCLI1HX0ECBAgQIAAAQKPFRBkH3s0NkaAAAECBAgQIFATEGRrOvoIECBAgAABAgQeKyDIPvZobIwAAQIECBAgQKAmsPx0vmoD9BEgQOCqwOvl6eWqnXkECBAgcCzwnb7Q5H6P+nGZ6yPuWC9yjYjaI2uOqNVb4+r8K/Na57SMPzN2xJijGqX+Uvv26Kz1l/py7S1t158ZzCRAgAABAscCPlpwbGQEAQIECBAgQIDAAwUE2Qceii0RIECAAAECBAgcCwiyx0ZGECBAgAABAgQIPFBAkH3godgSAQIECBAgQIDAsYAge2xkBAECBAgQIECAwAMFBNkHHootESBAgAABAgQIHAsIssdGRhAgQIAAAQIECDxQQJB94KHYEgECBAgQIECAwLGAIHtsZAQBAgQIECBAgMADBQTZBx6KLREgQIAAAQIECBwLCLLHRkYQIECAAAECBAg8UECQfeCh2BIBAgQIECBAgMCxwPIz5HU8zAgCBAi0C7xenl7a1cwgQIAAgbMC3+kLzbIsX2nb2WJXxt2xXuQaEbVH1hxRq7fG1flX5rXOaRl/ZuyIMUc1Sv2l9u1xWesv9eXaW9quPCeYQ4AAAQIEzgr4aMFZKeMIECBAgAABAgQeJSDIPuo4bIYAAQIECBAgQOCsgCB7Vso4AgQIECBAgACBRwkIso86DpshQIAAAQIECBA4KyDInpUyjgABAgQIECBA4FECguyjjsNmCBAgQIAAAQIEzgoIsmeljCNAgAABAgQIEHiUgCD7qOOwGQIECBAgQIAAgbMCguxZKeMIECBAgAABAgQeJSDIPuo4bIYAAQIECBAgQOCsgCB7Vso4AgQIECBAgACBRwkIso86DpshQIAAAQIECBA4KyDInpUyjgABAgQIECBA4FECy89uXo/akc0QIPAxAq+Xp5ePOUwXQoAAgQcKfKcvNMuyfKVtkfu+Y73INSJqj6w5olZvjavzr8xrndMy/szYEWOOapT6S+3b47fWX+rLtbe0RT53qE2AAAECBHy0wD1AgAABAgQIECAwpYAgO+Wx2TQBAgQIECBAgIAg6x4gQIAAAQIECBCYUkCQnfLYbJoAAQIECBAgQECQdQ8QIECAAAECBAhMKSDITnlsNk2AAAECBAgQICDIugcIECBAgAABAgSmFBBkpzw2myZAgAABAgQIEBBk3QMECBAgQIAAAQJTCgiyUx6bTRMgQIAAAQIECAiy7gECBAgQIECAAIEpBQTZKY/NpgkQIECAAAECBARZ9wABAgQIECBAgMCUAoLslMdm0wQIECBAgAABAoKse4AAAQIECBAgQGBKgeVn168pd27TBAg8XuD18vTy+EOyQQIECEws8J2+0CzL8pW2RV7fHetFrhFRe2TNEbV6a1ydf2Ve65yW8WfGjhhzVKPUX2rfHr+1/lJfrr2lLfK5Q20CBAgQIOCjBe4BAgQIECBAgACBKQUE2SmPzaYJECBAgAABAgQEWfcAAQIECBAgQIDAlAKC7JTHZtMECBAgQIAAAQKCrHuAAAECBAgQIEBgSgFBdspjs2kCBAgQIECAAAFB1j1AgAABAgQIECAwpYAgO+Wx2TQBAgQIECBAgIAg6x4gQIAAAQIECBCYUkCQnfLYbJoAAQIECBAgQECQdQ8QIECAAAECBAhMKSDITnlsNk2AAAECBAgQICDIugcIECBAgAABAgSmFBBkpzw2myZAgAABAgQIEBBk3QMECBAgQIAAAQJTCgiyUx6bTRMgQIAAAQIECAiy7gECBAgQIECAAIEpBZafXb+m3LlNEyDweIHXy9PL4w/JBgkQIDCxwHf6QrMsy1faFnl9d6wXuUZE7ZE1R9TqrXF1/pV5rXNaxp8ZO2LMUY1Sf6l9e/zW+kt9ufaWtsjnDrUJECBAgICPFrgHCBAgQIAAAQIEphQQZKc8NpsmQIAAAQIECBAQZN0DBAgQIECAAAECUwoIslMem00TIECAAAECBAgIsu4BAgQIECBAgACBKQUE2SmPzaYJECBAgAABAgQEWfcAAQIECBAgQIDAlAKC7JTHZtMECBAgQIAAAQKCrHuAAAECBAgQIEBgSgFBdspjs2kCBAgQIECAAAFB1j1AgAABAgQIECAwpYAgO+Wx2TQBAgQIECBAgIAg6x4gQIAAAQIECBCYUkCQnfLYbJoAAQIECBAgQECQdQ8QIECAAAECBAhMKSDITnlsNk2AAAECBAgQICDIugcIECBAgAABAgSmFBBkpzw2myZAgAABAgQIEFh+CF4YCBAgECHwenl6iXBVkwABAgT+J/CdvtAsy/KVtkVi3bFe5BoRtUfWHFGrt8bV+Vfmtc5pGX9m7IgxRzVK/aX27fFb6y/15dpb2iKfO9QmQIAAAQI+WuAeIECAAAECBAgQmFJAkJ3y2GyaAAECBAgQIEBAkHUPECBAgAABAgQITCkgyE55bDZNgAABAgQIECAgyLoHCBAgQIAAAQIEphQQZKc8NpsmQIAAAQIECBAQZN0DBAgQIECAAAECUwoIslMem00TIECAAAECBAgIsu4BAgQIECBAgACBKQUE2SmPzaYJECBAgAABAgQEWfcAAQIECBAgQIDAlAKC7JTHZtMECBAgQIAAAQKCrHuAAAECBAgQIEBgSgFBdspjs2kCBAgQIECAAAFB1j1AgAABAgQIECAwpYAgO+Wx2TQBAgQIECBAgIAg6x4gQIAAAQIECBCYUkCQnfLYbJoAAQIECBAgQECQdQ8QIECAAAECBAhMKSDITnlsNk2AAAECBAgQICDIugcIECBAgAABAgSmFBBkpzw2myZAgAABAgQIEFh+CF4YCBAgECHwenl6iXBVkwABAgT+J/CdvtAsy/KVtkVi3bFe5BoRtUfWHFGrt8bV+Vfmtc5pGX9m7IgxRzVK/aX27fFb6y/15dpb2iKfO9QmQIAAAQI+WuAeIECAAAECBAgQmFJAkJ3y2GyaAAECBAgQIEBAkHUPECBAgAABAgQITCkgyE55bDZNgAABAgQIECAgyLoHCBAgQIAAAQIEphQQZKc8NpsmQIAAAQIECBAQZN0DBAgQIECAAAECUwoIslMem00TIECAAAECBAgIsu4BAgQIECBAgACBKQUE2SmPzaYJECBAgAABAgQEWfcAAQIECBAgQIDAlAKC7JTHZtMECBAgQIAAAQKCrHuAAAECBAgQIEBgSgFBdspjs2kCBAgQIECAAAFB1j1AgAABAgQIECAwpYAgO+Wx2TQBAgQIECBAgIAg6x4gQIAAAQIECBCYUkCQnfLYbJoAAQIECBAgQECQdQ8QIECAAAECBAhMKSDITnlsNk2AAAECBAgQICDIugcIECBAgAABAgSmFBBkpzw2myZAgAABAgQIEBBk3QMECBAgQIAAAQJTCiw/u35NuXObJkDg8QKvl6eXxx+SDRIgQGBige/0hWZZlq+0LfL67lgvco2I2iNrjqjVW+Pq/CvzWue0jD8zdsSYoxql/lL79vit9Zf6cu0tbZHPHWoTIECAAAEfLXAPECBAgAABAgQITCkgyE55bDZNgAABAgQIECAgyLoHCBAgQIAAAQIEphQQZKc8NpsmQIAAAQIECBAQZN0DBAgQIECAAAECUwoIslMem00TIECAAAECBAgIsu4BAgQIECBAgACBKQUE2SmPzaYJECBAgAABAgQEWfcAAQIECBAgQIDAlAKC7JTHZtMECBAgQIAAAQKCrHuAAAECBAgQIEBgSgFBdspjs2kCBAgQIECAAAFB1j1AgAABAgQIECAwpYAgO+Wx2TQBAgQIECBAgIAg6x4gQIAAAQIECBCYUkCQnfLYbJoAAQIECBAgQECQdQ8QIECAAAECBAhMKSDITnlsNk2AAAECBAgQICDIugcIECBAgAABAgSmFBBkpzw2myZAgAABAgQIEBBk3QMECBAgQIAAAQJTCgiyUx6bTRMgQIAAAQIECAiy7gECBAgQIECAAIEpBQTZKY/NpgkQIECAAAECBARZ9wABAgQIECBAgMCUAoLslMdm0wQIECBAgAABAoKse4AAAQIECBAgQGBKgeVn168pd27TBAg8XuD18vTy+EOyQQIECEws8J2+0CzL8pW2RV7fHetFrhFRe2TNEbV6a1ydf2Ve65yW8WfGjhhzVKPUX2rfHr+1/lJfrr2lLfK5Q20CBAgQIOCjBe4BAgQIECBAgACBKQUE2SmPzaYJECBAgAABAgQEWfcAAQIECBAgQIDAlAKC7JTHZtMECBAgQIAAAQKCrHuAAAECBAgQIEBgSgFBdspjs2kCBAgQIECAAAFB1j1AgAABAgQIECAwpYAgO+Wx2TQBAgQIECBAgIAg6x4gQIAAAQIECBCYUkCQnfLYbJoAAQIECBAgQECQdQ8QIECAAAECBAhMKSDITnlsNk2AAAECBAgQICDIugcIECBAgAABAgSmFBBkpzw2myZAgAABAgQIEBBk3QMECBAgQIAAAQJTCgiyUx6bTRMgQIAAAQIECAiy7gECBAgQIECAAIEpBQTZKY/NpgkQIECAAAECBARZ9wABAgQIECBAgMCUAoLslMdm0wQIECBAgAABAoKse4AAAQIECBAgQGBKAUF2ymOzaQIECBAgQIAAAUHWPUCAAAECBAgQIDClgCA75bHZNAECBAgQIECAgCDrHiBAgAABAgQIEJhSQJCd8thsmgABAgQIECBA4L95MBZyNFb1pQAAAABJRU5ErkJggg==;" parent="1" vertex="1">
          <mxGeometry x="513.92" y="384" width="282.28" height="231.96" as="geometry" />
        </mxCell>
        <mxCell id="wLlQRmRSQfqe1XnFVE53-4" value="&lt;div style=&quot;font-size: 20px;&quot;&gt;Frontal Delaunay &lt;br style=&quot;font-size: 20px;&quot;&gt;&lt;/div&gt;&lt;div style=&quot;font-size: 20px;&quot;&gt;for quads&lt;br style=&quot;font-size: 20px;&quot;&gt;&lt;/div&gt;" style="text;html=1;align=center;verticalAlign=middle;whiteSpace=wrap;rounded=0;fontFamily=Roman;fontSource=https%3A%2F%2Ffonts.googleapis.com%2Fcss%3Ffamily%3DRoman;fontSize=20;" parent="1" vertex="1">
          <mxGeometry x="623.92" y="520" width="190" height="30" as="geometry" />
        </mxCell>
        <mxCell id="wLlQRmRSQfqe1XnFVE53-5" value="" style="endArrow=classic;html=1;rounded=0;exitX=0.232;exitY=0.033;exitDx=0;exitDy=0;exitPerimeter=0;" parent="1" source="wLlQRmRSQfqe1XnFVE53-4" edge="1">
          <mxGeometry width="50" height="50" relative="1" as="geometry">
            <mxPoint x="563.92" y="485.04" as="sourcePoint" />
            <mxPoint x="635" y="497" as="targetPoint" />
          </mxGeometry>
        </mxCell>
      </root>
    </mxGraphModel>
  </diagram>
</mxfile>
